%TF.GenerationSoftware,KiCad,Pcbnew,8.0.6*%
%TF.CreationDate,2024-11-25T13:49:05+01:00*%
%TF.ProjectId,esp32_POE,65737033-325f-4504-9f45-2e6b69636164,rev?*%
%TF.SameCoordinates,Original*%
%TF.FileFunction,Paste,Bot*%
%TF.FilePolarity,Positive*%
%FSLAX46Y46*%
G04 Gerber Fmt 4.6, Leading zero omitted, Abs format (unit mm)*
G04 Created by KiCad (PCBNEW 8.0.6) date 2024-11-25 13:49:05*
%MOMM*%
%LPD*%
G01*
G04 APERTURE LIST*
G04 Aperture macros list*
%AMRoundRect*
0 Rectangle with rounded corners*
0 $1 Rounding radius*
0 $2 $3 $4 $5 $6 $7 $8 $9 X,Y pos of 4 corners*
0 Add a 4 corners polygon primitive as box body*
4,1,4,$2,$3,$4,$5,$6,$7,$8,$9,$2,$3,0*
0 Add four circle primitives for the rounded corners*
1,1,$1+$1,$2,$3*
1,1,$1+$1,$4,$5*
1,1,$1+$1,$6,$7*
1,1,$1+$1,$8,$9*
0 Add four rect primitives between the rounded corners*
20,1,$1+$1,$2,$3,$4,$5,0*
20,1,$1+$1,$4,$5,$6,$7,0*
20,1,$1+$1,$6,$7,$8,$9,0*
20,1,$1+$1,$8,$9,$2,$3,0*%
%AMFreePoly0*
4,1,19,0.216293,0.240836,0.256593,0.185367,0.262023,0.151086,0.262023,-0.059182,0.240836,-0.124389,0.229530,-0.137626,0.137626,-0.229530,0.076536,-0.260657,0.059182,-0.262023,-0.151086,-0.262023,-0.216293,-0.240836,-0.256593,-0.185367,-0.262023,-0.151086,-0.262023,0.151086,-0.240836,0.216293,-0.185367,0.256593,-0.151086,0.262023,0.151086,0.262023,0.216293,0.240836,0.216293,0.240836,
$1*%
%AMFreePoly1*
4,1,21,0.158921,0.382768,0.164515,0.377643,0.236554,0.305603,0.261692,0.251692,0.262023,0.244114,0.262023,-0.244114,0.241678,-0.300010,0.236554,-0.305603,0.164515,-0.377643,0.110605,-0.402782,0.103025,-0.403113,-0.175064,-0.403113,-0.230960,-0.382768,-0.260702,-0.331254,-0.262023,-0.316154,-0.262023,0.316154,-0.241678,0.372050,-0.190164,0.401792,-0.175064,0.403113,0.103025,0.403113,
0.158921,0.382768,0.158921,0.382768,$1*%
%AMFreePoly2*
4,1,19,0.124389,0.240836,0.137626,0.229530,0.229530,0.137626,0.260657,0.076536,0.262023,0.059182,0.262023,-0.151086,0.240836,-0.216293,0.185367,-0.256593,0.151086,-0.262023,-0.151086,-0.262023,-0.216293,-0.240836,-0.256593,-0.185367,-0.262023,-0.151086,-0.262023,0.151086,-0.240836,0.216293,-0.185367,0.256593,-0.151086,0.262023,0.059182,0.262023,0.124389,0.240836,0.124389,0.240836,
$1*%
%AMFreePoly3*
4,1,21,0.372050,0.241678,0.401792,0.190164,0.403113,0.175064,0.403113,-0.103025,0.382768,-0.158921,0.377643,-0.164515,0.305603,-0.236554,0.251692,-0.261692,0.244114,-0.262023,-0.244114,-0.262023,-0.300010,-0.241678,-0.305603,-0.236554,-0.377643,-0.164515,-0.402782,-0.110605,-0.403113,-0.103025,-0.403113,0.175064,-0.382768,0.230960,-0.331254,0.260702,-0.316154,0.262023,0.316154,0.262023,
0.372050,0.241678,0.372050,0.241678,$1*%
%AMFreePoly4*
4,1,21,0.300010,0.241678,0.305603,0.236554,0.377643,0.164515,0.402782,0.110605,0.403113,0.103025,0.403113,-0.175064,0.382768,-0.230960,0.331254,-0.260702,0.316154,-0.262023,-0.316154,-0.262023,-0.372050,-0.241678,-0.401792,-0.190164,-0.403113,-0.175064,-0.403113,0.103025,-0.382768,0.158921,-0.377643,0.164515,-0.305603,0.236554,-0.251692,0.261692,-0.244114,0.262023,0.244114,0.262023,
0.300010,0.241678,0.300010,0.241678,$1*%
%AMFreePoly5*
4,1,19,0.216293,0.240836,0.256593,0.185367,0.262023,0.151086,0.262023,-0.151086,0.240836,-0.216293,0.185367,-0.256593,0.151086,-0.262023,-0.059182,-0.262023,-0.124389,-0.240836,-0.137626,-0.229530,-0.229530,-0.137626,-0.260657,-0.076536,-0.262023,-0.059182,-0.262023,0.151086,-0.240836,0.216293,-0.185367,0.256593,-0.151086,0.262023,0.151086,0.262023,0.216293,0.240836,0.216293,0.240836,
$1*%
%AMFreePoly6*
4,1,21,0.230960,0.382768,0.260702,0.331254,0.262023,0.316154,0.262023,-0.316154,0.241678,-0.372050,0.190164,-0.401792,0.175064,-0.403113,-0.103025,-0.403113,-0.158921,-0.382768,-0.164515,-0.377643,-0.236554,-0.305603,-0.261692,-0.251692,-0.262023,-0.244114,-0.262023,0.244114,-0.241678,0.300010,-0.236554,0.305603,-0.164515,0.377643,-0.110605,0.402782,-0.103025,0.403113,0.175064,0.403113,
0.230960,0.382768,0.230960,0.382768,$1*%
%AMFreePoly7*
4,1,19,0.216293,0.240836,0.256593,0.185367,0.262023,0.151086,0.262023,-0.151086,0.240836,-0.216293,0.185367,-0.256593,0.151086,-0.262023,-0.151086,-0.262023,-0.216293,-0.240836,-0.256593,-0.185367,-0.262023,-0.151086,-0.262023,0.059182,-0.240836,0.124389,-0.229530,0.137626,-0.137626,0.229530,-0.076536,0.260657,-0.059182,0.262023,0.151086,0.262023,0.216293,0.240836,0.216293,0.240836,
$1*%
G04 Aperture macros list end*
%ADD10RoundRect,0.237500X0.237500X-0.250000X0.237500X0.250000X-0.237500X0.250000X-0.237500X-0.250000X0*%
%ADD11FreePoly0,270.000000*%
%ADD12FreePoly1,270.000000*%
%ADD13FreePoly2,270.000000*%
%ADD14FreePoly3,270.000000*%
%ADD15RoundRect,0.201557X-0.201556X0.201556X-0.201556X-0.201556X0.201556X-0.201556X0.201556X0.201556X0*%
%ADD16FreePoly4,270.000000*%
%ADD17FreePoly5,270.000000*%
%ADD18FreePoly6,270.000000*%
%ADD19FreePoly7,270.000000*%
%ADD20RoundRect,0.062500X-0.062500X0.375000X-0.062500X-0.375000X0.062500X-0.375000X0.062500X0.375000X0*%
%ADD21RoundRect,0.062500X-0.375000X0.062500X-0.375000X-0.062500X0.375000X-0.062500X0.375000X0.062500X0*%
%ADD22RoundRect,0.237500X-0.237500X0.250000X-0.237500X-0.250000X0.237500X-0.250000X0.237500X0.250000X0*%
%ADD23RoundRect,0.237500X-0.237500X0.300000X-0.237500X-0.300000X0.237500X-0.300000X0.237500X0.300000X0*%
%ADD24RoundRect,0.237500X-0.250000X-0.237500X0.250000X-0.237500X0.250000X0.237500X-0.250000X0.237500X0*%
%ADD25RoundRect,0.237500X0.237500X-0.300000X0.237500X0.300000X-0.237500X0.300000X-0.237500X-0.300000X0*%
G04 APERTURE END LIST*
D10*
%TO.C,R8*%
X237775000Y-123262500D03*
X237775000Y-121437500D03*
%TD*%
D11*
%TO.C,U4*%
X239550000Y-127275000D03*
D12*
X238725000Y-127275000D03*
X237725000Y-127275000D03*
D13*
X236900000Y-127275000D03*
D14*
X239550000Y-128100000D03*
D15*
X238725000Y-128100000D03*
X237725000Y-128100000D03*
D16*
X236900000Y-128100000D03*
D14*
X239550000Y-129100000D03*
D15*
X238725000Y-129100000D03*
X237725000Y-129100000D03*
D16*
X236900000Y-129100000D03*
D17*
X239550000Y-129925000D03*
D18*
X238725000Y-129925000D03*
X237725000Y-129925000D03*
D19*
X236900000Y-129925000D03*
D20*
X236475000Y-126162500D03*
X236975000Y-126162500D03*
X237475000Y-126162500D03*
X237975000Y-126162500D03*
X238475000Y-126162500D03*
X238975000Y-126162500D03*
X239475000Y-126162500D03*
X239975000Y-126162500D03*
D21*
X240662500Y-126850000D03*
X240662500Y-127350000D03*
X240662500Y-127850000D03*
X240662500Y-128350000D03*
X240662500Y-128850000D03*
X240662500Y-129350000D03*
X240662500Y-129850000D03*
X240662500Y-130350000D03*
D20*
X239975000Y-131037500D03*
X239475000Y-131037500D03*
X238975000Y-131037500D03*
X238475000Y-131037500D03*
X237975000Y-131037500D03*
X237475000Y-131037500D03*
X236975000Y-131037500D03*
X236475000Y-131037500D03*
D21*
X235787500Y-130350000D03*
X235787500Y-129850000D03*
X235787500Y-129350000D03*
X235787500Y-128850000D03*
X235787500Y-128350000D03*
X235787500Y-127850000D03*
X235787500Y-127350000D03*
X235787500Y-126850000D03*
%TD*%
D22*
%TO.C,R14*%
X250575000Y-122700000D03*
X250575000Y-124525000D03*
%TD*%
D23*
%TO.C,C4*%
X263485000Y-124887500D03*
X263485000Y-126612500D03*
%TD*%
D22*
%TO.C,R6*%
X239375000Y-121437500D03*
X239375000Y-123262500D03*
%TD*%
D23*
%TO.C,C12*%
X235975000Y-122625000D03*
X235975000Y-124350000D03*
%TD*%
%TO.C,C3*%
X261375000Y-124887500D03*
X261375000Y-126612500D03*
%TD*%
D22*
%TO.C,R20*%
X254175000Y-122700000D03*
X254175000Y-124525000D03*
%TD*%
D24*
%TO.C,R7*%
X240662500Y-132950000D03*
X242487500Y-132950000D03*
%TD*%
D25*
%TO.C,C7*%
X241375000Y-124212500D03*
X241375000Y-122487500D03*
%TD*%
D23*
%TO.C,C9*%
X234175000Y-129887500D03*
X234175000Y-131612500D03*
%TD*%
D22*
%TO.C,R19*%
X252375000Y-122700000D03*
X252375000Y-124525000D03*
%TD*%
M02*
