%TF.GenerationSoftware,KiCad,Pcbnew,8.0.6*%
%TF.CreationDate,2024-11-25T13:49:05+01:00*%
%TF.ProjectId,esp32_POE,65737033-325f-4504-9f45-2e6b69636164,rev?*%
%TF.SameCoordinates,Original*%
%TF.FileFunction,Legend,Top*%
%TF.FilePolarity,Positive*%
%FSLAX46Y46*%
G04 Gerber Fmt 4.6, Leading zero omitted, Abs format (unit mm)*
G04 Created by KiCad (PCBNEW 8.0.6) date 2024-11-25 13:49:05*
%MOMM*%
%LPD*%
G01*
G04 APERTURE LIST*
%ADD10C,0.100000*%
%ADD11C,0.150000*%
%ADD12C,0.254000*%
%ADD13C,0.120000*%
%ADD14C,0.200000*%
G04 APERTURE END LIST*
D10*
G36*
X228971372Y-124351493D02*
G01*
X229007516Y-124387638D01*
X229046228Y-124465061D01*
X229046228Y-124784210D01*
X228622419Y-124784210D01*
X228622419Y-124465061D01*
X228661130Y-124387637D01*
X228697275Y-124351493D01*
X228774699Y-124312782D01*
X228893949Y-124312782D01*
X228971372Y-124351493D01*
G37*
G36*
X229970675Y-127896277D02*
G01*
X228364640Y-127896277D01*
X228364640Y-127167544D01*
X228522419Y-127167544D01*
X228522419Y-127738972D01*
X228526225Y-127758106D01*
X228553285Y-127785166D01*
X228591553Y-127785166D01*
X228618613Y-127758106D01*
X228622419Y-127738972D01*
X228622419Y-127503258D01*
X229572419Y-127503258D01*
X229591553Y-127499452D01*
X229618613Y-127472392D01*
X229618613Y-127434124D01*
X229591553Y-127407064D01*
X229572419Y-127403258D01*
X228622419Y-127403258D01*
X228622419Y-127167544D01*
X228618613Y-127148410D01*
X228591553Y-127121350D01*
X228553285Y-127121350D01*
X228526225Y-127148410D01*
X228522419Y-127167544D01*
X228364640Y-127167544D01*
X228364640Y-126253079D01*
X228523370Y-126253079D01*
X228530875Y-126290604D01*
X228544684Y-126304385D01*
X228982280Y-126596115D01*
X228544684Y-126887845D01*
X228530875Y-126901626D01*
X228523370Y-126939151D01*
X228544597Y-126970992D01*
X228582122Y-126978497D01*
X228600154Y-126971051D01*
X229072419Y-126656207D01*
X229544684Y-126971050D01*
X229562716Y-126978497D01*
X229600241Y-126970992D01*
X229621468Y-126939151D01*
X229613963Y-126901626D01*
X229600154Y-126887845D01*
X229162558Y-126596115D01*
X229600154Y-126304385D01*
X229613963Y-126290604D01*
X229621468Y-126253079D01*
X229600241Y-126221238D01*
X229562716Y-126213733D01*
X229544684Y-126221180D01*
X229072419Y-126536022D01*
X228600154Y-126221179D01*
X228582122Y-126213733D01*
X228544597Y-126221238D01*
X228523370Y-126253079D01*
X228364640Y-126253079D01*
X228364640Y-125157841D01*
X228475751Y-125157841D01*
X228483256Y-125195366D01*
X228497065Y-125209147D01*
X229782779Y-126066289D01*
X229800811Y-126073736D01*
X229838336Y-126066231D01*
X229859564Y-126034390D01*
X229852059Y-125996864D01*
X229838249Y-125983084D01*
X228552535Y-125125941D01*
X228534503Y-125118495D01*
X228496978Y-125126000D01*
X228475751Y-125157841D01*
X228364640Y-125157841D01*
X228364640Y-124453258D01*
X228522419Y-124453258D01*
X228522419Y-124834210D01*
X228526225Y-124853344D01*
X228553285Y-124880404D01*
X228572419Y-124884210D01*
X229572419Y-124884210D01*
X229591553Y-124880404D01*
X229618613Y-124853344D01*
X229618613Y-124815076D01*
X229591553Y-124788016D01*
X229572419Y-124784210D01*
X229146228Y-124784210D01*
X229146228Y-124622148D01*
X229601092Y-124303744D01*
X229614585Y-124289653D01*
X229621235Y-124251967D01*
X229599290Y-124220616D01*
X229561604Y-124213966D01*
X229543746Y-124221820D01*
X229146228Y-124500082D01*
X229146228Y-124453258D01*
X229145739Y-124450801D01*
X229146102Y-124449713D01*
X229143985Y-124441985D01*
X229142422Y-124434124D01*
X229141610Y-124433312D01*
X229140949Y-124430897D01*
X229093330Y-124335659D01*
X229088418Y-124329330D01*
X229083964Y-124322664D01*
X229036345Y-124275046D01*
X229029683Y-124270594D01*
X229023350Y-124265679D01*
X228928113Y-124218061D01*
X228925697Y-124217399D01*
X228924886Y-124216588D01*
X228917024Y-124215024D01*
X228909297Y-124212908D01*
X228908208Y-124213270D01*
X228905752Y-124212782D01*
X228762895Y-124212782D01*
X228760438Y-124213270D01*
X228759350Y-124212908D01*
X228751622Y-124215024D01*
X228743761Y-124216588D01*
X228742949Y-124217399D01*
X228740534Y-124218061D01*
X228645296Y-124265680D01*
X228638967Y-124270591D01*
X228632301Y-124275046D01*
X228584683Y-124322665D01*
X228580231Y-124329326D01*
X228575316Y-124335660D01*
X228527698Y-124430897D01*
X228527036Y-124433312D01*
X228526225Y-124434124D01*
X228524661Y-124441985D01*
X228522545Y-124449713D01*
X228522907Y-124450801D01*
X228522419Y-124453258D01*
X228364640Y-124453258D01*
X228364640Y-123253079D01*
X228523370Y-123253079D01*
X228530875Y-123290604D01*
X228544684Y-123304385D01*
X228982280Y-123596115D01*
X228544684Y-123887845D01*
X228530875Y-123901626D01*
X228523370Y-123939151D01*
X228544597Y-123970992D01*
X228582122Y-123978497D01*
X228600154Y-123971051D01*
X229072419Y-123656207D01*
X229544684Y-123971050D01*
X229562716Y-123978497D01*
X229600241Y-123970992D01*
X229621468Y-123939151D01*
X229613963Y-123901626D01*
X229600154Y-123887845D01*
X229162558Y-123596115D01*
X229600154Y-123304385D01*
X229613963Y-123290604D01*
X229621468Y-123253079D01*
X229600241Y-123221238D01*
X229562716Y-123213733D01*
X229544684Y-123221180D01*
X229072419Y-123536022D01*
X228600154Y-123221179D01*
X228582122Y-123213733D01*
X228544597Y-123221238D01*
X228523370Y-123253079D01*
X228364640Y-123253079D01*
X228364640Y-123102622D01*
X229970675Y-123102622D01*
X229970675Y-127896277D01*
G37*
G36*
X253483790Y-142561131D02*
G01*
X253563496Y-142640837D01*
X253606264Y-142811907D01*
X253606264Y-143132930D01*
X253563496Y-143303999D01*
X253483788Y-143383708D01*
X253406366Y-143422419D01*
X253239497Y-143422419D01*
X253162074Y-143383707D01*
X253082365Y-143303998D01*
X253039598Y-143132930D01*
X253039598Y-142811907D01*
X253082365Y-142640837D01*
X253162071Y-142561131D01*
X253239497Y-142522419D01*
X253406366Y-142522419D01*
X253483790Y-142561131D01*
G37*
G36*
X257007599Y-142561131D02*
G01*
X257087305Y-142640837D01*
X257130073Y-142811907D01*
X257130073Y-143132930D01*
X257087305Y-143303999D01*
X257007597Y-143383708D01*
X256930175Y-143422419D01*
X256763306Y-143422419D01*
X256685883Y-143383707D01*
X256606174Y-143303998D01*
X256563407Y-143132930D01*
X256563407Y-142811907D01*
X256606174Y-142640837D01*
X256685880Y-142561131D01*
X256763306Y-142522419D01*
X256930175Y-142522419D01*
X257007599Y-142561131D01*
G37*
G36*
X262010207Y-142563739D02*
G01*
X262091360Y-142644892D01*
X262132897Y-142727966D01*
X262177692Y-142907145D01*
X262177692Y-143037692D01*
X262132897Y-143216870D01*
X262091360Y-143299944D01*
X262010206Y-143381098D01*
X261886246Y-143422419D01*
X261706264Y-143422419D01*
X261706264Y-142522419D01*
X261886246Y-142522419D01*
X262010207Y-142563739D01*
G37*
G36*
X262388803Y-143870674D02*
G01*
X249495402Y-143870674D01*
X249495402Y-143700811D01*
X251321502Y-143700811D01*
X251329007Y-143738336D01*
X251360848Y-143759563D01*
X251398373Y-143752058D01*
X251412154Y-143738249D01*
X251437113Y-143700811D01*
X254845311Y-143700811D01*
X254852816Y-143738336D01*
X254884657Y-143759563D01*
X254922182Y-143752058D01*
X254935963Y-143738249D01*
X254960922Y-143700811D01*
X258369120Y-143700811D01*
X258376625Y-143738336D01*
X258408466Y-143759563D01*
X258445991Y-143752058D01*
X258459772Y-143738249D01*
X259017944Y-142900990D01*
X259511026Y-142900990D01*
X259511026Y-143043847D01*
X259512221Y-143049856D01*
X259512519Y-143055974D01*
X259560138Y-143246450D01*
X259562477Y-143251402D01*
X259563924Y-143256684D01*
X259611542Y-143351921D01*
X259616453Y-143358249D01*
X259620908Y-143364916D01*
X259716147Y-143460155D01*
X259718228Y-143461545D01*
X259718742Y-143462573D01*
X259725707Y-143466543D01*
X259732368Y-143470994D01*
X259733516Y-143470994D01*
X259735691Y-143472234D01*
X259878547Y-143519853D01*
X259886497Y-143520855D01*
X259894359Y-143522419D01*
X259989597Y-143522419D01*
X259997459Y-143520855D01*
X260005408Y-143519853D01*
X260148265Y-143472234D01*
X260150440Y-143470994D01*
X260151589Y-143470994D01*
X260158259Y-143466536D01*
X260165213Y-143462573D01*
X260165725Y-143461547D01*
X260167810Y-143460155D01*
X260215429Y-143412535D01*
X260226267Y-143396314D01*
X260230073Y-143377180D01*
X260230073Y-143043847D01*
X260226267Y-143024713D01*
X260199207Y-142997653D01*
X260180073Y-142993847D01*
X259989597Y-142993847D01*
X259970463Y-142997653D01*
X259943403Y-143024713D01*
X259943403Y-143062981D01*
X259970463Y-143090041D01*
X259989597Y-143093847D01*
X260130073Y-143093847D01*
X260130073Y-143356469D01*
X260105444Y-143381098D01*
X259981484Y-143422419D01*
X259902472Y-143422419D01*
X259778512Y-143381099D01*
X259697356Y-143299942D01*
X259655821Y-143216872D01*
X259611026Y-143037692D01*
X259611026Y-142907145D01*
X259655821Y-142727965D01*
X259697357Y-142644893D01*
X259778510Y-142563739D01*
X259902472Y-142522419D01*
X260025413Y-142522419D01*
X260110093Y-142564759D01*
X260128909Y-142569912D01*
X260165214Y-142557810D01*
X260182328Y-142523582D01*
X260170226Y-142487278D01*
X260154814Y-142475316D01*
X260149020Y-142472419D01*
X260558645Y-142472419D01*
X260558645Y-143472419D01*
X260562451Y-143491553D01*
X260589511Y-143518613D01*
X260627779Y-143518613D01*
X260654839Y-143491553D01*
X260658645Y-143472419D01*
X260658645Y-142660697D01*
X261136661Y-143497226D01*
X261149459Y-143511951D01*
X261156083Y-143513757D01*
X261160939Y-143518613D01*
X261173887Y-143518613D01*
X261186379Y-143522020D01*
X261192341Y-143518613D01*
X261199207Y-143518613D01*
X261208360Y-143509459D01*
X261219605Y-143503034D01*
X261221412Y-143496407D01*
X261226267Y-143491553D01*
X261230073Y-143472419D01*
X261230073Y-142472419D01*
X261606264Y-142472419D01*
X261606264Y-143472419D01*
X261610070Y-143491553D01*
X261637130Y-143518613D01*
X261656264Y-143522419D01*
X261894359Y-143522419D01*
X261902221Y-143520855D01*
X261910170Y-143519853D01*
X262053027Y-143472234D01*
X262055202Y-143470994D01*
X262056351Y-143470994D01*
X262063021Y-143466536D01*
X262069975Y-143462573D01*
X262070487Y-143461547D01*
X262072572Y-143460155D01*
X262167810Y-143364916D01*
X262172263Y-143358250D01*
X262177175Y-143351922D01*
X262224794Y-143256684D01*
X262226240Y-143251402D01*
X262228580Y-143246450D01*
X262276199Y-143055974D01*
X262276496Y-143049856D01*
X262277692Y-143043847D01*
X262277692Y-142900990D01*
X262276496Y-142894980D01*
X262276199Y-142888863D01*
X262228580Y-142698387D01*
X262226240Y-142693434D01*
X262224794Y-142688153D01*
X262177175Y-142592915D01*
X262172259Y-142586580D01*
X262167809Y-142579921D01*
X262072571Y-142484683D01*
X262070488Y-142483291D01*
X262069975Y-142482265D01*
X262063014Y-142478297D01*
X262056350Y-142473844D01*
X262055202Y-142473844D01*
X262053027Y-142472604D01*
X261910170Y-142424985D01*
X261902221Y-142423982D01*
X261894359Y-142422419D01*
X261656264Y-142422419D01*
X261637130Y-142426225D01*
X261610070Y-142453285D01*
X261606264Y-142472419D01*
X261230073Y-142472419D01*
X261226267Y-142453285D01*
X261199207Y-142426225D01*
X261160939Y-142426225D01*
X261133879Y-142453285D01*
X261130073Y-142472419D01*
X261130073Y-143284140D01*
X260652057Y-142447612D01*
X260639260Y-142432887D01*
X260632633Y-142431079D01*
X260627779Y-142426225D01*
X260614832Y-142426225D01*
X260602339Y-142422818D01*
X260596377Y-142426225D01*
X260589511Y-142426225D01*
X260580357Y-142435378D01*
X260569113Y-142441804D01*
X260567305Y-142448430D01*
X260562451Y-142453285D01*
X260558645Y-142472419D01*
X260149020Y-142472419D01*
X260059577Y-142427698D01*
X260057161Y-142427036D01*
X260056350Y-142426225D01*
X260048488Y-142424661D01*
X260040761Y-142422545D01*
X260039672Y-142422907D01*
X260037216Y-142422419D01*
X259894359Y-142422419D01*
X259886497Y-142423982D01*
X259878547Y-142424985D01*
X259735691Y-142472604D01*
X259733516Y-142473844D01*
X259732368Y-142473844D01*
X259725707Y-142478294D01*
X259718742Y-142482265D01*
X259718228Y-142483292D01*
X259716147Y-142484683D01*
X259620909Y-142579921D01*
X259616457Y-142586582D01*
X259611542Y-142592916D01*
X259563924Y-142688153D01*
X259562477Y-142693434D01*
X259560138Y-142698387D01*
X259512519Y-142888863D01*
X259512221Y-142894980D01*
X259511026Y-142900990D01*
X259017944Y-142900990D01*
X259316914Y-142452535D01*
X259324361Y-142434503D01*
X259316856Y-142396978D01*
X259285015Y-142375750D01*
X259247489Y-142383255D01*
X259233709Y-142397065D01*
X258376566Y-143682779D01*
X258369120Y-143700811D01*
X254960922Y-143700811D01*
X255779849Y-142472419D01*
X256034836Y-142472419D01*
X256034836Y-143472419D01*
X256038642Y-143491553D01*
X256065702Y-143518613D01*
X256103970Y-143518613D01*
X256131030Y-143491553D01*
X256134836Y-143472419D01*
X256134836Y-142805752D01*
X256463407Y-142805752D01*
X256463407Y-143139085D01*
X256464602Y-143145094D01*
X256464900Y-143151212D01*
X256512519Y-143341688D01*
X256514832Y-143346584D01*
X256514832Y-143348695D01*
X256518236Y-143353790D01*
X256520852Y-143359327D01*
X256522660Y-143360412D01*
X256525670Y-143364916D01*
X256620909Y-143460155D01*
X256627568Y-143464605D01*
X256633903Y-143469521D01*
X256729141Y-143517140D01*
X256731556Y-143517801D01*
X256732368Y-143518613D01*
X256740229Y-143520176D01*
X256747957Y-143522293D01*
X256749045Y-143521930D01*
X256751502Y-143522419D01*
X256941978Y-143522419D01*
X256944434Y-143521930D01*
X256945523Y-143522293D01*
X256953250Y-143520176D01*
X256961112Y-143518613D01*
X256961923Y-143517801D01*
X256964339Y-143517140D01*
X257059576Y-143469522D01*
X257065903Y-143464611D01*
X257072572Y-143460155D01*
X257167810Y-143364916D01*
X257170819Y-143360412D01*
X257172628Y-143359327D01*
X257175243Y-143353790D01*
X257178648Y-143348695D01*
X257178648Y-143346584D01*
X257180961Y-143341688D01*
X257228580Y-143151212D01*
X257228877Y-143145094D01*
X257229368Y-143142629D01*
X257511152Y-143142629D01*
X257514832Y-143149989D01*
X257514832Y-143158219D01*
X257523061Y-143166448D01*
X257528266Y-143176858D01*
X257536073Y-143179460D01*
X257541892Y-143185279D01*
X257561026Y-143189085D01*
X257987216Y-143189085D01*
X257987216Y-143472419D01*
X257991022Y-143491553D01*
X258018082Y-143518613D01*
X258056350Y-143518613D01*
X258083410Y-143491553D01*
X258087216Y-143472419D01*
X258087216Y-143189085D01*
X258180073Y-143189085D01*
X258199207Y-143185279D01*
X258226267Y-143158219D01*
X258226267Y-143119951D01*
X258199207Y-143092891D01*
X258180073Y-143089085D01*
X258087216Y-143089085D01*
X258087216Y-142805752D01*
X258083410Y-142786618D01*
X258056350Y-142759558D01*
X258018082Y-142759558D01*
X257991022Y-142786618D01*
X257987216Y-142805752D01*
X257987216Y-143089085D01*
X257630397Y-143089085D01*
X257846555Y-142440612D01*
X257848995Y-142421256D01*
X257831881Y-142387028D01*
X257795577Y-142374926D01*
X257761348Y-142392041D01*
X257751687Y-142408989D01*
X257513592Y-143123274D01*
X257511152Y-143142629D01*
X257229368Y-143142629D01*
X257230073Y-143139085D01*
X257230073Y-142805752D01*
X257228877Y-142799742D01*
X257228580Y-142793625D01*
X257180961Y-142603149D01*
X257178648Y-142598252D01*
X257178648Y-142596142D01*
X257175244Y-142591048D01*
X257172628Y-142585510D01*
X257170817Y-142584423D01*
X257167809Y-142579921D01*
X257072571Y-142484683D01*
X257065909Y-142480231D01*
X257059576Y-142475316D01*
X256964339Y-142427698D01*
X256961923Y-142427036D01*
X256961112Y-142426225D01*
X256953250Y-142424661D01*
X256945523Y-142422545D01*
X256944434Y-142422907D01*
X256941978Y-142422419D01*
X256751502Y-142422419D01*
X256749045Y-142422907D01*
X256747957Y-142422545D01*
X256740229Y-142424661D01*
X256732368Y-142426225D01*
X256731556Y-142427036D01*
X256729141Y-142427698D01*
X256633903Y-142475317D01*
X256627568Y-142480232D01*
X256620909Y-142484683D01*
X256525671Y-142579921D01*
X256522662Y-142584423D01*
X256520852Y-142585510D01*
X256518235Y-142591048D01*
X256514832Y-142596142D01*
X256514832Y-142598252D01*
X256512519Y-142603149D01*
X256464900Y-142793625D01*
X256464602Y-142799742D01*
X256463407Y-142805752D01*
X256134836Y-142805752D01*
X256134836Y-142472419D01*
X256131030Y-142453285D01*
X256103970Y-142426225D01*
X256065702Y-142426225D01*
X256038642Y-142453285D01*
X256034836Y-142472419D01*
X255779849Y-142472419D01*
X255793105Y-142452535D01*
X255800552Y-142434503D01*
X255793047Y-142396978D01*
X255761206Y-142375750D01*
X255723680Y-142383255D01*
X255709900Y-142397065D01*
X254852757Y-143682779D01*
X254845311Y-143700811D01*
X251437113Y-143700811D01*
X252256040Y-142472419D01*
X252511027Y-142472419D01*
X252511027Y-143472419D01*
X252514833Y-143491553D01*
X252541893Y-143518613D01*
X252580161Y-143518613D01*
X252607221Y-143491553D01*
X252611027Y-143472419D01*
X252611027Y-142805752D01*
X252939598Y-142805752D01*
X252939598Y-143139085D01*
X252940793Y-143145094D01*
X252941091Y-143151212D01*
X252988710Y-143341688D01*
X252991023Y-143346584D01*
X252991023Y-143348695D01*
X252994427Y-143353790D01*
X252997043Y-143359327D01*
X252998851Y-143360412D01*
X253001861Y-143364916D01*
X253097100Y-143460155D01*
X253103759Y-143464605D01*
X253110094Y-143469521D01*
X253205332Y-143517140D01*
X253207747Y-143517801D01*
X253208559Y-143518613D01*
X253216420Y-143520176D01*
X253224148Y-143522293D01*
X253225236Y-143521930D01*
X253227693Y-143522419D01*
X253418169Y-143522419D01*
X253420625Y-143521930D01*
X253421714Y-143522293D01*
X253429441Y-143520176D01*
X253437303Y-143518613D01*
X253438114Y-143517801D01*
X253440530Y-143517140D01*
X253535767Y-143469522D01*
X253542094Y-143464611D01*
X253548763Y-143460155D01*
X253644001Y-143364916D01*
X253647010Y-143360412D01*
X253648819Y-143359327D01*
X253651434Y-143353790D01*
X253654839Y-143348695D01*
X253654839Y-143346584D01*
X253657152Y-143341688D01*
X253704771Y-143151212D01*
X253705068Y-143145094D01*
X253706264Y-143139085D01*
X253706264Y-142805752D01*
X253705068Y-142799742D01*
X253704771Y-142793625D01*
X253657152Y-142603149D01*
X253654839Y-142598252D01*
X253654839Y-142596142D01*
X253651435Y-142591048D01*
X253648819Y-142585510D01*
X253647008Y-142584423D01*
X253644000Y-142579921D01*
X253548762Y-142484683D01*
X253542100Y-142480231D01*
X253535767Y-142475316D01*
X253491705Y-142453285D01*
X253943404Y-142453285D01*
X253943404Y-142491553D01*
X253970464Y-142518613D01*
X253989598Y-142522419D01*
X254498457Y-142522419D01*
X254237683Y-142820446D01*
X254230588Y-142832766D01*
X254229118Y-142834237D01*
X254229118Y-142835320D01*
X254227948Y-142837352D01*
X254229118Y-142854906D01*
X254229118Y-142872505D01*
X254230374Y-142873761D01*
X254230493Y-142875536D01*
X254243737Y-142887124D01*
X254256178Y-142899565D01*
X254258478Y-142900022D01*
X254259293Y-142900735D01*
X254261365Y-142900596D01*
X254275312Y-142903371D01*
X254406366Y-142903371D01*
X254483789Y-142942082D01*
X254519933Y-142978227D01*
X254558645Y-143055650D01*
X254558645Y-143270138D01*
X254519933Y-143347561D01*
X254483787Y-143383708D01*
X254406366Y-143422419D01*
X254144259Y-143422419D01*
X254066836Y-143383708D01*
X254024954Y-143341825D01*
X254008733Y-143330986D01*
X253970464Y-143330986D01*
X253943404Y-143358045D01*
X253943404Y-143396314D01*
X253954242Y-143412535D01*
X254001861Y-143460155D01*
X254008527Y-143464609D01*
X254014856Y-143469521D01*
X254110094Y-143517140D01*
X254112509Y-143517801D01*
X254113321Y-143518613D01*
X254121182Y-143520176D01*
X254128910Y-143522293D01*
X254129998Y-143521930D01*
X254132455Y-143522419D01*
X254418169Y-143522419D01*
X254420625Y-143521930D01*
X254421714Y-143522293D01*
X254429441Y-143520176D01*
X254437303Y-143518613D01*
X254438114Y-143517801D01*
X254440530Y-143517140D01*
X254535767Y-143469522D01*
X254542094Y-143464611D01*
X254548763Y-143460155D01*
X254596382Y-143412535D01*
X254600835Y-143405869D01*
X254605747Y-143399541D01*
X254653366Y-143304303D01*
X254654027Y-143301887D01*
X254654839Y-143301076D01*
X254656402Y-143293214D01*
X254658519Y-143285487D01*
X254658156Y-143284398D01*
X254658645Y-143281942D01*
X254658645Y-143043847D01*
X254658156Y-143041390D01*
X254658519Y-143040302D01*
X254656402Y-143032574D01*
X254654839Y-143024713D01*
X254654027Y-143023901D01*
X254653366Y-143021486D01*
X254605747Y-142926248D01*
X254600835Y-142919919D01*
X254596381Y-142913253D01*
X254548762Y-142865635D01*
X254542100Y-142861183D01*
X254535767Y-142856268D01*
X254440530Y-142808650D01*
X254438114Y-142807988D01*
X254437303Y-142807177D01*
X254429441Y-142805613D01*
X254421714Y-142803497D01*
X254420625Y-142803859D01*
X254418169Y-142803371D01*
X254385500Y-142803371D01*
X254646274Y-142505344D01*
X254653368Y-142493023D01*
X254654839Y-142491553D01*
X254654839Y-142490469D01*
X254656009Y-142488438D01*
X254654839Y-142470883D01*
X254654839Y-142453285D01*
X254653582Y-142452028D01*
X254653464Y-142450254D01*
X254640219Y-142438665D01*
X254627779Y-142426225D01*
X254625478Y-142425767D01*
X254624664Y-142425055D01*
X254622591Y-142425193D01*
X254608645Y-142422419D01*
X253989598Y-142422419D01*
X253970464Y-142426225D01*
X253943404Y-142453285D01*
X253491705Y-142453285D01*
X253440530Y-142427698D01*
X253438114Y-142427036D01*
X253437303Y-142426225D01*
X253429441Y-142424661D01*
X253421714Y-142422545D01*
X253420625Y-142422907D01*
X253418169Y-142422419D01*
X253227693Y-142422419D01*
X253225236Y-142422907D01*
X253224148Y-142422545D01*
X253216420Y-142424661D01*
X253208559Y-142426225D01*
X253207747Y-142427036D01*
X253205332Y-142427698D01*
X253110094Y-142475317D01*
X253103759Y-142480232D01*
X253097100Y-142484683D01*
X253001862Y-142579921D01*
X252998853Y-142584423D01*
X252997043Y-142585510D01*
X252994426Y-142591048D01*
X252991023Y-142596142D01*
X252991023Y-142598252D01*
X252988710Y-142603149D01*
X252941091Y-142793625D01*
X252940793Y-142799742D01*
X252939598Y-142805752D01*
X252611027Y-142805752D01*
X252611027Y-142472419D01*
X252607221Y-142453285D01*
X252580161Y-142426225D01*
X252541893Y-142426225D01*
X252514833Y-142453285D01*
X252511027Y-142472419D01*
X252256040Y-142472419D01*
X252269296Y-142452535D01*
X252276743Y-142434503D01*
X252269238Y-142396978D01*
X252237397Y-142375750D01*
X252199871Y-142383255D01*
X252186091Y-142397065D01*
X251328948Y-143682779D01*
X251321502Y-143700811D01*
X249495402Y-143700811D01*
X249495402Y-142943634D01*
X249606513Y-142943634D01*
X249608396Y-142963052D01*
X249610071Y-142965099D01*
X249610071Y-142967743D01*
X249621968Y-142979640D01*
X249632629Y-142992670D01*
X249635261Y-142992933D01*
X249637131Y-142994803D01*
X249653958Y-142994803D01*
X249670708Y-142996478D01*
X249672755Y-142994803D01*
X249675399Y-142994803D01*
X249691620Y-142983964D01*
X249733502Y-142942082D01*
X249810926Y-142903371D01*
X250025414Y-142903371D01*
X250102837Y-142942082D01*
X250138981Y-142978227D01*
X250177693Y-143055650D01*
X250177693Y-143270138D01*
X250138981Y-143347561D01*
X250102835Y-143383708D01*
X250025414Y-143422419D01*
X249810926Y-143422419D01*
X249733503Y-143383708D01*
X249691621Y-143341825D01*
X249675400Y-143330986D01*
X249637131Y-143330986D01*
X249610071Y-143358045D01*
X249610071Y-143396314D01*
X249620909Y-143412535D01*
X249668528Y-143460155D01*
X249675194Y-143464609D01*
X249681523Y-143469521D01*
X249776761Y-143517140D01*
X249779176Y-143517801D01*
X249779988Y-143518613D01*
X249787849Y-143520176D01*
X249795577Y-143522293D01*
X249796665Y-143521930D01*
X249799122Y-143522419D01*
X250037217Y-143522419D01*
X250039673Y-143521930D01*
X250040762Y-143522293D01*
X250048489Y-143520176D01*
X250056351Y-143518613D01*
X250057162Y-143517801D01*
X250059578Y-143517140D01*
X250154815Y-143469522D01*
X250161142Y-143464611D01*
X250167811Y-143460155D01*
X250215430Y-143412535D01*
X250219883Y-143405869D01*
X250224795Y-143399541D01*
X250272414Y-143304303D01*
X250273075Y-143301887D01*
X250273887Y-143301076D01*
X250275450Y-143293214D01*
X250277567Y-143285487D01*
X250277204Y-143284398D01*
X250277693Y-143281942D01*
X250277693Y-143043847D01*
X250277204Y-143041390D01*
X250277567Y-143040302D01*
X250275450Y-143032574D01*
X250273887Y-143024713D01*
X250273075Y-143023901D01*
X250272414Y-143021486D01*
X250224795Y-142926248D01*
X250219883Y-142919919D01*
X250215429Y-142913253D01*
X250167810Y-142865635D01*
X250161148Y-142861183D01*
X250154815Y-142856268D01*
X250059578Y-142808650D01*
X250057162Y-142807988D01*
X250056351Y-142807177D01*
X250048489Y-142805613D01*
X250040762Y-142803497D01*
X250039673Y-142803859D01*
X250037217Y-142803371D01*
X249799122Y-142803371D01*
X249796665Y-142803859D01*
X249795577Y-142803497D01*
X249787849Y-142805613D01*
X249779988Y-142807177D01*
X249779176Y-142807988D01*
X249776761Y-142808650D01*
X249717549Y-142838255D01*
X249749133Y-142522419D01*
X250180074Y-142522419D01*
X250199208Y-142518613D01*
X250226268Y-142491553D01*
X250226268Y-142468875D01*
X250463534Y-142468875D01*
X250465974Y-142488230D01*
X250799307Y-143488230D01*
X250808968Y-143505178D01*
X250812309Y-143506848D01*
X250813981Y-143510192D01*
X250829023Y-143515205D01*
X250843197Y-143522293D01*
X250846740Y-143521111D01*
X250850285Y-143522293D01*
X250864464Y-143515203D01*
X250879501Y-143510191D01*
X250881171Y-143506850D01*
X250884514Y-143505179D01*
X250894175Y-143488230D01*
X251227508Y-142488231D01*
X251229948Y-142468875D01*
X251212834Y-142434647D01*
X251176530Y-142422545D01*
X251142301Y-142439660D01*
X251132640Y-142456608D01*
X250846741Y-143314305D01*
X250560842Y-142456608D01*
X250551181Y-142439659D01*
X250516952Y-142422545D01*
X250480648Y-142434646D01*
X250463534Y-142468875D01*
X250226268Y-142468875D01*
X250226268Y-142453285D01*
X250199208Y-142426225D01*
X250180074Y-142422419D01*
X249703884Y-142422419D01*
X249691922Y-142424798D01*
X249689441Y-142424550D01*
X249688243Y-142425530D01*
X249684750Y-142426225D01*
X249672849Y-142438125D01*
X249659823Y-142448784D01*
X249658783Y-142452191D01*
X249657690Y-142453285D01*
X249657690Y-142455777D01*
X249654132Y-142467444D01*
X249606513Y-142943634D01*
X249495402Y-142943634D01*
X249495402Y-142263815D01*
X262388803Y-142263815D01*
X262388803Y-143870674D01*
G37*
G36*
X226633530Y-140057226D02*
G01*
X225311308Y-140057226D01*
X225311308Y-139419925D01*
X225422419Y-139419925D01*
X225422419Y-139896115D01*
X225426225Y-139915249D01*
X225453285Y-139942309D01*
X225472419Y-139946115D01*
X226472419Y-139946115D01*
X226491553Y-139942309D01*
X226518613Y-139915249D01*
X226522419Y-139896115D01*
X226522419Y-139419925D01*
X226518613Y-139400791D01*
X226491553Y-139373731D01*
X226453285Y-139373731D01*
X226426225Y-139400791D01*
X226422419Y-139419925D01*
X226422419Y-139846115D01*
X225998609Y-139846115D01*
X225998609Y-139562782D01*
X225994803Y-139543648D01*
X225967743Y-139516588D01*
X225929475Y-139516588D01*
X225902415Y-139543648D01*
X225898609Y-139562782D01*
X225898609Y-139846115D01*
X225522419Y-139846115D01*
X225522419Y-139419925D01*
X225518613Y-139400791D01*
X225491553Y-139373731D01*
X225453285Y-139373731D01*
X225426225Y-139400791D01*
X225422419Y-139419925D01*
X225311308Y-139419925D01*
X225311308Y-138997659D01*
X225422818Y-138997659D01*
X225426225Y-139003621D01*
X225426225Y-139010487D01*
X225435378Y-139019640D01*
X225441804Y-139030885D01*
X225448430Y-139032692D01*
X225453285Y-139037547D01*
X225472419Y-139041353D01*
X226472419Y-139041353D01*
X226491553Y-139037547D01*
X226518613Y-139010487D01*
X226518613Y-138972219D01*
X226491553Y-138945159D01*
X226472419Y-138941353D01*
X225660697Y-138941353D01*
X226497226Y-138463337D01*
X226511951Y-138450539D01*
X226513757Y-138443914D01*
X226518613Y-138439059D01*
X226518613Y-138426111D01*
X226522020Y-138413619D01*
X226518613Y-138407656D01*
X226518613Y-138400791D01*
X226509459Y-138391637D01*
X226503034Y-138380393D01*
X226496407Y-138378585D01*
X226491553Y-138373731D01*
X226472419Y-138369925D01*
X225472419Y-138369925D01*
X225453285Y-138373731D01*
X225426225Y-138400791D01*
X225426225Y-138439059D01*
X225453285Y-138466119D01*
X225472419Y-138469925D01*
X226284141Y-138469925D01*
X225447612Y-138947941D01*
X225432887Y-138960738D01*
X225431079Y-138967364D01*
X225426225Y-138972219D01*
X225426225Y-138985166D01*
X225422818Y-138997659D01*
X225311308Y-138997659D01*
X225311308Y-138258814D01*
X226633530Y-138258814D01*
X226633530Y-140057226D01*
G37*
G36*
X195493314Y-141861131D02*
G01*
X195573020Y-141940837D01*
X195615788Y-142111907D01*
X195615788Y-142432930D01*
X195573020Y-142603999D01*
X195493312Y-142683708D01*
X195415890Y-142722419D01*
X195249021Y-142722419D01*
X195171598Y-142683707D01*
X195091889Y-142603998D01*
X195049122Y-142432930D01*
X195049122Y-142111907D01*
X195091889Y-141940837D01*
X195171595Y-141861131D01*
X195249021Y-141822419D01*
X195415890Y-141822419D01*
X195493314Y-141861131D01*
G37*
G36*
X202972113Y-141863739D02*
G01*
X203053266Y-141944892D01*
X203094803Y-142027966D01*
X203139598Y-142207145D01*
X203139598Y-142337692D01*
X203094803Y-142516870D01*
X203053266Y-142599944D01*
X202972112Y-142681098D01*
X202848152Y-142722419D01*
X202668170Y-142722419D01*
X202668170Y-141822419D01*
X202848152Y-141822419D01*
X202972113Y-141863739D01*
G37*
G36*
X203350709Y-143170674D02*
G01*
X189600042Y-143170674D01*
X189600042Y-143000811D01*
X192569121Y-143000811D01*
X192576626Y-143038336D01*
X192608467Y-143059563D01*
X192645992Y-143052058D01*
X192659773Y-143038249D01*
X192684732Y-143000811D01*
X198569121Y-143000811D01*
X198576626Y-143038336D01*
X198608467Y-143059563D01*
X198645992Y-143052058D01*
X198659773Y-143038249D01*
X199217945Y-142200990D01*
X200472932Y-142200990D01*
X200472932Y-142343847D01*
X200474127Y-142349856D01*
X200474425Y-142355974D01*
X200522044Y-142546450D01*
X200524383Y-142551402D01*
X200525830Y-142556684D01*
X200573448Y-142651921D01*
X200578359Y-142658249D01*
X200582814Y-142664916D01*
X200678053Y-142760155D01*
X200680134Y-142761545D01*
X200680648Y-142762573D01*
X200687613Y-142766543D01*
X200694274Y-142770994D01*
X200695422Y-142770994D01*
X200697597Y-142772234D01*
X200840453Y-142819853D01*
X200848403Y-142820855D01*
X200856265Y-142822419D01*
X200951503Y-142822419D01*
X200959365Y-142820855D01*
X200967314Y-142819853D01*
X201110171Y-142772234D01*
X201112346Y-142770994D01*
X201113495Y-142770994D01*
X201120165Y-142766536D01*
X201127119Y-142762573D01*
X201127631Y-142761547D01*
X201129716Y-142760155D01*
X201177335Y-142712535D01*
X201188173Y-142696314D01*
X201191979Y-142677180D01*
X201191979Y-142343847D01*
X201188173Y-142324713D01*
X201161113Y-142297653D01*
X201141979Y-142293847D01*
X200951503Y-142293847D01*
X200932369Y-142297653D01*
X200905309Y-142324713D01*
X200905309Y-142362981D01*
X200932369Y-142390041D01*
X200951503Y-142393847D01*
X201091979Y-142393847D01*
X201091979Y-142656469D01*
X201067350Y-142681098D01*
X200943390Y-142722419D01*
X200864378Y-142722419D01*
X200740418Y-142681099D01*
X200659262Y-142599942D01*
X200617727Y-142516872D01*
X200572932Y-142337692D01*
X200572932Y-142207145D01*
X200617727Y-142027965D01*
X200659263Y-141944893D01*
X200740416Y-141863739D01*
X200864378Y-141822419D01*
X200987319Y-141822419D01*
X201071999Y-141864759D01*
X201090815Y-141869912D01*
X201127120Y-141857810D01*
X201144234Y-141823582D01*
X201132132Y-141787278D01*
X201116720Y-141775316D01*
X201110926Y-141772419D01*
X201520551Y-141772419D01*
X201520551Y-142772419D01*
X201524357Y-142791553D01*
X201551417Y-142818613D01*
X201589685Y-142818613D01*
X201616745Y-142791553D01*
X201620551Y-142772419D01*
X201620551Y-141960697D01*
X202098567Y-142797226D01*
X202111365Y-142811951D01*
X202117989Y-142813757D01*
X202122845Y-142818613D01*
X202135793Y-142818613D01*
X202148285Y-142822020D01*
X202154247Y-142818613D01*
X202161113Y-142818613D01*
X202170266Y-142809459D01*
X202181511Y-142803034D01*
X202183318Y-142796407D01*
X202188173Y-142791553D01*
X202191979Y-142772419D01*
X202191979Y-141772419D01*
X202568170Y-141772419D01*
X202568170Y-142772419D01*
X202571976Y-142791553D01*
X202599036Y-142818613D01*
X202618170Y-142822419D01*
X202856265Y-142822419D01*
X202864127Y-142820855D01*
X202872076Y-142819853D01*
X203014933Y-142772234D01*
X203017108Y-142770994D01*
X203018257Y-142770994D01*
X203024927Y-142766536D01*
X203031881Y-142762573D01*
X203032393Y-142761547D01*
X203034478Y-142760155D01*
X203129716Y-142664916D01*
X203134169Y-142658250D01*
X203139081Y-142651922D01*
X203186700Y-142556684D01*
X203188146Y-142551402D01*
X203190486Y-142546450D01*
X203238105Y-142355974D01*
X203238402Y-142349856D01*
X203239598Y-142343847D01*
X203239598Y-142200990D01*
X203238402Y-142194980D01*
X203238105Y-142188863D01*
X203190486Y-141998387D01*
X203188146Y-141993434D01*
X203186700Y-141988153D01*
X203139081Y-141892915D01*
X203134165Y-141886580D01*
X203129715Y-141879921D01*
X203034477Y-141784683D01*
X203032394Y-141783291D01*
X203031881Y-141782265D01*
X203024920Y-141778297D01*
X203018256Y-141773844D01*
X203017108Y-141773844D01*
X203014933Y-141772604D01*
X202872076Y-141724985D01*
X202864127Y-141723982D01*
X202856265Y-141722419D01*
X202618170Y-141722419D01*
X202599036Y-141726225D01*
X202571976Y-141753285D01*
X202568170Y-141772419D01*
X202191979Y-141772419D01*
X202188173Y-141753285D01*
X202161113Y-141726225D01*
X202122845Y-141726225D01*
X202095785Y-141753285D01*
X202091979Y-141772419D01*
X202091979Y-142584140D01*
X201613963Y-141747612D01*
X201601166Y-141732887D01*
X201594539Y-141731079D01*
X201589685Y-141726225D01*
X201576738Y-141726225D01*
X201564245Y-141722818D01*
X201558283Y-141726225D01*
X201551417Y-141726225D01*
X201542263Y-141735378D01*
X201531019Y-141741804D01*
X201529211Y-141748430D01*
X201524357Y-141753285D01*
X201520551Y-141772419D01*
X201110926Y-141772419D01*
X201021483Y-141727698D01*
X201019067Y-141727036D01*
X201018256Y-141726225D01*
X201010394Y-141724661D01*
X201002667Y-141722545D01*
X201001578Y-141722907D01*
X200999122Y-141722419D01*
X200856265Y-141722419D01*
X200848403Y-141723982D01*
X200840453Y-141724985D01*
X200697597Y-141772604D01*
X200695422Y-141773844D01*
X200694274Y-141773844D01*
X200687613Y-141778294D01*
X200680648Y-141782265D01*
X200680134Y-141783292D01*
X200678053Y-141784683D01*
X200582815Y-141879921D01*
X200578363Y-141886582D01*
X200573448Y-141892916D01*
X200525830Y-141988153D01*
X200524383Y-141993434D01*
X200522044Y-141998387D01*
X200474425Y-142188863D01*
X200474127Y-142194980D01*
X200472932Y-142200990D01*
X199217945Y-142200990D01*
X199516915Y-141752535D01*
X199524362Y-141734503D01*
X199516857Y-141696978D01*
X199485016Y-141675750D01*
X199447490Y-141683255D01*
X199433710Y-141697065D01*
X198576567Y-142982779D01*
X198569121Y-143000811D01*
X192684732Y-143000811D01*
X193503659Y-141772419D01*
X194520551Y-141772419D01*
X194520551Y-142772419D01*
X194524357Y-142791553D01*
X194551417Y-142818613D01*
X194589685Y-142818613D01*
X194616745Y-142791553D01*
X194620551Y-142772419D01*
X194620551Y-142105752D01*
X194949122Y-142105752D01*
X194949122Y-142439085D01*
X194950317Y-142445094D01*
X194950615Y-142451212D01*
X194998234Y-142641688D01*
X195000547Y-142646584D01*
X195000547Y-142648695D01*
X195003951Y-142653790D01*
X195006567Y-142659327D01*
X195008375Y-142660412D01*
X195011385Y-142664916D01*
X195106624Y-142760155D01*
X195113283Y-142764605D01*
X195119618Y-142769521D01*
X195214856Y-142817140D01*
X195217271Y-142817801D01*
X195218083Y-142818613D01*
X195225944Y-142820176D01*
X195233672Y-142822293D01*
X195234760Y-142821930D01*
X195237217Y-142822419D01*
X195427693Y-142822419D01*
X195430149Y-142821930D01*
X195431238Y-142822293D01*
X195438965Y-142820176D01*
X195446827Y-142818613D01*
X195447638Y-142817801D01*
X195450054Y-142817140D01*
X195545291Y-142769522D01*
X195551618Y-142764611D01*
X195558287Y-142760155D01*
X195653525Y-142664916D01*
X195656534Y-142660412D01*
X195658343Y-142659327D01*
X195660958Y-142653790D01*
X195664363Y-142648695D01*
X195664363Y-142646584D01*
X195666676Y-142641688D01*
X195714295Y-142451212D01*
X195714592Y-142445094D01*
X195715788Y-142439085D01*
X195715788Y-142105752D01*
X195714592Y-142099742D01*
X195714295Y-142093625D01*
X195706308Y-142061678D01*
X195996867Y-142061678D01*
X196013981Y-142095906D01*
X196050286Y-142108007D01*
X196069102Y-142102854D01*
X196164339Y-142055236D01*
X196170672Y-142050320D01*
X196177334Y-142045869D01*
X196272572Y-141950631D01*
X196275320Y-141946517D01*
X196278820Y-141943011D01*
X196282455Y-141937558D01*
X196282455Y-142722419D01*
X196046741Y-142722419D01*
X196027607Y-142726225D01*
X196000547Y-142753285D01*
X196000547Y-142791553D01*
X196027607Y-142818613D01*
X196046741Y-142822419D01*
X196618169Y-142822419D01*
X196637303Y-142818613D01*
X196664363Y-142791553D01*
X196664363Y-142753285D01*
X196905309Y-142753285D01*
X196905309Y-142791553D01*
X196932369Y-142818613D01*
X196951503Y-142822419D01*
X197570550Y-142822419D01*
X197589684Y-142818613D01*
X197616744Y-142791553D01*
X197616744Y-142753285D01*
X197589684Y-142726225D01*
X197570550Y-142722419D01*
X197072213Y-142722419D01*
X197558286Y-142236345D01*
X197559676Y-142234263D01*
X197560704Y-142233750D01*
X197564674Y-142226784D01*
X197569125Y-142220124D01*
X197569125Y-142218976D01*
X197570365Y-142216801D01*
X197617984Y-142073945D01*
X197618986Y-142065994D01*
X197620550Y-142058133D01*
X197620550Y-141962895D01*
X197620061Y-141960438D01*
X197620424Y-141959350D01*
X197618307Y-141951622D01*
X197616744Y-141943761D01*
X197615932Y-141942949D01*
X197615271Y-141940534D01*
X197567652Y-141845296D01*
X197562740Y-141838967D01*
X197558286Y-141832301D01*
X197510667Y-141784683D01*
X197504005Y-141780231D01*
X197497672Y-141775316D01*
X197402435Y-141727698D01*
X197400019Y-141727036D01*
X197399208Y-141726225D01*
X197391346Y-141724661D01*
X197383619Y-141722545D01*
X197382530Y-141722907D01*
X197380074Y-141722419D01*
X197141979Y-141722419D01*
X197139522Y-141722907D01*
X197138434Y-141722545D01*
X197130706Y-141724661D01*
X197122845Y-141726225D01*
X197122033Y-141727036D01*
X197119618Y-141727698D01*
X197024380Y-141775317D01*
X197018051Y-141780228D01*
X197011385Y-141784683D01*
X196963767Y-141832302D01*
X196952928Y-141848523D01*
X196952928Y-141886791D01*
X196979988Y-141913851D01*
X197018256Y-141913851D01*
X197034477Y-141903012D01*
X197076359Y-141861130D01*
X197153783Y-141822419D01*
X197368271Y-141822419D01*
X197445694Y-141861130D01*
X197481838Y-141897275D01*
X197520550Y-141974698D01*
X197520550Y-142050020D01*
X197479229Y-142173981D01*
X196916148Y-142737064D01*
X196905309Y-142753285D01*
X196664363Y-142753285D01*
X196637303Y-142726225D01*
X196618169Y-142722419D01*
X196382455Y-142722419D01*
X196382455Y-141772419D01*
X196378649Y-141753285D01*
X196375008Y-141749644D01*
X196373999Y-141744597D01*
X196361883Y-141736519D01*
X196351589Y-141726225D01*
X196346443Y-141726225D01*
X196342159Y-141723369D01*
X196327881Y-141726225D01*
X196313321Y-141726225D01*
X196309680Y-141729865D01*
X196304633Y-141730875D01*
X196290853Y-141744684D01*
X196198358Y-141883424D01*
X196112362Y-141969421D01*
X196024380Y-142013412D01*
X196008968Y-142025373D01*
X195996867Y-142061678D01*
X195706308Y-142061678D01*
X195666676Y-141903149D01*
X195664363Y-141898252D01*
X195664363Y-141896142D01*
X195660959Y-141891048D01*
X195658343Y-141885510D01*
X195656532Y-141884423D01*
X195653524Y-141879921D01*
X195558286Y-141784683D01*
X195551624Y-141780231D01*
X195545291Y-141775316D01*
X195450054Y-141727698D01*
X195447638Y-141727036D01*
X195446827Y-141726225D01*
X195438965Y-141724661D01*
X195431238Y-141722545D01*
X195430149Y-141722907D01*
X195427693Y-141722419D01*
X195237217Y-141722419D01*
X195234760Y-141722907D01*
X195233672Y-141722545D01*
X195225944Y-141724661D01*
X195218083Y-141726225D01*
X195217271Y-141727036D01*
X195214856Y-141727698D01*
X195119618Y-141775317D01*
X195113283Y-141780232D01*
X195106624Y-141784683D01*
X195011386Y-141879921D01*
X195008377Y-141884423D01*
X195006567Y-141885510D01*
X195003950Y-141891048D01*
X195000547Y-141896142D01*
X195000547Y-141898252D01*
X194998234Y-141903149D01*
X194950615Y-142093625D01*
X194950317Y-142099742D01*
X194949122Y-142105752D01*
X194620551Y-142105752D01*
X194620551Y-141772419D01*
X194616745Y-141753285D01*
X194589685Y-141726225D01*
X194551417Y-141726225D01*
X194524357Y-141753285D01*
X194520551Y-141772419D01*
X193503659Y-141772419D01*
X193516915Y-141752535D01*
X193524362Y-141734503D01*
X193516857Y-141696978D01*
X193485016Y-141675750D01*
X193447490Y-141683255D01*
X193433710Y-141697065D01*
X192576567Y-142982779D01*
X192569121Y-143000811D01*
X189600042Y-143000811D01*
X189600042Y-141768875D01*
X189711153Y-141768875D01*
X189713593Y-141788230D01*
X190046926Y-142788230D01*
X190056587Y-142805178D01*
X190059928Y-142806848D01*
X190061600Y-142810192D01*
X190076642Y-142815205D01*
X190090816Y-142822293D01*
X190094359Y-142821111D01*
X190097904Y-142822293D01*
X190112083Y-142815203D01*
X190127120Y-142810191D01*
X190128790Y-142806850D01*
X190132133Y-142805179D01*
X190141794Y-142788230D01*
X190280427Y-142372332D01*
X190714833Y-142372332D01*
X190714833Y-142410600D01*
X190741893Y-142437660D01*
X190761027Y-142441466D01*
X191091979Y-142441466D01*
X191091979Y-142772419D01*
X191095785Y-142791553D01*
X191122845Y-142818613D01*
X191161113Y-142818613D01*
X191188173Y-142791553D01*
X191191979Y-142772419D01*
X191191979Y-142441466D01*
X191522932Y-142441466D01*
X191542066Y-142437660D01*
X191569126Y-142410600D01*
X191569126Y-142372332D01*
X191542066Y-142345272D01*
X191522932Y-142341466D01*
X191191979Y-142341466D01*
X191191979Y-142010514D01*
X191188173Y-141991380D01*
X191161113Y-141964320D01*
X191122845Y-141964320D01*
X191095785Y-141991380D01*
X191091979Y-142010514D01*
X191091979Y-142341466D01*
X190761027Y-142341466D01*
X190741893Y-142345272D01*
X190714833Y-142372332D01*
X190280427Y-142372332D01*
X190475127Y-141788231D01*
X190477567Y-141768875D01*
X190460453Y-141734647D01*
X190424149Y-141722545D01*
X190389920Y-141739660D01*
X190380259Y-141756608D01*
X190094360Y-142614305D01*
X189808461Y-141756608D01*
X189798800Y-141739659D01*
X189764571Y-141722545D01*
X189728267Y-141734646D01*
X189711153Y-141768875D01*
X189600042Y-141768875D01*
X189600042Y-141564639D01*
X203350709Y-141564639D01*
X203350709Y-143170674D01*
G37*
G36*
X178393314Y-141861131D02*
G01*
X178473020Y-141940837D01*
X178515788Y-142111907D01*
X178515788Y-142432930D01*
X178473020Y-142603999D01*
X178393312Y-142683708D01*
X178315890Y-142722419D01*
X178149021Y-142722419D01*
X178071598Y-142683707D01*
X177991889Y-142603998D01*
X177949122Y-142432930D01*
X177949122Y-142111907D01*
X177991889Y-141940837D01*
X178071595Y-141861131D01*
X178149021Y-141822419D01*
X178315890Y-141822419D01*
X178393314Y-141861131D01*
G37*
G36*
X185872113Y-141863739D02*
G01*
X185953266Y-141944892D01*
X185994803Y-142027966D01*
X186039598Y-142207145D01*
X186039598Y-142337692D01*
X185994803Y-142516870D01*
X185953266Y-142599944D01*
X185872112Y-142681098D01*
X185748152Y-142722419D01*
X185568170Y-142722419D01*
X185568170Y-141822419D01*
X185748152Y-141822419D01*
X185872113Y-141863739D01*
G37*
G36*
X186250709Y-143170674D02*
G01*
X172500042Y-143170674D01*
X172500042Y-143000811D01*
X175469121Y-143000811D01*
X175476626Y-143038336D01*
X175508467Y-143059563D01*
X175545992Y-143052058D01*
X175559773Y-143038249D01*
X175584732Y-143000811D01*
X181469121Y-143000811D01*
X181476626Y-143038336D01*
X181508467Y-143059563D01*
X181545992Y-143052058D01*
X181559773Y-143038249D01*
X182117945Y-142200990D01*
X183372932Y-142200990D01*
X183372932Y-142343847D01*
X183374127Y-142349856D01*
X183374425Y-142355974D01*
X183422044Y-142546450D01*
X183424383Y-142551402D01*
X183425830Y-142556684D01*
X183473448Y-142651921D01*
X183478359Y-142658249D01*
X183482814Y-142664916D01*
X183578053Y-142760155D01*
X183580134Y-142761545D01*
X183580648Y-142762573D01*
X183587613Y-142766543D01*
X183594274Y-142770994D01*
X183595422Y-142770994D01*
X183597597Y-142772234D01*
X183740453Y-142819853D01*
X183748403Y-142820855D01*
X183756265Y-142822419D01*
X183851503Y-142822419D01*
X183859365Y-142820855D01*
X183867314Y-142819853D01*
X184010171Y-142772234D01*
X184012346Y-142770994D01*
X184013495Y-142770994D01*
X184020165Y-142766536D01*
X184027119Y-142762573D01*
X184027631Y-142761547D01*
X184029716Y-142760155D01*
X184077335Y-142712535D01*
X184088173Y-142696314D01*
X184091979Y-142677180D01*
X184091979Y-142343847D01*
X184088173Y-142324713D01*
X184061113Y-142297653D01*
X184041979Y-142293847D01*
X183851503Y-142293847D01*
X183832369Y-142297653D01*
X183805309Y-142324713D01*
X183805309Y-142362981D01*
X183832369Y-142390041D01*
X183851503Y-142393847D01*
X183991979Y-142393847D01*
X183991979Y-142656469D01*
X183967350Y-142681098D01*
X183843390Y-142722419D01*
X183764378Y-142722419D01*
X183640418Y-142681099D01*
X183559262Y-142599942D01*
X183517727Y-142516872D01*
X183472932Y-142337692D01*
X183472932Y-142207145D01*
X183517727Y-142027965D01*
X183559263Y-141944893D01*
X183640416Y-141863739D01*
X183764378Y-141822419D01*
X183887319Y-141822419D01*
X183971999Y-141864759D01*
X183990815Y-141869912D01*
X184027120Y-141857810D01*
X184044234Y-141823582D01*
X184032132Y-141787278D01*
X184016720Y-141775316D01*
X184010926Y-141772419D01*
X184420551Y-141772419D01*
X184420551Y-142772419D01*
X184424357Y-142791553D01*
X184451417Y-142818613D01*
X184489685Y-142818613D01*
X184516745Y-142791553D01*
X184520551Y-142772419D01*
X184520551Y-141960697D01*
X184998567Y-142797226D01*
X185011365Y-142811951D01*
X185017989Y-142813757D01*
X185022845Y-142818613D01*
X185035793Y-142818613D01*
X185048285Y-142822020D01*
X185054247Y-142818613D01*
X185061113Y-142818613D01*
X185070266Y-142809459D01*
X185081511Y-142803034D01*
X185083318Y-142796407D01*
X185088173Y-142791553D01*
X185091979Y-142772419D01*
X185091979Y-141772419D01*
X185468170Y-141772419D01*
X185468170Y-142772419D01*
X185471976Y-142791553D01*
X185499036Y-142818613D01*
X185518170Y-142822419D01*
X185756265Y-142822419D01*
X185764127Y-142820855D01*
X185772076Y-142819853D01*
X185914933Y-142772234D01*
X185917108Y-142770994D01*
X185918257Y-142770994D01*
X185924927Y-142766536D01*
X185931881Y-142762573D01*
X185932393Y-142761547D01*
X185934478Y-142760155D01*
X186029716Y-142664916D01*
X186034169Y-142658250D01*
X186039081Y-142651922D01*
X186086700Y-142556684D01*
X186088146Y-142551402D01*
X186090486Y-142546450D01*
X186138105Y-142355974D01*
X186138402Y-142349856D01*
X186139598Y-142343847D01*
X186139598Y-142200990D01*
X186138402Y-142194980D01*
X186138105Y-142188863D01*
X186090486Y-141998387D01*
X186088146Y-141993434D01*
X186086700Y-141988153D01*
X186039081Y-141892915D01*
X186034165Y-141886580D01*
X186029715Y-141879921D01*
X185934477Y-141784683D01*
X185932394Y-141783291D01*
X185931881Y-141782265D01*
X185924920Y-141778297D01*
X185918256Y-141773844D01*
X185917108Y-141773844D01*
X185914933Y-141772604D01*
X185772076Y-141724985D01*
X185764127Y-141723982D01*
X185756265Y-141722419D01*
X185518170Y-141722419D01*
X185499036Y-141726225D01*
X185471976Y-141753285D01*
X185468170Y-141772419D01*
X185091979Y-141772419D01*
X185088173Y-141753285D01*
X185061113Y-141726225D01*
X185022845Y-141726225D01*
X184995785Y-141753285D01*
X184991979Y-141772419D01*
X184991979Y-142584140D01*
X184513963Y-141747612D01*
X184501166Y-141732887D01*
X184494539Y-141731079D01*
X184489685Y-141726225D01*
X184476738Y-141726225D01*
X184464245Y-141722818D01*
X184458283Y-141726225D01*
X184451417Y-141726225D01*
X184442263Y-141735378D01*
X184431019Y-141741804D01*
X184429211Y-141748430D01*
X184424357Y-141753285D01*
X184420551Y-141772419D01*
X184010926Y-141772419D01*
X183921483Y-141727698D01*
X183919067Y-141727036D01*
X183918256Y-141726225D01*
X183910394Y-141724661D01*
X183902667Y-141722545D01*
X183901578Y-141722907D01*
X183899122Y-141722419D01*
X183756265Y-141722419D01*
X183748403Y-141723982D01*
X183740453Y-141724985D01*
X183597597Y-141772604D01*
X183595422Y-141773844D01*
X183594274Y-141773844D01*
X183587613Y-141778294D01*
X183580648Y-141782265D01*
X183580134Y-141783292D01*
X183578053Y-141784683D01*
X183482815Y-141879921D01*
X183478363Y-141886582D01*
X183473448Y-141892916D01*
X183425830Y-141988153D01*
X183424383Y-141993434D01*
X183422044Y-141998387D01*
X183374425Y-142188863D01*
X183374127Y-142194980D01*
X183372932Y-142200990D01*
X182117945Y-142200990D01*
X182416915Y-141752535D01*
X182424362Y-141734503D01*
X182416857Y-141696978D01*
X182385016Y-141675750D01*
X182347490Y-141683255D01*
X182333710Y-141697065D01*
X181476567Y-142982779D01*
X181469121Y-143000811D01*
X175584732Y-143000811D01*
X176403659Y-141772419D01*
X177420551Y-141772419D01*
X177420551Y-142772419D01*
X177424357Y-142791553D01*
X177451417Y-142818613D01*
X177489685Y-142818613D01*
X177516745Y-142791553D01*
X177520551Y-142772419D01*
X177520551Y-142105752D01*
X177849122Y-142105752D01*
X177849122Y-142439085D01*
X177850317Y-142445094D01*
X177850615Y-142451212D01*
X177898234Y-142641688D01*
X177900547Y-142646584D01*
X177900547Y-142648695D01*
X177903951Y-142653790D01*
X177906567Y-142659327D01*
X177908375Y-142660412D01*
X177911385Y-142664916D01*
X178006624Y-142760155D01*
X178013283Y-142764605D01*
X178019618Y-142769521D01*
X178114856Y-142817140D01*
X178117271Y-142817801D01*
X178118083Y-142818613D01*
X178125944Y-142820176D01*
X178133672Y-142822293D01*
X178134760Y-142821930D01*
X178137217Y-142822419D01*
X178327693Y-142822419D01*
X178330149Y-142821930D01*
X178331238Y-142822293D01*
X178338965Y-142820176D01*
X178346827Y-142818613D01*
X178347638Y-142817801D01*
X178350054Y-142817140D01*
X178445291Y-142769522D01*
X178451618Y-142764611D01*
X178458287Y-142760155D01*
X178553525Y-142664916D01*
X178556534Y-142660412D01*
X178558343Y-142659327D01*
X178560958Y-142653790D01*
X178564363Y-142648695D01*
X178564363Y-142646584D01*
X178566676Y-142641688D01*
X178614295Y-142451212D01*
X178614592Y-142445094D01*
X178615788Y-142439085D01*
X178615788Y-142105752D01*
X178614592Y-142099742D01*
X178614295Y-142093625D01*
X178606308Y-142061678D01*
X178896867Y-142061678D01*
X178913981Y-142095906D01*
X178950286Y-142108007D01*
X178969102Y-142102854D01*
X179064339Y-142055236D01*
X179070672Y-142050320D01*
X179077334Y-142045869D01*
X179172572Y-141950631D01*
X179175320Y-141946517D01*
X179178820Y-141943011D01*
X179182455Y-141937558D01*
X179182455Y-142722419D01*
X178946741Y-142722419D01*
X178927607Y-142726225D01*
X178900547Y-142753285D01*
X178900547Y-142791553D01*
X178927607Y-142818613D01*
X178946741Y-142822419D01*
X179518169Y-142822419D01*
X179537303Y-142818613D01*
X179564363Y-142791553D01*
X179564363Y-142753285D01*
X179537303Y-142726225D01*
X179518169Y-142722419D01*
X179282455Y-142722419D01*
X179282455Y-142442629D01*
X179849248Y-142442629D01*
X179852928Y-142449989D01*
X179852928Y-142458219D01*
X179861157Y-142466448D01*
X179866362Y-142476858D01*
X179874169Y-142479460D01*
X179879988Y-142485279D01*
X179899122Y-142489085D01*
X180325312Y-142489085D01*
X180325312Y-142772419D01*
X180329118Y-142791553D01*
X180356178Y-142818613D01*
X180394446Y-142818613D01*
X180421506Y-142791553D01*
X180425312Y-142772419D01*
X180425312Y-142489085D01*
X180518169Y-142489085D01*
X180537303Y-142485279D01*
X180564363Y-142458219D01*
X180564363Y-142419951D01*
X180537303Y-142392891D01*
X180518169Y-142389085D01*
X180425312Y-142389085D01*
X180425312Y-142105752D01*
X180421506Y-142086618D01*
X180394446Y-142059558D01*
X180356178Y-142059558D01*
X180329118Y-142086618D01*
X180325312Y-142105752D01*
X180325312Y-142389085D01*
X179968493Y-142389085D01*
X180184651Y-141740612D01*
X180187091Y-141721256D01*
X180169977Y-141687028D01*
X180133673Y-141674926D01*
X180099444Y-141692041D01*
X180089783Y-141708989D01*
X179851688Y-142423274D01*
X179849248Y-142442629D01*
X179282455Y-142442629D01*
X179282455Y-141772419D01*
X179278649Y-141753285D01*
X179275008Y-141749644D01*
X179273999Y-141744597D01*
X179261883Y-141736519D01*
X179251589Y-141726225D01*
X179246443Y-141726225D01*
X179242159Y-141723369D01*
X179227881Y-141726225D01*
X179213321Y-141726225D01*
X179209680Y-141729865D01*
X179204633Y-141730875D01*
X179190853Y-141744684D01*
X179098358Y-141883424D01*
X179012362Y-141969421D01*
X178924380Y-142013412D01*
X178908968Y-142025373D01*
X178896867Y-142061678D01*
X178606308Y-142061678D01*
X178566676Y-141903149D01*
X178564363Y-141898252D01*
X178564363Y-141896142D01*
X178560959Y-141891048D01*
X178558343Y-141885510D01*
X178556532Y-141884423D01*
X178553524Y-141879921D01*
X178458286Y-141784683D01*
X178451624Y-141780231D01*
X178445291Y-141775316D01*
X178350054Y-141727698D01*
X178347638Y-141727036D01*
X178346827Y-141726225D01*
X178338965Y-141724661D01*
X178331238Y-141722545D01*
X178330149Y-141722907D01*
X178327693Y-141722419D01*
X178137217Y-141722419D01*
X178134760Y-141722907D01*
X178133672Y-141722545D01*
X178125944Y-141724661D01*
X178118083Y-141726225D01*
X178117271Y-141727036D01*
X178114856Y-141727698D01*
X178019618Y-141775317D01*
X178013283Y-141780232D01*
X178006624Y-141784683D01*
X177911386Y-141879921D01*
X177908377Y-141884423D01*
X177906567Y-141885510D01*
X177903950Y-141891048D01*
X177900547Y-141896142D01*
X177900547Y-141898252D01*
X177898234Y-141903149D01*
X177850615Y-142093625D01*
X177850317Y-142099742D01*
X177849122Y-142105752D01*
X177520551Y-142105752D01*
X177520551Y-141772419D01*
X177516745Y-141753285D01*
X177489685Y-141726225D01*
X177451417Y-141726225D01*
X177424357Y-141753285D01*
X177420551Y-141772419D01*
X176403659Y-141772419D01*
X176416915Y-141752535D01*
X176424362Y-141734503D01*
X176416857Y-141696978D01*
X176385016Y-141675750D01*
X176347490Y-141683255D01*
X176333710Y-141697065D01*
X175476567Y-142982779D01*
X175469121Y-143000811D01*
X172500042Y-143000811D01*
X172500042Y-141768875D01*
X172611153Y-141768875D01*
X172613593Y-141788230D01*
X172946926Y-142788230D01*
X172956587Y-142805178D01*
X172959928Y-142806848D01*
X172961600Y-142810192D01*
X172976642Y-142815205D01*
X172990816Y-142822293D01*
X172994359Y-142821111D01*
X172997904Y-142822293D01*
X173012083Y-142815203D01*
X173027120Y-142810191D01*
X173028790Y-142806850D01*
X173032133Y-142805179D01*
X173041794Y-142788230D01*
X173180427Y-142372332D01*
X173614833Y-142372332D01*
X173614833Y-142410600D01*
X173641893Y-142437660D01*
X173661027Y-142441466D01*
X173991979Y-142441466D01*
X173991979Y-142772419D01*
X173995785Y-142791553D01*
X174022845Y-142818613D01*
X174061113Y-142818613D01*
X174088173Y-142791553D01*
X174091979Y-142772419D01*
X174091979Y-142441466D01*
X174422932Y-142441466D01*
X174442066Y-142437660D01*
X174469126Y-142410600D01*
X174469126Y-142372332D01*
X174442066Y-142345272D01*
X174422932Y-142341466D01*
X174091979Y-142341466D01*
X174091979Y-142010514D01*
X174088173Y-141991380D01*
X174061113Y-141964320D01*
X174022845Y-141964320D01*
X173995785Y-141991380D01*
X173991979Y-142010514D01*
X173991979Y-142341466D01*
X173661027Y-142341466D01*
X173641893Y-142345272D01*
X173614833Y-142372332D01*
X173180427Y-142372332D01*
X173375127Y-141788231D01*
X173377567Y-141768875D01*
X173360453Y-141734647D01*
X173324149Y-141722545D01*
X173289920Y-141739660D01*
X173280259Y-141756608D01*
X172994360Y-142614305D01*
X172708461Y-141756608D01*
X172698800Y-141739659D01*
X172664571Y-141722545D01*
X172628267Y-141734646D01*
X172611153Y-141768875D01*
X172500042Y-141768875D01*
X172500042Y-141563815D01*
X186250709Y-141563815D01*
X186250709Y-143170674D01*
G37*
G36*
X161393314Y-141961131D02*
G01*
X161473020Y-142040837D01*
X161515788Y-142211907D01*
X161515788Y-142532930D01*
X161473020Y-142703999D01*
X161393312Y-142783708D01*
X161315890Y-142822419D01*
X161149021Y-142822419D01*
X161071598Y-142783707D01*
X160991889Y-142703998D01*
X160949122Y-142532930D01*
X160949122Y-142211907D01*
X160991889Y-142040837D01*
X161071595Y-141961131D01*
X161149021Y-141922419D01*
X161315890Y-141922419D01*
X161393314Y-141961131D01*
G37*
G36*
X168872113Y-141963739D02*
G01*
X168953266Y-142044892D01*
X168994803Y-142127966D01*
X169039598Y-142307145D01*
X169039598Y-142437692D01*
X168994803Y-142616870D01*
X168953266Y-142699944D01*
X168872112Y-142781098D01*
X168748152Y-142822419D01*
X168568170Y-142822419D01*
X168568170Y-141922419D01*
X168748152Y-141922419D01*
X168872113Y-141963739D01*
G37*
G36*
X169250709Y-143270674D02*
G01*
X155500042Y-143270674D01*
X155500042Y-143100811D01*
X158469121Y-143100811D01*
X158476626Y-143138336D01*
X158508467Y-143159563D01*
X158545992Y-143152058D01*
X158559773Y-143138249D01*
X158584732Y-143100811D01*
X164469121Y-143100811D01*
X164476626Y-143138336D01*
X164508467Y-143159563D01*
X164545992Y-143152058D01*
X164559773Y-143138249D01*
X165117945Y-142300990D01*
X166372932Y-142300990D01*
X166372932Y-142443847D01*
X166374127Y-142449856D01*
X166374425Y-142455974D01*
X166422044Y-142646450D01*
X166424383Y-142651402D01*
X166425830Y-142656684D01*
X166473448Y-142751921D01*
X166478359Y-142758249D01*
X166482814Y-142764916D01*
X166578053Y-142860155D01*
X166580134Y-142861545D01*
X166580648Y-142862573D01*
X166587613Y-142866543D01*
X166594274Y-142870994D01*
X166595422Y-142870994D01*
X166597597Y-142872234D01*
X166740453Y-142919853D01*
X166748403Y-142920855D01*
X166756265Y-142922419D01*
X166851503Y-142922419D01*
X166859365Y-142920855D01*
X166867314Y-142919853D01*
X167010171Y-142872234D01*
X167012346Y-142870994D01*
X167013495Y-142870994D01*
X167020165Y-142866536D01*
X167027119Y-142862573D01*
X167027631Y-142861547D01*
X167029716Y-142860155D01*
X167077335Y-142812535D01*
X167088173Y-142796314D01*
X167091979Y-142777180D01*
X167091979Y-142443847D01*
X167088173Y-142424713D01*
X167061113Y-142397653D01*
X167041979Y-142393847D01*
X166851503Y-142393847D01*
X166832369Y-142397653D01*
X166805309Y-142424713D01*
X166805309Y-142462981D01*
X166832369Y-142490041D01*
X166851503Y-142493847D01*
X166991979Y-142493847D01*
X166991979Y-142756469D01*
X166967350Y-142781098D01*
X166843390Y-142822419D01*
X166764378Y-142822419D01*
X166640418Y-142781099D01*
X166559262Y-142699942D01*
X166517727Y-142616872D01*
X166472932Y-142437692D01*
X166472932Y-142307145D01*
X166517727Y-142127965D01*
X166559263Y-142044893D01*
X166640416Y-141963739D01*
X166764378Y-141922419D01*
X166887319Y-141922419D01*
X166971999Y-141964759D01*
X166990815Y-141969912D01*
X167027120Y-141957810D01*
X167044234Y-141923582D01*
X167032132Y-141887278D01*
X167016720Y-141875316D01*
X167010926Y-141872419D01*
X167420551Y-141872419D01*
X167420551Y-142872419D01*
X167424357Y-142891553D01*
X167451417Y-142918613D01*
X167489685Y-142918613D01*
X167516745Y-142891553D01*
X167520551Y-142872419D01*
X167520551Y-142060697D01*
X167998567Y-142897226D01*
X168011365Y-142911951D01*
X168017989Y-142913757D01*
X168022845Y-142918613D01*
X168035793Y-142918613D01*
X168048285Y-142922020D01*
X168054247Y-142918613D01*
X168061113Y-142918613D01*
X168070266Y-142909459D01*
X168081511Y-142903034D01*
X168083318Y-142896407D01*
X168088173Y-142891553D01*
X168091979Y-142872419D01*
X168091979Y-141872419D01*
X168468170Y-141872419D01*
X168468170Y-142872419D01*
X168471976Y-142891553D01*
X168499036Y-142918613D01*
X168518170Y-142922419D01*
X168756265Y-142922419D01*
X168764127Y-142920855D01*
X168772076Y-142919853D01*
X168914933Y-142872234D01*
X168917108Y-142870994D01*
X168918257Y-142870994D01*
X168924927Y-142866536D01*
X168931881Y-142862573D01*
X168932393Y-142861547D01*
X168934478Y-142860155D01*
X169029716Y-142764916D01*
X169034169Y-142758250D01*
X169039081Y-142751922D01*
X169086700Y-142656684D01*
X169088146Y-142651402D01*
X169090486Y-142646450D01*
X169138105Y-142455974D01*
X169138402Y-142449856D01*
X169139598Y-142443847D01*
X169139598Y-142300990D01*
X169138402Y-142294980D01*
X169138105Y-142288863D01*
X169090486Y-142098387D01*
X169088146Y-142093434D01*
X169086700Y-142088153D01*
X169039081Y-141992915D01*
X169034165Y-141986580D01*
X169029715Y-141979921D01*
X168934477Y-141884683D01*
X168932394Y-141883291D01*
X168931881Y-141882265D01*
X168924920Y-141878297D01*
X168918256Y-141873844D01*
X168917108Y-141873844D01*
X168914933Y-141872604D01*
X168772076Y-141824985D01*
X168764127Y-141823982D01*
X168756265Y-141822419D01*
X168518170Y-141822419D01*
X168499036Y-141826225D01*
X168471976Y-141853285D01*
X168468170Y-141872419D01*
X168091979Y-141872419D01*
X168088173Y-141853285D01*
X168061113Y-141826225D01*
X168022845Y-141826225D01*
X167995785Y-141853285D01*
X167991979Y-141872419D01*
X167991979Y-142684140D01*
X167513963Y-141847612D01*
X167501166Y-141832887D01*
X167494539Y-141831079D01*
X167489685Y-141826225D01*
X167476738Y-141826225D01*
X167464245Y-141822818D01*
X167458283Y-141826225D01*
X167451417Y-141826225D01*
X167442263Y-141835378D01*
X167431019Y-141841804D01*
X167429211Y-141848430D01*
X167424357Y-141853285D01*
X167420551Y-141872419D01*
X167010926Y-141872419D01*
X166921483Y-141827698D01*
X166919067Y-141827036D01*
X166918256Y-141826225D01*
X166910394Y-141824661D01*
X166902667Y-141822545D01*
X166901578Y-141822907D01*
X166899122Y-141822419D01*
X166756265Y-141822419D01*
X166748403Y-141823982D01*
X166740453Y-141824985D01*
X166597597Y-141872604D01*
X166595422Y-141873844D01*
X166594274Y-141873844D01*
X166587613Y-141878294D01*
X166580648Y-141882265D01*
X166580134Y-141883292D01*
X166578053Y-141884683D01*
X166482815Y-141979921D01*
X166478363Y-141986582D01*
X166473448Y-141992916D01*
X166425830Y-142088153D01*
X166424383Y-142093434D01*
X166422044Y-142098387D01*
X166374425Y-142288863D01*
X166374127Y-142294980D01*
X166372932Y-142300990D01*
X165117945Y-142300990D01*
X165416915Y-141852535D01*
X165424362Y-141834503D01*
X165416857Y-141796978D01*
X165385016Y-141775750D01*
X165347490Y-141783255D01*
X165333710Y-141797065D01*
X164476567Y-143082779D01*
X164469121Y-143100811D01*
X158584732Y-143100811D01*
X159403659Y-141872419D01*
X160420551Y-141872419D01*
X160420551Y-142872419D01*
X160424357Y-142891553D01*
X160451417Y-142918613D01*
X160489685Y-142918613D01*
X160516745Y-142891553D01*
X160520551Y-142872419D01*
X160520551Y-142205752D01*
X160849122Y-142205752D01*
X160849122Y-142539085D01*
X160850317Y-142545094D01*
X160850615Y-142551212D01*
X160898234Y-142741688D01*
X160900547Y-142746584D01*
X160900547Y-142748695D01*
X160903951Y-142753790D01*
X160906567Y-142759327D01*
X160908375Y-142760412D01*
X160911385Y-142764916D01*
X161006624Y-142860155D01*
X161013283Y-142864605D01*
X161019618Y-142869521D01*
X161114856Y-142917140D01*
X161117271Y-142917801D01*
X161118083Y-142918613D01*
X161125944Y-142920176D01*
X161133672Y-142922293D01*
X161134760Y-142921930D01*
X161137217Y-142922419D01*
X161327693Y-142922419D01*
X161330149Y-142921930D01*
X161331238Y-142922293D01*
X161338965Y-142920176D01*
X161346827Y-142918613D01*
X161347638Y-142917801D01*
X161350054Y-142917140D01*
X161445291Y-142869522D01*
X161451618Y-142864611D01*
X161458287Y-142860155D01*
X161553525Y-142764916D01*
X161556534Y-142760412D01*
X161558343Y-142759327D01*
X161560958Y-142753790D01*
X161564363Y-142748695D01*
X161564363Y-142746584D01*
X161566676Y-142741688D01*
X161614295Y-142551212D01*
X161614592Y-142545094D01*
X161615788Y-142539085D01*
X161615788Y-142205752D01*
X161614592Y-142199742D01*
X161614295Y-142193625D01*
X161606308Y-142161678D01*
X161896867Y-142161678D01*
X161913981Y-142195906D01*
X161950286Y-142208007D01*
X161969102Y-142202854D01*
X162064339Y-142155236D01*
X162070672Y-142150320D01*
X162077334Y-142145869D01*
X162172572Y-142050631D01*
X162175320Y-142046517D01*
X162178820Y-142043011D01*
X162182455Y-142037558D01*
X162182455Y-142822419D01*
X161946741Y-142822419D01*
X161927607Y-142826225D01*
X161900547Y-142853285D01*
X161900547Y-142891553D01*
X161927607Y-142918613D01*
X161946741Y-142922419D01*
X162518169Y-142922419D01*
X162537303Y-142918613D01*
X162564363Y-142891553D01*
X162564363Y-142853285D01*
X162537303Y-142826225D01*
X162518169Y-142822419D01*
X162282455Y-142822419D01*
X162282455Y-142343634D01*
X162849370Y-142343634D01*
X162851253Y-142363052D01*
X162852928Y-142365099D01*
X162852928Y-142367743D01*
X162864825Y-142379640D01*
X162875486Y-142392670D01*
X162878118Y-142392933D01*
X162879988Y-142394803D01*
X162896815Y-142394803D01*
X162913565Y-142396478D01*
X162915612Y-142394803D01*
X162918256Y-142394803D01*
X162934477Y-142383964D01*
X162976359Y-142342082D01*
X163053783Y-142303371D01*
X163268271Y-142303371D01*
X163345694Y-142342082D01*
X163381838Y-142378227D01*
X163420550Y-142455650D01*
X163420550Y-142670138D01*
X163381838Y-142747561D01*
X163345692Y-142783708D01*
X163268271Y-142822419D01*
X163053783Y-142822419D01*
X162976360Y-142783708D01*
X162934478Y-142741825D01*
X162918257Y-142730986D01*
X162879988Y-142730986D01*
X162852928Y-142758045D01*
X162852928Y-142796314D01*
X162863766Y-142812535D01*
X162911385Y-142860155D01*
X162918051Y-142864609D01*
X162924380Y-142869521D01*
X163019618Y-142917140D01*
X163022033Y-142917801D01*
X163022845Y-142918613D01*
X163030706Y-142920176D01*
X163038434Y-142922293D01*
X163039522Y-142921930D01*
X163041979Y-142922419D01*
X163280074Y-142922419D01*
X163282530Y-142921930D01*
X163283619Y-142922293D01*
X163291346Y-142920176D01*
X163299208Y-142918613D01*
X163300019Y-142917801D01*
X163302435Y-142917140D01*
X163397672Y-142869522D01*
X163403999Y-142864611D01*
X163410668Y-142860155D01*
X163458287Y-142812535D01*
X163462740Y-142805869D01*
X163467652Y-142799541D01*
X163515271Y-142704303D01*
X163515932Y-142701887D01*
X163516744Y-142701076D01*
X163518307Y-142693214D01*
X163520424Y-142685487D01*
X163520061Y-142684398D01*
X163520550Y-142681942D01*
X163520550Y-142443847D01*
X163520061Y-142441390D01*
X163520424Y-142440302D01*
X163518307Y-142432574D01*
X163516744Y-142424713D01*
X163515932Y-142423901D01*
X163515271Y-142421486D01*
X163467652Y-142326248D01*
X163462740Y-142319919D01*
X163458286Y-142313253D01*
X163410667Y-142265635D01*
X163404005Y-142261183D01*
X163397672Y-142256268D01*
X163302435Y-142208650D01*
X163300019Y-142207988D01*
X163299208Y-142207177D01*
X163291346Y-142205613D01*
X163283619Y-142203497D01*
X163282530Y-142203859D01*
X163280074Y-142203371D01*
X163041979Y-142203371D01*
X163039522Y-142203859D01*
X163038434Y-142203497D01*
X163030706Y-142205613D01*
X163022845Y-142207177D01*
X163022033Y-142207988D01*
X163019618Y-142208650D01*
X162960406Y-142238255D01*
X162991990Y-141922419D01*
X163422931Y-141922419D01*
X163442065Y-141918613D01*
X163469125Y-141891553D01*
X163469125Y-141853285D01*
X163442065Y-141826225D01*
X163422931Y-141822419D01*
X162946741Y-141822419D01*
X162934779Y-141824798D01*
X162932298Y-141824550D01*
X162931100Y-141825530D01*
X162927607Y-141826225D01*
X162915706Y-141838125D01*
X162902680Y-141848784D01*
X162901640Y-141852191D01*
X162900547Y-141853285D01*
X162900547Y-141855777D01*
X162896989Y-141867444D01*
X162849370Y-142343634D01*
X162282455Y-142343634D01*
X162282455Y-141872419D01*
X162278649Y-141853285D01*
X162275008Y-141849644D01*
X162273999Y-141844597D01*
X162261883Y-141836519D01*
X162251589Y-141826225D01*
X162246443Y-141826225D01*
X162242159Y-141823369D01*
X162227881Y-141826225D01*
X162213321Y-141826225D01*
X162209680Y-141829865D01*
X162204633Y-141830875D01*
X162190853Y-141844684D01*
X162098358Y-141983424D01*
X162012362Y-142069421D01*
X161924380Y-142113412D01*
X161908968Y-142125373D01*
X161896867Y-142161678D01*
X161606308Y-142161678D01*
X161566676Y-142003149D01*
X161564363Y-141998252D01*
X161564363Y-141996142D01*
X161560959Y-141991048D01*
X161558343Y-141985510D01*
X161556532Y-141984423D01*
X161553524Y-141979921D01*
X161458286Y-141884683D01*
X161451624Y-141880231D01*
X161445291Y-141875316D01*
X161350054Y-141827698D01*
X161347638Y-141827036D01*
X161346827Y-141826225D01*
X161338965Y-141824661D01*
X161331238Y-141822545D01*
X161330149Y-141822907D01*
X161327693Y-141822419D01*
X161137217Y-141822419D01*
X161134760Y-141822907D01*
X161133672Y-141822545D01*
X161125944Y-141824661D01*
X161118083Y-141826225D01*
X161117271Y-141827036D01*
X161114856Y-141827698D01*
X161019618Y-141875317D01*
X161013283Y-141880232D01*
X161006624Y-141884683D01*
X160911386Y-141979921D01*
X160908377Y-141984423D01*
X160906567Y-141985510D01*
X160903950Y-141991048D01*
X160900547Y-141996142D01*
X160900547Y-141998252D01*
X160898234Y-142003149D01*
X160850615Y-142193625D01*
X160850317Y-142199742D01*
X160849122Y-142205752D01*
X160520551Y-142205752D01*
X160520551Y-141872419D01*
X160516745Y-141853285D01*
X160489685Y-141826225D01*
X160451417Y-141826225D01*
X160424357Y-141853285D01*
X160420551Y-141872419D01*
X159403659Y-141872419D01*
X159416915Y-141852535D01*
X159424362Y-141834503D01*
X159416857Y-141796978D01*
X159385016Y-141775750D01*
X159347490Y-141783255D01*
X159333710Y-141797065D01*
X158476567Y-143082779D01*
X158469121Y-143100811D01*
X155500042Y-143100811D01*
X155500042Y-141868875D01*
X155611153Y-141868875D01*
X155613593Y-141888230D01*
X155946926Y-142888230D01*
X155956587Y-142905178D01*
X155959928Y-142906848D01*
X155961600Y-142910192D01*
X155976642Y-142915205D01*
X155990816Y-142922293D01*
X155994359Y-142921111D01*
X155997904Y-142922293D01*
X156012083Y-142915203D01*
X156027120Y-142910191D01*
X156028790Y-142906850D01*
X156032133Y-142905179D01*
X156041794Y-142888230D01*
X156180427Y-142472332D01*
X156614833Y-142472332D01*
X156614833Y-142510600D01*
X156641893Y-142537660D01*
X156661027Y-142541466D01*
X156991979Y-142541466D01*
X156991979Y-142872419D01*
X156995785Y-142891553D01*
X157022845Y-142918613D01*
X157061113Y-142918613D01*
X157088173Y-142891553D01*
X157091979Y-142872419D01*
X157091979Y-142541466D01*
X157422932Y-142541466D01*
X157442066Y-142537660D01*
X157469126Y-142510600D01*
X157469126Y-142472332D01*
X157442066Y-142445272D01*
X157422932Y-142441466D01*
X157091979Y-142441466D01*
X157091979Y-142110514D01*
X157088173Y-142091380D01*
X157061113Y-142064320D01*
X157022845Y-142064320D01*
X156995785Y-142091380D01*
X156991979Y-142110514D01*
X156991979Y-142441466D01*
X156661027Y-142441466D01*
X156641893Y-142445272D01*
X156614833Y-142472332D01*
X156180427Y-142472332D01*
X156375127Y-141888231D01*
X156377567Y-141868875D01*
X156360453Y-141834647D01*
X156324149Y-141822545D01*
X156289920Y-141839660D01*
X156280259Y-141856608D01*
X155994360Y-142714305D01*
X155708461Y-141856608D01*
X155698800Y-141839659D01*
X155664571Y-141822545D01*
X155628267Y-141834646D01*
X155611153Y-141868875D01*
X155500042Y-141868875D01*
X155500042Y-141664639D01*
X169250709Y-141664639D01*
X169250709Y-143270674D01*
G37*
G36*
X156584210Y-120977580D02*
G01*
X156404228Y-120977580D01*
X156280266Y-120936259D01*
X156199113Y-120855106D01*
X156157577Y-120772034D01*
X156112782Y-120592854D01*
X156112782Y-120462307D01*
X156157577Y-120283127D01*
X156199113Y-120200055D01*
X156280266Y-120118901D01*
X156404229Y-120077580D01*
X156584210Y-120077580D01*
X156584210Y-120977580D01*
G37*
G36*
X163128402Y-120116292D02*
G01*
X163208109Y-120195999D01*
X163250877Y-120367069D01*
X163250877Y-120688092D01*
X163208109Y-120859161D01*
X163128403Y-120938868D01*
X163050979Y-120977580D01*
X162884110Y-120977580D01*
X162806684Y-120938867D01*
X162726978Y-120859161D01*
X162684211Y-120688092D01*
X162684211Y-120367069D01*
X162726978Y-120195999D01*
X162806685Y-120116292D01*
X162884109Y-120077580D01*
X163050979Y-120077580D01*
X163128402Y-120116292D01*
G37*
G36*
X168699957Y-121235360D02*
G01*
X155901671Y-121235360D01*
X155901671Y-120456152D01*
X156012782Y-120456152D01*
X156012782Y-120599009D01*
X156013977Y-120605018D01*
X156014275Y-120611136D01*
X156061894Y-120801612D01*
X156064233Y-120806564D01*
X156065680Y-120811846D01*
X156113298Y-120907083D01*
X156118213Y-120913416D01*
X156122665Y-120920078D01*
X156217903Y-121015316D01*
X156219984Y-121016706D01*
X156220498Y-121017734D01*
X156227463Y-121021704D01*
X156234124Y-121026155D01*
X156235272Y-121026155D01*
X156237447Y-121027395D01*
X156380303Y-121075014D01*
X156388253Y-121076016D01*
X156396115Y-121077580D01*
X156634210Y-121077580D01*
X156653344Y-121073774D01*
X156680404Y-121046714D01*
X156684210Y-121027580D01*
X156684210Y-120027580D01*
X157060401Y-120027580D01*
X157060401Y-121027580D01*
X157064207Y-121046714D01*
X157091267Y-121073774D01*
X157129535Y-121073774D01*
X157156595Y-121046714D01*
X157160401Y-121027580D01*
X157160401Y-120215858D01*
X157638417Y-121052387D01*
X157651215Y-121067112D01*
X157657839Y-121068918D01*
X157662695Y-121073774D01*
X157675643Y-121073774D01*
X157688135Y-121077181D01*
X157694097Y-121073774D01*
X157700963Y-121073774D01*
X157710116Y-121064620D01*
X157721361Y-121058195D01*
X157723168Y-121051568D01*
X157728023Y-121046714D01*
X157731829Y-121027580D01*
X157731829Y-120122819D01*
X158060401Y-120122819D01*
X158060401Y-120456152D01*
X158064207Y-120475286D01*
X158091267Y-120502346D01*
X158110401Y-120506152D01*
X158300877Y-120506152D01*
X158320011Y-120502346D01*
X158347071Y-120475286D01*
X158347071Y-120437018D01*
X158320011Y-120409958D01*
X158300877Y-120406152D01*
X158160401Y-120406152D01*
X158160401Y-120143529D01*
X158185029Y-120118901D01*
X158308991Y-120077580D01*
X158388001Y-120077580D01*
X158511963Y-120118901D01*
X158593116Y-120200054D01*
X158634653Y-120283128D01*
X158679448Y-120462307D01*
X158679448Y-120592854D01*
X158634653Y-120772032D01*
X158593116Y-120855106D01*
X158511963Y-120936259D01*
X158388002Y-120977580D01*
X158265062Y-120977580D01*
X158180381Y-120935240D01*
X158161565Y-120930087D01*
X158125260Y-120942188D01*
X158108146Y-120976416D01*
X158120247Y-121012721D01*
X158135659Y-121024682D01*
X158230897Y-121072301D01*
X158233312Y-121072962D01*
X158234124Y-121073774D01*
X158241985Y-121075337D01*
X158249713Y-121077454D01*
X158250801Y-121077091D01*
X158253258Y-121077580D01*
X158396115Y-121077580D01*
X158403977Y-121076016D01*
X158411926Y-121075014D01*
X158440477Y-121065497D01*
X159728019Y-121065497D01*
X159735524Y-121103022D01*
X159767365Y-121124249D01*
X159804890Y-121116744D01*
X159818671Y-121102935D01*
X160059383Y-120741866D01*
X161631830Y-120741866D01*
X161631830Y-120837104D01*
X161632318Y-120839560D01*
X161631956Y-120840649D01*
X161634072Y-120848376D01*
X161635636Y-120856238D01*
X161636447Y-120857049D01*
X161637109Y-120859465D01*
X161684727Y-120954702D01*
X161689642Y-120961035D01*
X161694094Y-120967697D01*
X161741712Y-121015316D01*
X161748378Y-121019770D01*
X161754707Y-121024682D01*
X161849945Y-121072301D01*
X161852360Y-121072962D01*
X161853172Y-121073774D01*
X161861033Y-121075337D01*
X161868761Y-121077454D01*
X161869849Y-121077091D01*
X161872306Y-121077580D01*
X162110401Y-121077580D01*
X162112857Y-121077091D01*
X162113946Y-121077454D01*
X162121673Y-121075337D01*
X162129535Y-121073774D01*
X162130346Y-121072962D01*
X162132762Y-121072301D01*
X162227999Y-121024683D01*
X162234332Y-121019767D01*
X162240994Y-121015316D01*
X162288613Y-120967698D01*
X162299452Y-120951477D01*
X162299452Y-120913208D01*
X162272392Y-120886148D01*
X162234123Y-120886148D01*
X162217902Y-120896987D01*
X162176021Y-120938868D01*
X162098598Y-120977580D01*
X161884110Y-120977580D01*
X161806686Y-120938868D01*
X161770541Y-120902724D01*
X161731830Y-120825301D01*
X161731830Y-120749979D01*
X161773150Y-120626017D01*
X162038253Y-120360914D01*
X162584211Y-120360914D01*
X162584211Y-120694247D01*
X162585406Y-120700256D01*
X162585704Y-120706374D01*
X162633323Y-120896850D01*
X162635636Y-120901746D01*
X162635636Y-120903857D01*
X162639039Y-120908950D01*
X162641656Y-120914489D01*
X162643466Y-120915575D01*
X162646475Y-120920078D01*
X162741713Y-121015316D01*
X162748372Y-121019766D01*
X162754707Y-121024682D01*
X162849945Y-121072301D01*
X162852360Y-121072962D01*
X162853172Y-121073774D01*
X162861033Y-121075337D01*
X162868761Y-121077454D01*
X162869849Y-121077091D01*
X162872306Y-121077580D01*
X163062782Y-121077580D01*
X163065238Y-121077091D01*
X163066327Y-121077454D01*
X163074054Y-121075337D01*
X163081916Y-121073774D01*
X163082727Y-121072962D01*
X163085143Y-121072301D01*
X163180380Y-121024683D01*
X163186713Y-121019767D01*
X163193375Y-121015316D01*
X163288613Y-120920078D01*
X163291621Y-120915575D01*
X163293432Y-120914489D01*
X163296048Y-120908950D01*
X163299452Y-120903857D01*
X163299452Y-120901746D01*
X163301765Y-120896850D01*
X163349384Y-120706374D01*
X163349681Y-120700256D01*
X163350877Y-120694247D01*
X163350877Y-120360914D01*
X163349681Y-120354904D01*
X163349384Y-120348787D01*
X163301765Y-120158311D01*
X163299452Y-120153414D01*
X163299452Y-120151304D01*
X163296048Y-120146210D01*
X163293432Y-120140672D01*
X163291621Y-120139585D01*
X163288613Y-120135083D01*
X163193375Y-120039845D01*
X163186715Y-120035394D01*
X163180381Y-120030479D01*
X163174583Y-120027580D01*
X163679448Y-120027580D01*
X163679448Y-121027580D01*
X163683254Y-121046714D01*
X163710314Y-121073774D01*
X163748582Y-121073774D01*
X163756859Y-121065497D01*
X164775638Y-121065497D01*
X164783143Y-121103022D01*
X164814984Y-121124249D01*
X164852509Y-121116744D01*
X164866290Y-121102935D01*
X164914164Y-121031124D01*
X167822432Y-121031124D01*
X167839546Y-121065353D01*
X167875850Y-121077454D01*
X167910079Y-121060340D01*
X167919740Y-121043391D01*
X168205639Y-120185693D01*
X168491538Y-121043391D01*
X168501199Y-121060339D01*
X168535428Y-121077454D01*
X168571732Y-121065352D01*
X168588846Y-121031124D01*
X168586406Y-121011768D01*
X168253073Y-120011769D01*
X168243412Y-119994820D01*
X168240069Y-119993148D01*
X168238399Y-119989808D01*
X168223362Y-119984795D01*
X168209183Y-119977706D01*
X168205638Y-119978887D01*
X168202095Y-119977706D01*
X168187921Y-119984793D01*
X168172879Y-119989807D01*
X168171207Y-119993150D01*
X168167866Y-119994821D01*
X168158205Y-120011769D01*
X167824872Y-121011769D01*
X167822432Y-121031124D01*
X164914164Y-121031124D01*
X165341979Y-120389399D01*
X166730874Y-120389399D01*
X166730874Y-120427667D01*
X166757934Y-120454727D01*
X166777068Y-120458533D01*
X167108020Y-120458533D01*
X167108020Y-120789485D01*
X167111826Y-120808619D01*
X167138886Y-120835679D01*
X167177154Y-120835679D01*
X167204214Y-120808619D01*
X167208020Y-120789485D01*
X167208020Y-120458533D01*
X167538972Y-120458533D01*
X167558106Y-120454727D01*
X167585166Y-120427667D01*
X167585166Y-120389399D01*
X167558106Y-120362339D01*
X167538972Y-120358533D01*
X167208020Y-120358533D01*
X167208020Y-120027580D01*
X167204214Y-120008446D01*
X167177154Y-119981386D01*
X167138886Y-119981386D01*
X167111826Y-120008446D01*
X167108020Y-120027580D01*
X167108020Y-120358533D01*
X166777068Y-120358533D01*
X166757934Y-120362339D01*
X166730874Y-120389399D01*
X165341979Y-120389399D01*
X165723431Y-119817220D01*
X165730878Y-119799189D01*
X165723373Y-119761663D01*
X165691532Y-119740436D01*
X165654007Y-119747941D01*
X165640226Y-119761750D01*
X164783084Y-121047465D01*
X164775638Y-121065497D01*
X163756859Y-121065497D01*
X163775642Y-121046714D01*
X163779448Y-121027580D01*
X163779448Y-120027580D01*
X163775642Y-120008446D01*
X163748582Y-119981386D01*
X163710314Y-119981386D01*
X163683254Y-120008446D01*
X163679448Y-120027580D01*
X163174583Y-120027580D01*
X163085143Y-119982859D01*
X163082727Y-119982197D01*
X163081916Y-119981386D01*
X163074054Y-119979822D01*
X163066327Y-119977706D01*
X163065238Y-119978068D01*
X163062782Y-119977580D01*
X162872306Y-119977580D01*
X162869849Y-119978068D01*
X162868761Y-119977706D01*
X162861033Y-119979822D01*
X162853172Y-119981386D01*
X162852360Y-119982197D01*
X162849945Y-119982859D01*
X162754707Y-120030479D01*
X162748372Y-120035394D01*
X162741713Y-120039845D01*
X162646475Y-120135083D01*
X162643466Y-120139585D01*
X162641656Y-120140672D01*
X162639039Y-120146210D01*
X162635636Y-120151304D01*
X162635636Y-120153414D01*
X162633323Y-120158311D01*
X162585704Y-120348787D01*
X162585406Y-120354904D01*
X162584211Y-120360914D01*
X162038253Y-120360914D01*
X162336232Y-120062935D01*
X162347071Y-120046714D01*
X162347071Y-120008446D01*
X162320011Y-119981386D01*
X162300877Y-119977580D01*
X161681830Y-119977580D01*
X161662696Y-119981386D01*
X161635636Y-120008446D01*
X161635636Y-120046714D01*
X161662696Y-120073774D01*
X161681830Y-120077580D01*
X162180167Y-120077580D01*
X161694094Y-120563654D01*
X161692702Y-120565736D01*
X161691676Y-120566250D01*
X161687708Y-120573210D01*
X161683255Y-120579875D01*
X161683255Y-120581022D01*
X161682015Y-120583198D01*
X161634396Y-120726055D01*
X161633393Y-120734003D01*
X161631830Y-120741866D01*
X160059383Y-120741866D01*
X160675812Y-119817220D01*
X160683259Y-119799189D01*
X160675754Y-119761663D01*
X160643913Y-119740436D01*
X160606388Y-119747941D01*
X160592607Y-119761750D01*
X159735465Y-121047465D01*
X159728019Y-121065497D01*
X158440477Y-121065497D01*
X158554783Y-121027395D01*
X158556958Y-121026155D01*
X158558106Y-121026155D01*
X158564770Y-121021701D01*
X158571731Y-121017734D01*
X158572244Y-121016707D01*
X158574327Y-121015316D01*
X158669565Y-120920078D01*
X158674015Y-120913418D01*
X158678931Y-120907084D01*
X158726550Y-120811846D01*
X158727996Y-120806564D01*
X158730336Y-120801612D01*
X158777955Y-120611136D01*
X158778252Y-120605018D01*
X158779448Y-120599009D01*
X158779448Y-120456152D01*
X158778252Y-120450142D01*
X158777955Y-120444025D01*
X158730336Y-120253549D01*
X158727996Y-120248596D01*
X158726550Y-120243315D01*
X158678931Y-120148077D01*
X158674015Y-120141742D01*
X158669565Y-120135083D01*
X158574327Y-120039845D01*
X158572245Y-120038454D01*
X158571732Y-120037427D01*
X158564764Y-120033455D01*
X158558106Y-120029006D01*
X158556959Y-120029006D01*
X158554784Y-120027766D01*
X158411927Y-119980146D01*
X158403976Y-119979143D01*
X158396115Y-119977580D01*
X158300877Y-119977580D01*
X158293015Y-119979143D01*
X158285065Y-119980146D01*
X158142208Y-120027766D01*
X158140033Y-120029006D01*
X158138885Y-120029006D01*
X158132220Y-120033459D01*
X158125260Y-120037427D01*
X158124746Y-120038453D01*
X158122664Y-120039845D01*
X158075046Y-120087464D01*
X158064207Y-120103685D01*
X158060401Y-120122819D01*
X157731829Y-120122819D01*
X157731829Y-120027580D01*
X157728023Y-120008446D01*
X157700963Y-119981386D01*
X157662695Y-119981386D01*
X157635635Y-120008446D01*
X157631829Y-120027580D01*
X157631829Y-120839301D01*
X157153813Y-120002773D01*
X157141016Y-119988048D01*
X157134389Y-119986240D01*
X157129535Y-119981386D01*
X157116588Y-119981386D01*
X157104095Y-119977979D01*
X157098133Y-119981386D01*
X157091267Y-119981386D01*
X157082113Y-119990539D01*
X157070869Y-119996965D01*
X157069061Y-120003591D01*
X157064207Y-120008446D01*
X157060401Y-120027580D01*
X156684210Y-120027580D01*
X156680404Y-120008446D01*
X156653344Y-119981386D01*
X156634210Y-119977580D01*
X156396115Y-119977580D01*
X156388253Y-119979143D01*
X156380303Y-119980146D01*
X156237446Y-120027766D01*
X156235271Y-120029006D01*
X156234124Y-120029006D01*
X156227465Y-120033455D01*
X156220498Y-120037427D01*
X156219984Y-120038454D01*
X156217903Y-120039845D01*
X156122665Y-120135083D01*
X156118213Y-120141744D01*
X156113298Y-120148078D01*
X156065680Y-120243315D01*
X156064233Y-120248596D01*
X156061894Y-120253549D01*
X156014275Y-120444025D01*
X156013977Y-120450142D01*
X156012782Y-120456152D01*
X155901671Y-120456152D01*
X155901671Y-119629325D01*
X168699957Y-119629325D01*
X168699957Y-121235360D01*
G37*
X151272306Y-120779961D02*
X151367544Y-120827580D01*
X151367544Y-120827580D02*
X151510401Y-120827580D01*
X151510401Y-120827580D02*
X151653258Y-120779961D01*
X151653258Y-120779961D02*
X151748496Y-120684723D01*
X151748496Y-120684723D02*
X151796115Y-120589485D01*
X151796115Y-120589485D02*
X151843734Y-120399009D01*
X151843734Y-120399009D02*
X151843734Y-120256152D01*
X151843734Y-120256152D02*
X151796115Y-120065676D01*
X151796115Y-120065676D02*
X151748496Y-119970438D01*
X151748496Y-119970438D02*
X151653258Y-119875200D01*
X151653258Y-119875200D02*
X151510401Y-119827580D01*
X151510401Y-119827580D02*
X151415163Y-119827580D01*
X151415163Y-119827580D02*
X151272306Y-119875200D01*
X151272306Y-119875200D02*
X151224687Y-119922819D01*
X151224687Y-119922819D02*
X151224687Y-120256152D01*
X151224687Y-120256152D02*
X151415163Y-120256152D01*
X150796115Y-119827580D02*
X150796115Y-120827580D01*
X150796115Y-120827580D02*
X150224687Y-119827580D01*
X150224687Y-119827580D02*
X150224687Y-120827580D01*
X149748496Y-119827580D02*
X149748496Y-120827580D01*
X149748496Y-120827580D02*
X149510401Y-120827580D01*
X149510401Y-120827580D02*
X149367544Y-120779961D01*
X149367544Y-120779961D02*
X149272306Y-120684723D01*
X149272306Y-120684723D02*
X149224687Y-120589485D01*
X149224687Y-120589485D02*
X149177068Y-120399009D01*
X149177068Y-120399009D02*
X149177068Y-120256152D01*
X149177068Y-120256152D02*
X149224687Y-120065676D01*
X149224687Y-120065676D02*
X149272306Y-119970438D01*
X149272306Y-119970438D02*
X149367544Y-119875200D01*
X149367544Y-119875200D02*
X149510401Y-119827580D01*
X149510401Y-119827580D02*
X149748496Y-119827580D01*
X147272306Y-120875200D02*
X148129448Y-119589485D01*
X146177067Y-120208533D02*
X145415163Y-120208533D01*
X145796115Y-119827580D02*
X145796115Y-120589485D01*
X144462782Y-120827580D02*
X144938972Y-120827580D01*
X144938972Y-120827580D02*
X144986591Y-120351390D01*
X144986591Y-120351390D02*
X144938972Y-120399009D01*
X144938972Y-120399009D02*
X144843734Y-120446628D01*
X144843734Y-120446628D02*
X144605639Y-120446628D01*
X144605639Y-120446628D02*
X144510401Y-120399009D01*
X144510401Y-120399009D02*
X144462782Y-120351390D01*
X144462782Y-120351390D02*
X144415163Y-120256152D01*
X144415163Y-120256152D02*
X144415163Y-120018057D01*
X144415163Y-120018057D02*
X144462782Y-119922819D01*
X144462782Y-119922819D02*
X144510401Y-119875200D01*
X144510401Y-119875200D02*
X144605639Y-119827580D01*
X144605639Y-119827580D02*
X144843734Y-119827580D01*
X144843734Y-119827580D02*
X144938972Y-119875200D01*
X144938972Y-119875200D02*
X144986591Y-119922819D01*
X144129448Y-120827580D02*
X143796115Y-119827580D01*
X143796115Y-119827580D02*
X143462782Y-120827580D01*
D11*
X226390476Y-121794819D02*
X226390476Y-122509104D01*
X226390476Y-122509104D02*
X226342857Y-122651961D01*
X226342857Y-122651961D02*
X226247619Y-122747200D01*
X226247619Y-122747200D02*
X226104762Y-122794819D01*
X226104762Y-122794819D02*
X226009524Y-122794819D01*
X227390476Y-122794819D02*
X226819048Y-122794819D01*
X227104762Y-122794819D02*
X227104762Y-121794819D01*
X227104762Y-121794819D02*
X227009524Y-121937676D01*
X227009524Y-121937676D02*
X226914286Y-122032914D01*
X226914286Y-122032914D02*
X226819048Y-122080533D01*
X228009524Y-121794819D02*
X228104762Y-121794819D01*
X228104762Y-121794819D02*
X228200000Y-121842438D01*
X228200000Y-121842438D02*
X228247619Y-121890057D01*
X228247619Y-121890057D02*
X228295238Y-121985295D01*
X228295238Y-121985295D02*
X228342857Y-122175771D01*
X228342857Y-122175771D02*
X228342857Y-122413866D01*
X228342857Y-122413866D02*
X228295238Y-122604342D01*
X228295238Y-122604342D02*
X228247619Y-122699580D01*
X228247619Y-122699580D02*
X228200000Y-122747200D01*
X228200000Y-122747200D02*
X228104762Y-122794819D01*
X228104762Y-122794819D02*
X228009524Y-122794819D01*
X228009524Y-122794819D02*
X227914286Y-122747200D01*
X227914286Y-122747200D02*
X227866667Y-122699580D01*
X227866667Y-122699580D02*
X227819048Y-122604342D01*
X227819048Y-122604342D02*
X227771429Y-122413866D01*
X227771429Y-122413866D02*
X227771429Y-122175771D01*
X227771429Y-122175771D02*
X227819048Y-121985295D01*
X227819048Y-121985295D02*
X227866667Y-121890057D01*
X227866667Y-121890057D02*
X227914286Y-121842438D01*
X227914286Y-121842438D02*
X228009524Y-121794819D01*
X120309580Y-131487744D02*
X120357200Y-131535363D01*
X120357200Y-131535363D02*
X120404819Y-131678220D01*
X120404819Y-131678220D02*
X120404819Y-131773458D01*
X120404819Y-131773458D02*
X120357200Y-131916315D01*
X120357200Y-131916315D02*
X120261961Y-132011553D01*
X120261961Y-132011553D02*
X120166723Y-132059172D01*
X120166723Y-132059172D02*
X119976247Y-132106791D01*
X119976247Y-132106791D02*
X119833390Y-132106791D01*
X119833390Y-132106791D02*
X119642914Y-132059172D01*
X119642914Y-132059172D02*
X119547676Y-132011553D01*
X119547676Y-132011553D02*
X119452438Y-131916315D01*
X119452438Y-131916315D02*
X119404819Y-131773458D01*
X119404819Y-131773458D02*
X119404819Y-131678220D01*
X119404819Y-131678220D02*
X119452438Y-131535363D01*
X119452438Y-131535363D02*
X119500057Y-131487744D01*
X120404819Y-130535363D02*
X120404819Y-131106791D01*
X120404819Y-130821077D02*
X119404819Y-130821077D01*
X119404819Y-130821077D02*
X119547676Y-130916315D01*
X119547676Y-130916315D02*
X119642914Y-131011553D01*
X119642914Y-131011553D02*
X119690533Y-131106791D01*
X120404819Y-129582982D02*
X120404819Y-130154410D01*
X120404819Y-129868696D02*
X119404819Y-129868696D01*
X119404819Y-129868696D02*
X119547676Y-129963934D01*
X119547676Y-129963934D02*
X119642914Y-130059172D01*
X119642914Y-130059172D02*
X119690533Y-130154410D01*
X98354819Y-142742857D02*
X97878628Y-143076190D01*
X98354819Y-143314285D02*
X97354819Y-143314285D01*
X97354819Y-143314285D02*
X97354819Y-142933333D01*
X97354819Y-142933333D02*
X97402438Y-142838095D01*
X97402438Y-142838095D02*
X97450057Y-142790476D01*
X97450057Y-142790476D02*
X97545295Y-142742857D01*
X97545295Y-142742857D02*
X97688152Y-142742857D01*
X97688152Y-142742857D02*
X97783390Y-142790476D01*
X97783390Y-142790476D02*
X97831009Y-142838095D01*
X97831009Y-142838095D02*
X97878628Y-142933333D01*
X97878628Y-142933333D02*
X97878628Y-143314285D01*
X97354819Y-142409523D02*
X97354819Y-141790476D01*
X97354819Y-141790476D02*
X97735771Y-142123809D01*
X97735771Y-142123809D02*
X97735771Y-141980952D01*
X97735771Y-141980952D02*
X97783390Y-141885714D01*
X97783390Y-141885714D02*
X97831009Y-141838095D01*
X97831009Y-141838095D02*
X97926247Y-141790476D01*
X97926247Y-141790476D02*
X98164342Y-141790476D01*
X98164342Y-141790476D02*
X98259580Y-141838095D01*
X98259580Y-141838095D02*
X98307200Y-141885714D01*
X98307200Y-141885714D02*
X98354819Y-141980952D01*
X98354819Y-141980952D02*
X98354819Y-142266666D01*
X98354819Y-142266666D02*
X98307200Y-142361904D01*
X98307200Y-142361904D02*
X98259580Y-142409523D01*
X97354819Y-140933333D02*
X97354819Y-141123809D01*
X97354819Y-141123809D02*
X97402438Y-141219047D01*
X97402438Y-141219047D02*
X97450057Y-141266666D01*
X97450057Y-141266666D02*
X97592914Y-141361904D01*
X97592914Y-141361904D02*
X97783390Y-141409523D01*
X97783390Y-141409523D02*
X98164342Y-141409523D01*
X98164342Y-141409523D02*
X98259580Y-141361904D01*
X98259580Y-141361904D02*
X98307200Y-141314285D01*
X98307200Y-141314285D02*
X98354819Y-141219047D01*
X98354819Y-141219047D02*
X98354819Y-141028571D01*
X98354819Y-141028571D02*
X98307200Y-140933333D01*
X98307200Y-140933333D02*
X98259580Y-140885714D01*
X98259580Y-140885714D02*
X98164342Y-140838095D01*
X98164342Y-140838095D02*
X97926247Y-140838095D01*
X97926247Y-140838095D02*
X97831009Y-140885714D01*
X97831009Y-140885714D02*
X97783390Y-140933333D01*
X97783390Y-140933333D02*
X97735771Y-141028571D01*
X97735771Y-141028571D02*
X97735771Y-141219047D01*
X97735771Y-141219047D02*
X97783390Y-141314285D01*
X97783390Y-141314285D02*
X97831009Y-141361904D01*
X97831009Y-141361904D02*
X97926247Y-141409523D01*
X227095833Y-127729580D02*
X227048214Y-127777200D01*
X227048214Y-127777200D02*
X226905357Y-127824819D01*
X226905357Y-127824819D02*
X226810119Y-127824819D01*
X226810119Y-127824819D02*
X226667262Y-127777200D01*
X226667262Y-127777200D02*
X226572024Y-127681961D01*
X226572024Y-127681961D02*
X226524405Y-127586723D01*
X226524405Y-127586723D02*
X226476786Y-127396247D01*
X226476786Y-127396247D02*
X226476786Y-127253390D01*
X226476786Y-127253390D02*
X226524405Y-127062914D01*
X226524405Y-127062914D02*
X226572024Y-126967676D01*
X226572024Y-126967676D02*
X226667262Y-126872438D01*
X226667262Y-126872438D02*
X226810119Y-126824819D01*
X226810119Y-126824819D02*
X226905357Y-126824819D01*
X226905357Y-126824819D02*
X227048214Y-126872438D01*
X227048214Y-126872438D02*
X227095833Y-126920057D01*
X228048214Y-127824819D02*
X227476786Y-127824819D01*
X227762500Y-127824819D02*
X227762500Y-126824819D01*
X227762500Y-126824819D02*
X227667262Y-126967676D01*
X227667262Y-126967676D02*
X227572024Y-127062914D01*
X227572024Y-127062914D02*
X227476786Y-127110533D01*
X179066666Y-132294819D02*
X179066666Y-133009104D01*
X179066666Y-133009104D02*
X179019047Y-133151961D01*
X179019047Y-133151961D02*
X178923809Y-133247200D01*
X178923809Y-133247200D02*
X178780952Y-133294819D01*
X178780952Y-133294819D02*
X178685714Y-133294819D01*
X179971428Y-132628152D02*
X179971428Y-133294819D01*
X179733333Y-132247200D02*
X179495238Y-132961485D01*
X179495238Y-132961485D02*
X180114285Y-132961485D01*
X209754819Y-122566666D02*
X209278628Y-122899999D01*
X209754819Y-123138094D02*
X208754819Y-123138094D01*
X208754819Y-123138094D02*
X208754819Y-122757142D01*
X208754819Y-122757142D02*
X208802438Y-122661904D01*
X208802438Y-122661904D02*
X208850057Y-122614285D01*
X208850057Y-122614285D02*
X208945295Y-122566666D01*
X208945295Y-122566666D02*
X209088152Y-122566666D01*
X209088152Y-122566666D02*
X209183390Y-122614285D01*
X209183390Y-122614285D02*
X209231009Y-122661904D01*
X209231009Y-122661904D02*
X209278628Y-122757142D01*
X209278628Y-122757142D02*
X209278628Y-123138094D01*
X209088152Y-121709523D02*
X209754819Y-121709523D01*
X208707200Y-121947618D02*
X209421485Y-122185713D01*
X209421485Y-122185713D02*
X209421485Y-121566666D01*
X100261905Y-125384819D02*
X100261905Y-124384819D01*
X100261905Y-124384819D02*
X100500000Y-124384819D01*
X100500000Y-124384819D02*
X100642857Y-124432438D01*
X100642857Y-124432438D02*
X100738095Y-124527676D01*
X100738095Y-124527676D02*
X100785714Y-124622914D01*
X100785714Y-124622914D02*
X100833333Y-124813390D01*
X100833333Y-124813390D02*
X100833333Y-124956247D01*
X100833333Y-124956247D02*
X100785714Y-125146723D01*
X100785714Y-125146723D02*
X100738095Y-125241961D01*
X100738095Y-125241961D02*
X100642857Y-125337200D01*
X100642857Y-125337200D02*
X100500000Y-125384819D01*
X100500000Y-125384819D02*
X100261905Y-125384819D01*
X101690476Y-124718152D02*
X101690476Y-125384819D01*
X101452381Y-124337200D02*
X101214286Y-125051485D01*
X101214286Y-125051485D02*
X101833333Y-125051485D01*
X95658095Y-125754819D02*
X95658095Y-124754819D01*
X96229523Y-125754819D02*
X95800952Y-125183390D01*
X96229523Y-124754819D02*
X95658095Y-125326247D01*
X96254819Y-135842857D02*
X95778628Y-136176190D01*
X96254819Y-136414285D02*
X95254819Y-136414285D01*
X95254819Y-136414285D02*
X95254819Y-136033333D01*
X95254819Y-136033333D02*
X95302438Y-135938095D01*
X95302438Y-135938095D02*
X95350057Y-135890476D01*
X95350057Y-135890476D02*
X95445295Y-135842857D01*
X95445295Y-135842857D02*
X95588152Y-135842857D01*
X95588152Y-135842857D02*
X95683390Y-135890476D01*
X95683390Y-135890476D02*
X95731009Y-135938095D01*
X95731009Y-135938095D02*
X95778628Y-136033333D01*
X95778628Y-136033333D02*
X95778628Y-136414285D01*
X95254819Y-135509523D02*
X95254819Y-134890476D01*
X95254819Y-134890476D02*
X95635771Y-135223809D01*
X95635771Y-135223809D02*
X95635771Y-135080952D01*
X95635771Y-135080952D02*
X95683390Y-134985714D01*
X95683390Y-134985714D02*
X95731009Y-134938095D01*
X95731009Y-134938095D02*
X95826247Y-134890476D01*
X95826247Y-134890476D02*
X96064342Y-134890476D01*
X96064342Y-134890476D02*
X96159580Y-134938095D01*
X96159580Y-134938095D02*
X96207200Y-134985714D01*
X96207200Y-134985714D02*
X96254819Y-135080952D01*
X96254819Y-135080952D02*
X96254819Y-135366666D01*
X96254819Y-135366666D02*
X96207200Y-135461904D01*
X96207200Y-135461904D02*
X96159580Y-135509523D01*
X95254819Y-134271428D02*
X95254819Y-134176190D01*
X95254819Y-134176190D02*
X95302438Y-134080952D01*
X95302438Y-134080952D02*
X95350057Y-134033333D01*
X95350057Y-134033333D02*
X95445295Y-133985714D01*
X95445295Y-133985714D02*
X95635771Y-133938095D01*
X95635771Y-133938095D02*
X95873866Y-133938095D01*
X95873866Y-133938095D02*
X96064342Y-133985714D01*
X96064342Y-133985714D02*
X96159580Y-134033333D01*
X96159580Y-134033333D02*
X96207200Y-134080952D01*
X96207200Y-134080952D02*
X96254819Y-134176190D01*
X96254819Y-134176190D02*
X96254819Y-134271428D01*
X96254819Y-134271428D02*
X96207200Y-134366666D01*
X96207200Y-134366666D02*
X96159580Y-134414285D01*
X96159580Y-134414285D02*
X96064342Y-134461904D01*
X96064342Y-134461904D02*
X95873866Y-134509523D01*
X95873866Y-134509523D02*
X95635771Y-134509523D01*
X95635771Y-134509523D02*
X95445295Y-134461904D01*
X95445295Y-134461904D02*
X95350057Y-134414285D01*
X95350057Y-134414285D02*
X95302438Y-134366666D01*
X95302438Y-134366666D02*
X95254819Y-134271428D01*
X180454819Y-121642857D02*
X179978628Y-121976190D01*
X180454819Y-122214285D02*
X179454819Y-122214285D01*
X179454819Y-122214285D02*
X179454819Y-121833333D01*
X179454819Y-121833333D02*
X179502438Y-121738095D01*
X179502438Y-121738095D02*
X179550057Y-121690476D01*
X179550057Y-121690476D02*
X179645295Y-121642857D01*
X179645295Y-121642857D02*
X179788152Y-121642857D01*
X179788152Y-121642857D02*
X179883390Y-121690476D01*
X179883390Y-121690476D02*
X179931009Y-121738095D01*
X179931009Y-121738095D02*
X179978628Y-121833333D01*
X179978628Y-121833333D02*
X179978628Y-122214285D01*
X180454819Y-120690476D02*
X180454819Y-121261904D01*
X180454819Y-120976190D02*
X179454819Y-120976190D01*
X179454819Y-120976190D02*
X179597676Y-121071428D01*
X179597676Y-121071428D02*
X179692914Y-121166666D01*
X179692914Y-121166666D02*
X179740533Y-121261904D01*
X180454819Y-119738095D02*
X180454819Y-120309523D01*
X180454819Y-120023809D02*
X179454819Y-120023809D01*
X179454819Y-120023809D02*
X179597676Y-120119047D01*
X179597676Y-120119047D02*
X179692914Y-120214285D01*
X179692914Y-120214285D02*
X179740533Y-120309523D01*
X108359580Y-136642857D02*
X108407200Y-136690476D01*
X108407200Y-136690476D02*
X108454819Y-136833333D01*
X108454819Y-136833333D02*
X108454819Y-136928571D01*
X108454819Y-136928571D02*
X108407200Y-137071428D01*
X108407200Y-137071428D02*
X108311961Y-137166666D01*
X108311961Y-137166666D02*
X108216723Y-137214285D01*
X108216723Y-137214285D02*
X108026247Y-137261904D01*
X108026247Y-137261904D02*
X107883390Y-137261904D01*
X107883390Y-137261904D02*
X107692914Y-137214285D01*
X107692914Y-137214285D02*
X107597676Y-137166666D01*
X107597676Y-137166666D02*
X107502438Y-137071428D01*
X107502438Y-137071428D02*
X107454819Y-136928571D01*
X107454819Y-136928571D02*
X107454819Y-136833333D01*
X107454819Y-136833333D02*
X107502438Y-136690476D01*
X107502438Y-136690476D02*
X107550057Y-136642857D01*
X108454819Y-135690476D02*
X108454819Y-136261904D01*
X108454819Y-135976190D02*
X107454819Y-135976190D01*
X107454819Y-135976190D02*
X107597676Y-136071428D01*
X107597676Y-136071428D02*
X107692914Y-136166666D01*
X107692914Y-136166666D02*
X107740533Y-136261904D01*
X107454819Y-134833333D02*
X107454819Y-135023809D01*
X107454819Y-135023809D02*
X107502438Y-135119047D01*
X107502438Y-135119047D02*
X107550057Y-135166666D01*
X107550057Y-135166666D02*
X107692914Y-135261904D01*
X107692914Y-135261904D02*
X107883390Y-135309523D01*
X107883390Y-135309523D02*
X108264342Y-135309523D01*
X108264342Y-135309523D02*
X108359580Y-135261904D01*
X108359580Y-135261904D02*
X108407200Y-135214285D01*
X108407200Y-135214285D02*
X108454819Y-135119047D01*
X108454819Y-135119047D02*
X108454819Y-134928571D01*
X108454819Y-134928571D02*
X108407200Y-134833333D01*
X108407200Y-134833333D02*
X108359580Y-134785714D01*
X108359580Y-134785714D02*
X108264342Y-134738095D01*
X108264342Y-134738095D02*
X108026247Y-134738095D01*
X108026247Y-134738095D02*
X107931009Y-134785714D01*
X107931009Y-134785714D02*
X107883390Y-134833333D01*
X107883390Y-134833333D02*
X107835771Y-134928571D01*
X107835771Y-134928571D02*
X107835771Y-135119047D01*
X107835771Y-135119047D02*
X107883390Y-135214285D01*
X107883390Y-135214285D02*
X107931009Y-135261904D01*
X107931009Y-135261904D02*
X108026247Y-135309523D01*
X208466666Y-142454819D02*
X208466666Y-143169104D01*
X208466666Y-143169104D02*
X208419047Y-143311961D01*
X208419047Y-143311961D02*
X208323809Y-143407200D01*
X208323809Y-143407200D02*
X208180952Y-143454819D01*
X208180952Y-143454819D02*
X208085714Y-143454819D01*
X208990476Y-143454819D02*
X209180952Y-143454819D01*
X209180952Y-143454819D02*
X209276190Y-143407200D01*
X209276190Y-143407200D02*
X209323809Y-143359580D01*
X209323809Y-143359580D02*
X209419047Y-143216723D01*
X209419047Y-143216723D02*
X209466666Y-143026247D01*
X209466666Y-143026247D02*
X209466666Y-142645295D01*
X209466666Y-142645295D02*
X209419047Y-142550057D01*
X209419047Y-142550057D02*
X209371428Y-142502438D01*
X209371428Y-142502438D02*
X209276190Y-142454819D01*
X209276190Y-142454819D02*
X209085714Y-142454819D01*
X209085714Y-142454819D02*
X208990476Y-142502438D01*
X208990476Y-142502438D02*
X208942857Y-142550057D01*
X208942857Y-142550057D02*
X208895238Y-142645295D01*
X208895238Y-142645295D02*
X208895238Y-142883390D01*
X208895238Y-142883390D02*
X208942857Y-142978628D01*
X208942857Y-142978628D02*
X208990476Y-143026247D01*
X208990476Y-143026247D02*
X209085714Y-143073866D01*
X209085714Y-143073866D02*
X209276190Y-143073866D01*
X209276190Y-143073866D02*
X209371428Y-143026247D01*
X209371428Y-143026247D02*
X209419047Y-142978628D01*
X209419047Y-142978628D02*
X209466666Y-142883390D01*
X182633333Y-130859580D02*
X182585714Y-130907200D01*
X182585714Y-130907200D02*
X182442857Y-130954819D01*
X182442857Y-130954819D02*
X182347619Y-130954819D01*
X182347619Y-130954819D02*
X182204762Y-130907200D01*
X182204762Y-130907200D02*
X182109524Y-130811961D01*
X182109524Y-130811961D02*
X182061905Y-130716723D01*
X182061905Y-130716723D02*
X182014286Y-130526247D01*
X182014286Y-130526247D02*
X182014286Y-130383390D01*
X182014286Y-130383390D02*
X182061905Y-130192914D01*
X182061905Y-130192914D02*
X182109524Y-130097676D01*
X182109524Y-130097676D02*
X182204762Y-130002438D01*
X182204762Y-130002438D02*
X182347619Y-129954819D01*
X182347619Y-129954819D02*
X182442857Y-129954819D01*
X182442857Y-129954819D02*
X182585714Y-130002438D01*
X182585714Y-130002438D02*
X182633333Y-130050057D01*
X183538095Y-129954819D02*
X183061905Y-129954819D01*
X183061905Y-129954819D02*
X183014286Y-130431009D01*
X183014286Y-130431009D02*
X183061905Y-130383390D01*
X183061905Y-130383390D02*
X183157143Y-130335771D01*
X183157143Y-130335771D02*
X183395238Y-130335771D01*
X183395238Y-130335771D02*
X183490476Y-130383390D01*
X183490476Y-130383390D02*
X183538095Y-130431009D01*
X183538095Y-130431009D02*
X183585714Y-130526247D01*
X183585714Y-130526247D02*
X183585714Y-130764342D01*
X183585714Y-130764342D02*
X183538095Y-130859580D01*
X183538095Y-130859580D02*
X183490476Y-130907200D01*
X183490476Y-130907200D02*
X183395238Y-130954819D01*
X183395238Y-130954819D02*
X183157143Y-130954819D01*
X183157143Y-130954819D02*
X183061905Y-130907200D01*
X183061905Y-130907200D02*
X183014286Y-130859580D01*
X88054819Y-142142857D02*
X87578628Y-142476190D01*
X88054819Y-142714285D02*
X87054819Y-142714285D01*
X87054819Y-142714285D02*
X87054819Y-142333333D01*
X87054819Y-142333333D02*
X87102438Y-142238095D01*
X87102438Y-142238095D02*
X87150057Y-142190476D01*
X87150057Y-142190476D02*
X87245295Y-142142857D01*
X87245295Y-142142857D02*
X87388152Y-142142857D01*
X87388152Y-142142857D02*
X87483390Y-142190476D01*
X87483390Y-142190476D02*
X87531009Y-142238095D01*
X87531009Y-142238095D02*
X87578628Y-142333333D01*
X87578628Y-142333333D02*
X87578628Y-142714285D01*
X87054819Y-141809523D02*
X87054819Y-141190476D01*
X87054819Y-141190476D02*
X87435771Y-141523809D01*
X87435771Y-141523809D02*
X87435771Y-141380952D01*
X87435771Y-141380952D02*
X87483390Y-141285714D01*
X87483390Y-141285714D02*
X87531009Y-141238095D01*
X87531009Y-141238095D02*
X87626247Y-141190476D01*
X87626247Y-141190476D02*
X87864342Y-141190476D01*
X87864342Y-141190476D02*
X87959580Y-141238095D01*
X87959580Y-141238095D02*
X88007200Y-141285714D01*
X88007200Y-141285714D02*
X88054819Y-141380952D01*
X88054819Y-141380952D02*
X88054819Y-141666666D01*
X88054819Y-141666666D02*
X88007200Y-141761904D01*
X88007200Y-141761904D02*
X87959580Y-141809523D01*
X88054819Y-140238095D02*
X88054819Y-140809523D01*
X88054819Y-140523809D02*
X87054819Y-140523809D01*
X87054819Y-140523809D02*
X87197676Y-140619047D01*
X87197676Y-140619047D02*
X87292914Y-140714285D01*
X87292914Y-140714285D02*
X87340533Y-140809523D01*
X241932142Y-120204819D02*
X241598809Y-119728628D01*
X241360714Y-120204819D02*
X241360714Y-119204819D01*
X241360714Y-119204819D02*
X241741666Y-119204819D01*
X241741666Y-119204819D02*
X241836904Y-119252438D01*
X241836904Y-119252438D02*
X241884523Y-119300057D01*
X241884523Y-119300057D02*
X241932142Y-119395295D01*
X241932142Y-119395295D02*
X241932142Y-119538152D01*
X241932142Y-119538152D02*
X241884523Y-119633390D01*
X241884523Y-119633390D02*
X241836904Y-119681009D01*
X241836904Y-119681009D02*
X241741666Y-119728628D01*
X241741666Y-119728628D02*
X241360714Y-119728628D01*
X242884523Y-120204819D02*
X242313095Y-120204819D01*
X242598809Y-120204819D02*
X242598809Y-119204819D01*
X242598809Y-119204819D02*
X242503571Y-119347676D01*
X242503571Y-119347676D02*
X242408333Y-119442914D01*
X242408333Y-119442914D02*
X242313095Y-119490533D01*
X243217857Y-119204819D02*
X243884523Y-119204819D01*
X243884523Y-119204819D02*
X243455952Y-120204819D01*
X220638095Y-133554819D02*
X220638095Y-134364342D01*
X220638095Y-134364342D02*
X220685714Y-134459580D01*
X220685714Y-134459580D02*
X220733333Y-134507200D01*
X220733333Y-134507200D02*
X220828571Y-134554819D01*
X220828571Y-134554819D02*
X221019047Y-134554819D01*
X221019047Y-134554819D02*
X221114285Y-134507200D01*
X221114285Y-134507200D02*
X221161904Y-134459580D01*
X221161904Y-134459580D02*
X221209523Y-134364342D01*
X221209523Y-134364342D02*
X221209523Y-133554819D01*
X221638095Y-133650057D02*
X221685714Y-133602438D01*
X221685714Y-133602438D02*
X221780952Y-133554819D01*
X221780952Y-133554819D02*
X222019047Y-133554819D01*
X222019047Y-133554819D02*
X222114285Y-133602438D01*
X222114285Y-133602438D02*
X222161904Y-133650057D01*
X222161904Y-133650057D02*
X222209523Y-133745295D01*
X222209523Y-133745295D02*
X222209523Y-133840533D01*
X222209523Y-133840533D02*
X222161904Y-133983390D01*
X222161904Y-133983390D02*
X221590476Y-134554819D01*
X221590476Y-134554819D02*
X222209523Y-134554819D01*
X255713095Y-130404819D02*
X255713095Y-131214342D01*
X255713095Y-131214342D02*
X255760714Y-131309580D01*
X255760714Y-131309580D02*
X255808333Y-131357200D01*
X255808333Y-131357200D02*
X255903571Y-131404819D01*
X255903571Y-131404819D02*
X256094047Y-131404819D01*
X256094047Y-131404819D02*
X256189285Y-131357200D01*
X256189285Y-131357200D02*
X256236904Y-131309580D01*
X256236904Y-131309580D02*
X256284523Y-131214342D01*
X256284523Y-131214342D02*
X256284523Y-130404819D01*
X257284523Y-131404819D02*
X256713095Y-131404819D01*
X256998809Y-131404819D02*
X256998809Y-130404819D01*
X256998809Y-130404819D02*
X256903571Y-130547676D01*
X256903571Y-130547676D02*
X256808333Y-130642914D01*
X256808333Y-130642914D02*
X256713095Y-130690533D01*
X182633333Y-128059580D02*
X182585714Y-128107200D01*
X182585714Y-128107200D02*
X182442857Y-128154819D01*
X182442857Y-128154819D02*
X182347619Y-128154819D01*
X182347619Y-128154819D02*
X182204762Y-128107200D01*
X182204762Y-128107200D02*
X182109524Y-128011961D01*
X182109524Y-128011961D02*
X182061905Y-127916723D01*
X182061905Y-127916723D02*
X182014286Y-127726247D01*
X182014286Y-127726247D02*
X182014286Y-127583390D01*
X182014286Y-127583390D02*
X182061905Y-127392914D01*
X182061905Y-127392914D02*
X182109524Y-127297676D01*
X182109524Y-127297676D02*
X182204762Y-127202438D01*
X182204762Y-127202438D02*
X182347619Y-127154819D01*
X182347619Y-127154819D02*
X182442857Y-127154819D01*
X182442857Y-127154819D02*
X182585714Y-127202438D01*
X182585714Y-127202438D02*
X182633333Y-127250057D01*
X183490476Y-127154819D02*
X183300000Y-127154819D01*
X183300000Y-127154819D02*
X183204762Y-127202438D01*
X183204762Y-127202438D02*
X183157143Y-127250057D01*
X183157143Y-127250057D02*
X183061905Y-127392914D01*
X183061905Y-127392914D02*
X183014286Y-127583390D01*
X183014286Y-127583390D02*
X183014286Y-127964342D01*
X183014286Y-127964342D02*
X183061905Y-128059580D01*
X183061905Y-128059580D02*
X183109524Y-128107200D01*
X183109524Y-128107200D02*
X183204762Y-128154819D01*
X183204762Y-128154819D02*
X183395238Y-128154819D01*
X183395238Y-128154819D02*
X183490476Y-128107200D01*
X183490476Y-128107200D02*
X183538095Y-128059580D01*
X183538095Y-128059580D02*
X183585714Y-127964342D01*
X183585714Y-127964342D02*
X183585714Y-127726247D01*
X183585714Y-127726247D02*
X183538095Y-127631009D01*
X183538095Y-127631009D02*
X183490476Y-127583390D01*
X183490476Y-127583390D02*
X183395238Y-127535771D01*
X183395238Y-127535771D02*
X183204762Y-127535771D01*
X183204762Y-127535771D02*
X183109524Y-127583390D01*
X183109524Y-127583390D02*
X183061905Y-127631009D01*
X183061905Y-127631009D02*
X183014286Y-127726247D01*
X210457142Y-133754819D02*
X210123809Y-133278628D01*
X209885714Y-133754819D02*
X209885714Y-132754819D01*
X209885714Y-132754819D02*
X210266666Y-132754819D01*
X210266666Y-132754819D02*
X210361904Y-132802438D01*
X210361904Y-132802438D02*
X210409523Y-132850057D01*
X210409523Y-132850057D02*
X210457142Y-132945295D01*
X210457142Y-132945295D02*
X210457142Y-133088152D01*
X210457142Y-133088152D02*
X210409523Y-133183390D01*
X210409523Y-133183390D02*
X210361904Y-133231009D01*
X210361904Y-133231009D02*
X210266666Y-133278628D01*
X210266666Y-133278628D02*
X209885714Y-133278628D01*
X210838095Y-132850057D02*
X210885714Y-132802438D01*
X210885714Y-132802438D02*
X210980952Y-132754819D01*
X210980952Y-132754819D02*
X211219047Y-132754819D01*
X211219047Y-132754819D02*
X211314285Y-132802438D01*
X211314285Y-132802438D02*
X211361904Y-132850057D01*
X211361904Y-132850057D02*
X211409523Y-132945295D01*
X211409523Y-132945295D02*
X211409523Y-133040533D01*
X211409523Y-133040533D02*
X211361904Y-133183390D01*
X211361904Y-133183390D02*
X210790476Y-133754819D01*
X210790476Y-133754819D02*
X211409523Y-133754819D01*
X212266666Y-133088152D02*
X212266666Y-133754819D01*
X212028571Y-132707200D02*
X211790476Y-133421485D01*
X211790476Y-133421485D02*
X212409523Y-133421485D01*
X246029819Y-121292857D02*
X245553628Y-121626190D01*
X246029819Y-121864285D02*
X245029819Y-121864285D01*
X245029819Y-121864285D02*
X245029819Y-121483333D01*
X245029819Y-121483333D02*
X245077438Y-121388095D01*
X245077438Y-121388095D02*
X245125057Y-121340476D01*
X245125057Y-121340476D02*
X245220295Y-121292857D01*
X245220295Y-121292857D02*
X245363152Y-121292857D01*
X245363152Y-121292857D02*
X245458390Y-121340476D01*
X245458390Y-121340476D02*
X245506009Y-121388095D01*
X245506009Y-121388095D02*
X245553628Y-121483333D01*
X245553628Y-121483333D02*
X245553628Y-121864285D01*
X246029819Y-120340476D02*
X246029819Y-120911904D01*
X246029819Y-120626190D02*
X245029819Y-120626190D01*
X245029819Y-120626190D02*
X245172676Y-120721428D01*
X245172676Y-120721428D02*
X245267914Y-120816666D01*
X245267914Y-120816666D02*
X245315533Y-120911904D01*
X245458390Y-119769047D02*
X245410771Y-119864285D01*
X245410771Y-119864285D02*
X245363152Y-119911904D01*
X245363152Y-119911904D02*
X245267914Y-119959523D01*
X245267914Y-119959523D02*
X245220295Y-119959523D01*
X245220295Y-119959523D02*
X245125057Y-119911904D01*
X245125057Y-119911904D02*
X245077438Y-119864285D01*
X245077438Y-119864285D02*
X245029819Y-119769047D01*
X245029819Y-119769047D02*
X245029819Y-119578571D01*
X245029819Y-119578571D02*
X245077438Y-119483333D01*
X245077438Y-119483333D02*
X245125057Y-119435714D01*
X245125057Y-119435714D02*
X245220295Y-119388095D01*
X245220295Y-119388095D02*
X245267914Y-119388095D01*
X245267914Y-119388095D02*
X245363152Y-119435714D01*
X245363152Y-119435714D02*
X245410771Y-119483333D01*
X245410771Y-119483333D02*
X245458390Y-119578571D01*
X245458390Y-119578571D02*
X245458390Y-119769047D01*
X245458390Y-119769047D02*
X245506009Y-119864285D01*
X245506009Y-119864285D02*
X245553628Y-119911904D01*
X245553628Y-119911904D02*
X245648866Y-119959523D01*
X245648866Y-119959523D02*
X245839342Y-119959523D01*
X245839342Y-119959523D02*
X245934580Y-119911904D01*
X245934580Y-119911904D02*
X245982200Y-119864285D01*
X245982200Y-119864285D02*
X246029819Y-119769047D01*
X246029819Y-119769047D02*
X246029819Y-119578571D01*
X246029819Y-119578571D02*
X245982200Y-119483333D01*
X245982200Y-119483333D02*
X245934580Y-119435714D01*
X245934580Y-119435714D02*
X245839342Y-119388095D01*
X245839342Y-119388095D02*
X245648866Y-119388095D01*
X245648866Y-119388095D02*
X245553628Y-119435714D01*
X245553628Y-119435714D02*
X245506009Y-119483333D01*
X245506009Y-119483333D02*
X245458390Y-119578571D01*
X239829819Y-122592857D02*
X239353628Y-122926190D01*
X239829819Y-123164285D02*
X238829819Y-123164285D01*
X238829819Y-123164285D02*
X238829819Y-122783333D01*
X238829819Y-122783333D02*
X238877438Y-122688095D01*
X238877438Y-122688095D02*
X238925057Y-122640476D01*
X238925057Y-122640476D02*
X239020295Y-122592857D01*
X239020295Y-122592857D02*
X239163152Y-122592857D01*
X239163152Y-122592857D02*
X239258390Y-122640476D01*
X239258390Y-122640476D02*
X239306009Y-122688095D01*
X239306009Y-122688095D02*
X239353628Y-122783333D01*
X239353628Y-122783333D02*
X239353628Y-123164285D01*
X239829819Y-121640476D02*
X239829819Y-122211904D01*
X239829819Y-121926190D02*
X238829819Y-121926190D01*
X238829819Y-121926190D02*
X238972676Y-122021428D01*
X238972676Y-122021428D02*
X239067914Y-122116666D01*
X239067914Y-122116666D02*
X239115533Y-122211904D01*
X238829819Y-120735714D02*
X238829819Y-121211904D01*
X238829819Y-121211904D02*
X239306009Y-121259523D01*
X239306009Y-121259523D02*
X239258390Y-121211904D01*
X239258390Y-121211904D02*
X239210771Y-121116666D01*
X239210771Y-121116666D02*
X239210771Y-120878571D01*
X239210771Y-120878571D02*
X239258390Y-120783333D01*
X239258390Y-120783333D02*
X239306009Y-120735714D01*
X239306009Y-120735714D02*
X239401247Y-120688095D01*
X239401247Y-120688095D02*
X239639342Y-120688095D01*
X239639342Y-120688095D02*
X239734580Y-120735714D01*
X239734580Y-120735714D02*
X239782200Y-120783333D01*
X239782200Y-120783333D02*
X239829819Y-120878571D01*
X239829819Y-120878571D02*
X239829819Y-121116666D01*
X239829819Y-121116666D02*
X239782200Y-121211904D01*
X239782200Y-121211904D02*
X239734580Y-121259523D01*
X177354819Y-121630357D02*
X176878628Y-121963690D01*
X177354819Y-122201785D02*
X176354819Y-122201785D01*
X176354819Y-122201785D02*
X176354819Y-121820833D01*
X176354819Y-121820833D02*
X176402438Y-121725595D01*
X176402438Y-121725595D02*
X176450057Y-121677976D01*
X176450057Y-121677976D02*
X176545295Y-121630357D01*
X176545295Y-121630357D02*
X176688152Y-121630357D01*
X176688152Y-121630357D02*
X176783390Y-121677976D01*
X176783390Y-121677976D02*
X176831009Y-121725595D01*
X176831009Y-121725595D02*
X176878628Y-121820833D01*
X176878628Y-121820833D02*
X176878628Y-122201785D01*
X177354819Y-120677976D02*
X177354819Y-121249404D01*
X177354819Y-120963690D02*
X176354819Y-120963690D01*
X176354819Y-120963690D02*
X176497676Y-121058928D01*
X176497676Y-121058928D02*
X176592914Y-121154166D01*
X176592914Y-121154166D02*
X176640533Y-121249404D01*
X176354819Y-120058928D02*
X176354819Y-119963690D01*
X176354819Y-119963690D02*
X176402438Y-119868452D01*
X176402438Y-119868452D02*
X176450057Y-119820833D01*
X176450057Y-119820833D02*
X176545295Y-119773214D01*
X176545295Y-119773214D02*
X176735771Y-119725595D01*
X176735771Y-119725595D02*
X176973866Y-119725595D01*
X176973866Y-119725595D02*
X177164342Y-119773214D01*
X177164342Y-119773214D02*
X177259580Y-119820833D01*
X177259580Y-119820833D02*
X177307200Y-119868452D01*
X177307200Y-119868452D02*
X177354819Y-119963690D01*
X177354819Y-119963690D02*
X177354819Y-120058928D01*
X177354819Y-120058928D02*
X177307200Y-120154166D01*
X177307200Y-120154166D02*
X177259580Y-120201785D01*
X177259580Y-120201785D02*
X177164342Y-120249404D01*
X177164342Y-120249404D02*
X176973866Y-120297023D01*
X176973866Y-120297023D02*
X176735771Y-120297023D01*
X176735771Y-120297023D02*
X176545295Y-120249404D01*
X176545295Y-120249404D02*
X176450057Y-120201785D01*
X176450057Y-120201785D02*
X176402438Y-120154166D01*
X176402438Y-120154166D02*
X176354819Y-120058928D01*
X204933333Y-130354819D02*
X204600000Y-129878628D01*
X204361905Y-130354819D02*
X204361905Y-129354819D01*
X204361905Y-129354819D02*
X204742857Y-129354819D01*
X204742857Y-129354819D02*
X204838095Y-129402438D01*
X204838095Y-129402438D02*
X204885714Y-129450057D01*
X204885714Y-129450057D02*
X204933333Y-129545295D01*
X204933333Y-129545295D02*
X204933333Y-129688152D01*
X204933333Y-129688152D02*
X204885714Y-129783390D01*
X204885714Y-129783390D02*
X204838095Y-129831009D01*
X204838095Y-129831009D02*
X204742857Y-129878628D01*
X204742857Y-129878628D02*
X204361905Y-129878628D01*
X205314286Y-129450057D02*
X205361905Y-129402438D01*
X205361905Y-129402438D02*
X205457143Y-129354819D01*
X205457143Y-129354819D02*
X205695238Y-129354819D01*
X205695238Y-129354819D02*
X205790476Y-129402438D01*
X205790476Y-129402438D02*
X205838095Y-129450057D01*
X205838095Y-129450057D02*
X205885714Y-129545295D01*
X205885714Y-129545295D02*
X205885714Y-129640533D01*
X205885714Y-129640533D02*
X205838095Y-129783390D01*
X205838095Y-129783390D02*
X205266667Y-130354819D01*
X205266667Y-130354819D02*
X205885714Y-130354819D01*
X196066666Y-132294819D02*
X196066666Y-133009104D01*
X196066666Y-133009104D02*
X196019047Y-133151961D01*
X196019047Y-133151961D02*
X195923809Y-133247200D01*
X195923809Y-133247200D02*
X195780952Y-133294819D01*
X195780952Y-133294819D02*
X195685714Y-133294819D01*
X196447619Y-132294819D02*
X197066666Y-132294819D01*
X197066666Y-132294819D02*
X196733333Y-132675771D01*
X196733333Y-132675771D02*
X196876190Y-132675771D01*
X196876190Y-132675771D02*
X196971428Y-132723390D01*
X196971428Y-132723390D02*
X197019047Y-132771009D01*
X197019047Y-132771009D02*
X197066666Y-132866247D01*
X197066666Y-132866247D02*
X197066666Y-133104342D01*
X197066666Y-133104342D02*
X197019047Y-133199580D01*
X197019047Y-133199580D02*
X196971428Y-133247200D01*
X196971428Y-133247200D02*
X196876190Y-133294819D01*
X196876190Y-133294819D02*
X196590476Y-133294819D01*
X196590476Y-133294819D02*
X196495238Y-133247200D01*
X196495238Y-133247200D02*
X196447619Y-133199580D01*
X182854819Y-121742857D02*
X182378628Y-122076190D01*
X182854819Y-122314285D02*
X181854819Y-122314285D01*
X181854819Y-122314285D02*
X181854819Y-121933333D01*
X181854819Y-121933333D02*
X181902438Y-121838095D01*
X181902438Y-121838095D02*
X181950057Y-121790476D01*
X181950057Y-121790476D02*
X182045295Y-121742857D01*
X182045295Y-121742857D02*
X182188152Y-121742857D01*
X182188152Y-121742857D02*
X182283390Y-121790476D01*
X182283390Y-121790476D02*
X182331009Y-121838095D01*
X182331009Y-121838095D02*
X182378628Y-121933333D01*
X182378628Y-121933333D02*
X182378628Y-122314285D01*
X182854819Y-120790476D02*
X182854819Y-121361904D01*
X182854819Y-121076190D02*
X181854819Y-121076190D01*
X181854819Y-121076190D02*
X181997676Y-121171428D01*
X181997676Y-121171428D02*
X182092914Y-121266666D01*
X182092914Y-121266666D02*
X182140533Y-121361904D01*
X181950057Y-120409523D02*
X181902438Y-120361904D01*
X181902438Y-120361904D02*
X181854819Y-120266666D01*
X181854819Y-120266666D02*
X181854819Y-120028571D01*
X181854819Y-120028571D02*
X181902438Y-119933333D01*
X181902438Y-119933333D02*
X181950057Y-119885714D01*
X181950057Y-119885714D02*
X182045295Y-119838095D01*
X182045295Y-119838095D02*
X182140533Y-119838095D01*
X182140533Y-119838095D02*
X182283390Y-119885714D01*
X182283390Y-119885714D02*
X182854819Y-120457142D01*
X182854819Y-120457142D02*
X182854819Y-119838095D01*
X216704761Y-127950057D02*
X216609523Y-127902438D01*
X216609523Y-127902438D02*
X216514285Y-127807200D01*
X216514285Y-127807200D02*
X216371428Y-127664342D01*
X216371428Y-127664342D02*
X216276190Y-127616723D01*
X216276190Y-127616723D02*
X216180952Y-127616723D01*
X216228571Y-127854819D02*
X216133333Y-127807200D01*
X216133333Y-127807200D02*
X216038095Y-127711961D01*
X216038095Y-127711961D02*
X215990476Y-127521485D01*
X215990476Y-127521485D02*
X215990476Y-127188152D01*
X215990476Y-127188152D02*
X216038095Y-126997676D01*
X216038095Y-126997676D02*
X216133333Y-126902438D01*
X216133333Y-126902438D02*
X216228571Y-126854819D01*
X216228571Y-126854819D02*
X216419047Y-126854819D01*
X216419047Y-126854819D02*
X216514285Y-126902438D01*
X216514285Y-126902438D02*
X216609523Y-126997676D01*
X216609523Y-126997676D02*
X216657142Y-127188152D01*
X216657142Y-127188152D02*
X216657142Y-127521485D01*
X216657142Y-127521485D02*
X216609523Y-127711961D01*
X216609523Y-127711961D02*
X216514285Y-127807200D01*
X216514285Y-127807200D02*
X216419047Y-127854819D01*
X216419047Y-127854819D02*
X216228571Y-127854819D01*
X217609523Y-127854819D02*
X217038095Y-127854819D01*
X217323809Y-127854819D02*
X217323809Y-126854819D01*
X217323809Y-126854819D02*
X217228571Y-126997676D01*
X217228571Y-126997676D02*
X217133333Y-127092914D01*
X217133333Y-127092914D02*
X217038095Y-127140533D01*
X191238095Y-121354819D02*
X191238095Y-122164342D01*
X191238095Y-122164342D02*
X191285714Y-122259580D01*
X191285714Y-122259580D02*
X191333333Y-122307200D01*
X191333333Y-122307200D02*
X191428571Y-122354819D01*
X191428571Y-122354819D02*
X191619047Y-122354819D01*
X191619047Y-122354819D02*
X191714285Y-122307200D01*
X191714285Y-122307200D02*
X191761904Y-122259580D01*
X191761904Y-122259580D02*
X191809523Y-122164342D01*
X191809523Y-122164342D02*
X191809523Y-121354819D01*
X192761904Y-121354819D02*
X192285714Y-121354819D01*
X192285714Y-121354819D02*
X192238095Y-121831009D01*
X192238095Y-121831009D02*
X192285714Y-121783390D01*
X192285714Y-121783390D02*
X192380952Y-121735771D01*
X192380952Y-121735771D02*
X192619047Y-121735771D01*
X192619047Y-121735771D02*
X192714285Y-121783390D01*
X192714285Y-121783390D02*
X192761904Y-121831009D01*
X192761904Y-121831009D02*
X192809523Y-121926247D01*
X192809523Y-121926247D02*
X192809523Y-122164342D01*
X192809523Y-122164342D02*
X192761904Y-122259580D01*
X192761904Y-122259580D02*
X192714285Y-122307200D01*
X192714285Y-122307200D02*
X192619047Y-122354819D01*
X192619047Y-122354819D02*
X192380952Y-122354819D01*
X192380952Y-122354819D02*
X192285714Y-122307200D01*
X192285714Y-122307200D02*
X192238095Y-122259580D01*
D12*
X71174318Y-131908332D02*
X72081461Y-131908332D01*
X72081461Y-131908332D02*
X72262889Y-131968809D01*
X72262889Y-131968809D02*
X72383842Y-132089761D01*
X72383842Y-132089761D02*
X72444318Y-132271190D01*
X72444318Y-132271190D02*
X72444318Y-132392142D01*
X71295270Y-131364047D02*
X71234794Y-131303571D01*
X71234794Y-131303571D02*
X71174318Y-131182618D01*
X71174318Y-131182618D02*
X71174318Y-130880237D01*
X71174318Y-130880237D02*
X71234794Y-130759285D01*
X71234794Y-130759285D02*
X71295270Y-130698809D01*
X71295270Y-130698809D02*
X71416222Y-130638332D01*
X71416222Y-130638332D02*
X71537175Y-130638332D01*
X71537175Y-130638332D02*
X71718603Y-130698809D01*
X71718603Y-130698809D02*
X72444318Y-131424523D01*
X72444318Y-131424523D02*
X72444318Y-130638332D01*
D11*
X230308333Y-131709580D02*
X230260714Y-131757200D01*
X230260714Y-131757200D02*
X230117857Y-131804819D01*
X230117857Y-131804819D02*
X230022619Y-131804819D01*
X230022619Y-131804819D02*
X229879762Y-131757200D01*
X229879762Y-131757200D02*
X229784524Y-131661961D01*
X229784524Y-131661961D02*
X229736905Y-131566723D01*
X229736905Y-131566723D02*
X229689286Y-131376247D01*
X229689286Y-131376247D02*
X229689286Y-131233390D01*
X229689286Y-131233390D02*
X229736905Y-131042914D01*
X229736905Y-131042914D02*
X229784524Y-130947676D01*
X229784524Y-130947676D02*
X229879762Y-130852438D01*
X229879762Y-130852438D02*
X230022619Y-130804819D01*
X230022619Y-130804819D02*
X230117857Y-130804819D01*
X230117857Y-130804819D02*
X230260714Y-130852438D01*
X230260714Y-130852438D02*
X230308333Y-130900057D01*
X230689286Y-130900057D02*
X230736905Y-130852438D01*
X230736905Y-130852438D02*
X230832143Y-130804819D01*
X230832143Y-130804819D02*
X231070238Y-130804819D01*
X231070238Y-130804819D02*
X231165476Y-130852438D01*
X231165476Y-130852438D02*
X231213095Y-130900057D01*
X231213095Y-130900057D02*
X231260714Y-130995295D01*
X231260714Y-130995295D02*
X231260714Y-131090533D01*
X231260714Y-131090533D02*
X231213095Y-131233390D01*
X231213095Y-131233390D02*
X230641667Y-131804819D01*
X230641667Y-131804819D02*
X231260714Y-131804819D01*
X106559580Y-136742857D02*
X106607200Y-136790476D01*
X106607200Y-136790476D02*
X106654819Y-136933333D01*
X106654819Y-136933333D02*
X106654819Y-137028571D01*
X106654819Y-137028571D02*
X106607200Y-137171428D01*
X106607200Y-137171428D02*
X106511961Y-137266666D01*
X106511961Y-137266666D02*
X106416723Y-137314285D01*
X106416723Y-137314285D02*
X106226247Y-137361904D01*
X106226247Y-137361904D02*
X106083390Y-137361904D01*
X106083390Y-137361904D02*
X105892914Y-137314285D01*
X105892914Y-137314285D02*
X105797676Y-137266666D01*
X105797676Y-137266666D02*
X105702438Y-137171428D01*
X105702438Y-137171428D02*
X105654819Y-137028571D01*
X105654819Y-137028571D02*
X105654819Y-136933333D01*
X105654819Y-136933333D02*
X105702438Y-136790476D01*
X105702438Y-136790476D02*
X105750057Y-136742857D01*
X106654819Y-135790476D02*
X106654819Y-136361904D01*
X106654819Y-136076190D02*
X105654819Y-136076190D01*
X105654819Y-136076190D02*
X105797676Y-136171428D01*
X105797676Y-136171428D02*
X105892914Y-136266666D01*
X105892914Y-136266666D02*
X105940533Y-136361904D01*
X105654819Y-135457142D02*
X105654819Y-134790476D01*
X105654819Y-134790476D02*
X106654819Y-135219047D01*
X161966666Y-129514819D02*
X161966666Y-130229104D01*
X161966666Y-130229104D02*
X161919047Y-130371961D01*
X161919047Y-130371961D02*
X161823809Y-130467200D01*
X161823809Y-130467200D02*
X161680952Y-130514819D01*
X161680952Y-130514819D02*
X161585714Y-130514819D01*
X162871428Y-129514819D02*
X162680952Y-129514819D01*
X162680952Y-129514819D02*
X162585714Y-129562438D01*
X162585714Y-129562438D02*
X162538095Y-129610057D01*
X162538095Y-129610057D02*
X162442857Y-129752914D01*
X162442857Y-129752914D02*
X162395238Y-129943390D01*
X162395238Y-129943390D02*
X162395238Y-130324342D01*
X162395238Y-130324342D02*
X162442857Y-130419580D01*
X162442857Y-130419580D02*
X162490476Y-130467200D01*
X162490476Y-130467200D02*
X162585714Y-130514819D01*
X162585714Y-130514819D02*
X162776190Y-130514819D01*
X162776190Y-130514819D02*
X162871428Y-130467200D01*
X162871428Y-130467200D02*
X162919047Y-130419580D01*
X162919047Y-130419580D02*
X162966666Y-130324342D01*
X162966666Y-130324342D02*
X162966666Y-130086247D01*
X162966666Y-130086247D02*
X162919047Y-129991009D01*
X162919047Y-129991009D02*
X162871428Y-129943390D01*
X162871428Y-129943390D02*
X162776190Y-129895771D01*
X162776190Y-129895771D02*
X162585714Y-129895771D01*
X162585714Y-129895771D02*
X162490476Y-129943390D01*
X162490476Y-129943390D02*
X162442857Y-129991009D01*
X162442857Y-129991009D02*
X162395238Y-130086247D01*
X162066666Y-132494819D02*
X162066666Y-133209104D01*
X162066666Y-133209104D02*
X162019047Y-133351961D01*
X162019047Y-133351961D02*
X161923809Y-133447200D01*
X161923809Y-133447200D02*
X161780952Y-133494819D01*
X161780952Y-133494819D02*
X161685714Y-133494819D01*
X163019047Y-132494819D02*
X162542857Y-132494819D01*
X162542857Y-132494819D02*
X162495238Y-132971009D01*
X162495238Y-132971009D02*
X162542857Y-132923390D01*
X162542857Y-132923390D02*
X162638095Y-132875771D01*
X162638095Y-132875771D02*
X162876190Y-132875771D01*
X162876190Y-132875771D02*
X162971428Y-132923390D01*
X162971428Y-132923390D02*
X163019047Y-132971009D01*
X163019047Y-132971009D02*
X163066666Y-133066247D01*
X163066666Y-133066247D02*
X163066666Y-133304342D01*
X163066666Y-133304342D02*
X163019047Y-133399580D01*
X163019047Y-133399580D02*
X162971428Y-133447200D01*
X162971428Y-133447200D02*
X162876190Y-133494819D01*
X162876190Y-133494819D02*
X162638095Y-133494819D01*
X162638095Y-133494819D02*
X162542857Y-133447200D01*
X162542857Y-133447200D02*
X162495238Y-133399580D01*
X242932142Y-133604819D02*
X242598809Y-133128628D01*
X242360714Y-133604819D02*
X242360714Y-132604819D01*
X242360714Y-132604819D02*
X242741666Y-132604819D01*
X242741666Y-132604819D02*
X242836904Y-132652438D01*
X242836904Y-132652438D02*
X242884523Y-132700057D01*
X242884523Y-132700057D02*
X242932142Y-132795295D01*
X242932142Y-132795295D02*
X242932142Y-132938152D01*
X242932142Y-132938152D02*
X242884523Y-133033390D01*
X242884523Y-133033390D02*
X242836904Y-133081009D01*
X242836904Y-133081009D02*
X242741666Y-133128628D01*
X242741666Y-133128628D02*
X242360714Y-133128628D01*
X243884523Y-133604819D02*
X243313095Y-133604819D01*
X243598809Y-133604819D02*
X243598809Y-132604819D01*
X243598809Y-132604819D02*
X243503571Y-132747676D01*
X243503571Y-132747676D02*
X243408333Y-132842914D01*
X243408333Y-132842914D02*
X243313095Y-132890533D01*
X244217857Y-132604819D02*
X244836904Y-132604819D01*
X244836904Y-132604819D02*
X244503571Y-132985771D01*
X244503571Y-132985771D02*
X244646428Y-132985771D01*
X244646428Y-132985771D02*
X244741666Y-133033390D01*
X244741666Y-133033390D02*
X244789285Y-133081009D01*
X244789285Y-133081009D02*
X244836904Y-133176247D01*
X244836904Y-133176247D02*
X244836904Y-133414342D01*
X244836904Y-133414342D02*
X244789285Y-133509580D01*
X244789285Y-133509580D02*
X244741666Y-133557200D01*
X244741666Y-133557200D02*
X244646428Y-133604819D01*
X244646428Y-133604819D02*
X244360714Y-133604819D01*
X244360714Y-133604819D02*
X244265476Y-133557200D01*
X244265476Y-133557200D02*
X244217857Y-133509580D01*
X89854819Y-142142857D02*
X89378628Y-142476190D01*
X89854819Y-142714285D02*
X88854819Y-142714285D01*
X88854819Y-142714285D02*
X88854819Y-142333333D01*
X88854819Y-142333333D02*
X88902438Y-142238095D01*
X88902438Y-142238095D02*
X88950057Y-142190476D01*
X88950057Y-142190476D02*
X89045295Y-142142857D01*
X89045295Y-142142857D02*
X89188152Y-142142857D01*
X89188152Y-142142857D02*
X89283390Y-142190476D01*
X89283390Y-142190476D02*
X89331009Y-142238095D01*
X89331009Y-142238095D02*
X89378628Y-142333333D01*
X89378628Y-142333333D02*
X89378628Y-142714285D01*
X88854819Y-141809523D02*
X88854819Y-141190476D01*
X88854819Y-141190476D02*
X89235771Y-141523809D01*
X89235771Y-141523809D02*
X89235771Y-141380952D01*
X89235771Y-141380952D02*
X89283390Y-141285714D01*
X89283390Y-141285714D02*
X89331009Y-141238095D01*
X89331009Y-141238095D02*
X89426247Y-141190476D01*
X89426247Y-141190476D02*
X89664342Y-141190476D01*
X89664342Y-141190476D02*
X89759580Y-141238095D01*
X89759580Y-141238095D02*
X89807200Y-141285714D01*
X89807200Y-141285714D02*
X89854819Y-141380952D01*
X89854819Y-141380952D02*
X89854819Y-141666666D01*
X89854819Y-141666666D02*
X89807200Y-141761904D01*
X89807200Y-141761904D02*
X89759580Y-141809523D01*
X88854819Y-140857142D02*
X88854819Y-140238095D01*
X88854819Y-140238095D02*
X89235771Y-140571428D01*
X89235771Y-140571428D02*
X89235771Y-140428571D01*
X89235771Y-140428571D02*
X89283390Y-140333333D01*
X89283390Y-140333333D02*
X89331009Y-140285714D01*
X89331009Y-140285714D02*
X89426247Y-140238095D01*
X89426247Y-140238095D02*
X89664342Y-140238095D01*
X89664342Y-140238095D02*
X89759580Y-140285714D01*
X89759580Y-140285714D02*
X89807200Y-140333333D01*
X89807200Y-140333333D02*
X89854819Y-140428571D01*
X89854819Y-140428571D02*
X89854819Y-140714285D01*
X89854819Y-140714285D02*
X89807200Y-140809523D01*
X89807200Y-140809523D02*
X89759580Y-140857142D01*
X88289580Y-126342857D02*
X88337200Y-126390476D01*
X88337200Y-126390476D02*
X88384819Y-126533333D01*
X88384819Y-126533333D02*
X88384819Y-126628571D01*
X88384819Y-126628571D02*
X88337200Y-126771428D01*
X88337200Y-126771428D02*
X88241961Y-126866666D01*
X88241961Y-126866666D02*
X88146723Y-126914285D01*
X88146723Y-126914285D02*
X87956247Y-126961904D01*
X87956247Y-126961904D02*
X87813390Y-126961904D01*
X87813390Y-126961904D02*
X87622914Y-126914285D01*
X87622914Y-126914285D02*
X87527676Y-126866666D01*
X87527676Y-126866666D02*
X87432438Y-126771428D01*
X87432438Y-126771428D02*
X87384819Y-126628571D01*
X87384819Y-126628571D02*
X87384819Y-126533333D01*
X87384819Y-126533333D02*
X87432438Y-126390476D01*
X87432438Y-126390476D02*
X87480057Y-126342857D01*
X88384819Y-125390476D02*
X88384819Y-125961904D01*
X88384819Y-125676190D02*
X87384819Y-125676190D01*
X87384819Y-125676190D02*
X87527676Y-125771428D01*
X87527676Y-125771428D02*
X87622914Y-125866666D01*
X87622914Y-125866666D02*
X87670533Y-125961904D01*
X87718152Y-124533333D02*
X88384819Y-124533333D01*
X87337200Y-124771428D02*
X88051485Y-125009523D01*
X88051485Y-125009523D02*
X88051485Y-124390476D01*
X242832142Y-129304819D02*
X242498809Y-128828628D01*
X242260714Y-129304819D02*
X242260714Y-128304819D01*
X242260714Y-128304819D02*
X242641666Y-128304819D01*
X242641666Y-128304819D02*
X242736904Y-128352438D01*
X242736904Y-128352438D02*
X242784523Y-128400057D01*
X242784523Y-128400057D02*
X242832142Y-128495295D01*
X242832142Y-128495295D02*
X242832142Y-128638152D01*
X242832142Y-128638152D02*
X242784523Y-128733390D01*
X242784523Y-128733390D02*
X242736904Y-128781009D01*
X242736904Y-128781009D02*
X242641666Y-128828628D01*
X242641666Y-128828628D02*
X242260714Y-128828628D01*
X243784523Y-129304819D02*
X243213095Y-129304819D01*
X243498809Y-129304819D02*
X243498809Y-128304819D01*
X243498809Y-128304819D02*
X243403571Y-128447676D01*
X243403571Y-128447676D02*
X243308333Y-128542914D01*
X243308333Y-128542914D02*
X243213095Y-128590533D01*
X244641666Y-128304819D02*
X244451190Y-128304819D01*
X244451190Y-128304819D02*
X244355952Y-128352438D01*
X244355952Y-128352438D02*
X244308333Y-128400057D01*
X244308333Y-128400057D02*
X244213095Y-128542914D01*
X244213095Y-128542914D02*
X244165476Y-128733390D01*
X244165476Y-128733390D02*
X244165476Y-129114342D01*
X244165476Y-129114342D02*
X244213095Y-129209580D01*
X244213095Y-129209580D02*
X244260714Y-129257200D01*
X244260714Y-129257200D02*
X244355952Y-129304819D01*
X244355952Y-129304819D02*
X244546428Y-129304819D01*
X244546428Y-129304819D02*
X244641666Y-129257200D01*
X244641666Y-129257200D02*
X244689285Y-129209580D01*
X244689285Y-129209580D02*
X244736904Y-129114342D01*
X244736904Y-129114342D02*
X244736904Y-128876247D01*
X244736904Y-128876247D02*
X244689285Y-128781009D01*
X244689285Y-128781009D02*
X244641666Y-128733390D01*
X244641666Y-128733390D02*
X244546428Y-128685771D01*
X244546428Y-128685771D02*
X244355952Y-128685771D01*
X244355952Y-128685771D02*
X244260714Y-128733390D01*
X244260714Y-128733390D02*
X244213095Y-128781009D01*
X244213095Y-128781009D02*
X244165476Y-128876247D01*
X175264819Y-121554166D02*
X174788628Y-121887499D01*
X175264819Y-122125594D02*
X174264819Y-122125594D01*
X174264819Y-122125594D02*
X174264819Y-121744642D01*
X174264819Y-121744642D02*
X174312438Y-121649404D01*
X174312438Y-121649404D02*
X174360057Y-121601785D01*
X174360057Y-121601785D02*
X174455295Y-121554166D01*
X174455295Y-121554166D02*
X174598152Y-121554166D01*
X174598152Y-121554166D02*
X174693390Y-121601785D01*
X174693390Y-121601785D02*
X174741009Y-121649404D01*
X174741009Y-121649404D02*
X174788628Y-121744642D01*
X174788628Y-121744642D02*
X174788628Y-122125594D01*
X175264819Y-121077975D02*
X175264819Y-120887499D01*
X175264819Y-120887499D02*
X175217200Y-120792261D01*
X175217200Y-120792261D02*
X175169580Y-120744642D01*
X175169580Y-120744642D02*
X175026723Y-120649404D01*
X175026723Y-120649404D02*
X174836247Y-120601785D01*
X174836247Y-120601785D02*
X174455295Y-120601785D01*
X174455295Y-120601785D02*
X174360057Y-120649404D01*
X174360057Y-120649404D02*
X174312438Y-120697023D01*
X174312438Y-120697023D02*
X174264819Y-120792261D01*
X174264819Y-120792261D02*
X174264819Y-120982737D01*
X174264819Y-120982737D02*
X174312438Y-121077975D01*
X174312438Y-121077975D02*
X174360057Y-121125594D01*
X174360057Y-121125594D02*
X174455295Y-121173213D01*
X174455295Y-121173213D02*
X174693390Y-121173213D01*
X174693390Y-121173213D02*
X174788628Y-121125594D01*
X174788628Y-121125594D02*
X174836247Y-121077975D01*
X174836247Y-121077975D02*
X174883866Y-120982737D01*
X174883866Y-120982737D02*
X174883866Y-120792261D01*
X174883866Y-120792261D02*
X174836247Y-120697023D01*
X174836247Y-120697023D02*
X174788628Y-120649404D01*
X174788628Y-120649404D02*
X174693390Y-120601785D01*
X147666666Y-130114819D02*
X147666666Y-130829104D01*
X147666666Y-130829104D02*
X147619047Y-130971961D01*
X147619047Y-130971961D02*
X147523809Y-131067200D01*
X147523809Y-131067200D02*
X147380952Y-131114819D01*
X147380952Y-131114819D02*
X147285714Y-131114819D01*
X148285714Y-130543390D02*
X148190476Y-130495771D01*
X148190476Y-130495771D02*
X148142857Y-130448152D01*
X148142857Y-130448152D02*
X148095238Y-130352914D01*
X148095238Y-130352914D02*
X148095238Y-130305295D01*
X148095238Y-130305295D02*
X148142857Y-130210057D01*
X148142857Y-130210057D02*
X148190476Y-130162438D01*
X148190476Y-130162438D02*
X148285714Y-130114819D01*
X148285714Y-130114819D02*
X148476190Y-130114819D01*
X148476190Y-130114819D02*
X148571428Y-130162438D01*
X148571428Y-130162438D02*
X148619047Y-130210057D01*
X148619047Y-130210057D02*
X148666666Y-130305295D01*
X148666666Y-130305295D02*
X148666666Y-130352914D01*
X148666666Y-130352914D02*
X148619047Y-130448152D01*
X148619047Y-130448152D02*
X148571428Y-130495771D01*
X148571428Y-130495771D02*
X148476190Y-130543390D01*
X148476190Y-130543390D02*
X148285714Y-130543390D01*
X148285714Y-130543390D02*
X148190476Y-130591009D01*
X148190476Y-130591009D02*
X148142857Y-130638628D01*
X148142857Y-130638628D02*
X148095238Y-130733866D01*
X148095238Y-130733866D02*
X148095238Y-130924342D01*
X148095238Y-130924342D02*
X148142857Y-131019580D01*
X148142857Y-131019580D02*
X148190476Y-131067200D01*
X148190476Y-131067200D02*
X148285714Y-131114819D01*
X148285714Y-131114819D02*
X148476190Y-131114819D01*
X148476190Y-131114819D02*
X148571428Y-131067200D01*
X148571428Y-131067200D02*
X148619047Y-131019580D01*
X148619047Y-131019580D02*
X148666666Y-130924342D01*
X148666666Y-130924342D02*
X148666666Y-130733866D01*
X148666666Y-130733866D02*
X148619047Y-130638628D01*
X148619047Y-130638628D02*
X148571428Y-130591009D01*
X148571428Y-130591009D02*
X148476190Y-130543390D01*
X100554819Y-142742857D02*
X100078628Y-143076190D01*
X100554819Y-143314285D02*
X99554819Y-143314285D01*
X99554819Y-143314285D02*
X99554819Y-142933333D01*
X99554819Y-142933333D02*
X99602438Y-142838095D01*
X99602438Y-142838095D02*
X99650057Y-142790476D01*
X99650057Y-142790476D02*
X99745295Y-142742857D01*
X99745295Y-142742857D02*
X99888152Y-142742857D01*
X99888152Y-142742857D02*
X99983390Y-142790476D01*
X99983390Y-142790476D02*
X100031009Y-142838095D01*
X100031009Y-142838095D02*
X100078628Y-142933333D01*
X100078628Y-142933333D02*
X100078628Y-143314285D01*
X99554819Y-142409523D02*
X99554819Y-141790476D01*
X99554819Y-141790476D02*
X99935771Y-142123809D01*
X99935771Y-142123809D02*
X99935771Y-141980952D01*
X99935771Y-141980952D02*
X99983390Y-141885714D01*
X99983390Y-141885714D02*
X100031009Y-141838095D01*
X100031009Y-141838095D02*
X100126247Y-141790476D01*
X100126247Y-141790476D02*
X100364342Y-141790476D01*
X100364342Y-141790476D02*
X100459580Y-141838095D01*
X100459580Y-141838095D02*
X100507200Y-141885714D01*
X100507200Y-141885714D02*
X100554819Y-141980952D01*
X100554819Y-141980952D02*
X100554819Y-142266666D01*
X100554819Y-142266666D02*
X100507200Y-142361904D01*
X100507200Y-142361904D02*
X100459580Y-142409523D01*
X99554819Y-140885714D02*
X99554819Y-141361904D01*
X99554819Y-141361904D02*
X100031009Y-141409523D01*
X100031009Y-141409523D02*
X99983390Y-141361904D01*
X99983390Y-141361904D02*
X99935771Y-141266666D01*
X99935771Y-141266666D02*
X99935771Y-141028571D01*
X99935771Y-141028571D02*
X99983390Y-140933333D01*
X99983390Y-140933333D02*
X100031009Y-140885714D01*
X100031009Y-140885714D02*
X100126247Y-140838095D01*
X100126247Y-140838095D02*
X100364342Y-140838095D01*
X100364342Y-140838095D02*
X100459580Y-140885714D01*
X100459580Y-140885714D02*
X100507200Y-140933333D01*
X100507200Y-140933333D02*
X100554819Y-141028571D01*
X100554819Y-141028571D02*
X100554819Y-141266666D01*
X100554819Y-141266666D02*
X100507200Y-141361904D01*
X100507200Y-141361904D02*
X100459580Y-141409523D01*
X86354819Y-133038094D02*
X85354819Y-133038094D01*
X85354819Y-133038094D02*
X85354819Y-132799999D01*
X85354819Y-132799999D02*
X85402438Y-132657142D01*
X85402438Y-132657142D02*
X85497676Y-132561904D01*
X85497676Y-132561904D02*
X85592914Y-132514285D01*
X85592914Y-132514285D02*
X85783390Y-132466666D01*
X85783390Y-132466666D02*
X85926247Y-132466666D01*
X85926247Y-132466666D02*
X86116723Y-132514285D01*
X86116723Y-132514285D02*
X86211961Y-132561904D01*
X86211961Y-132561904D02*
X86307200Y-132657142D01*
X86307200Y-132657142D02*
X86354819Y-132799999D01*
X86354819Y-132799999D02*
X86354819Y-133038094D01*
X85450057Y-132085713D02*
X85402438Y-132038094D01*
X85402438Y-132038094D02*
X85354819Y-131942856D01*
X85354819Y-131942856D02*
X85354819Y-131704761D01*
X85354819Y-131704761D02*
X85402438Y-131609523D01*
X85402438Y-131609523D02*
X85450057Y-131561904D01*
X85450057Y-131561904D02*
X85545295Y-131514285D01*
X85545295Y-131514285D02*
X85640533Y-131514285D01*
X85640533Y-131514285D02*
X85783390Y-131561904D01*
X85783390Y-131561904D02*
X86354819Y-132133332D01*
X86354819Y-132133332D02*
X86354819Y-131514285D01*
X94654819Y-135842857D02*
X94178628Y-136176190D01*
X94654819Y-136414285D02*
X93654819Y-136414285D01*
X93654819Y-136414285D02*
X93654819Y-136033333D01*
X93654819Y-136033333D02*
X93702438Y-135938095D01*
X93702438Y-135938095D02*
X93750057Y-135890476D01*
X93750057Y-135890476D02*
X93845295Y-135842857D01*
X93845295Y-135842857D02*
X93988152Y-135842857D01*
X93988152Y-135842857D02*
X94083390Y-135890476D01*
X94083390Y-135890476D02*
X94131009Y-135938095D01*
X94131009Y-135938095D02*
X94178628Y-136033333D01*
X94178628Y-136033333D02*
X94178628Y-136414285D01*
X93750057Y-135461904D02*
X93702438Y-135414285D01*
X93702438Y-135414285D02*
X93654819Y-135319047D01*
X93654819Y-135319047D02*
X93654819Y-135080952D01*
X93654819Y-135080952D02*
X93702438Y-134985714D01*
X93702438Y-134985714D02*
X93750057Y-134938095D01*
X93750057Y-134938095D02*
X93845295Y-134890476D01*
X93845295Y-134890476D02*
X93940533Y-134890476D01*
X93940533Y-134890476D02*
X94083390Y-134938095D01*
X94083390Y-134938095D02*
X94654819Y-135509523D01*
X94654819Y-135509523D02*
X94654819Y-134890476D01*
X94654819Y-134414285D02*
X94654819Y-134223809D01*
X94654819Y-134223809D02*
X94607200Y-134128571D01*
X94607200Y-134128571D02*
X94559580Y-134080952D01*
X94559580Y-134080952D02*
X94416723Y-133985714D01*
X94416723Y-133985714D02*
X94226247Y-133938095D01*
X94226247Y-133938095D02*
X93845295Y-133938095D01*
X93845295Y-133938095D02*
X93750057Y-133985714D01*
X93750057Y-133985714D02*
X93702438Y-134033333D01*
X93702438Y-134033333D02*
X93654819Y-134128571D01*
X93654819Y-134128571D02*
X93654819Y-134319047D01*
X93654819Y-134319047D02*
X93702438Y-134414285D01*
X93702438Y-134414285D02*
X93750057Y-134461904D01*
X93750057Y-134461904D02*
X93845295Y-134509523D01*
X93845295Y-134509523D02*
X94083390Y-134509523D01*
X94083390Y-134509523D02*
X94178628Y-134461904D01*
X94178628Y-134461904D02*
X94226247Y-134414285D01*
X94226247Y-134414285D02*
X94273866Y-134319047D01*
X94273866Y-134319047D02*
X94273866Y-134128571D01*
X94273866Y-134128571D02*
X94226247Y-134033333D01*
X94226247Y-134033333D02*
X94178628Y-133985714D01*
X94178628Y-133985714D02*
X94083390Y-133938095D01*
X104023810Y-130354819D02*
X104023810Y-129354819D01*
X105071428Y-130259580D02*
X105023809Y-130307200D01*
X105023809Y-130307200D02*
X104880952Y-130354819D01*
X104880952Y-130354819D02*
X104785714Y-130354819D01*
X104785714Y-130354819D02*
X104642857Y-130307200D01*
X104642857Y-130307200D02*
X104547619Y-130211961D01*
X104547619Y-130211961D02*
X104500000Y-130116723D01*
X104500000Y-130116723D02*
X104452381Y-129926247D01*
X104452381Y-129926247D02*
X104452381Y-129783390D01*
X104452381Y-129783390D02*
X104500000Y-129592914D01*
X104500000Y-129592914D02*
X104547619Y-129497676D01*
X104547619Y-129497676D02*
X104642857Y-129402438D01*
X104642857Y-129402438D02*
X104785714Y-129354819D01*
X104785714Y-129354819D02*
X104880952Y-129354819D01*
X104880952Y-129354819D02*
X105023809Y-129402438D01*
X105023809Y-129402438D02*
X105071428Y-129450057D01*
X106023809Y-130354819D02*
X105452381Y-130354819D01*
X105738095Y-130354819D02*
X105738095Y-129354819D01*
X105738095Y-129354819D02*
X105642857Y-129497676D01*
X105642857Y-129497676D02*
X105547619Y-129592914D01*
X105547619Y-129592914D02*
X105452381Y-129640533D01*
X211238095Y-141254819D02*
X211238095Y-142064342D01*
X211238095Y-142064342D02*
X211285714Y-142159580D01*
X211285714Y-142159580D02*
X211333333Y-142207200D01*
X211333333Y-142207200D02*
X211428571Y-142254819D01*
X211428571Y-142254819D02*
X211619047Y-142254819D01*
X211619047Y-142254819D02*
X211714285Y-142207200D01*
X211714285Y-142207200D02*
X211761904Y-142159580D01*
X211761904Y-142159580D02*
X211809523Y-142064342D01*
X211809523Y-142064342D02*
X211809523Y-141254819D01*
X212190476Y-141254819D02*
X212857142Y-141254819D01*
X212857142Y-141254819D02*
X212428571Y-142254819D01*
D10*
X130761904Y-141242580D02*
X130761904Y-140433057D01*
X130761904Y-140433057D02*
X130714285Y-140337819D01*
X130714285Y-140337819D02*
X130666666Y-140290200D01*
X130666666Y-140290200D02*
X130571428Y-140242580D01*
X130571428Y-140242580D02*
X130380952Y-140242580D01*
X130380952Y-140242580D02*
X130285714Y-140290200D01*
X130285714Y-140290200D02*
X130238095Y-140337819D01*
X130238095Y-140337819D02*
X130190476Y-140433057D01*
X130190476Y-140433057D02*
X130190476Y-141242580D01*
X129809523Y-141242580D02*
X129190476Y-141242580D01*
X129190476Y-141242580D02*
X129523809Y-140861628D01*
X129523809Y-140861628D02*
X129380952Y-140861628D01*
X129380952Y-140861628D02*
X129285714Y-140814009D01*
X129285714Y-140814009D02*
X129238095Y-140766390D01*
X129238095Y-140766390D02*
X129190476Y-140671152D01*
X129190476Y-140671152D02*
X129190476Y-140433057D01*
X129190476Y-140433057D02*
X129238095Y-140337819D01*
X129238095Y-140337819D02*
X129285714Y-140290200D01*
X129285714Y-140290200D02*
X129380952Y-140242580D01*
X129380952Y-140242580D02*
X129666666Y-140242580D01*
X129666666Y-140242580D02*
X129761904Y-140290200D01*
X129761904Y-140290200D02*
X129809523Y-140337819D01*
X117196115Y-124127580D02*
X117196115Y-125127580D01*
X116719925Y-124127580D02*
X116719925Y-125127580D01*
X116719925Y-125127580D02*
X116148497Y-124127580D01*
X116148497Y-124127580D02*
X116148497Y-125127580D01*
X115672306Y-124508533D02*
X114910402Y-124508533D01*
X115291354Y-124127580D02*
X115291354Y-124889485D01*
X117196115Y-138127580D02*
X117196115Y-139127580D01*
X116719925Y-138127580D02*
X116719925Y-139127580D01*
X116719925Y-139127580D02*
X116148497Y-138127580D01*
X116148497Y-138127580D02*
X116148497Y-139127580D01*
X115672306Y-138508533D02*
X114910402Y-138508533D01*
X146005639Y-125127580D02*
X145815163Y-125127580D01*
X145815163Y-125127580D02*
X145719925Y-125079961D01*
X145719925Y-125079961D02*
X145624687Y-124984723D01*
X145624687Y-124984723D02*
X145577068Y-124794247D01*
X145577068Y-124794247D02*
X145577068Y-124460914D01*
X145577068Y-124460914D02*
X145624687Y-124270438D01*
X145624687Y-124270438D02*
X145719925Y-124175200D01*
X145719925Y-124175200D02*
X145815163Y-124127580D01*
X145815163Y-124127580D02*
X146005639Y-124127580D01*
X146005639Y-124127580D02*
X146100877Y-124175200D01*
X146100877Y-124175200D02*
X146196115Y-124270438D01*
X146196115Y-124270438D02*
X146243734Y-124460914D01*
X146243734Y-124460914D02*
X146243734Y-124794247D01*
X146243734Y-124794247D02*
X146196115Y-124984723D01*
X146196115Y-124984723D02*
X146100877Y-125079961D01*
X146100877Y-125079961D02*
X146005639Y-125127580D01*
X145148496Y-125127580D02*
X145148496Y-124318057D01*
X145148496Y-124318057D02*
X145100877Y-124222819D01*
X145100877Y-124222819D02*
X145053258Y-124175200D01*
X145053258Y-124175200D02*
X144958020Y-124127580D01*
X144958020Y-124127580D02*
X144767544Y-124127580D01*
X144767544Y-124127580D02*
X144672306Y-124175200D01*
X144672306Y-124175200D02*
X144624687Y-124222819D01*
X144624687Y-124222819D02*
X144577068Y-124318057D01*
X144577068Y-124318057D02*
X144577068Y-125127580D01*
X144243734Y-125127580D02*
X143672306Y-125127580D01*
X143958020Y-124127580D02*
X143958020Y-125127580D01*
X143338972Y-124508533D02*
X142577068Y-124508533D01*
X142958020Y-124127580D02*
X142958020Y-124889485D01*
X146005639Y-139127580D02*
X145815163Y-139127580D01*
X145815163Y-139127580D02*
X145719925Y-139079961D01*
X145719925Y-139079961D02*
X145624687Y-138984723D01*
X145624687Y-138984723D02*
X145577068Y-138794247D01*
X145577068Y-138794247D02*
X145577068Y-138460914D01*
X145577068Y-138460914D02*
X145624687Y-138270438D01*
X145624687Y-138270438D02*
X145719925Y-138175200D01*
X145719925Y-138175200D02*
X145815163Y-138127580D01*
X145815163Y-138127580D02*
X146005639Y-138127580D01*
X146005639Y-138127580D02*
X146100877Y-138175200D01*
X146100877Y-138175200D02*
X146196115Y-138270438D01*
X146196115Y-138270438D02*
X146243734Y-138460914D01*
X146243734Y-138460914D02*
X146243734Y-138794247D01*
X146243734Y-138794247D02*
X146196115Y-138984723D01*
X146196115Y-138984723D02*
X146100877Y-139079961D01*
X146100877Y-139079961D02*
X146005639Y-139127580D01*
X145148496Y-139127580D02*
X145148496Y-138318057D01*
X145148496Y-138318057D02*
X145100877Y-138222819D01*
X145100877Y-138222819D02*
X145053258Y-138175200D01*
X145053258Y-138175200D02*
X144958020Y-138127580D01*
X144958020Y-138127580D02*
X144767544Y-138127580D01*
X144767544Y-138127580D02*
X144672306Y-138175200D01*
X144672306Y-138175200D02*
X144624687Y-138222819D01*
X144624687Y-138222819D02*
X144577068Y-138318057D01*
X144577068Y-138318057D02*
X144577068Y-139127580D01*
X144243734Y-139127580D02*
X143672306Y-139127580D01*
X143958020Y-138127580D02*
X143958020Y-139127580D01*
X143338972Y-138508533D02*
X142577068Y-138508533D01*
D11*
X201946666Y-128044819D02*
X201946666Y-128759104D01*
X201946666Y-128759104D02*
X201899047Y-128901961D01*
X201899047Y-128901961D02*
X201803809Y-128997200D01*
X201803809Y-128997200D02*
X201660952Y-129044819D01*
X201660952Y-129044819D02*
X201565714Y-129044819D01*
X202946666Y-129044819D02*
X202375238Y-129044819D01*
X202660952Y-129044819D02*
X202660952Y-128044819D01*
X202660952Y-128044819D02*
X202565714Y-128187676D01*
X202565714Y-128187676D02*
X202470476Y-128282914D01*
X202470476Y-128282914D02*
X202375238Y-128330533D01*
X211084819Y-129079166D02*
X210608628Y-129412499D01*
X211084819Y-129650594D02*
X210084819Y-129650594D01*
X210084819Y-129650594D02*
X210084819Y-129269642D01*
X210084819Y-129269642D02*
X210132438Y-129174404D01*
X210132438Y-129174404D02*
X210180057Y-129126785D01*
X210180057Y-129126785D02*
X210275295Y-129079166D01*
X210275295Y-129079166D02*
X210418152Y-129079166D01*
X210418152Y-129079166D02*
X210513390Y-129126785D01*
X210513390Y-129126785D02*
X210561009Y-129174404D01*
X210561009Y-129174404D02*
X210608628Y-129269642D01*
X210608628Y-129269642D02*
X210608628Y-129650594D01*
X210084819Y-128745832D02*
X210084819Y-128126785D01*
X210084819Y-128126785D02*
X210465771Y-128460118D01*
X210465771Y-128460118D02*
X210465771Y-128317261D01*
X210465771Y-128317261D02*
X210513390Y-128222023D01*
X210513390Y-128222023D02*
X210561009Y-128174404D01*
X210561009Y-128174404D02*
X210656247Y-128126785D01*
X210656247Y-128126785D02*
X210894342Y-128126785D01*
X210894342Y-128126785D02*
X210989580Y-128174404D01*
X210989580Y-128174404D02*
X211037200Y-128222023D01*
X211037200Y-128222023D02*
X211084819Y-128317261D01*
X211084819Y-128317261D02*
X211084819Y-128602975D01*
X211084819Y-128602975D02*
X211037200Y-128698213D01*
X211037200Y-128698213D02*
X210989580Y-128745832D01*
X107757142Y-141754819D02*
X107423809Y-141278628D01*
X107185714Y-141754819D02*
X107185714Y-140754819D01*
X107185714Y-140754819D02*
X107566666Y-140754819D01*
X107566666Y-140754819D02*
X107661904Y-140802438D01*
X107661904Y-140802438D02*
X107709523Y-140850057D01*
X107709523Y-140850057D02*
X107757142Y-140945295D01*
X107757142Y-140945295D02*
X107757142Y-141088152D01*
X107757142Y-141088152D02*
X107709523Y-141183390D01*
X107709523Y-141183390D02*
X107661904Y-141231009D01*
X107661904Y-141231009D02*
X107566666Y-141278628D01*
X107566666Y-141278628D02*
X107185714Y-141278628D01*
X108090476Y-140754819D02*
X108709523Y-140754819D01*
X108709523Y-140754819D02*
X108376190Y-141135771D01*
X108376190Y-141135771D02*
X108519047Y-141135771D01*
X108519047Y-141135771D02*
X108614285Y-141183390D01*
X108614285Y-141183390D02*
X108661904Y-141231009D01*
X108661904Y-141231009D02*
X108709523Y-141326247D01*
X108709523Y-141326247D02*
X108709523Y-141564342D01*
X108709523Y-141564342D02*
X108661904Y-141659580D01*
X108661904Y-141659580D02*
X108614285Y-141707200D01*
X108614285Y-141707200D02*
X108519047Y-141754819D01*
X108519047Y-141754819D02*
X108233333Y-141754819D01*
X108233333Y-141754819D02*
X108138095Y-141707200D01*
X108138095Y-141707200D02*
X108090476Y-141659580D01*
X109042857Y-140754819D02*
X109709523Y-140754819D01*
X109709523Y-140754819D02*
X109280952Y-141754819D01*
X90089580Y-126342857D02*
X90137200Y-126390476D01*
X90137200Y-126390476D02*
X90184819Y-126533333D01*
X90184819Y-126533333D02*
X90184819Y-126628571D01*
X90184819Y-126628571D02*
X90137200Y-126771428D01*
X90137200Y-126771428D02*
X90041961Y-126866666D01*
X90041961Y-126866666D02*
X89946723Y-126914285D01*
X89946723Y-126914285D02*
X89756247Y-126961904D01*
X89756247Y-126961904D02*
X89613390Y-126961904D01*
X89613390Y-126961904D02*
X89422914Y-126914285D01*
X89422914Y-126914285D02*
X89327676Y-126866666D01*
X89327676Y-126866666D02*
X89232438Y-126771428D01*
X89232438Y-126771428D02*
X89184819Y-126628571D01*
X89184819Y-126628571D02*
X89184819Y-126533333D01*
X89184819Y-126533333D02*
X89232438Y-126390476D01*
X89232438Y-126390476D02*
X89280057Y-126342857D01*
X90184819Y-125390476D02*
X90184819Y-125961904D01*
X90184819Y-125676190D02*
X89184819Y-125676190D01*
X89184819Y-125676190D02*
X89327676Y-125771428D01*
X89327676Y-125771428D02*
X89422914Y-125866666D01*
X89422914Y-125866666D02*
X89470533Y-125961904D01*
X89184819Y-125057142D02*
X89184819Y-124438095D01*
X89184819Y-124438095D02*
X89565771Y-124771428D01*
X89565771Y-124771428D02*
X89565771Y-124628571D01*
X89565771Y-124628571D02*
X89613390Y-124533333D01*
X89613390Y-124533333D02*
X89661009Y-124485714D01*
X89661009Y-124485714D02*
X89756247Y-124438095D01*
X89756247Y-124438095D02*
X89994342Y-124438095D01*
X89994342Y-124438095D02*
X90089580Y-124485714D01*
X90089580Y-124485714D02*
X90137200Y-124533333D01*
X90137200Y-124533333D02*
X90184819Y-124628571D01*
X90184819Y-124628571D02*
X90184819Y-124914285D01*
X90184819Y-124914285D02*
X90137200Y-125009523D01*
X90137200Y-125009523D02*
X90089580Y-125057142D01*
X93454819Y-142742857D02*
X92978628Y-143076190D01*
X93454819Y-143314285D02*
X92454819Y-143314285D01*
X92454819Y-143314285D02*
X92454819Y-142933333D01*
X92454819Y-142933333D02*
X92502438Y-142838095D01*
X92502438Y-142838095D02*
X92550057Y-142790476D01*
X92550057Y-142790476D02*
X92645295Y-142742857D01*
X92645295Y-142742857D02*
X92788152Y-142742857D01*
X92788152Y-142742857D02*
X92883390Y-142790476D01*
X92883390Y-142790476D02*
X92931009Y-142838095D01*
X92931009Y-142838095D02*
X92978628Y-142933333D01*
X92978628Y-142933333D02*
X92978628Y-143314285D01*
X92454819Y-142409523D02*
X92454819Y-141790476D01*
X92454819Y-141790476D02*
X92835771Y-142123809D01*
X92835771Y-142123809D02*
X92835771Y-141980952D01*
X92835771Y-141980952D02*
X92883390Y-141885714D01*
X92883390Y-141885714D02*
X92931009Y-141838095D01*
X92931009Y-141838095D02*
X93026247Y-141790476D01*
X93026247Y-141790476D02*
X93264342Y-141790476D01*
X93264342Y-141790476D02*
X93359580Y-141838095D01*
X93359580Y-141838095D02*
X93407200Y-141885714D01*
X93407200Y-141885714D02*
X93454819Y-141980952D01*
X93454819Y-141980952D02*
X93454819Y-142266666D01*
X93454819Y-142266666D02*
X93407200Y-142361904D01*
X93407200Y-142361904D02*
X93359580Y-142409523D01*
X92550057Y-141409523D02*
X92502438Y-141361904D01*
X92502438Y-141361904D02*
X92454819Y-141266666D01*
X92454819Y-141266666D02*
X92454819Y-141028571D01*
X92454819Y-141028571D02*
X92502438Y-140933333D01*
X92502438Y-140933333D02*
X92550057Y-140885714D01*
X92550057Y-140885714D02*
X92645295Y-140838095D01*
X92645295Y-140838095D02*
X92740533Y-140838095D01*
X92740533Y-140838095D02*
X92883390Y-140885714D01*
X92883390Y-140885714D02*
X93454819Y-141457142D01*
X93454819Y-141457142D02*
X93454819Y-140838095D01*
X198833333Y-130284819D02*
X198500000Y-129808628D01*
X198261905Y-130284819D02*
X198261905Y-129284819D01*
X198261905Y-129284819D02*
X198642857Y-129284819D01*
X198642857Y-129284819D02*
X198738095Y-129332438D01*
X198738095Y-129332438D02*
X198785714Y-129380057D01*
X198785714Y-129380057D02*
X198833333Y-129475295D01*
X198833333Y-129475295D02*
X198833333Y-129618152D01*
X198833333Y-129618152D02*
X198785714Y-129713390D01*
X198785714Y-129713390D02*
X198738095Y-129761009D01*
X198738095Y-129761009D02*
X198642857Y-129808628D01*
X198642857Y-129808628D02*
X198261905Y-129808628D01*
X199785714Y-130284819D02*
X199214286Y-130284819D01*
X199500000Y-130284819D02*
X199500000Y-129284819D01*
X199500000Y-129284819D02*
X199404762Y-129427676D01*
X199404762Y-129427676D02*
X199309524Y-129522914D01*
X199309524Y-129522914D02*
X199214286Y-129570533D01*
X243332142Y-125079580D02*
X243284523Y-125127200D01*
X243284523Y-125127200D02*
X243141666Y-125174819D01*
X243141666Y-125174819D02*
X243046428Y-125174819D01*
X243046428Y-125174819D02*
X242903571Y-125127200D01*
X242903571Y-125127200D02*
X242808333Y-125031961D01*
X242808333Y-125031961D02*
X242760714Y-124936723D01*
X242760714Y-124936723D02*
X242713095Y-124746247D01*
X242713095Y-124746247D02*
X242713095Y-124603390D01*
X242713095Y-124603390D02*
X242760714Y-124412914D01*
X242760714Y-124412914D02*
X242808333Y-124317676D01*
X242808333Y-124317676D02*
X242903571Y-124222438D01*
X242903571Y-124222438D02*
X243046428Y-124174819D01*
X243046428Y-124174819D02*
X243141666Y-124174819D01*
X243141666Y-124174819D02*
X243284523Y-124222438D01*
X243284523Y-124222438D02*
X243332142Y-124270057D01*
X244284523Y-125174819D02*
X243713095Y-125174819D01*
X243998809Y-125174819D02*
X243998809Y-124174819D01*
X243998809Y-124174819D02*
X243903571Y-124317676D01*
X243903571Y-124317676D02*
X243808333Y-124412914D01*
X243808333Y-124412914D02*
X243713095Y-124460533D01*
X244903571Y-124174819D02*
X244998809Y-124174819D01*
X244998809Y-124174819D02*
X245094047Y-124222438D01*
X245094047Y-124222438D02*
X245141666Y-124270057D01*
X245141666Y-124270057D02*
X245189285Y-124365295D01*
X245189285Y-124365295D02*
X245236904Y-124555771D01*
X245236904Y-124555771D02*
X245236904Y-124793866D01*
X245236904Y-124793866D02*
X245189285Y-124984342D01*
X245189285Y-124984342D02*
X245141666Y-125079580D01*
X245141666Y-125079580D02*
X245094047Y-125127200D01*
X245094047Y-125127200D02*
X244998809Y-125174819D01*
X244998809Y-125174819D02*
X244903571Y-125174819D01*
X244903571Y-125174819D02*
X244808333Y-125127200D01*
X244808333Y-125127200D02*
X244760714Y-125079580D01*
X244760714Y-125079580D02*
X244713095Y-124984342D01*
X244713095Y-124984342D02*
X244665476Y-124793866D01*
X244665476Y-124793866D02*
X244665476Y-124555771D01*
X244665476Y-124555771D02*
X244713095Y-124365295D01*
X244713095Y-124365295D02*
X244760714Y-124270057D01*
X244760714Y-124270057D02*
X244808333Y-124222438D01*
X244808333Y-124222438D02*
X244903571Y-124174819D01*
X216604761Y-122650057D02*
X216509523Y-122602438D01*
X216509523Y-122602438D02*
X216414285Y-122507200D01*
X216414285Y-122507200D02*
X216271428Y-122364342D01*
X216271428Y-122364342D02*
X216176190Y-122316723D01*
X216176190Y-122316723D02*
X216080952Y-122316723D01*
X216128571Y-122554819D02*
X216033333Y-122507200D01*
X216033333Y-122507200D02*
X215938095Y-122411961D01*
X215938095Y-122411961D02*
X215890476Y-122221485D01*
X215890476Y-122221485D02*
X215890476Y-121888152D01*
X215890476Y-121888152D02*
X215938095Y-121697676D01*
X215938095Y-121697676D02*
X216033333Y-121602438D01*
X216033333Y-121602438D02*
X216128571Y-121554819D01*
X216128571Y-121554819D02*
X216319047Y-121554819D01*
X216319047Y-121554819D02*
X216414285Y-121602438D01*
X216414285Y-121602438D02*
X216509523Y-121697676D01*
X216509523Y-121697676D02*
X216557142Y-121888152D01*
X216557142Y-121888152D02*
X216557142Y-122221485D01*
X216557142Y-122221485D02*
X216509523Y-122411961D01*
X216509523Y-122411961D02*
X216414285Y-122507200D01*
X216414285Y-122507200D02*
X216319047Y-122554819D01*
X216319047Y-122554819D02*
X216128571Y-122554819D01*
X216938095Y-121650057D02*
X216985714Y-121602438D01*
X216985714Y-121602438D02*
X217080952Y-121554819D01*
X217080952Y-121554819D02*
X217319047Y-121554819D01*
X217319047Y-121554819D02*
X217414285Y-121602438D01*
X217414285Y-121602438D02*
X217461904Y-121650057D01*
X217461904Y-121650057D02*
X217509523Y-121745295D01*
X217509523Y-121745295D02*
X217509523Y-121840533D01*
X217509523Y-121840533D02*
X217461904Y-121983390D01*
X217461904Y-121983390D02*
X216890476Y-122554819D01*
X216890476Y-122554819D02*
X217509523Y-122554819D01*
X226532200Y-136833332D02*
X226579819Y-136690475D01*
X226579819Y-136690475D02*
X226579819Y-136452380D01*
X226579819Y-136452380D02*
X226532200Y-136357142D01*
X226532200Y-136357142D02*
X226484580Y-136309523D01*
X226484580Y-136309523D02*
X226389342Y-136261904D01*
X226389342Y-136261904D02*
X226294104Y-136261904D01*
X226294104Y-136261904D02*
X226198866Y-136309523D01*
X226198866Y-136309523D02*
X226151247Y-136357142D01*
X226151247Y-136357142D02*
X226103628Y-136452380D01*
X226103628Y-136452380D02*
X226056009Y-136642856D01*
X226056009Y-136642856D02*
X226008390Y-136738094D01*
X226008390Y-136738094D02*
X225960771Y-136785713D01*
X225960771Y-136785713D02*
X225865533Y-136833332D01*
X225865533Y-136833332D02*
X225770295Y-136833332D01*
X225770295Y-136833332D02*
X225675057Y-136785713D01*
X225675057Y-136785713D02*
X225627438Y-136738094D01*
X225627438Y-136738094D02*
X225579819Y-136642856D01*
X225579819Y-136642856D02*
X225579819Y-136404761D01*
X225579819Y-136404761D02*
X225627438Y-136261904D01*
X225579819Y-135928570D02*
X226579819Y-135690475D01*
X226579819Y-135690475D02*
X225865533Y-135499999D01*
X225865533Y-135499999D02*
X226579819Y-135309523D01*
X226579819Y-135309523D02*
X225579819Y-135071428D01*
X226579819Y-134166666D02*
X226579819Y-134738094D01*
X226579819Y-134452380D02*
X225579819Y-134452380D01*
X225579819Y-134452380D02*
X225722676Y-134547618D01*
X225722676Y-134547618D02*
X225817914Y-134642856D01*
X225817914Y-134642856D02*
X225865533Y-134738094D01*
X92059580Y-135066666D02*
X92107200Y-135114285D01*
X92107200Y-135114285D02*
X92154819Y-135257142D01*
X92154819Y-135257142D02*
X92154819Y-135352380D01*
X92154819Y-135352380D02*
X92107200Y-135495237D01*
X92107200Y-135495237D02*
X92011961Y-135590475D01*
X92011961Y-135590475D02*
X91916723Y-135638094D01*
X91916723Y-135638094D02*
X91726247Y-135685713D01*
X91726247Y-135685713D02*
X91583390Y-135685713D01*
X91583390Y-135685713D02*
X91392914Y-135638094D01*
X91392914Y-135638094D02*
X91297676Y-135590475D01*
X91297676Y-135590475D02*
X91202438Y-135495237D01*
X91202438Y-135495237D02*
X91154819Y-135352380D01*
X91154819Y-135352380D02*
X91154819Y-135257142D01*
X91154819Y-135257142D02*
X91202438Y-135114285D01*
X91202438Y-135114285D02*
X91250057Y-135066666D01*
X91583390Y-134495237D02*
X91535771Y-134590475D01*
X91535771Y-134590475D02*
X91488152Y-134638094D01*
X91488152Y-134638094D02*
X91392914Y-134685713D01*
X91392914Y-134685713D02*
X91345295Y-134685713D01*
X91345295Y-134685713D02*
X91250057Y-134638094D01*
X91250057Y-134638094D02*
X91202438Y-134590475D01*
X91202438Y-134590475D02*
X91154819Y-134495237D01*
X91154819Y-134495237D02*
X91154819Y-134304761D01*
X91154819Y-134304761D02*
X91202438Y-134209523D01*
X91202438Y-134209523D02*
X91250057Y-134161904D01*
X91250057Y-134161904D02*
X91345295Y-134114285D01*
X91345295Y-134114285D02*
X91392914Y-134114285D01*
X91392914Y-134114285D02*
X91488152Y-134161904D01*
X91488152Y-134161904D02*
X91535771Y-134209523D01*
X91535771Y-134209523D02*
X91583390Y-134304761D01*
X91583390Y-134304761D02*
X91583390Y-134495237D01*
X91583390Y-134495237D02*
X91631009Y-134590475D01*
X91631009Y-134590475D02*
X91678628Y-134638094D01*
X91678628Y-134638094D02*
X91773866Y-134685713D01*
X91773866Y-134685713D02*
X91964342Y-134685713D01*
X91964342Y-134685713D02*
X92059580Y-134638094D01*
X92059580Y-134638094D02*
X92107200Y-134590475D01*
X92107200Y-134590475D02*
X92154819Y-134495237D01*
X92154819Y-134495237D02*
X92154819Y-134304761D01*
X92154819Y-134304761D02*
X92107200Y-134209523D01*
X92107200Y-134209523D02*
X92059580Y-134161904D01*
X92059580Y-134161904D02*
X91964342Y-134114285D01*
X91964342Y-134114285D02*
X91773866Y-134114285D01*
X91773866Y-134114285D02*
X91678628Y-134161904D01*
X91678628Y-134161904D02*
X91631009Y-134209523D01*
X91631009Y-134209523D02*
X91583390Y-134304761D01*
X95254819Y-142742857D02*
X94778628Y-143076190D01*
X95254819Y-143314285D02*
X94254819Y-143314285D01*
X94254819Y-143314285D02*
X94254819Y-142933333D01*
X94254819Y-142933333D02*
X94302438Y-142838095D01*
X94302438Y-142838095D02*
X94350057Y-142790476D01*
X94350057Y-142790476D02*
X94445295Y-142742857D01*
X94445295Y-142742857D02*
X94588152Y-142742857D01*
X94588152Y-142742857D02*
X94683390Y-142790476D01*
X94683390Y-142790476D02*
X94731009Y-142838095D01*
X94731009Y-142838095D02*
X94778628Y-142933333D01*
X94778628Y-142933333D02*
X94778628Y-143314285D01*
X94254819Y-142409523D02*
X94254819Y-141790476D01*
X94254819Y-141790476D02*
X94635771Y-142123809D01*
X94635771Y-142123809D02*
X94635771Y-141980952D01*
X94635771Y-141980952D02*
X94683390Y-141885714D01*
X94683390Y-141885714D02*
X94731009Y-141838095D01*
X94731009Y-141838095D02*
X94826247Y-141790476D01*
X94826247Y-141790476D02*
X95064342Y-141790476D01*
X95064342Y-141790476D02*
X95159580Y-141838095D01*
X95159580Y-141838095D02*
X95207200Y-141885714D01*
X95207200Y-141885714D02*
X95254819Y-141980952D01*
X95254819Y-141980952D02*
X95254819Y-142266666D01*
X95254819Y-142266666D02*
X95207200Y-142361904D01*
X95207200Y-142361904D02*
X95159580Y-142409523D01*
X94588152Y-140933333D02*
X95254819Y-140933333D01*
X94207200Y-141171428D02*
X94921485Y-141409523D01*
X94921485Y-141409523D02*
X94921485Y-140790476D01*
X233329819Y-123616666D02*
X232853628Y-123949999D01*
X233329819Y-124188094D02*
X232329819Y-124188094D01*
X232329819Y-124188094D02*
X232329819Y-123807142D01*
X232329819Y-123807142D02*
X232377438Y-123711904D01*
X232377438Y-123711904D02*
X232425057Y-123664285D01*
X232425057Y-123664285D02*
X232520295Y-123616666D01*
X232520295Y-123616666D02*
X232663152Y-123616666D01*
X232663152Y-123616666D02*
X232758390Y-123664285D01*
X232758390Y-123664285D02*
X232806009Y-123711904D01*
X232806009Y-123711904D02*
X232853628Y-123807142D01*
X232853628Y-123807142D02*
X232853628Y-124188094D01*
X232329819Y-122711904D02*
X232329819Y-123188094D01*
X232329819Y-123188094D02*
X232806009Y-123235713D01*
X232806009Y-123235713D02*
X232758390Y-123188094D01*
X232758390Y-123188094D02*
X232710771Y-123092856D01*
X232710771Y-123092856D02*
X232710771Y-122854761D01*
X232710771Y-122854761D02*
X232758390Y-122759523D01*
X232758390Y-122759523D02*
X232806009Y-122711904D01*
X232806009Y-122711904D02*
X232901247Y-122664285D01*
X232901247Y-122664285D02*
X233139342Y-122664285D01*
X233139342Y-122664285D02*
X233234580Y-122711904D01*
X233234580Y-122711904D02*
X233282200Y-122759523D01*
X233282200Y-122759523D02*
X233329819Y-122854761D01*
X233329819Y-122854761D02*
X233329819Y-123092856D01*
X233329819Y-123092856D02*
X233282200Y-123188094D01*
X233282200Y-123188094D02*
X233234580Y-123235713D01*
X248259819Y-141658333D02*
X248974104Y-141658333D01*
X248974104Y-141658333D02*
X249116961Y-141705952D01*
X249116961Y-141705952D02*
X249212200Y-141801190D01*
X249212200Y-141801190D02*
X249259819Y-141944047D01*
X249259819Y-141944047D02*
X249259819Y-142039285D01*
X248259819Y-141277380D02*
X248259819Y-140610714D01*
X248259819Y-140610714D02*
X249259819Y-141039285D01*
D13*
%TO.C,J10*%
X226140000Y-123340000D02*
X227200000Y-123340000D01*
X226140000Y-124400000D02*
X226140000Y-123340000D01*
X226140000Y-125400000D02*
X226140000Y-127460000D01*
X226140000Y-125400000D02*
X228260000Y-125400000D01*
X226140000Y-127460000D02*
X228260000Y-127460000D01*
X228260000Y-125400000D02*
X228260000Y-127460000D01*
%TO.C,C11*%
X115160000Y-131084887D02*
X113631000Y-131084887D01*
X115160000Y-131124887D02*
X113635000Y-131124887D01*
X115160000Y-131164887D02*
X113639000Y-131164887D01*
X115160000Y-131204887D02*
X113644000Y-131204887D01*
X115160000Y-131244887D02*
X113650000Y-131244887D01*
X115160000Y-131284887D02*
X113657000Y-131284887D01*
X115160000Y-131324887D02*
X113664000Y-131324887D01*
X115160000Y-131364887D02*
X113672000Y-131364887D01*
X115160000Y-131404887D02*
X113680000Y-131404887D01*
X115160000Y-131444887D02*
X113689000Y-131444887D01*
X115160000Y-131484887D02*
X113699000Y-131484887D01*
X115160000Y-131524887D02*
X113709000Y-131524887D01*
X115160000Y-131565887D02*
X113720000Y-131565887D01*
X115160000Y-131605887D02*
X113732000Y-131605887D01*
X115160000Y-131645887D02*
X113745000Y-131645887D01*
X115160000Y-131685887D02*
X113758000Y-131685887D01*
X115160000Y-131725887D02*
X113772000Y-131725887D01*
X115160000Y-131765887D02*
X113786000Y-131765887D01*
X115160000Y-131805887D02*
X113802000Y-131805887D01*
X115160000Y-131845887D02*
X113818000Y-131845887D01*
X115160000Y-131885887D02*
X113835000Y-131885887D01*
X115160000Y-131925887D02*
X113852000Y-131925887D01*
X115160000Y-131965887D02*
X113871000Y-131965887D01*
X115160000Y-132005887D02*
X113890000Y-132005887D01*
X115160000Y-132045887D02*
X113910000Y-132045887D01*
X115160000Y-132085887D02*
X113932000Y-132085887D01*
X115160000Y-132125887D02*
X113953000Y-132125887D01*
X115160000Y-132165887D02*
X113976000Y-132165887D01*
X115160000Y-132205887D02*
X114000000Y-132205887D01*
X115160000Y-132245887D02*
X114025000Y-132245887D01*
X115160000Y-132285887D02*
X114051000Y-132285887D01*
X115160000Y-132325887D02*
X114078000Y-132325887D01*
X115160000Y-132365887D02*
X114105000Y-132365887D01*
X115160000Y-132405887D02*
X114135000Y-132405887D01*
X115160000Y-132445887D02*
X114165000Y-132445887D01*
X115160000Y-132485887D02*
X114196000Y-132485887D01*
X115160000Y-132525887D02*
X114229000Y-132525887D01*
X115160000Y-132565887D02*
X114263000Y-132565887D01*
X115160000Y-132605887D02*
X114299000Y-132605887D01*
X115160000Y-132645887D02*
X114336000Y-132645887D01*
X115160000Y-132685887D02*
X114374000Y-132685887D01*
X115160000Y-132725887D02*
X114415000Y-132725887D01*
X115160000Y-132765887D02*
X114457000Y-132765887D01*
X115160000Y-132805887D02*
X114501000Y-132805887D01*
X115160000Y-132845887D02*
X114547000Y-132845887D01*
X115160000Y-132885887D02*
X114595000Y-132885887D01*
X115160000Y-132925887D02*
X114646000Y-132925887D01*
X115160000Y-132965887D02*
X114700000Y-132965887D01*
X115160000Y-133005887D02*
X114757000Y-133005887D01*
X115160000Y-133045887D02*
X114817000Y-133045887D01*
X115160000Y-133085887D02*
X114881000Y-133085887D01*
X115160000Y-133125887D02*
X114949000Y-133125887D01*
X116484000Y-133445887D02*
X115916000Y-133445887D01*
X116718000Y-133405887D02*
X115682000Y-133405887D01*
X116877000Y-133365887D02*
X115523000Y-133365887D01*
X117005000Y-133325887D02*
X115395000Y-133325887D01*
X117115000Y-133285887D02*
X115285000Y-133285887D01*
X117211000Y-133245887D02*
X115189000Y-133245887D01*
X117298000Y-133205887D02*
X115102000Y-133205887D01*
X117378000Y-133165887D02*
X115022000Y-133165887D01*
X117451000Y-133125887D02*
X117240000Y-133125887D01*
X117519000Y-133085887D02*
X117240000Y-133085887D01*
X117583000Y-133045887D02*
X117240000Y-133045887D01*
X117643000Y-133005887D02*
X117240000Y-133005887D01*
X117675000Y-128040112D02*
X117675000Y-128540112D01*
X117700000Y-132965887D02*
X117240000Y-132965887D01*
X117754000Y-132925887D02*
X117240000Y-132925887D01*
X117805000Y-132885887D02*
X117240000Y-132885887D01*
X117853000Y-132845887D02*
X117240000Y-132845887D01*
X117899000Y-132805887D02*
X117240000Y-132805887D01*
X117925000Y-128290112D02*
X117425000Y-128290112D01*
X117943000Y-132765887D02*
X117240000Y-132765887D01*
X117985000Y-132725887D02*
X117240000Y-132725887D01*
X118026000Y-132685887D02*
X117240000Y-132685887D01*
X118064000Y-132645887D02*
X117240000Y-132645887D01*
X118101000Y-132605887D02*
X117240000Y-132605887D01*
X118137000Y-132565887D02*
X117240000Y-132565887D01*
X118171000Y-132525887D02*
X117240000Y-132525887D01*
X118204000Y-132485887D02*
X117240000Y-132485887D01*
X118235000Y-132445887D02*
X117240000Y-132445887D01*
X118265000Y-132405887D02*
X117240000Y-132405887D01*
X118295000Y-132365887D02*
X117240000Y-132365887D01*
X118322000Y-132325887D02*
X117240000Y-132325887D01*
X118349000Y-132285887D02*
X117240000Y-132285887D01*
X118375000Y-132245887D02*
X117240000Y-132245887D01*
X118400000Y-132205887D02*
X117240000Y-132205887D01*
X118424000Y-132165887D02*
X117240000Y-132165887D01*
X118447000Y-132125887D02*
X117240000Y-132125887D01*
X118468000Y-132085887D02*
X117240000Y-132085887D01*
X118490000Y-132045887D02*
X117240000Y-132045887D01*
X118510000Y-132005887D02*
X117240000Y-132005887D01*
X118529000Y-131965887D02*
X117240000Y-131965887D01*
X118548000Y-131925887D02*
X117240000Y-131925887D01*
X118565000Y-131885887D02*
X117240000Y-131885887D01*
X118582000Y-131845887D02*
X117240000Y-131845887D01*
X118598000Y-131805887D02*
X117240000Y-131805887D01*
X118614000Y-131765887D02*
X117240000Y-131765887D01*
X118628000Y-131725887D02*
X117240000Y-131725887D01*
X118642000Y-131685887D02*
X117240000Y-131685887D01*
X118655000Y-131645887D02*
X117240000Y-131645887D01*
X118668000Y-131605887D02*
X117240000Y-131605887D01*
X118680000Y-131565887D02*
X117240000Y-131565887D01*
X118691000Y-131524887D02*
X117240000Y-131524887D01*
X118701000Y-131484887D02*
X117240000Y-131484887D01*
X118711000Y-131444887D02*
X117240000Y-131444887D01*
X118720000Y-131404887D02*
X117240000Y-131404887D01*
X118728000Y-131364887D02*
X117240000Y-131364887D01*
X118736000Y-131324887D02*
X117240000Y-131324887D01*
X118743000Y-131284887D02*
X117240000Y-131284887D01*
X118750000Y-131244887D02*
X117240000Y-131244887D01*
X118756000Y-131204887D02*
X117240000Y-131204887D01*
X118761000Y-131164887D02*
X117240000Y-131164887D01*
X118765000Y-131124887D02*
X117240000Y-131124887D01*
X118769000Y-131084887D02*
X117240000Y-131084887D01*
X118773000Y-131044887D02*
X113627000Y-131044887D01*
X118776000Y-131004887D02*
X113624000Y-131004887D01*
X118778000Y-130964887D02*
X113622000Y-130964887D01*
X118779000Y-130924887D02*
X113621000Y-130924887D01*
X118780000Y-130844887D02*
X113620000Y-130844887D01*
X118780000Y-130884887D02*
X113620000Y-130884887D01*
X118820000Y-130844887D02*
G75*
G02*
X113580000Y-130844887I-2620000J0D01*
G01*
X113580000Y-130844887D02*
G75*
G02*
X118820000Y-130844887I2620000J0D01*
G01*
%TO.C,R36*%
X97367500Y-138745276D02*
X97367500Y-139254724D01*
X98412500Y-138745276D02*
X98412500Y-139254724D01*
%TO.C,C1*%
X227116233Y-128290000D02*
X227408767Y-128290000D01*
X227116233Y-129310000D02*
X227408767Y-129310000D01*
%TO.C,J4*%
X171600000Y-140960000D02*
X171600000Y-141800000D01*
X171600000Y-141800000D02*
X172200000Y-141800000D01*
X171840000Y-133840000D02*
X171840000Y-141561000D01*
X171840000Y-133840000D02*
X186960000Y-133840000D01*
X171840000Y-135600000D02*
X186960000Y-135600000D01*
X171840000Y-140300000D02*
X186960000Y-140300000D01*
X171840000Y-140900000D02*
X186960000Y-140900000D01*
X171840000Y-141561000D02*
X186960000Y-141561000D01*
X178220000Y-138976000D02*
X178126000Y-139069000D01*
X178390000Y-139216000D02*
X178331000Y-139274000D01*
X180470000Y-136725000D02*
X180411000Y-136784000D01*
X180675000Y-136931000D02*
X180581000Y-137024000D01*
X183220000Y-138976000D02*
X183126000Y-139069000D01*
X183390000Y-139216000D02*
X183331000Y-139274000D01*
X185470000Y-136725000D02*
X185411000Y-136784000D01*
X185675000Y-136931000D02*
X185581000Y-137024000D01*
X186960000Y-133840000D02*
X186960000Y-141561000D01*
X172916047Y-138789089D02*
G75*
G02*
X172916000Y-137211000I1483948J789089D01*
G01*
X173610911Y-136516047D02*
G75*
G02*
X175189000Y-136516000I789089J-1483948D01*
G01*
X174429383Y-139680450D02*
G75*
G02*
X173611000Y-139484000I-29385J1680445D01*
G01*
X175188712Y-139483352D02*
G75*
G02*
X174400000Y-139680000I-788712J1483352D01*
G01*
X175883953Y-137210911D02*
G75*
G02*
X175884000Y-138789000I-1483953J-789089D01*
G01*
X174950000Y-135000000D02*
G75*
G02*
X173850000Y-135000000I-550000J0D01*
G01*
X173850000Y-135000000D02*
G75*
G02*
X174950000Y-135000000I550000J0D01*
G01*
X179950000Y-135000000D02*
G75*
G02*
X178850000Y-135000000I-550000J0D01*
G01*
X178850000Y-135000000D02*
G75*
G02*
X179950000Y-135000000I550000J0D01*
G01*
X181080000Y-138000000D02*
G75*
G02*
X177720000Y-138000000I-1680000J0D01*
G01*
X177720000Y-138000000D02*
G75*
G02*
X181080000Y-138000000I1680000J0D01*
G01*
X184950000Y-135000000D02*
G75*
G02*
X183850000Y-135000000I-550000J0D01*
G01*
X183850000Y-135000000D02*
G75*
G02*
X184950000Y-135000000I550000J0D01*
G01*
X186080000Y-138000000D02*
G75*
G02*
X182720000Y-138000000I-1680000J0D01*
G01*
X182720000Y-138000000D02*
G75*
G02*
X186080000Y-138000000I1680000J0D01*
G01*
%TO.C,R4*%
X208677500Y-125367224D02*
X208677500Y-124857776D01*
X209722500Y-125367224D02*
X209722500Y-124857776D01*
%TO.C,D4*%
X97260000Y-127400000D02*
X98280000Y-127400000D01*
X98280000Y-125930000D02*
X98280000Y-128870000D01*
X98280000Y-128870000D02*
X103720000Y-128870000D01*
X99060000Y-125930000D02*
X99060000Y-128870000D01*
X99180000Y-125930000D02*
X99180000Y-128870000D01*
X99300000Y-125930000D02*
X99300000Y-128870000D01*
X103720000Y-125930000D02*
X98280000Y-125930000D01*
X103720000Y-128870000D02*
X103720000Y-125930000D01*
X104740000Y-127400000D02*
X103720000Y-127400000D01*
%TO.C,R30*%
X95277500Y-132254724D02*
X95277500Y-131745276D01*
X96322500Y-132254724D02*
X96322500Y-131745276D01*
%TO.C,R11*%
X180592500Y-124742224D02*
X180592500Y-124232776D01*
X179547500Y-124742224D02*
X179547500Y-124232776D01*
%TO.C,C16*%
X107490000Y-132853733D02*
X107490000Y-133146267D01*
X108510000Y-132853733D02*
X108510000Y-133146267D01*
%TO.C,J9*%
X204870000Y-140530000D02*
X204870000Y-132850000D01*
X204870000Y-143130000D02*
X204870000Y-141800000D01*
X206200000Y-143130000D02*
X204870000Y-143130000D01*
X207530000Y-132850000D02*
X204870000Y-132850000D01*
X207530000Y-140530000D02*
X204870000Y-140530000D01*
X207530000Y-140530000D02*
X207530000Y-132850000D01*
%TO.C,C5*%
X185546267Y-128890000D02*
X185253733Y-128890000D01*
X185546267Y-129910000D02*
X185253733Y-129910000D01*
%TO.C,R31*%
X87077500Y-138145276D02*
X87077500Y-138654724D01*
X88122500Y-138145276D02*
X88122500Y-138654724D01*
%TO.C,R17*%
X242082500Y-122092224D02*
X242082500Y-121582776D01*
X243127500Y-122092224D02*
X243127500Y-121582776D01*
%TO.C,U2*%
X221400000Y-123140000D02*
X219450000Y-123140000D01*
X221400000Y-123140000D02*
X223350000Y-123140000D01*
X221400000Y-133260000D02*
X219450000Y-133260000D01*
X221400000Y-133260000D02*
X223350000Y-133260000D01*
X224340000Y-133535000D02*
X223860000Y-133535000D01*
X224100000Y-133205000D01*
X224340000Y-133535000D01*
G36*
X224340000Y-133535000D02*
G01*
X223860000Y-133535000D01*
X224100000Y-133205000D01*
X224340000Y-133535000D01*
G37*
%TO.C,U1*%
X246250000Y-120030000D02*
X246250000Y-121030000D01*
X246250000Y-138270000D02*
X246250000Y-137270000D01*
X247030000Y-120030000D02*
X246250000Y-120030000D01*
X247030000Y-138270000D02*
X246250000Y-138270000D01*
X271990000Y-120030000D02*
X265830000Y-120030000D01*
X271990000Y-120030000D02*
X271990000Y-138270000D01*
X271990000Y-138270000D02*
X265575000Y-138270000D01*
X265605000Y-120025000D02*
X265105000Y-120025000D01*
X265105000Y-119525000D01*
X265605000Y-120025000D01*
G36*
X265605000Y-120025000D02*
G01*
X265105000Y-120025000D01*
X265105000Y-119525000D01*
X265605000Y-120025000D01*
G37*
%TO.C,C6*%
X185546267Y-126290000D02*
X185253733Y-126290000D01*
X185546267Y-127310000D02*
X185253733Y-127310000D01*
%TO.C,R24*%
X214454724Y-132677500D02*
X213945276Y-132677500D01*
X214454724Y-133722500D02*
X213945276Y-133722500D01*
%TO.C,R18*%
X243652500Y-122092224D02*
X243652500Y-121582776D01*
X244697500Y-122092224D02*
X244697500Y-121582776D01*
%TO.C,R15*%
X240282500Y-122092224D02*
X240282500Y-121582776D01*
X241327500Y-122092224D02*
X241327500Y-121582776D01*
%TO.C,R10*%
X176377500Y-124754724D02*
X176377500Y-124245276D01*
X177422500Y-124754724D02*
X177422500Y-124245276D01*
%TO.C,R2*%
X204945276Y-127877500D02*
X205454724Y-127877500D01*
X204945276Y-128922500D02*
X205454724Y-128922500D01*
%TO.C,J3*%
X188600000Y-140960000D02*
X188600000Y-141800000D01*
X188600000Y-141800000D02*
X189200000Y-141800000D01*
X188840000Y-133840000D02*
X188840000Y-141561000D01*
X188840000Y-133840000D02*
X203960000Y-133840000D01*
X188840000Y-135600000D02*
X203960000Y-135600000D01*
X188840000Y-140300000D02*
X203960000Y-140300000D01*
X188840000Y-140900000D02*
X203960000Y-140900000D01*
X188840000Y-141561000D02*
X203960000Y-141561000D01*
X195220000Y-138976000D02*
X195126000Y-139069000D01*
X195390000Y-139216000D02*
X195331000Y-139274000D01*
X197470000Y-136725000D02*
X197411000Y-136784000D01*
X197675000Y-136931000D02*
X197581000Y-137024000D01*
X200220000Y-138976000D02*
X200126000Y-139069000D01*
X200390000Y-139216000D02*
X200331000Y-139274000D01*
X202470000Y-136725000D02*
X202411000Y-136784000D01*
X202675000Y-136931000D02*
X202581000Y-137024000D01*
X203960000Y-133840000D02*
X203960000Y-141561000D01*
X189916047Y-138789089D02*
G75*
G02*
X189916000Y-137211000I1483948J789089D01*
G01*
X190610911Y-136516047D02*
G75*
G02*
X192189000Y-136516000I789089J-1483948D01*
G01*
X191429383Y-139680450D02*
G75*
G02*
X190611000Y-139484000I-29385J1680445D01*
G01*
X192188712Y-139483352D02*
G75*
G02*
X191400000Y-139680000I-788712J1483352D01*
G01*
X192883953Y-137210911D02*
G75*
G02*
X192884000Y-138789000I-1483953J-789089D01*
G01*
X191950000Y-135000000D02*
G75*
G02*
X190850000Y-135000000I-550000J0D01*
G01*
X190850000Y-135000000D02*
G75*
G02*
X191950000Y-135000000I550000J0D01*
G01*
X196950000Y-135000000D02*
G75*
G02*
X195850000Y-135000000I-550000J0D01*
G01*
X195850000Y-135000000D02*
G75*
G02*
X196950000Y-135000000I550000J0D01*
G01*
X198080000Y-138000000D02*
G75*
G02*
X194720000Y-138000000I-1680000J0D01*
G01*
X194720000Y-138000000D02*
G75*
G02*
X198080000Y-138000000I1680000J0D01*
G01*
X201950000Y-135000000D02*
G75*
G02*
X200850000Y-135000000I-550000J0D01*
G01*
X200850000Y-135000000D02*
G75*
G02*
X201950000Y-135000000I550000J0D01*
G01*
X203080000Y-138000000D02*
G75*
G02*
X199720000Y-138000000I-1680000J0D01*
G01*
X199720000Y-138000000D02*
G75*
G02*
X203080000Y-138000000I1680000J0D01*
G01*
%TO.C,R12*%
X182922500Y-124742224D02*
X182922500Y-124232776D01*
X181877500Y-124742224D02*
X181877500Y-124232776D01*
%TO.C,Q1*%
X212260000Y-131850000D02*
X215860000Y-131850000D01*
X211703600Y-128901193D02*
G75*
G02*
X214060000Y-127400000I2356400J-1098807D01*
G01*
X212260000Y-131850000D02*
G75*
G02*
X211735816Y-131122795I1800000J1850000D01*
G01*
X214060000Y-127400000D02*
G75*
G02*
X216416400Y-128901193I0J-2600000D01*
G01*
X216384184Y-131122795D02*
G75*
G02*
X215860000Y-131850000I-2324184J1122795D01*
G01*
%TO.C,U5*%
X190150000Y-122990000D02*
X193910000Y-122990000D01*
X190150000Y-129810000D02*
X193910000Y-129810000D01*
X193910000Y-122990000D02*
X193910000Y-124250000D01*
X193910000Y-129810000D02*
X193910000Y-128550000D01*
X188870000Y-123090000D02*
X188630000Y-122760000D01*
X189110000Y-122760000D01*
X188870000Y-123090000D01*
G36*
X188870000Y-123090000D02*
G01*
X188630000Y-122760000D01*
X189110000Y-122760000D01*
X188870000Y-123090000D01*
G37*
D10*
%TO.C,J2*%
X60950000Y-123485000D02*
X73290000Y-123485000D01*
X60950000Y-139485000D02*
X60950000Y-123485000D01*
X73290000Y-139485000D02*
X60950000Y-139485000D01*
X76190000Y-139485000D02*
X82250000Y-139485000D01*
X82250000Y-123485000D02*
X76190000Y-123485000D01*
X82250000Y-123610000D02*
X82250000Y-123485000D01*
X82250000Y-139485000D02*
X82250000Y-123610000D01*
D14*
X82690000Y-125670000D02*
X82690000Y-125670000D01*
X82690000Y-125870000D02*
X82690000Y-125870000D01*
X82690000Y-125670000D02*
G75*
G02*
X82690000Y-125870000I0J-100000D01*
G01*
X82690000Y-125870000D02*
G75*
G02*
X82690000Y-125670000I0J100000D01*
G01*
D13*
%TO.C,C2*%
X230583767Y-132240000D02*
X230291233Y-132240000D01*
X230583767Y-133260000D02*
X230291233Y-133260000D01*
%TO.C,C17*%
X105490000Y-132853733D02*
X105490000Y-133146267D01*
X106510000Y-132853733D02*
X106510000Y-133146267D01*
%TO.C,J6*%
X170100000Y-121940000D02*
X170100000Y-121100000D01*
X170100000Y-121100000D02*
X169500000Y-121100000D01*
X169860000Y-129060000D02*
X169860000Y-121339000D01*
X169860000Y-129060000D02*
X154740000Y-129060000D01*
X169860000Y-127300000D02*
X154740000Y-127300000D01*
X169860000Y-122600000D02*
X154740000Y-122600000D01*
X169860000Y-122000000D02*
X154740000Y-122000000D01*
X169860000Y-121339000D02*
X154740000Y-121339000D01*
X163480000Y-123924000D02*
X163574000Y-123831000D01*
X163310000Y-123684000D02*
X163369000Y-123626000D01*
X161230000Y-126175000D02*
X161289000Y-126116000D01*
X161025000Y-125969000D02*
X161119000Y-125876000D01*
X158480000Y-123924000D02*
X158574000Y-123831000D01*
X158310000Y-123684000D02*
X158369000Y-123626000D01*
X156230000Y-126175000D02*
X156289000Y-126116000D01*
X156025000Y-125969000D02*
X156119000Y-125876000D01*
X154740000Y-129060000D02*
X154740000Y-121339000D01*
X168783953Y-124110911D02*
G75*
G02*
X168784000Y-125689000I-1483948J-789089D01*
G01*
X168089089Y-126383953D02*
G75*
G02*
X166511000Y-126384000I-789089J1483948D01*
G01*
X167270617Y-123219550D02*
G75*
G02*
X168089000Y-123416000I29385J-1680445D01*
G01*
X166511288Y-123416648D02*
G75*
G02*
X167300000Y-123220000I788712J-1483352D01*
G01*
X165816047Y-125689089D02*
G75*
G02*
X165816000Y-124111000I1483953J789089D01*
G01*
X167850000Y-127900000D02*
G75*
G02*
X166750000Y-127900000I-550000J0D01*
G01*
X166750000Y-127900000D02*
G75*
G02*
X167850000Y-127900000I550000J0D01*
G01*
X162850000Y-127900000D02*
G75*
G02*
X161750000Y-127900000I-550000J0D01*
G01*
X161750000Y-127900000D02*
G75*
G02*
X162850000Y-127900000I550000J0D01*
G01*
X163980000Y-124900000D02*
G75*
G02*
X160620000Y-124900000I-1680000J0D01*
G01*
X160620000Y-124900000D02*
G75*
G02*
X163980000Y-124900000I1680000J0D01*
G01*
X157850000Y-127900000D02*
G75*
G02*
X156750000Y-127900000I-550000J0D01*
G01*
X156750000Y-127900000D02*
G75*
G02*
X157850000Y-127900000I550000J0D01*
G01*
X158980000Y-124900000D02*
G75*
G02*
X155620000Y-124900000I-1680000J0D01*
G01*
X155620000Y-124900000D02*
G75*
G02*
X158980000Y-124900000I1680000J0D01*
G01*
%TO.C,J5*%
X154600000Y-141160000D02*
X154600000Y-142000000D01*
X154600000Y-142000000D02*
X155200000Y-142000000D01*
X154840000Y-134040000D02*
X154840000Y-141761000D01*
X154840000Y-134040000D02*
X169960000Y-134040000D01*
X154840000Y-135800000D02*
X169960000Y-135800000D01*
X154840000Y-140500000D02*
X169960000Y-140500000D01*
X154840000Y-141100000D02*
X169960000Y-141100000D01*
X154840000Y-141761000D02*
X169960000Y-141761000D01*
X161220000Y-139176000D02*
X161126000Y-139269000D01*
X161390000Y-139416000D02*
X161331000Y-139474000D01*
X163470000Y-136925000D02*
X163411000Y-136984000D01*
X163675000Y-137131000D02*
X163581000Y-137224000D01*
X166220000Y-139176000D02*
X166126000Y-139269000D01*
X166390000Y-139416000D02*
X166331000Y-139474000D01*
X168470000Y-136925000D02*
X168411000Y-136984000D01*
X168675000Y-137131000D02*
X168581000Y-137224000D01*
X169960000Y-134040000D02*
X169960000Y-141761000D01*
X155916047Y-138989089D02*
G75*
G02*
X155916000Y-137411000I1483948J789089D01*
G01*
X156610911Y-136716047D02*
G75*
G02*
X158189000Y-136716000I789089J-1483948D01*
G01*
X157429383Y-139880450D02*
G75*
G02*
X156611000Y-139684000I-29385J1680445D01*
G01*
X158188712Y-139683352D02*
G75*
G02*
X157400000Y-139880000I-788712J1483352D01*
G01*
X158883953Y-137410911D02*
G75*
G02*
X158884000Y-138989000I-1483953J-789089D01*
G01*
X157950000Y-135200000D02*
G75*
G02*
X156850000Y-135200000I-550000J0D01*
G01*
X156850000Y-135200000D02*
G75*
G02*
X157950000Y-135200000I550000J0D01*
G01*
X162950000Y-135200000D02*
G75*
G02*
X161850000Y-135200000I-550000J0D01*
G01*
X161850000Y-135200000D02*
G75*
G02*
X162950000Y-135200000I550000J0D01*
G01*
X164080000Y-138200000D02*
G75*
G02*
X160720000Y-138200000I-1680000J0D01*
G01*
X160720000Y-138200000D02*
G75*
G02*
X164080000Y-138200000I1680000J0D01*
G01*
X167950000Y-135200000D02*
G75*
G02*
X166850000Y-135200000I-550000J0D01*
G01*
X166850000Y-135200000D02*
G75*
G02*
X167950000Y-135200000I550000J0D01*
G01*
X169080000Y-138200000D02*
G75*
G02*
X165720000Y-138200000I-1680000J0D01*
G01*
X165720000Y-138200000D02*
G75*
G02*
X169080000Y-138200000I1680000J0D01*
G01*
%TO.C,R13*%
X243320276Y-131227500D02*
X243829724Y-131227500D01*
X243320276Y-132272500D02*
X243829724Y-132272500D01*
%TO.C,R33*%
X88877500Y-138145276D02*
X88877500Y-138654724D01*
X89922500Y-138145276D02*
X89922500Y-138654724D01*
%TO.C,C14*%
X85990000Y-125553733D02*
X85990000Y-125846267D01*
X87010000Y-125553733D02*
X87010000Y-125846267D01*
%TO.C,R16*%
X243320276Y-129627500D02*
X243829724Y-129627500D01*
X243320276Y-130672500D02*
X243829724Y-130672500D01*
%TO.C,R9*%
X174277500Y-124754724D02*
X174277500Y-124245276D01*
X175322500Y-124754724D02*
X175322500Y-124245276D01*
%TO.C,J8*%
X142940000Y-129660000D02*
X142940000Y-121540000D01*
X144225000Y-126669000D02*
X144319000Y-126576000D01*
X144430000Y-126875000D02*
X144489000Y-126816000D01*
X146510000Y-124384000D02*
X146569000Y-124326000D01*
X146680000Y-124624000D02*
X146774000Y-124531000D01*
X153060000Y-121540000D02*
X142940000Y-121540000D01*
X153060000Y-123600000D02*
X142940000Y-123600000D01*
X153060000Y-127600000D02*
X142940000Y-127600000D01*
X153060000Y-129660000D02*
X142940000Y-129660000D01*
X153060000Y-129660000D02*
X153060000Y-121540000D01*
X153300000Y-121300000D02*
X151300000Y-121300000D01*
X153300000Y-123540000D02*
X153300000Y-121300000D01*
X149016047Y-126389089D02*
G75*
G02*
X149016000Y-124811000I1483953J789089D01*
G01*
X149711288Y-124116648D02*
G75*
G02*
X150500000Y-123920000I788712J-1483352D01*
G01*
X150470617Y-123919550D02*
G75*
G02*
X151289000Y-124116000I29385J-1680445D01*
G01*
X151289089Y-127083953D02*
G75*
G02*
X149711000Y-127084000I-789089J1483948D01*
G01*
X151983953Y-124810911D02*
G75*
G02*
X151984000Y-126389000I-1483948J-789089D01*
G01*
X147180000Y-125600000D02*
G75*
G02*
X143820000Y-125600000I-1680000J0D01*
G01*
X143820000Y-125600000D02*
G75*
G02*
X147180000Y-125600000I1680000J0D01*
G01*
%TO.C,R35*%
X99477500Y-138745276D02*
X99477500Y-139254724D01*
X100522500Y-138745276D02*
X100522500Y-139254724D01*
%TO.C,D2*%
X86650000Y-128690000D02*
X86650000Y-134200000D01*
X89950000Y-128690000D02*
X86650000Y-128690000D01*
X89950000Y-128690000D02*
X89950000Y-134200000D01*
%TO.C,R29*%
X93477500Y-132254724D02*
X93477500Y-131745276D01*
X94522500Y-132254724D02*
X94522500Y-131745276D01*
%TO.C,IC1*%
X98390000Y-130902500D02*
X98390000Y-130267500D01*
X98390000Y-135247500D02*
X98390000Y-134372500D01*
X99265000Y-130027500D02*
X98690000Y-130027500D01*
X99265000Y-135247500D02*
X98390000Y-135247500D01*
X102735000Y-130027500D02*
X103610000Y-130027500D01*
X102735000Y-135247500D02*
X103610000Y-135247500D01*
X103610000Y-130027500D02*
X103610000Y-130902500D01*
X103610000Y-135247500D02*
X103610000Y-134372500D01*
X98390000Y-130027500D02*
X98150000Y-129697500D01*
X98630000Y-129697500D01*
X98390000Y-130027500D01*
G36*
X98390000Y-130027500D02*
G01*
X98150000Y-129697500D01*
X98630000Y-129697500D01*
X98390000Y-130027500D01*
G37*
%TO.C,U7*%
X212000000Y-134215000D02*
X209800000Y-134215000D01*
X212000000Y-134215000D02*
X214200000Y-134215000D01*
X212000000Y-140985000D02*
X209800000Y-140985000D01*
X212000000Y-140985000D02*
X214200000Y-140985000D01*
X216190000Y-140765000D02*
X215860000Y-140525000D01*
X216190000Y-140285000D01*
X216190000Y-140765000D01*
G36*
X216190000Y-140765000D02*
G01*
X215860000Y-140525000D01*
X216190000Y-140285000D01*
X216190000Y-140765000D01*
G37*
%TO.C,U3*%
D10*
X140500000Y-140000000D02*
X119500000Y-140000000D01*
X119500000Y-123000000D01*
X140500000Y-123000000D01*
X140500000Y-140000000D01*
D13*
%TO.C,J1*%
X197700000Y-119090000D02*
X206860000Y-119090000D01*
X197700000Y-120795000D02*
X197700000Y-119090000D01*
X197700000Y-122805000D02*
X197700000Y-124725000D01*
X206860000Y-119090000D02*
X206860000Y-120795000D01*
X206860000Y-124725000D02*
X206860000Y-122805000D01*
%TO.C,R3*%
X208677500Y-128657776D02*
X208677500Y-129167224D01*
X209722500Y-128657776D02*
X209722500Y-129167224D01*
%TO.C,R37*%
X104360000Y-138800000D02*
X105130000Y-138800000D01*
X105130000Y-137430000D02*
X105130000Y-140170000D01*
X105130000Y-140170000D02*
X111670000Y-140170000D01*
X111670000Y-137430000D02*
X105130000Y-137430000D01*
X111670000Y-140170000D02*
X111670000Y-137430000D01*
X112440000Y-138800000D02*
X111670000Y-138800000D01*
%TO.C,C13*%
X88810000Y-125553733D02*
X88810000Y-125846267D01*
X87790000Y-125553733D02*
X87790000Y-125846267D01*
%TO.C,R32*%
X92277500Y-138745276D02*
X92277500Y-139254724D01*
X93322500Y-138745276D02*
X93322500Y-139254724D01*
%TO.C,R1*%
X199254724Y-127877500D02*
X198745276Y-127877500D01*
X199254724Y-128922500D02*
X198745276Y-128922500D01*
%TO.C,C10*%
X243828733Y-125640000D02*
X244121267Y-125640000D01*
X243828733Y-126660000D02*
X244121267Y-126660000D01*
%TO.C,Q2*%
X212260000Y-126650000D02*
X215860000Y-126650000D01*
X211703600Y-123701193D02*
G75*
G02*
X214060000Y-122200000I2356400J-1098807D01*
G01*
X212260000Y-126650000D02*
G75*
G02*
X211735816Y-125922795I1800000J1850000D01*
G01*
X214060000Y-122200000D02*
G75*
G02*
X216416400Y-123701193I0J-2600000D01*
G01*
X216384184Y-125922795D02*
G75*
G02*
X215860000Y-126650000I-2324184J1122795D01*
G01*
%TO.C,SW1*%
X227125000Y-136100000D02*
X227125000Y-140600000D01*
X229625000Y-141850000D02*
X231125000Y-141850000D01*
X231125000Y-134850000D02*
X229625000Y-134850000D01*
X233625000Y-140600000D02*
X233625000Y-136100000D01*
%TO.C,C8*%
X91090000Y-131853733D02*
X91090000Y-132146267D01*
X92110000Y-131853733D02*
X92110000Y-132146267D01*
%TO.C,R34*%
X94277500Y-138745276D02*
X94277500Y-139254724D01*
X95322500Y-138745276D02*
X95322500Y-139254724D01*
%TO.C,R5*%
X233652500Y-123182776D02*
X233652500Y-123692224D01*
X234697500Y-123182776D02*
X234697500Y-123692224D01*
%TO.C,J7*%
X250245000Y-139995000D02*
X251575000Y-139995000D01*
X250245000Y-141325000D02*
X250245000Y-139995000D01*
X252845000Y-139995000D02*
X260525000Y-139995000D01*
X252845000Y-142655000D02*
X252845000Y-139995000D01*
X252845000Y-142655000D02*
X260525000Y-142655000D01*
X260525000Y-142655000D02*
X260525000Y-139995000D01*
%TD*%
M02*
