%TF.GenerationSoftware,KiCad,Pcbnew,9.0.3*%
%TF.CreationDate,2025-11-28T17:50:14+01:00*%
%TF.ProjectId,esp32_POE,65737033-325f-4504-9f45-2e6b69636164,rev?*%
%TF.SameCoordinates,Original*%
%TF.FileFunction,Legend,Bot*%
%TF.FilePolarity,Positive*%
%FSLAX46Y46*%
G04 Gerber Fmt 4.6, Leading zero omitted, Abs format (unit mm)*
G04 Created by KiCad (PCBNEW 9.0.3) date 2025-11-28 17:50:14*
%MOMM*%
%LPD*%
G01*
G04 APERTURE LIST*
G04 Aperture macros list*
%AMRoundRect*
0 Rectangle with rounded corners*
0 $1 Rounding radius*
0 $2 $3 $4 $5 $6 $7 $8 $9 X,Y pos of 4 corners*
0 Add a 4 corners polygon primitive as box body*
4,1,4,$2,$3,$4,$5,$6,$7,$8,$9,$2,$3,0*
0 Add four circle primitives for the rounded corners*
1,1,$1+$1,$2,$3*
1,1,$1+$1,$4,$5*
1,1,$1+$1,$6,$7*
1,1,$1+$1,$8,$9*
0 Add four rect primitives between the rounded corners*
20,1,$1+$1,$2,$3,$4,$5,0*
20,1,$1+$1,$4,$5,$6,$7,0*
20,1,$1+$1,$6,$7,$8,$9,0*
20,1,$1+$1,$8,$9,$2,$3,0*%
G04 Aperture macros list end*
%ADD10C,0.100000*%
%ADD11C,0.150000*%
%ADD12C,0.120000*%
%ADD13C,2.400000*%
%ADD14C,1.530000*%
%ADD15C,1.446000*%
%ADD16C,3.250000*%
%ADD17R,1.600000X1.600000*%
%ADD18C,1.600000*%
%ADD19R,2.500000X2.500000*%
%ADD20C,2.500000*%
%ADD21R,2.200000X2.200000*%
%ADD22O,2.200000X2.200000*%
%ADD23R,1.700000X1.700000*%
%ADD24O,1.700000X1.700000*%
%ADD25R,1.350000X1.350000*%
%ADD26O,1.350000X1.350000*%
%ADD27R,1.500000X1.500000*%
%ADD28C,1.500000*%
%ADD29C,0.650000*%
%ADD30O,1.000000X2.100000*%
%ADD31O,1.000000X1.600000*%
%ADD32O,1.600000X1.600000*%
%ADD33C,2.000000*%
%ADD34RoundRect,0.237500X0.237500X-0.250000X0.237500X0.250000X-0.237500X0.250000X-0.237500X-0.250000X0*%
%ADD35RoundRect,0.062500X-0.062500X0.375000X-0.062500X-0.375000X0.062500X-0.375000X0.062500X0.375000X0*%
%ADD36RoundRect,0.062500X-0.375000X0.062500X-0.375000X-0.062500X0.375000X-0.062500X0.375000X0.062500X0*%
%ADD37R,3.300000X3.300000*%
%ADD38RoundRect,0.237500X-0.237500X0.250000X-0.237500X-0.250000X0.237500X-0.250000X0.237500X0.250000X0*%
%ADD39RoundRect,0.237500X-0.237500X0.300000X-0.237500X-0.300000X0.237500X-0.300000X0.237500X0.300000X0*%
%ADD40RoundRect,0.237500X-0.250000X-0.237500X0.250000X-0.237500X0.250000X0.237500X-0.250000X0.237500X0*%
%ADD41RoundRect,0.237500X0.237500X-0.300000X0.237500X0.300000X-0.237500X0.300000X-0.237500X-0.300000X0*%
G04 APERTURE END LIST*
D10*
G36*
X208759161Y-142393645D02*
G01*
X208838867Y-142473351D01*
X208877580Y-142550776D01*
X208877580Y-142717645D01*
X208838867Y-142795070D01*
X208759161Y-142874776D01*
X208588092Y-142917544D01*
X208267069Y-142917544D01*
X208095999Y-142874776D01*
X208016292Y-142795069D01*
X207977580Y-142717645D01*
X207977580Y-142550776D01*
X208016292Y-142473352D01*
X208095999Y-142393645D01*
X208267069Y-142350878D01*
X208588092Y-142350878D01*
X208759161Y-142393645D01*
G37*
G36*
X208759161Y-138869836D02*
G01*
X208838867Y-138949542D01*
X208877580Y-139026967D01*
X208877580Y-139193836D01*
X208838867Y-139271261D01*
X208759161Y-139350967D01*
X208588092Y-139393735D01*
X208267069Y-139393735D01*
X208095999Y-139350967D01*
X208016292Y-139271260D01*
X207977580Y-139193836D01*
X207977580Y-139026967D01*
X208016292Y-138949543D01*
X208095999Y-138869836D01*
X208267069Y-138827069D01*
X208588092Y-138827069D01*
X208759161Y-138869836D01*
G37*
G36*
X208759161Y-134393646D02*
G01*
X208838867Y-134473352D01*
X208877580Y-134550777D01*
X208877580Y-134717646D01*
X208838867Y-134795071D01*
X208759161Y-134874777D01*
X208588092Y-134917545D01*
X208267069Y-134917545D01*
X208095999Y-134874777D01*
X208016292Y-134795070D01*
X207977580Y-134717646D01*
X207977580Y-134550777D01*
X208016292Y-134473353D01*
X208095999Y-134393646D01*
X208267069Y-134350879D01*
X208588092Y-134350879D01*
X208759161Y-134393646D01*
G37*
G36*
X209136185Y-143557226D02*
G01*
X207529325Y-143557226D01*
X207529325Y-143376981D01*
X207881386Y-143376981D01*
X207881386Y-143415249D01*
X207908446Y-143442309D01*
X207927580Y-143446115D01*
X208927580Y-143446115D01*
X208946714Y-143442309D01*
X208973774Y-143415249D01*
X208973774Y-143376981D01*
X208946714Y-143349921D01*
X208927580Y-143346115D01*
X207927580Y-143346115D01*
X207908446Y-143349921D01*
X207881386Y-143376981D01*
X207529325Y-143376981D01*
X207529325Y-142538973D01*
X207877580Y-142538973D01*
X207877580Y-142729449D01*
X207878068Y-142731905D01*
X207877706Y-142732994D01*
X207879822Y-142740721D01*
X207881386Y-142748583D01*
X207882197Y-142749394D01*
X207882859Y-142751810D01*
X207930479Y-142847048D01*
X207935394Y-142853382D01*
X207939845Y-142860042D01*
X208035083Y-142955280D01*
X208039585Y-142958288D01*
X208040672Y-142960099D01*
X208046210Y-142962715D01*
X208051304Y-142966119D01*
X208053415Y-142966119D01*
X208058311Y-142968432D01*
X208248787Y-143016051D01*
X208254904Y-143016348D01*
X208260914Y-143017544D01*
X208594247Y-143017544D01*
X208600256Y-143016348D01*
X208606374Y-143016051D01*
X208796850Y-142968432D01*
X208801746Y-142966119D01*
X208803857Y-142966119D01*
X208808950Y-142962715D01*
X208814489Y-142960099D01*
X208815575Y-142958288D01*
X208820078Y-142955280D01*
X208915316Y-142860042D01*
X208919766Y-142853382D01*
X208924682Y-142847048D01*
X208972301Y-142751810D01*
X208972962Y-142749394D01*
X208973774Y-142748583D01*
X208975337Y-142740721D01*
X208977454Y-142732994D01*
X208977091Y-142731905D01*
X208977580Y-142729449D01*
X208977580Y-142538973D01*
X208977091Y-142536516D01*
X208977454Y-142535428D01*
X208975337Y-142527700D01*
X208973774Y-142519839D01*
X208972962Y-142519027D01*
X208972301Y-142516612D01*
X208924682Y-142421374D01*
X208919766Y-142415039D01*
X208915316Y-142408380D01*
X208820078Y-142313142D01*
X208815575Y-142310133D01*
X208814489Y-142308323D01*
X208808950Y-142305706D01*
X208803857Y-142302303D01*
X208801746Y-142302303D01*
X208796850Y-142299990D01*
X208606374Y-142252371D01*
X208600256Y-142252073D01*
X208594247Y-142250878D01*
X208260914Y-142250878D01*
X208254904Y-142252073D01*
X208248787Y-142252371D01*
X208058311Y-142299990D01*
X208053415Y-142302303D01*
X208051304Y-142302303D01*
X208046210Y-142305706D01*
X208040672Y-142308323D01*
X208039585Y-142310133D01*
X208035083Y-142313142D01*
X207939845Y-142408380D01*
X207935394Y-142415039D01*
X207930479Y-142421374D01*
X207882859Y-142516612D01*
X207882197Y-142519027D01*
X207881386Y-142519839D01*
X207879822Y-142527700D01*
X207877706Y-142535428D01*
X207878068Y-142536516D01*
X207877580Y-142538973D01*
X207529325Y-142538973D01*
X207529325Y-141424601D01*
X207881386Y-141424601D01*
X207881386Y-141462869D01*
X207908446Y-141489929D01*
X207927580Y-141493735D01*
X208210914Y-141493735D01*
X208210914Y-141919925D01*
X208214720Y-141939059D01*
X208220538Y-141944877D01*
X208223141Y-141952685D01*
X208233550Y-141957889D01*
X208241780Y-141966119D01*
X208250010Y-141966119D01*
X208257370Y-141969799D01*
X208276725Y-141967359D01*
X208991011Y-141729264D01*
X209007959Y-141719603D01*
X209025074Y-141685374D01*
X209012972Y-141649070D01*
X208978744Y-141631956D01*
X208959388Y-141634396D01*
X208310914Y-141850554D01*
X208310914Y-141493735D01*
X208594247Y-141493735D01*
X208613381Y-141489929D01*
X208640441Y-141462869D01*
X208640441Y-141424601D01*
X208613381Y-141397541D01*
X208594247Y-141393735D01*
X208310914Y-141393735D01*
X208310914Y-141300878D01*
X208307108Y-141281744D01*
X208280048Y-141254684D01*
X208241780Y-141254684D01*
X208214720Y-141281744D01*
X208210914Y-141300878D01*
X208210914Y-141393735D01*
X207927580Y-141393735D01*
X207908446Y-141397541D01*
X207881386Y-141424601D01*
X207529325Y-141424601D01*
X207529325Y-141072485D01*
X207640436Y-141072485D01*
X207661663Y-141104326D01*
X207699188Y-141111831D01*
X207717220Y-141104385D01*
X209002935Y-140247243D01*
X209016744Y-140233462D01*
X209024249Y-140195937D01*
X209003022Y-140164096D01*
X208965496Y-140156591D01*
X208947465Y-140164038D01*
X207661750Y-141021179D01*
X207647941Y-141034960D01*
X207640436Y-141072485D01*
X207529325Y-141072485D01*
X207529325Y-139853172D01*
X207881386Y-139853172D01*
X207881386Y-139891440D01*
X207908446Y-139918500D01*
X207927580Y-139922306D01*
X208927580Y-139922306D01*
X208946714Y-139918500D01*
X208973774Y-139891440D01*
X208973774Y-139853172D01*
X208946714Y-139826112D01*
X208927580Y-139822306D01*
X207927580Y-139822306D01*
X207908446Y-139826112D01*
X207881386Y-139853172D01*
X207529325Y-139853172D01*
X207529325Y-139015164D01*
X207877580Y-139015164D01*
X207877580Y-139205640D01*
X207878068Y-139208096D01*
X207877706Y-139209185D01*
X207879822Y-139216912D01*
X207881386Y-139224774D01*
X207882197Y-139225585D01*
X207882859Y-139228001D01*
X207930479Y-139323239D01*
X207935394Y-139329573D01*
X207939845Y-139336233D01*
X208035083Y-139431471D01*
X208039585Y-139434479D01*
X208040672Y-139436290D01*
X208046210Y-139438906D01*
X208051304Y-139442310D01*
X208053415Y-139442310D01*
X208058311Y-139444623D01*
X208248787Y-139492242D01*
X208254904Y-139492539D01*
X208260914Y-139493735D01*
X208594247Y-139493735D01*
X208600256Y-139492539D01*
X208606374Y-139492242D01*
X208796850Y-139444623D01*
X208801746Y-139442310D01*
X208803857Y-139442310D01*
X208808950Y-139438906D01*
X208814489Y-139436290D01*
X208815575Y-139434479D01*
X208820078Y-139431471D01*
X208915316Y-139336233D01*
X208919766Y-139329573D01*
X208924682Y-139323239D01*
X208972301Y-139228001D01*
X208972962Y-139225585D01*
X208973774Y-139224774D01*
X208975337Y-139216912D01*
X208977454Y-139209185D01*
X208977091Y-139208096D01*
X208977580Y-139205640D01*
X208977580Y-139015164D01*
X208977091Y-139012707D01*
X208977454Y-139011619D01*
X208975337Y-139003891D01*
X208973774Y-138996030D01*
X208972962Y-138995218D01*
X208972301Y-138992803D01*
X208924682Y-138897565D01*
X208919766Y-138891230D01*
X208915316Y-138884571D01*
X208820078Y-138789333D01*
X208815575Y-138786324D01*
X208814489Y-138784514D01*
X208808950Y-138781897D01*
X208803857Y-138778494D01*
X208801746Y-138778494D01*
X208796850Y-138776181D01*
X208606374Y-138728562D01*
X208600256Y-138728264D01*
X208594247Y-138727069D01*
X208260914Y-138727069D01*
X208254904Y-138728264D01*
X208248787Y-138728562D01*
X208058311Y-138776181D01*
X208053415Y-138778494D01*
X208051304Y-138778494D01*
X208046210Y-138781897D01*
X208040672Y-138784514D01*
X208039585Y-138786324D01*
X208035083Y-138789333D01*
X207939845Y-138884571D01*
X207935394Y-138891230D01*
X207930479Y-138897565D01*
X207882859Y-138992803D01*
X207882197Y-138995218D01*
X207881386Y-138996030D01*
X207879822Y-139003891D01*
X207877706Y-139011619D01*
X207878068Y-139012707D01*
X207877580Y-139015164D01*
X207529325Y-139015164D01*
X207529325Y-138015164D01*
X207877580Y-138015164D01*
X207877580Y-138300878D01*
X207878068Y-138303334D01*
X207877706Y-138304423D01*
X207879822Y-138312150D01*
X207881386Y-138320012D01*
X207882197Y-138320823D01*
X207882859Y-138323239D01*
X207930479Y-138418477D01*
X207935394Y-138424811D01*
X207939845Y-138431471D01*
X207987463Y-138479090D01*
X208003684Y-138489929D01*
X208041953Y-138489929D01*
X208069013Y-138462869D01*
X208069013Y-138424600D01*
X208058174Y-138408379D01*
X208016292Y-138366498D01*
X207977580Y-138289074D01*
X207977580Y-138026967D01*
X208016292Y-137949543D01*
X208052437Y-137913399D01*
X208129861Y-137874688D01*
X208344349Y-137874688D01*
X208421772Y-137913399D01*
X208457916Y-137949544D01*
X208496628Y-138026967D01*
X208496628Y-138158021D01*
X208499402Y-138171967D01*
X208499264Y-138174040D01*
X208499976Y-138174854D01*
X208500434Y-138177155D01*
X208512874Y-138189595D01*
X208524463Y-138202840D01*
X208526237Y-138202958D01*
X208527494Y-138204215D01*
X208545093Y-138204215D01*
X208562647Y-138205385D01*
X208564679Y-138204215D01*
X208565762Y-138204215D01*
X208567232Y-138202744D01*
X208579553Y-138195650D01*
X208877580Y-137934876D01*
X208877580Y-138443735D01*
X208881386Y-138462869D01*
X208908446Y-138489929D01*
X208946714Y-138489929D01*
X208973774Y-138462869D01*
X208977580Y-138443735D01*
X208977580Y-137824688D01*
X208974805Y-137810741D01*
X208974944Y-137808669D01*
X208974231Y-137807854D01*
X208973774Y-137805554D01*
X208961333Y-137793113D01*
X208949745Y-137779869D01*
X208947970Y-137779750D01*
X208946714Y-137778494D01*
X208929115Y-137778494D01*
X208911561Y-137777324D01*
X208909529Y-137778494D01*
X208908446Y-137778494D01*
X208906975Y-137779964D01*
X208894655Y-137787059D01*
X208596628Y-138047832D01*
X208596628Y-138015164D01*
X208596139Y-138012707D01*
X208596502Y-138011619D01*
X208594385Y-138003891D01*
X208592822Y-137996030D01*
X208592010Y-137995218D01*
X208591349Y-137992803D01*
X208543730Y-137897565D01*
X208538818Y-137891236D01*
X208534364Y-137884570D01*
X208486745Y-137836952D01*
X208480083Y-137832500D01*
X208473750Y-137827585D01*
X208378513Y-137779967D01*
X208376097Y-137779305D01*
X208375286Y-137778494D01*
X208367424Y-137776930D01*
X208359697Y-137774814D01*
X208358608Y-137775176D01*
X208356152Y-137774688D01*
X208118057Y-137774688D01*
X208115600Y-137775176D01*
X208114512Y-137774814D01*
X208106784Y-137776930D01*
X208098923Y-137778494D01*
X208098111Y-137779305D01*
X208095696Y-137779967D01*
X208000458Y-137827586D01*
X207994129Y-137832497D01*
X207987463Y-137836952D01*
X207939845Y-137884571D01*
X207935394Y-137891230D01*
X207930479Y-137897565D01*
X207882859Y-137992803D01*
X207882197Y-137995218D01*
X207881386Y-137996030D01*
X207879822Y-138003891D01*
X207877706Y-138011619D01*
X207878068Y-138012707D01*
X207877580Y-138015164D01*
X207529325Y-138015164D01*
X207529325Y-136872307D01*
X207877580Y-136872307D01*
X207877580Y-137491354D01*
X207881386Y-137510488D01*
X207908446Y-137537548D01*
X207946714Y-137537548D01*
X207962935Y-137526709D01*
X208526017Y-136963627D01*
X208649979Y-136922307D01*
X208725301Y-136922307D01*
X208802724Y-136961018D01*
X208838868Y-136997163D01*
X208877580Y-137074586D01*
X208877580Y-137289074D01*
X208838868Y-137366497D01*
X208796987Y-137408380D01*
X208786148Y-137424601D01*
X208786148Y-137462869D01*
X208813208Y-137489929D01*
X208851476Y-137489929D01*
X208867697Y-137479090D01*
X208915316Y-137431472D01*
X208919770Y-137424805D01*
X208924682Y-137418477D01*
X208972301Y-137323239D01*
X208972962Y-137320823D01*
X208973774Y-137320012D01*
X208975337Y-137312150D01*
X208977454Y-137304423D01*
X208977091Y-137303334D01*
X208977580Y-137300878D01*
X208977580Y-137062783D01*
X208977091Y-137060326D01*
X208977454Y-137059238D01*
X208975337Y-137051510D01*
X208973774Y-137043649D01*
X208972962Y-137042837D01*
X208972301Y-137040422D01*
X208924682Y-136945184D01*
X208919770Y-136938855D01*
X208915316Y-136932189D01*
X208867697Y-136884571D01*
X208861035Y-136880119D01*
X208854702Y-136875204D01*
X208759465Y-136827586D01*
X208757049Y-136826924D01*
X208756238Y-136826113D01*
X208748376Y-136824549D01*
X208740649Y-136822433D01*
X208739560Y-136822795D01*
X208737104Y-136822307D01*
X208641866Y-136822307D01*
X208634004Y-136823870D01*
X208626054Y-136824873D01*
X208483198Y-136872492D01*
X208481023Y-136873732D01*
X208479875Y-136873732D01*
X208473214Y-136878182D01*
X208466249Y-136882153D01*
X208465735Y-136883180D01*
X208463654Y-136884571D01*
X207977580Y-137370644D01*
X207977580Y-136872307D01*
X207973774Y-136853173D01*
X207946714Y-136826113D01*
X207908446Y-136826113D01*
X207881386Y-136853173D01*
X207877580Y-136872307D01*
X207529325Y-136872307D01*
X207529325Y-136596295D01*
X207640436Y-136596295D01*
X207661663Y-136628136D01*
X207699188Y-136635641D01*
X207717220Y-136628195D01*
X209002935Y-135771053D01*
X209016744Y-135757272D01*
X209024249Y-135719747D01*
X209003022Y-135687906D01*
X208965496Y-135680401D01*
X208947465Y-135687848D01*
X207661750Y-136544989D01*
X207647941Y-136558770D01*
X207640436Y-136596295D01*
X207529325Y-136596295D01*
X207529325Y-135376982D01*
X207881386Y-135376982D01*
X207881386Y-135415250D01*
X207908446Y-135442310D01*
X207927580Y-135446116D01*
X208927580Y-135446116D01*
X208946714Y-135442310D01*
X208973774Y-135415250D01*
X208973774Y-135376982D01*
X208946714Y-135349922D01*
X208927580Y-135346116D01*
X207927580Y-135346116D01*
X207908446Y-135349922D01*
X207881386Y-135376982D01*
X207529325Y-135376982D01*
X207529325Y-134538974D01*
X207877580Y-134538974D01*
X207877580Y-134729450D01*
X207878068Y-134731906D01*
X207877706Y-134732995D01*
X207879822Y-134740722D01*
X207881386Y-134748584D01*
X207882197Y-134749395D01*
X207882859Y-134751811D01*
X207930479Y-134847049D01*
X207935394Y-134853383D01*
X207939845Y-134860043D01*
X208035083Y-134955281D01*
X208039585Y-134958289D01*
X208040672Y-134960100D01*
X208046210Y-134962716D01*
X208051304Y-134966120D01*
X208053415Y-134966120D01*
X208058311Y-134968433D01*
X208248787Y-135016052D01*
X208254904Y-135016349D01*
X208260914Y-135017545D01*
X208594247Y-135017545D01*
X208600256Y-135016349D01*
X208606374Y-135016052D01*
X208796850Y-134968433D01*
X208801746Y-134966120D01*
X208803857Y-134966120D01*
X208808950Y-134962716D01*
X208814489Y-134960100D01*
X208815575Y-134958289D01*
X208820078Y-134955281D01*
X208915316Y-134860043D01*
X208919766Y-134853383D01*
X208924682Y-134847049D01*
X208972301Y-134751811D01*
X208972962Y-134749395D01*
X208973774Y-134748584D01*
X208975337Y-134740722D01*
X208977454Y-134732995D01*
X208977091Y-134731906D01*
X208977580Y-134729450D01*
X208977580Y-134538974D01*
X208977091Y-134536517D01*
X208977454Y-134535429D01*
X208975337Y-134527701D01*
X208973774Y-134519840D01*
X208972962Y-134519028D01*
X208972301Y-134516613D01*
X208924682Y-134421375D01*
X208919766Y-134415040D01*
X208915316Y-134408381D01*
X208820078Y-134313143D01*
X208815575Y-134310134D01*
X208814489Y-134308324D01*
X208808950Y-134305707D01*
X208803857Y-134302304D01*
X208801746Y-134302304D01*
X208796850Y-134299991D01*
X208606374Y-134252372D01*
X208600256Y-134252074D01*
X208594247Y-134250879D01*
X208260914Y-134250879D01*
X208254904Y-134252074D01*
X208248787Y-134252372D01*
X208058311Y-134299991D01*
X208053415Y-134302304D01*
X208051304Y-134302304D01*
X208046210Y-134305707D01*
X208040672Y-134308324D01*
X208039585Y-134310134D01*
X208035083Y-134313143D01*
X207939845Y-134408381D01*
X207935394Y-134415040D01*
X207930479Y-134421375D01*
X207882859Y-134516613D01*
X207882197Y-134519028D01*
X207881386Y-134519840D01*
X207879822Y-134527701D01*
X207877706Y-134535429D01*
X207878068Y-134536517D01*
X207877580Y-134538974D01*
X207529325Y-134538974D01*
X207529325Y-133538974D01*
X207877580Y-133538974D01*
X207877580Y-133824688D01*
X207878068Y-133827144D01*
X207877706Y-133828233D01*
X207879822Y-133835960D01*
X207881386Y-133843822D01*
X207882197Y-133844633D01*
X207882859Y-133847049D01*
X207930479Y-133942287D01*
X207935394Y-133948621D01*
X207939845Y-133955281D01*
X207987463Y-134002900D01*
X208003684Y-134013739D01*
X208041953Y-134013739D01*
X208069013Y-133986679D01*
X208069013Y-133948410D01*
X208058174Y-133932189D01*
X208016292Y-133890308D01*
X207977580Y-133812884D01*
X207977580Y-133550777D01*
X208016292Y-133473353D01*
X208052437Y-133437209D01*
X208129861Y-133398498D01*
X208344349Y-133398498D01*
X208421772Y-133437209D01*
X208457916Y-133473354D01*
X208496628Y-133550777D01*
X208496628Y-133681831D01*
X208499402Y-133695777D01*
X208499264Y-133697850D01*
X208499976Y-133698664D01*
X208500434Y-133700965D01*
X208512874Y-133713405D01*
X208524463Y-133726650D01*
X208526237Y-133726768D01*
X208527494Y-133728025D01*
X208545093Y-133728025D01*
X208562647Y-133729195D01*
X208564679Y-133728025D01*
X208565762Y-133728025D01*
X208567232Y-133726554D01*
X208579553Y-133719460D01*
X208877580Y-133458686D01*
X208877580Y-133967545D01*
X208881386Y-133986679D01*
X208908446Y-134013739D01*
X208946714Y-134013739D01*
X208973774Y-133986679D01*
X208977580Y-133967545D01*
X208977580Y-133348498D01*
X208974805Y-133334551D01*
X208974944Y-133332479D01*
X208974231Y-133331664D01*
X208973774Y-133329364D01*
X208961333Y-133316923D01*
X208949745Y-133303679D01*
X208947970Y-133303560D01*
X208946714Y-133302304D01*
X208929115Y-133302304D01*
X208911561Y-133301134D01*
X208909529Y-133302304D01*
X208908446Y-133302304D01*
X208906975Y-133303774D01*
X208894655Y-133310869D01*
X208596628Y-133571642D01*
X208596628Y-133538974D01*
X208596139Y-133536517D01*
X208596502Y-133535429D01*
X208594385Y-133527701D01*
X208592822Y-133519840D01*
X208592010Y-133519028D01*
X208591349Y-133516613D01*
X208543730Y-133421375D01*
X208538818Y-133415046D01*
X208534364Y-133408380D01*
X208486745Y-133360762D01*
X208480083Y-133356310D01*
X208473750Y-133351395D01*
X208378513Y-133303777D01*
X208376097Y-133303115D01*
X208375286Y-133302304D01*
X208367424Y-133300740D01*
X208359697Y-133298624D01*
X208358608Y-133298986D01*
X208356152Y-133298498D01*
X208118057Y-133298498D01*
X208115600Y-133298986D01*
X208114512Y-133298624D01*
X208106784Y-133300740D01*
X208098923Y-133302304D01*
X208098111Y-133303115D01*
X208095696Y-133303777D01*
X208000458Y-133351396D01*
X207994129Y-133356307D01*
X207987463Y-133360762D01*
X207939845Y-133408381D01*
X207935394Y-133415040D01*
X207930479Y-133421375D01*
X207882859Y-133516613D01*
X207882197Y-133519028D01*
X207881386Y-133519840D01*
X207879822Y-133527701D01*
X207877706Y-133535429D01*
X207878068Y-133536517D01*
X207877580Y-133538974D01*
X207529325Y-133538974D01*
X207529325Y-132586593D01*
X207877580Y-132586593D01*
X207877580Y-132872307D01*
X207878068Y-132874763D01*
X207877706Y-132875852D01*
X207879822Y-132883579D01*
X207881386Y-132891441D01*
X207882197Y-132892252D01*
X207882859Y-132894668D01*
X207930479Y-132989906D01*
X207935394Y-132996240D01*
X207939845Y-133002900D01*
X207987463Y-133050519D01*
X208003684Y-133061358D01*
X208041953Y-133061358D01*
X208069013Y-133034298D01*
X208069013Y-132996029D01*
X208058174Y-132979808D01*
X208016292Y-132937927D01*
X207977580Y-132860503D01*
X207977580Y-132598396D01*
X208016292Y-132520972D01*
X208052437Y-132484828D01*
X208129861Y-132446117D01*
X208344349Y-132446117D01*
X208421772Y-132484828D01*
X208457916Y-132520973D01*
X208496628Y-132598396D01*
X208496628Y-132729450D01*
X208499402Y-132743396D01*
X208499264Y-132745469D01*
X208499976Y-132746283D01*
X208500434Y-132748584D01*
X208512874Y-132761024D01*
X208524463Y-132774269D01*
X208526237Y-132774387D01*
X208527494Y-132775644D01*
X208545093Y-132775644D01*
X208562647Y-132776814D01*
X208564679Y-132775644D01*
X208565762Y-132775644D01*
X208567232Y-132774173D01*
X208579553Y-132767079D01*
X208877580Y-132506305D01*
X208877580Y-133015164D01*
X208881386Y-133034298D01*
X208908446Y-133061358D01*
X208946714Y-133061358D01*
X208973774Y-133034298D01*
X208977580Y-133015164D01*
X208977580Y-132396117D01*
X208974805Y-132382170D01*
X208974944Y-132380098D01*
X208974231Y-132379283D01*
X208973774Y-132376983D01*
X208961333Y-132364542D01*
X208949745Y-132351298D01*
X208947970Y-132351179D01*
X208946714Y-132349923D01*
X208929115Y-132349923D01*
X208911561Y-132348753D01*
X208909529Y-132349923D01*
X208908446Y-132349923D01*
X208906975Y-132351393D01*
X208894655Y-132358488D01*
X208596628Y-132619261D01*
X208596628Y-132586593D01*
X208596139Y-132584136D01*
X208596502Y-132583048D01*
X208594385Y-132575320D01*
X208592822Y-132567459D01*
X208592010Y-132566647D01*
X208591349Y-132564232D01*
X208543730Y-132468994D01*
X208538818Y-132462665D01*
X208534364Y-132455999D01*
X208486745Y-132408381D01*
X208480083Y-132403929D01*
X208473750Y-132399014D01*
X208378513Y-132351396D01*
X208376097Y-132350734D01*
X208375286Y-132349923D01*
X208367424Y-132348359D01*
X208359697Y-132346243D01*
X208358608Y-132346605D01*
X208356152Y-132346117D01*
X208118057Y-132346117D01*
X208115600Y-132346605D01*
X208114512Y-132346243D01*
X208106784Y-132348359D01*
X208098923Y-132349923D01*
X208098111Y-132350734D01*
X208095696Y-132351396D01*
X208000458Y-132399015D01*
X207994129Y-132403926D01*
X207987463Y-132408381D01*
X207939845Y-132456000D01*
X207935394Y-132462659D01*
X207930479Y-132468994D01*
X207882859Y-132564232D01*
X207882197Y-132566647D01*
X207881386Y-132567459D01*
X207879822Y-132575320D01*
X207877706Y-132583048D01*
X207878068Y-132584136D01*
X207877580Y-132586593D01*
X207529325Y-132586593D01*
X207529325Y-132120105D01*
X207640436Y-132120105D01*
X207661663Y-132151946D01*
X207699188Y-132159451D01*
X207717220Y-132152005D01*
X209002935Y-131294863D01*
X209016744Y-131281082D01*
X209024249Y-131243557D01*
X209003022Y-131211716D01*
X208965496Y-131204211D01*
X208947465Y-131211658D01*
X207661750Y-132068799D01*
X207647941Y-132082580D01*
X207640436Y-132120105D01*
X207529325Y-132120105D01*
X207529325Y-130342192D01*
X207877979Y-130342192D01*
X207881386Y-130354684D01*
X207881386Y-130367632D01*
X207886240Y-130372486D01*
X207888048Y-130379113D01*
X207902773Y-130391910D01*
X208739302Y-130869926D01*
X207927580Y-130869926D01*
X207908446Y-130873732D01*
X207881386Y-130900792D01*
X207881386Y-130939060D01*
X207908446Y-130966120D01*
X207927580Y-130969926D01*
X208927580Y-130969926D01*
X208946714Y-130966120D01*
X208951568Y-130961265D01*
X208958195Y-130959458D01*
X208964620Y-130948213D01*
X208973774Y-130939060D01*
X208973774Y-130932194D01*
X208977181Y-130926232D01*
X208973774Y-130913739D01*
X208973774Y-130900792D01*
X208968918Y-130895936D01*
X208967112Y-130889312D01*
X208952387Y-130876514D01*
X208115858Y-130398498D01*
X208927580Y-130398498D01*
X208946714Y-130394692D01*
X208973774Y-130367632D01*
X208973774Y-130329364D01*
X208946714Y-130302304D01*
X208927580Y-130298498D01*
X207927580Y-130298498D01*
X207908446Y-130302304D01*
X207903591Y-130307158D01*
X207896965Y-130308966D01*
X207890539Y-130320210D01*
X207881386Y-130329364D01*
X207881386Y-130336229D01*
X207877979Y-130342192D01*
X207529325Y-130342192D01*
X207529325Y-129491355D01*
X207877580Y-129491355D01*
X207877580Y-129586593D01*
X207879143Y-129594454D01*
X207880146Y-129602405D01*
X207927766Y-129745262D01*
X207929006Y-129747437D01*
X207929006Y-129748584D01*
X207933455Y-129755242D01*
X207937427Y-129762210D01*
X207938454Y-129762723D01*
X207939845Y-129764805D01*
X208035083Y-129860043D01*
X208041742Y-129864493D01*
X208048077Y-129869409D01*
X208143315Y-129917028D01*
X208148596Y-129918474D01*
X208153549Y-129920814D01*
X208344025Y-129968433D01*
X208350142Y-129968730D01*
X208356152Y-129969926D01*
X208499009Y-129969926D01*
X208505018Y-129968730D01*
X208511136Y-129968433D01*
X208701612Y-129920814D01*
X208706564Y-129918474D01*
X208711846Y-129917028D01*
X208807083Y-129869410D01*
X208813416Y-129864494D01*
X208820078Y-129860043D01*
X208915316Y-129764805D01*
X208916706Y-129762723D01*
X208917734Y-129762210D01*
X208921704Y-129755244D01*
X208926155Y-129748584D01*
X208926155Y-129747436D01*
X208927395Y-129745261D01*
X208975014Y-129602405D01*
X208976016Y-129594454D01*
X208977580Y-129586593D01*
X208977580Y-129491355D01*
X208976016Y-129483493D01*
X208975014Y-129475543D01*
X208927395Y-129332687D01*
X208926155Y-129330511D01*
X208926155Y-129329363D01*
X208921700Y-129322696D01*
X208917734Y-129315738D01*
X208916707Y-129315224D01*
X208915316Y-129313142D01*
X208867697Y-129265524D01*
X208851476Y-129254685D01*
X208813208Y-129254685D01*
X208786148Y-129281745D01*
X208786148Y-129320013D01*
X208796987Y-129336234D01*
X208836259Y-129375507D01*
X208877580Y-129499468D01*
X208877580Y-129578480D01*
X208836259Y-129702441D01*
X208755106Y-129783595D01*
X208672034Y-129825131D01*
X208492854Y-129869926D01*
X208362307Y-129869926D01*
X208183128Y-129825131D01*
X208100054Y-129783594D01*
X208018901Y-129702441D01*
X207977580Y-129578478D01*
X207977580Y-129499469D01*
X208018901Y-129375506D01*
X208058174Y-129336235D01*
X208069013Y-129320014D01*
X208069013Y-129281745D01*
X208041953Y-129254685D01*
X208003684Y-129254685D01*
X207987463Y-129265524D01*
X207939845Y-129313143D01*
X207938454Y-129315224D01*
X207937427Y-129315738D01*
X207933455Y-129322705D01*
X207929006Y-129329364D01*
X207929006Y-129330510D01*
X207927766Y-129332686D01*
X207880146Y-129475543D01*
X207879143Y-129483493D01*
X207877580Y-129491355D01*
X207529325Y-129491355D01*
X207529325Y-129143574D01*
X209136185Y-129143574D01*
X209136185Y-143557226D01*
G37*
D11*
X237941666Y-120604819D02*
X238274999Y-120128628D01*
X238513094Y-120604819D02*
X238513094Y-119604819D01*
X238513094Y-119604819D02*
X238132142Y-119604819D01*
X238132142Y-119604819D02*
X238036904Y-119652438D01*
X238036904Y-119652438D02*
X237989285Y-119700057D01*
X237989285Y-119700057D02*
X237941666Y-119795295D01*
X237941666Y-119795295D02*
X237941666Y-119938152D01*
X237941666Y-119938152D02*
X237989285Y-120033390D01*
X237989285Y-120033390D02*
X238036904Y-120081009D01*
X238036904Y-120081009D02*
X238132142Y-120128628D01*
X238132142Y-120128628D02*
X238513094Y-120128628D01*
X237370237Y-120033390D02*
X237465475Y-119985771D01*
X237465475Y-119985771D02*
X237513094Y-119938152D01*
X237513094Y-119938152D02*
X237560713Y-119842914D01*
X237560713Y-119842914D02*
X237560713Y-119795295D01*
X237560713Y-119795295D02*
X237513094Y-119700057D01*
X237513094Y-119700057D02*
X237465475Y-119652438D01*
X237465475Y-119652438D02*
X237370237Y-119604819D01*
X237370237Y-119604819D02*
X237179761Y-119604819D01*
X237179761Y-119604819D02*
X237084523Y-119652438D01*
X237084523Y-119652438D02*
X237036904Y-119700057D01*
X237036904Y-119700057D02*
X236989285Y-119795295D01*
X236989285Y-119795295D02*
X236989285Y-119842914D01*
X236989285Y-119842914D02*
X237036904Y-119938152D01*
X237036904Y-119938152D02*
X237084523Y-119985771D01*
X237084523Y-119985771D02*
X237179761Y-120033390D01*
X237179761Y-120033390D02*
X237370237Y-120033390D01*
X237370237Y-120033390D02*
X237465475Y-120081009D01*
X237465475Y-120081009D02*
X237513094Y-120128628D01*
X237513094Y-120128628D02*
X237560713Y-120223866D01*
X237560713Y-120223866D02*
X237560713Y-120414342D01*
X237560713Y-120414342D02*
X237513094Y-120509580D01*
X237513094Y-120509580D02*
X237465475Y-120557200D01*
X237465475Y-120557200D02*
X237370237Y-120604819D01*
X237370237Y-120604819D02*
X237179761Y-120604819D01*
X237179761Y-120604819D02*
X237084523Y-120557200D01*
X237084523Y-120557200D02*
X237036904Y-120509580D01*
X237036904Y-120509580D02*
X236989285Y-120414342D01*
X236989285Y-120414342D02*
X236989285Y-120223866D01*
X236989285Y-120223866D02*
X237036904Y-120128628D01*
X237036904Y-120128628D02*
X237084523Y-120081009D01*
X237084523Y-120081009D02*
X237179761Y-120033390D01*
X233849819Y-127838095D02*
X234659342Y-127838095D01*
X234659342Y-127838095D02*
X234754580Y-127885714D01*
X234754580Y-127885714D02*
X234802200Y-127933333D01*
X234802200Y-127933333D02*
X234849819Y-128028571D01*
X234849819Y-128028571D02*
X234849819Y-128219047D01*
X234849819Y-128219047D02*
X234802200Y-128314285D01*
X234802200Y-128314285D02*
X234754580Y-128361904D01*
X234754580Y-128361904D02*
X234659342Y-128409523D01*
X234659342Y-128409523D02*
X233849819Y-128409523D01*
X234183152Y-129314285D02*
X234849819Y-129314285D01*
X233802200Y-129076190D02*
X234516485Y-128838095D01*
X234516485Y-128838095D02*
X234516485Y-129457142D01*
X251129819Y-126157142D02*
X250653628Y-125823809D01*
X251129819Y-125585714D02*
X250129819Y-125585714D01*
X250129819Y-125585714D02*
X250129819Y-125966666D01*
X250129819Y-125966666D02*
X250177438Y-126061904D01*
X250177438Y-126061904D02*
X250225057Y-126109523D01*
X250225057Y-126109523D02*
X250320295Y-126157142D01*
X250320295Y-126157142D02*
X250463152Y-126157142D01*
X250463152Y-126157142D02*
X250558390Y-126109523D01*
X250558390Y-126109523D02*
X250606009Y-126061904D01*
X250606009Y-126061904D02*
X250653628Y-125966666D01*
X250653628Y-125966666D02*
X250653628Y-125585714D01*
X251129819Y-127109523D02*
X251129819Y-126538095D01*
X251129819Y-126823809D02*
X250129819Y-126823809D01*
X250129819Y-126823809D02*
X250272676Y-126728571D01*
X250272676Y-126728571D02*
X250367914Y-126633333D01*
X250367914Y-126633333D02*
X250415533Y-126538095D01*
X250463152Y-127966666D02*
X251129819Y-127966666D01*
X250082200Y-127728571D02*
X250796485Y-127490476D01*
X250796485Y-127490476D02*
X250796485Y-128109523D01*
X263934580Y-128283333D02*
X263982200Y-128235714D01*
X263982200Y-128235714D02*
X264029819Y-128092857D01*
X264029819Y-128092857D02*
X264029819Y-127997619D01*
X264029819Y-127997619D02*
X263982200Y-127854762D01*
X263982200Y-127854762D02*
X263886961Y-127759524D01*
X263886961Y-127759524D02*
X263791723Y-127711905D01*
X263791723Y-127711905D02*
X263601247Y-127664286D01*
X263601247Y-127664286D02*
X263458390Y-127664286D01*
X263458390Y-127664286D02*
X263267914Y-127711905D01*
X263267914Y-127711905D02*
X263172676Y-127759524D01*
X263172676Y-127759524D02*
X263077438Y-127854762D01*
X263077438Y-127854762D02*
X263029819Y-127997619D01*
X263029819Y-127997619D02*
X263029819Y-128092857D01*
X263029819Y-128092857D02*
X263077438Y-128235714D01*
X263077438Y-128235714D02*
X263125057Y-128283333D01*
X263363152Y-129140476D02*
X264029819Y-129140476D01*
X262982200Y-128902381D02*
X263696485Y-128664286D01*
X263696485Y-128664286D02*
X263696485Y-129283333D01*
X239741666Y-120604819D02*
X240074999Y-120128628D01*
X240313094Y-120604819D02*
X240313094Y-119604819D01*
X240313094Y-119604819D02*
X239932142Y-119604819D01*
X239932142Y-119604819D02*
X239836904Y-119652438D01*
X239836904Y-119652438D02*
X239789285Y-119700057D01*
X239789285Y-119700057D02*
X239741666Y-119795295D01*
X239741666Y-119795295D02*
X239741666Y-119938152D01*
X239741666Y-119938152D02*
X239789285Y-120033390D01*
X239789285Y-120033390D02*
X239836904Y-120081009D01*
X239836904Y-120081009D02*
X239932142Y-120128628D01*
X239932142Y-120128628D02*
X240313094Y-120128628D01*
X238884523Y-119604819D02*
X239074999Y-119604819D01*
X239074999Y-119604819D02*
X239170237Y-119652438D01*
X239170237Y-119652438D02*
X239217856Y-119700057D01*
X239217856Y-119700057D02*
X239313094Y-119842914D01*
X239313094Y-119842914D02*
X239360713Y-120033390D01*
X239360713Y-120033390D02*
X239360713Y-120414342D01*
X239360713Y-120414342D02*
X239313094Y-120509580D01*
X239313094Y-120509580D02*
X239265475Y-120557200D01*
X239265475Y-120557200D02*
X239170237Y-120604819D01*
X239170237Y-120604819D02*
X238979761Y-120604819D01*
X238979761Y-120604819D02*
X238884523Y-120557200D01*
X238884523Y-120557200D02*
X238836904Y-120509580D01*
X238836904Y-120509580D02*
X238789285Y-120414342D01*
X238789285Y-120414342D02*
X238789285Y-120176247D01*
X238789285Y-120176247D02*
X238836904Y-120081009D01*
X238836904Y-120081009D02*
X238884523Y-120033390D01*
X238884523Y-120033390D02*
X238979761Y-119985771D01*
X238979761Y-119985771D02*
X239170237Y-119985771D01*
X239170237Y-119985771D02*
X239265475Y-120033390D01*
X239265475Y-120033390D02*
X239313094Y-120081009D01*
X239313094Y-120081009D02*
X239360713Y-120176247D01*
X234904580Y-122844642D02*
X234952200Y-122797023D01*
X234952200Y-122797023D02*
X234999819Y-122654166D01*
X234999819Y-122654166D02*
X234999819Y-122558928D01*
X234999819Y-122558928D02*
X234952200Y-122416071D01*
X234952200Y-122416071D02*
X234856961Y-122320833D01*
X234856961Y-122320833D02*
X234761723Y-122273214D01*
X234761723Y-122273214D02*
X234571247Y-122225595D01*
X234571247Y-122225595D02*
X234428390Y-122225595D01*
X234428390Y-122225595D02*
X234237914Y-122273214D01*
X234237914Y-122273214D02*
X234142676Y-122320833D01*
X234142676Y-122320833D02*
X234047438Y-122416071D01*
X234047438Y-122416071D02*
X233999819Y-122558928D01*
X233999819Y-122558928D02*
X233999819Y-122654166D01*
X233999819Y-122654166D02*
X234047438Y-122797023D01*
X234047438Y-122797023D02*
X234095057Y-122844642D01*
X234999819Y-123797023D02*
X234999819Y-123225595D01*
X234999819Y-123511309D02*
X233999819Y-123511309D01*
X233999819Y-123511309D02*
X234142676Y-123416071D01*
X234142676Y-123416071D02*
X234237914Y-123320833D01*
X234237914Y-123320833D02*
X234285533Y-123225595D01*
X234095057Y-124177976D02*
X234047438Y-124225595D01*
X234047438Y-124225595D02*
X233999819Y-124320833D01*
X233999819Y-124320833D02*
X233999819Y-124558928D01*
X233999819Y-124558928D02*
X234047438Y-124654166D01*
X234047438Y-124654166D02*
X234095057Y-124701785D01*
X234095057Y-124701785D02*
X234190295Y-124749404D01*
X234190295Y-124749404D02*
X234285533Y-124749404D01*
X234285533Y-124749404D02*
X234428390Y-124701785D01*
X234428390Y-124701785D02*
X234999819Y-124130357D01*
X234999819Y-124130357D02*
X234999819Y-124749404D01*
X261834580Y-128283333D02*
X261882200Y-128235714D01*
X261882200Y-128235714D02*
X261929819Y-128092857D01*
X261929819Y-128092857D02*
X261929819Y-127997619D01*
X261929819Y-127997619D02*
X261882200Y-127854762D01*
X261882200Y-127854762D02*
X261786961Y-127759524D01*
X261786961Y-127759524D02*
X261691723Y-127711905D01*
X261691723Y-127711905D02*
X261501247Y-127664286D01*
X261501247Y-127664286D02*
X261358390Y-127664286D01*
X261358390Y-127664286D02*
X261167914Y-127711905D01*
X261167914Y-127711905D02*
X261072676Y-127759524D01*
X261072676Y-127759524D02*
X260977438Y-127854762D01*
X260977438Y-127854762D02*
X260929819Y-127997619D01*
X260929819Y-127997619D02*
X260929819Y-128092857D01*
X260929819Y-128092857D02*
X260977438Y-128235714D01*
X260977438Y-128235714D02*
X261025057Y-128283333D01*
X260929819Y-128616667D02*
X260929819Y-129235714D01*
X260929819Y-129235714D02*
X261310771Y-128902381D01*
X261310771Y-128902381D02*
X261310771Y-129045238D01*
X261310771Y-129045238D02*
X261358390Y-129140476D01*
X261358390Y-129140476D02*
X261406009Y-129188095D01*
X261406009Y-129188095D02*
X261501247Y-129235714D01*
X261501247Y-129235714D02*
X261739342Y-129235714D01*
X261739342Y-129235714D02*
X261834580Y-129188095D01*
X261834580Y-129188095D02*
X261882200Y-129140476D01*
X261882200Y-129140476D02*
X261929819Y-129045238D01*
X261929819Y-129045238D02*
X261929819Y-128759524D01*
X261929819Y-128759524D02*
X261882200Y-128664286D01*
X261882200Y-128664286D02*
X261834580Y-128616667D01*
X254529819Y-126157142D02*
X254053628Y-125823809D01*
X254529819Y-125585714D02*
X253529819Y-125585714D01*
X253529819Y-125585714D02*
X253529819Y-125966666D01*
X253529819Y-125966666D02*
X253577438Y-126061904D01*
X253577438Y-126061904D02*
X253625057Y-126109523D01*
X253625057Y-126109523D02*
X253720295Y-126157142D01*
X253720295Y-126157142D02*
X253863152Y-126157142D01*
X253863152Y-126157142D02*
X253958390Y-126109523D01*
X253958390Y-126109523D02*
X254006009Y-126061904D01*
X254006009Y-126061904D02*
X254053628Y-125966666D01*
X254053628Y-125966666D02*
X254053628Y-125585714D01*
X253625057Y-126538095D02*
X253577438Y-126585714D01*
X253577438Y-126585714D02*
X253529819Y-126680952D01*
X253529819Y-126680952D02*
X253529819Y-126919047D01*
X253529819Y-126919047D02*
X253577438Y-127014285D01*
X253577438Y-127014285D02*
X253625057Y-127061904D01*
X253625057Y-127061904D02*
X253720295Y-127109523D01*
X253720295Y-127109523D02*
X253815533Y-127109523D01*
X253815533Y-127109523D02*
X253958390Y-127061904D01*
X253958390Y-127061904D02*
X254529819Y-126490476D01*
X254529819Y-126490476D02*
X254529819Y-127109523D01*
X253529819Y-127728571D02*
X253529819Y-127823809D01*
X253529819Y-127823809D02*
X253577438Y-127919047D01*
X253577438Y-127919047D02*
X253625057Y-127966666D01*
X253625057Y-127966666D02*
X253720295Y-128014285D01*
X253720295Y-128014285D02*
X253910771Y-128061904D01*
X253910771Y-128061904D02*
X254148866Y-128061904D01*
X254148866Y-128061904D02*
X254339342Y-128014285D01*
X254339342Y-128014285D02*
X254434580Y-127966666D01*
X254434580Y-127966666D02*
X254482200Y-127919047D01*
X254482200Y-127919047D02*
X254529819Y-127823809D01*
X254529819Y-127823809D02*
X254529819Y-127728571D01*
X254529819Y-127728571D02*
X254482200Y-127633333D01*
X254482200Y-127633333D02*
X254434580Y-127585714D01*
X254434580Y-127585714D02*
X254339342Y-127538095D01*
X254339342Y-127538095D02*
X254148866Y-127490476D01*
X254148866Y-127490476D02*
X253910771Y-127490476D01*
X253910771Y-127490476D02*
X253720295Y-127538095D01*
X253720295Y-127538095D02*
X253625057Y-127585714D01*
X253625057Y-127585714D02*
X253577438Y-127633333D01*
X253577438Y-127633333D02*
X253529819Y-127728571D01*
X241741666Y-134834819D02*
X242074999Y-134358628D01*
X242313094Y-134834819D02*
X242313094Y-133834819D01*
X242313094Y-133834819D02*
X241932142Y-133834819D01*
X241932142Y-133834819D02*
X241836904Y-133882438D01*
X241836904Y-133882438D02*
X241789285Y-133930057D01*
X241789285Y-133930057D02*
X241741666Y-134025295D01*
X241741666Y-134025295D02*
X241741666Y-134168152D01*
X241741666Y-134168152D02*
X241789285Y-134263390D01*
X241789285Y-134263390D02*
X241836904Y-134311009D01*
X241836904Y-134311009D02*
X241932142Y-134358628D01*
X241932142Y-134358628D02*
X242313094Y-134358628D01*
X241408332Y-133834819D02*
X240741666Y-133834819D01*
X240741666Y-133834819D02*
X241170237Y-134834819D01*
X243164580Y-123183333D02*
X243212200Y-123135714D01*
X243212200Y-123135714D02*
X243259819Y-122992857D01*
X243259819Y-122992857D02*
X243259819Y-122897619D01*
X243259819Y-122897619D02*
X243212200Y-122754762D01*
X243212200Y-122754762D02*
X243116961Y-122659524D01*
X243116961Y-122659524D02*
X243021723Y-122611905D01*
X243021723Y-122611905D02*
X242831247Y-122564286D01*
X242831247Y-122564286D02*
X242688390Y-122564286D01*
X242688390Y-122564286D02*
X242497914Y-122611905D01*
X242497914Y-122611905D02*
X242402676Y-122659524D01*
X242402676Y-122659524D02*
X242307438Y-122754762D01*
X242307438Y-122754762D02*
X242259819Y-122897619D01*
X242259819Y-122897619D02*
X242259819Y-122992857D01*
X242259819Y-122992857D02*
X242307438Y-123135714D01*
X242307438Y-123135714D02*
X242355057Y-123183333D01*
X242259819Y-123516667D02*
X242259819Y-124183333D01*
X242259819Y-124183333D02*
X243259819Y-123754762D01*
X233104580Y-130583333D02*
X233152200Y-130535714D01*
X233152200Y-130535714D02*
X233199819Y-130392857D01*
X233199819Y-130392857D02*
X233199819Y-130297619D01*
X233199819Y-130297619D02*
X233152200Y-130154762D01*
X233152200Y-130154762D02*
X233056961Y-130059524D01*
X233056961Y-130059524D02*
X232961723Y-130011905D01*
X232961723Y-130011905D02*
X232771247Y-129964286D01*
X232771247Y-129964286D02*
X232628390Y-129964286D01*
X232628390Y-129964286D02*
X232437914Y-130011905D01*
X232437914Y-130011905D02*
X232342676Y-130059524D01*
X232342676Y-130059524D02*
X232247438Y-130154762D01*
X232247438Y-130154762D02*
X232199819Y-130297619D01*
X232199819Y-130297619D02*
X232199819Y-130392857D01*
X232199819Y-130392857D02*
X232247438Y-130535714D01*
X232247438Y-130535714D02*
X232295057Y-130583333D01*
X233199819Y-131059524D02*
X233199819Y-131250000D01*
X233199819Y-131250000D02*
X233152200Y-131345238D01*
X233152200Y-131345238D02*
X233104580Y-131392857D01*
X233104580Y-131392857D02*
X232961723Y-131488095D01*
X232961723Y-131488095D02*
X232771247Y-131535714D01*
X232771247Y-131535714D02*
X232390295Y-131535714D01*
X232390295Y-131535714D02*
X232295057Y-131488095D01*
X232295057Y-131488095D02*
X232247438Y-131440476D01*
X232247438Y-131440476D02*
X232199819Y-131345238D01*
X232199819Y-131345238D02*
X232199819Y-131154762D01*
X232199819Y-131154762D02*
X232247438Y-131059524D01*
X232247438Y-131059524D02*
X232295057Y-131011905D01*
X232295057Y-131011905D02*
X232390295Y-130964286D01*
X232390295Y-130964286D02*
X232628390Y-130964286D01*
X232628390Y-130964286D02*
X232723628Y-131011905D01*
X232723628Y-131011905D02*
X232771247Y-131059524D01*
X232771247Y-131059524D02*
X232818866Y-131154762D01*
X232818866Y-131154762D02*
X232818866Y-131345238D01*
X232818866Y-131345238D02*
X232771247Y-131440476D01*
X232771247Y-131440476D02*
X232723628Y-131488095D01*
X232723628Y-131488095D02*
X232628390Y-131535714D01*
X252829819Y-126157142D02*
X252353628Y-125823809D01*
X252829819Y-125585714D02*
X251829819Y-125585714D01*
X251829819Y-125585714D02*
X251829819Y-125966666D01*
X251829819Y-125966666D02*
X251877438Y-126061904D01*
X251877438Y-126061904D02*
X251925057Y-126109523D01*
X251925057Y-126109523D02*
X252020295Y-126157142D01*
X252020295Y-126157142D02*
X252163152Y-126157142D01*
X252163152Y-126157142D02*
X252258390Y-126109523D01*
X252258390Y-126109523D02*
X252306009Y-126061904D01*
X252306009Y-126061904D02*
X252353628Y-125966666D01*
X252353628Y-125966666D02*
X252353628Y-125585714D01*
X252829819Y-127109523D02*
X252829819Y-126538095D01*
X252829819Y-126823809D02*
X251829819Y-126823809D01*
X251829819Y-126823809D02*
X251972676Y-126728571D01*
X251972676Y-126728571D02*
X252067914Y-126633333D01*
X252067914Y-126633333D02*
X252115533Y-126538095D01*
X252829819Y-127585714D02*
X252829819Y-127776190D01*
X252829819Y-127776190D02*
X252782200Y-127871428D01*
X252782200Y-127871428D02*
X252734580Y-127919047D01*
X252734580Y-127919047D02*
X252591723Y-128014285D01*
X252591723Y-128014285D02*
X252401247Y-128061904D01*
X252401247Y-128061904D02*
X252020295Y-128061904D01*
X252020295Y-128061904D02*
X251925057Y-128014285D01*
X251925057Y-128014285D02*
X251877438Y-127966666D01*
X251877438Y-127966666D02*
X251829819Y-127871428D01*
X251829819Y-127871428D02*
X251829819Y-127680952D01*
X251829819Y-127680952D02*
X251877438Y-127585714D01*
X251877438Y-127585714D02*
X251925057Y-127538095D01*
X251925057Y-127538095D02*
X252020295Y-127490476D01*
X252020295Y-127490476D02*
X252258390Y-127490476D01*
X252258390Y-127490476D02*
X252353628Y-127538095D01*
X252353628Y-127538095D02*
X252401247Y-127585714D01*
X252401247Y-127585714D02*
X252448866Y-127680952D01*
X252448866Y-127680952D02*
X252448866Y-127871428D01*
X252448866Y-127871428D02*
X252401247Y-127966666D01*
X252401247Y-127966666D02*
X252353628Y-128014285D01*
X252353628Y-128014285D02*
X252258390Y-128061904D01*
D12*
%TO.C,R8*%
X237252500Y-122095276D02*
X237252500Y-122604724D01*
X238297500Y-122095276D02*
X238297500Y-122604724D01*
%TO.C,U4*%
X235615000Y-126290000D02*
X235615000Y-126465000D01*
X235615000Y-131210000D02*
X235615000Y-130735000D01*
X235855000Y-125990000D02*
X236090000Y-125990000D01*
X236090000Y-131210000D02*
X235615000Y-131210000D01*
X240360000Y-125990000D02*
X240835000Y-125990000D01*
X240360000Y-131210000D02*
X240835000Y-131210000D01*
X240835000Y-125990000D02*
X240835000Y-126465000D01*
X240835000Y-131210000D02*
X240835000Y-130735000D01*
X235615000Y-125990000D02*
X235285000Y-126230000D01*
X235285000Y-125750000D01*
X235615000Y-125990000D01*
G36*
X235615000Y-125990000D02*
G01*
X235285000Y-126230000D01*
X235285000Y-125750000D01*
X235615000Y-125990000D01*
G37*
%TO.C,R14*%
X250052500Y-123867224D02*
X250052500Y-123357776D01*
X251097500Y-123867224D02*
X251097500Y-123357776D01*
%TO.C,C4*%
X262975000Y-125896267D02*
X262975000Y-125603733D01*
X263995000Y-125896267D02*
X263995000Y-125603733D01*
%TO.C,R6*%
X238852500Y-122604724D02*
X238852500Y-122095276D01*
X239897500Y-122604724D02*
X239897500Y-122095276D01*
%TO.C,C12*%
X235465000Y-123633767D02*
X235465000Y-123341233D01*
X236485000Y-123633767D02*
X236485000Y-123341233D01*
%TO.C,C3*%
X260865000Y-125896267D02*
X260865000Y-125603733D01*
X261885000Y-125896267D02*
X261885000Y-125603733D01*
%TO.C,R20*%
X253652500Y-123867224D02*
X253652500Y-123357776D01*
X254697500Y-123867224D02*
X254697500Y-123357776D01*
%TO.C,R7*%
X241829724Y-132427500D02*
X241320276Y-132427500D01*
X241829724Y-133472500D02*
X241320276Y-133472500D01*
%TO.C,C7*%
X240865000Y-123203733D02*
X240865000Y-123496267D01*
X241885000Y-123203733D02*
X241885000Y-123496267D01*
%TO.C,C9*%
X233665000Y-130896267D02*
X233665000Y-130603733D01*
X234685000Y-130896267D02*
X234685000Y-130603733D01*
%TO.C,R19*%
X251852500Y-123867224D02*
X251852500Y-123357776D01*
X252897500Y-123867224D02*
X252897500Y-123357776D01*
%TD*%
%LPC*%
D13*
%TO.C,J2*%
X74750000Y-123610000D03*
X74750000Y-139360000D03*
D14*
X67130000Y-124760000D03*
X69160000Y-124760000D03*
X67130000Y-138210000D03*
X69160000Y-138210000D03*
D15*
X78050000Y-137200000D03*
X80590000Y-135930000D03*
X78050000Y-132120000D03*
X80590000Y-130850000D03*
X78050000Y-129580000D03*
X80590000Y-128310000D03*
X78050000Y-127040000D03*
X80590000Y-125770000D03*
D16*
X71700000Y-125770000D03*
X71700000Y-137200000D03*
%TD*%
D17*
%TO.C,C11*%
X116200000Y-129594887D03*
D18*
X116200000Y-132094887D03*
%TD*%
D19*
%TO.C,J4*%
X174400000Y-138000000D03*
D20*
X179400000Y-138000000D03*
X184400000Y-138000000D03*
%TD*%
D21*
%TO.C,D4*%
X95920000Y-127400000D03*
D22*
X106080000Y-127400000D03*
%TD*%
D23*
%TO.C,J9*%
X206200000Y-141800000D03*
D24*
X206200000Y-139260000D03*
X206200000Y-136720000D03*
X206200000Y-134180000D03*
%TD*%
D25*
%TO.C,J10*%
X227200000Y-124400000D03*
D26*
X227200000Y-126400000D03*
%TD*%
D19*
%TO.C,J3*%
X191400000Y-138000000D03*
D20*
X196400000Y-138000000D03*
X201400000Y-138000000D03*
%TD*%
D27*
%TO.C,Q1*%
X211520000Y-130000000D03*
D28*
X214060000Y-130000000D03*
X216600000Y-130000000D03*
%TD*%
D19*
%TO.C,J6*%
X167300000Y-124900000D03*
D20*
X162300000Y-124900000D03*
X157300000Y-124900000D03*
%TD*%
D19*
%TO.C,J5*%
X157400000Y-138200000D03*
D20*
X162400000Y-138200000D03*
X167400000Y-138200000D03*
%TD*%
D19*
%TO.C,J8*%
X150500000Y-125600000D03*
D20*
X145500000Y-125600000D03*
%TD*%
D29*
%TO.C,J1*%
X205170000Y-125480000D03*
X199390000Y-125480000D03*
D30*
X206600000Y-125980000D03*
D31*
X206600000Y-121800000D03*
D30*
X197960000Y-125980000D03*
D31*
X197960000Y-121800000D03*
%TD*%
D18*
%TO.C,R37*%
X113480000Y-138800000D03*
D32*
X103320000Y-138800000D03*
%TD*%
D27*
%TO.C,Q2*%
X211520000Y-124800000D03*
D28*
X214060000Y-124800000D03*
X216600000Y-124800000D03*
%TD*%
D33*
%TO.C,SW1*%
X228125000Y-141600000D03*
X228125000Y-135100000D03*
X232625000Y-141600000D03*
X232625000Y-135100000D03*
%TD*%
D23*
%TO.C,J7*%
X251575000Y-141325000D03*
D24*
X254115000Y-141325000D03*
X256655000Y-141325000D03*
X259195000Y-141325000D03*
%TD*%
D34*
%TO.C,R8*%
X237775000Y-123262500D03*
X237775000Y-121437500D03*
%TD*%
D35*
%TO.C,U4*%
X236475000Y-126162500D03*
X236975000Y-126162500D03*
X237475000Y-126162500D03*
X237975000Y-126162500D03*
X238475000Y-126162500D03*
X238975000Y-126162500D03*
X239475000Y-126162500D03*
X239975000Y-126162500D03*
D36*
X240662500Y-126850000D03*
X240662500Y-127350000D03*
X240662500Y-127850000D03*
X240662500Y-128350000D03*
X240662500Y-128850000D03*
X240662500Y-129350000D03*
X240662500Y-129850000D03*
X240662500Y-130350000D03*
D35*
X239975000Y-131037500D03*
X239475000Y-131037500D03*
X238975000Y-131037500D03*
X238475000Y-131037500D03*
X237975000Y-131037500D03*
X237475000Y-131037500D03*
X236975000Y-131037500D03*
X236475000Y-131037500D03*
D36*
X235787500Y-130350000D03*
X235787500Y-129850000D03*
X235787500Y-129350000D03*
X235787500Y-128850000D03*
X235787500Y-128350000D03*
X235787500Y-127850000D03*
X235787500Y-127350000D03*
X235787500Y-126850000D03*
D37*
X238225000Y-128600000D03*
%TD*%
D38*
%TO.C,R14*%
X250575000Y-122700000D03*
X250575000Y-124525000D03*
%TD*%
D39*
%TO.C,C4*%
X263485000Y-124887500D03*
X263485000Y-126612500D03*
%TD*%
D38*
%TO.C,R6*%
X239375000Y-121437500D03*
X239375000Y-123262500D03*
%TD*%
D39*
%TO.C,C12*%
X235975000Y-122625000D03*
X235975000Y-124350000D03*
%TD*%
%TO.C,C3*%
X261375000Y-124887500D03*
X261375000Y-126612500D03*
%TD*%
D38*
%TO.C,R20*%
X254175000Y-122700000D03*
X254175000Y-124525000D03*
%TD*%
D40*
%TO.C,R7*%
X240662500Y-132950000D03*
X242487500Y-132950000D03*
%TD*%
D41*
%TO.C,C7*%
X241375000Y-124212500D03*
X241375000Y-122487500D03*
%TD*%
D39*
%TO.C,C9*%
X234175000Y-129887500D03*
X234175000Y-131612500D03*
%TD*%
D38*
%TO.C,R19*%
X252375000Y-122700000D03*
X252375000Y-124525000D03*
%TD*%
%LPD*%
M02*
