%TF.GenerationSoftware,KiCad,Pcbnew,9.0.3*%
%TF.CreationDate,2025-11-28T17:50:14+01:00*%
%TF.ProjectId,esp32_POE,65737033-325f-4504-9f45-2e6b69636164,rev?*%
%TF.SameCoordinates,Original*%
%TF.FileFunction,Copper,L2,Bot*%
%TF.FilePolarity,Positive*%
%FSLAX46Y46*%
G04 Gerber Fmt 4.6, Leading zero omitted, Abs format (unit mm)*
G04 Created by KiCad (PCBNEW 9.0.3) date 2025-11-28 17:50:14*
%MOMM*%
%LPD*%
G01*
G04 APERTURE LIST*
G04 Aperture macros list*
%AMRoundRect*
0 Rectangle with rounded corners*
0 $1 Rounding radius*
0 $2 $3 $4 $5 $6 $7 $8 $9 X,Y pos of 4 corners*
0 Add a 4 corners polygon primitive as box body*
4,1,4,$2,$3,$4,$5,$6,$7,$8,$9,$2,$3,0*
0 Add four circle primitives for the rounded corners*
1,1,$1+$1,$2,$3*
1,1,$1+$1,$4,$5*
1,1,$1+$1,$6,$7*
1,1,$1+$1,$8,$9*
0 Add four rect primitives between the rounded corners*
20,1,$1+$1,$2,$3,$4,$5,0*
20,1,$1+$1,$4,$5,$6,$7,0*
20,1,$1+$1,$6,$7,$8,$9,0*
20,1,$1+$1,$8,$9,$2,$3,0*%
G04 Aperture macros list end*
%TA.AperFunction,ComponentPad*%
%ADD10C,2.400000*%
%TD*%
%TA.AperFunction,ComponentPad*%
%ADD11C,1.530000*%
%TD*%
%TA.AperFunction,ComponentPad*%
%ADD12C,1.446000*%
%TD*%
%TA.AperFunction,ComponentPad*%
%ADD13R,1.600000X1.600000*%
%TD*%
%TA.AperFunction,ComponentPad*%
%ADD14C,1.600000*%
%TD*%
%TA.AperFunction,ComponentPad*%
%ADD15R,2.500000X2.500000*%
%TD*%
%TA.AperFunction,ComponentPad*%
%ADD16C,2.500000*%
%TD*%
%TA.AperFunction,ComponentPad*%
%ADD17R,2.200000X2.200000*%
%TD*%
%TA.AperFunction,ComponentPad*%
%ADD18O,2.200000X2.200000*%
%TD*%
%TA.AperFunction,ComponentPad*%
%ADD19R,1.700000X1.700000*%
%TD*%
%TA.AperFunction,ComponentPad*%
%ADD20O,1.700000X1.700000*%
%TD*%
%TA.AperFunction,HeatsinkPad*%
%ADD21C,0.600000*%
%TD*%
%TA.AperFunction,ComponentPad*%
%ADD22R,1.350000X1.350000*%
%TD*%
%TA.AperFunction,ComponentPad*%
%ADD23O,1.350000X1.350000*%
%TD*%
%TA.AperFunction,ComponentPad*%
%ADD24R,1.500000X1.500000*%
%TD*%
%TA.AperFunction,ComponentPad*%
%ADD25C,1.500000*%
%TD*%
%TA.AperFunction,ComponentPad*%
%ADD26O,1.000000X2.100000*%
%TD*%
%TA.AperFunction,ComponentPad*%
%ADD27O,1.000000X1.600000*%
%TD*%
%TA.AperFunction,ComponentPad*%
%ADD28O,1.600000X1.600000*%
%TD*%
%TA.AperFunction,ComponentPad*%
%ADD29C,2.000000*%
%TD*%
%TA.AperFunction,SMDPad,CuDef*%
%ADD30RoundRect,0.237500X0.237500X-0.250000X0.237500X0.250000X-0.237500X0.250000X-0.237500X-0.250000X0*%
%TD*%
%TA.AperFunction,SMDPad,CuDef*%
%ADD31RoundRect,0.062500X-0.062500X0.375000X-0.062500X-0.375000X0.062500X-0.375000X0.062500X0.375000X0*%
%TD*%
%TA.AperFunction,SMDPad,CuDef*%
%ADD32RoundRect,0.062500X-0.375000X0.062500X-0.375000X-0.062500X0.375000X-0.062500X0.375000X0.062500X0*%
%TD*%
%TA.AperFunction,HeatsinkPad*%
%ADD33C,0.500000*%
%TD*%
%TA.AperFunction,HeatsinkPad*%
%ADD34R,3.300000X3.300000*%
%TD*%
%TA.AperFunction,SMDPad,CuDef*%
%ADD35RoundRect,0.237500X-0.237500X0.250000X-0.237500X-0.250000X0.237500X-0.250000X0.237500X0.250000X0*%
%TD*%
%TA.AperFunction,SMDPad,CuDef*%
%ADD36RoundRect,0.237500X-0.237500X0.300000X-0.237500X-0.300000X0.237500X-0.300000X0.237500X0.300000X0*%
%TD*%
%TA.AperFunction,SMDPad,CuDef*%
%ADD37RoundRect,0.237500X-0.250000X-0.237500X0.250000X-0.237500X0.250000X0.237500X-0.250000X0.237500X0*%
%TD*%
%TA.AperFunction,SMDPad,CuDef*%
%ADD38RoundRect,0.237500X0.237500X-0.300000X0.237500X0.300000X-0.237500X0.300000X-0.237500X-0.300000X0*%
%TD*%
%TA.AperFunction,ViaPad*%
%ADD39C,0.600000*%
%TD*%
%TA.AperFunction,Conductor*%
%ADD40C,0.200000*%
%TD*%
%TA.AperFunction,Conductor*%
%ADD41C,1.000000*%
%TD*%
%TA.AperFunction,Conductor*%
%ADD42C,0.400000*%
%TD*%
%TA.AperFunction,Conductor*%
%ADD43C,0.300000*%
%TD*%
%TA.AperFunction,Conductor*%
%ADD44C,0.500000*%
%TD*%
G04 APERTURE END LIST*
D10*
%TO.P,J2,SH*%
%TO.N,GND*%
X74750000Y-123610000D03*
X74750000Y-139360000D03*
D11*
%TO.P,J2,14*%
X67130000Y-124760000D03*
%TO.P,J2,13*%
%TO.N,LED2*%
X69160000Y-124760000D03*
%TO.P,J2,12*%
%TO.N,LED1*%
X67130000Y-138210000D03*
%TO.P,J2,11*%
%TO.N,GND*%
X69160000Y-138210000D03*
D12*
%TO.P,J2,10,V-*%
%TO.N,V-*%
X78050000Y-137200000D03*
%TO.P,J2,9,V+*%
%TO.N,V+*%
X80590000Y-135930000D03*
%TO.P,J2,6,TD-*%
%TO.N,TD-*%
X78050000Y-132120000D03*
%TO.P,J2,5,TCT*%
%TO.N,+3.3V*%
X80590000Y-130850000D03*
%TO.P,J2,4,TD+*%
%TO.N,TD+*%
X78050000Y-129580000D03*
%TO.P,J2,3,RCT*%
%TO.N,+3.3V*%
X80590000Y-128310000D03*
%TO.P,J2,2,RD-*%
%TO.N,RD-*%
X78050000Y-127040000D03*
%TO.P,J2,1,RD+*%
%TO.N,RD+*%
X80590000Y-125770000D03*
%TD*%
D13*
%TO.P,C11,1*%
%TO.N,V+*%
X116200000Y-129594887D03*
D14*
%TO.P,C11,2*%
%TO.N,GND*%
X116200000Y-132094887D03*
%TD*%
D15*
%TO.P,J4,1,Pin_1*%
%TO.N,V+*%
X174400000Y-138000000D03*
D16*
%TO.P,J4,2,Pin_2*%
%TO.N,Net-(J4-Pin_2)*%
X179400000Y-138000000D03*
%TO.P,J4,3,Pin_3*%
%TO.N,GND*%
X184400000Y-138000000D03*
%TD*%
D17*
%TO.P,D4,1,K*%
%TO.N,V+*%
X95920000Y-127400000D03*
D18*
%TO.P,D4,2,A*%
%TO.N,Net-(D4-A)*%
X106080000Y-127400000D03*
%TD*%
D19*
%TO.P,J9,1,Pin_1*%
%TO.N,Net-(J9-Pin_1)*%
X206200000Y-141800000D03*
D20*
%TO.P,J9,2,Pin_2*%
%TO.N,Net-(J9-Pin_2)*%
X206200000Y-139260000D03*
%TO.P,J9,3,Pin_3*%
%TO.N,Net-(J9-Pin_3)*%
X206200000Y-136720000D03*
%TO.P,J9,4,Pin_4*%
%TO.N,Net-(J9-Pin_4)*%
X206200000Y-134180000D03*
%TD*%
D21*
%TO.P,U1,39,GND*%
%TO.N,GND*%
X257360000Y-126250000D03*
X255960000Y-126250000D03*
X258060000Y-126950000D03*
X256660000Y-126950000D03*
X255260000Y-126950000D03*
X257360000Y-127625000D03*
X255960000Y-127625000D03*
X258060000Y-128350000D03*
X256660000Y-128350000D03*
X255260000Y-128350000D03*
X257360000Y-129050000D03*
X255960000Y-129050000D03*
%TD*%
D22*
%TO.P,J10,1,Pin_1*%
%TO.N,RX*%
X227200000Y-124400000D03*
D23*
%TO.P,J10,2,Pin_2*%
%TO.N,TX*%
X227200000Y-126400000D03*
%TD*%
D15*
%TO.P,J3,1,Pin_1*%
%TO.N,V+*%
X191400000Y-138000000D03*
D16*
%TO.P,J3,2,Pin_2*%
%TO.N,Net-(J3-Pin_2)*%
X196400000Y-138000000D03*
%TO.P,J3,3,Pin_3*%
%TO.N,GND*%
X201400000Y-138000000D03*
%TD*%
D24*
%TO.P,Q1,1,C*%
%TO.N,EN*%
X211520000Y-130000000D03*
D25*
%TO.P,Q1,2,B*%
%TO.N,Net-(Q1-B)*%
X214060000Y-130000000D03*
%TO.P,Q1,3,E*%
%TO.N,Net-(Q1-E)*%
X216600000Y-130000000D03*
%TD*%
D15*
%TO.P,J6,1,Pin_1*%
%TO.N,V+*%
X167300000Y-124900000D03*
D16*
%TO.P,J6,2,Pin_2*%
%TO.N,Net-(J6-Pin_2)*%
X162300000Y-124900000D03*
%TO.P,J6,3,Pin_3*%
%TO.N,GND*%
X157300000Y-124900000D03*
%TD*%
D15*
%TO.P,J5,1,Pin_1*%
%TO.N,V+*%
X157400000Y-138200000D03*
D16*
%TO.P,J5,2,Pin_2*%
%TO.N,Net-(J5-Pin_2)*%
X162400000Y-138200000D03*
%TO.P,J5,3,Pin_3*%
%TO.N,GND*%
X167400000Y-138200000D03*
%TD*%
D15*
%TO.P,J8,1,Pin_1*%
%TO.N,GND*%
X150500000Y-125600000D03*
D16*
%TO.P,J8,2,Pin_2*%
%TO.N,+5V*%
X145500000Y-125600000D03*
%TD*%
D26*
%TO.P,J1,S1,SHIELD*%
%TO.N,GND*%
X206600000Y-125980000D03*
D27*
X206600000Y-121800000D03*
D26*
X197960000Y-125980000D03*
D27*
X197960000Y-121800000D03*
%TD*%
D14*
%TO.P,R37,1*%
%TO.N,V-*%
X113480000Y-138800000D03*
D28*
%TO.P,R37,2*%
%TO.N,Net-(IC1-AMPS_CTL)*%
X103320000Y-138800000D03*
%TD*%
D24*
%TO.P,Q2,1,C*%
%TO.N,Net-(Q2-C)*%
X211520000Y-124800000D03*
D25*
%TO.P,Q2,2,B*%
%TO.N,Net-(Q2-B)*%
X214060000Y-124800000D03*
%TO.P,Q2,3,E*%
%TO.N,IO0*%
X216600000Y-124800000D03*
%TD*%
D29*
%TO.P,SW1,1,1*%
%TO.N,GND*%
X228125000Y-141600000D03*
X228125000Y-135100000D03*
%TO.P,SW1,2,2*%
%TO.N,EN*%
X232625000Y-141600000D03*
X232625000Y-135100000D03*
%TD*%
D19*
%TO.P,J7,1,Pin_1*%
%TO.N,+5V*%
X251575000Y-141325000D03*
D20*
%TO.P,J7,2,Pin_2*%
%TO.N,GPIOOUT3*%
X254115000Y-141325000D03*
%TO.P,J7,3,Pin_3*%
%TO.N,GPIOOUT4*%
X256655000Y-141325000D03*
%TO.P,J7,4,Pin_4*%
%TO.N,GND*%
X259195000Y-141325000D03*
%TD*%
D30*
%TO.P,R8,1*%
%TO.N,Net-(U4-LED2{slash}~{INTSEL})*%
X237775000Y-123262500D03*
%TO.P,R8,2*%
%TO.N,LED2*%
X237775000Y-121437500D03*
%TD*%
D31*
%TO.P,U4,1,VDD2A*%
%TO.N,+3.3V*%
X236475000Y-126162500D03*
%TO.P,U4,2,LED2/~{INTSEL}*%
%TO.N,Net-(U4-LED2{slash}~{INTSEL})*%
X236975000Y-126162500D03*
%TO.P,U4,3,LED1/~{REGOFF}*%
%TO.N,Net-(U4-LED1{slash}~{REGOFF})*%
X237475000Y-126162500D03*
%TO.P,U4,4,XTAL2*%
%TO.N,unconnected-(U4-XTAL2-Pad4)*%
X237975000Y-126162500D03*
%TO.P,U4,5,XTAL1/CLKIN*%
%TO.N,CLK*%
X238475000Y-126162500D03*
%TO.P,U4,6,VDDCR*%
%TO.N,Net-(U4-VDDCR)*%
X238975000Y-126162500D03*
%TO.P,U4,7,RXCLK/~{PHYAD1}*%
%TO.N,Net-(U4-RXCLK{slash}~{PHYAD1})*%
X239475000Y-126162500D03*
%TO.P,U4,8,RXD3/~{PHYAD2}*%
%TO.N,Net-(U4-RXD3{slash}~{PHYAD2})*%
X239975000Y-126162500D03*
D32*
%TO.P,U4,9,RXD2/~{RMIISEL}*%
%TO.N,Net-(U4-RXD2{slash}~{RMIISEL})*%
X240662500Y-126850000D03*
%TO.P,U4,10,RXD1/~{MODE1}*%
%TO.N,IO26*%
X240662500Y-127350000D03*
%TO.P,U4,11,RXD0/~{MODE0}*%
%TO.N,IO25*%
X240662500Y-127850000D03*
%TO.P,U4,12,VDDIO*%
%TO.N,+3.3V*%
X240662500Y-128350000D03*
%TO.P,U4,13,RXER/RXD4/~{PHYAD0}*%
%TO.N,Net-(U4-RXER{slash}RXD4{slash}~{PHYAD0})*%
X240662500Y-128850000D03*
%TO.P,U4,14,CRS*%
%TO.N,IO27*%
X240662500Y-129350000D03*
%TO.P,U4,15,COL/CRS_DV/~{MODE2}*%
%TO.N,Net-(U4-COL{slash}CRS_DV{slash}~{MODE2})*%
X240662500Y-129850000D03*
%TO.P,U4,16,MDIO*%
%TO.N,IO18*%
X240662500Y-130350000D03*
D31*
%TO.P,U4,17,MDC*%
%TO.N,IO23*%
X239975000Y-131037500D03*
%TO.P,U4,18,~{INT}/TXER/TXD4*%
%TO.N,unconnected-(U4-~{INT}{slash}TXER{slash}TXD4-Pad18)*%
X239475000Y-131037500D03*
%TO.P,U4,19,~{RST}*%
%TO.N,Net-(U4-~{RST})*%
X238975000Y-131037500D03*
%TO.P,U4,20,TXCLK*%
%TO.N,unconnected-(U4-TXCLK-Pad20)*%
X238475000Y-131037500D03*
%TO.P,U4,21,TXEN*%
%TO.N,IO21*%
X237975000Y-131037500D03*
%TO.P,U4,22,TXD0*%
%TO.N,IO19*%
X237475000Y-131037500D03*
%TO.P,U4,23,TXD1*%
%TO.N,IO22*%
X236975000Y-131037500D03*
%TO.P,U4,24,TXD2*%
%TO.N,GND*%
X236475000Y-131037500D03*
D32*
%TO.P,U4,25,TXD3*%
X235787500Y-130350000D03*
%TO.P,U4,26,RXDV*%
%TO.N,unconnected-(U4-RXDV-Pad26)*%
X235787500Y-129850000D03*
%TO.P,U4,27,VDD1A*%
%TO.N,+3.3V*%
X235787500Y-129350000D03*
%TO.P,U4,28,TXN*%
%TO.N,TD-*%
X235787500Y-128850000D03*
%TO.P,U4,29,TXP*%
%TO.N,TD+*%
X235787500Y-128350000D03*
%TO.P,U4,30,RXN*%
%TO.N,RD-*%
X235787500Y-127850000D03*
%TO.P,U4,31,RXP*%
%TO.N,RD+*%
X235787500Y-127350000D03*
%TO.P,U4,32,RBIAS*%
%TO.N,Net-(U4-RBIAS)*%
X235787500Y-126850000D03*
D33*
%TO.P,U4,33,VSS*%
%TO.N,GND*%
X239225000Y-127600000D03*
X238225000Y-127600000D03*
X237225000Y-127600000D03*
X239225000Y-128600000D03*
X238225000Y-128600000D03*
D34*
X238225000Y-128600000D03*
D33*
X237225000Y-128600000D03*
X239225000Y-129600000D03*
X238225000Y-129600000D03*
X237225000Y-129600000D03*
%TD*%
D35*
%TO.P,R14,1*%
%TO.N,IO27*%
X250575000Y-122700000D03*
%TO.P,R14,2*%
%TO.N,+3.3V*%
X250575000Y-124525000D03*
%TD*%
D36*
%TO.P,C4,1*%
%TO.N,+3.3V*%
X263485000Y-124887500D03*
%TO.P,C4,2*%
%TO.N,GND*%
X263485000Y-126612500D03*
%TD*%
D35*
%TO.P,R6,1*%
%TO.N,LED1*%
X239375000Y-121437500D03*
%TO.P,R6,2*%
%TO.N,Net-(U4-LED1{slash}~{REGOFF})*%
X239375000Y-123262500D03*
%TD*%
D36*
%TO.P,C12,1*%
%TO.N,GND*%
X235975000Y-122625000D03*
%TO.P,C12,2*%
%TO.N,+3.3V*%
X235975000Y-124350000D03*
%TD*%
%TO.P,C3,1*%
%TO.N,+3.3V*%
X261375000Y-124887500D03*
%TO.P,C3,2*%
%TO.N,GND*%
X261375000Y-126612500D03*
%TD*%
D35*
%TO.P,R20,1*%
%TO.N,IO25*%
X254175000Y-122700000D03*
%TO.P,R20,2*%
%TO.N,+3.3V*%
X254175000Y-124525000D03*
%TD*%
D37*
%TO.P,R7,1*%
%TO.N,Net-(U4-~{RST})*%
X240662500Y-132950000D03*
%TO.P,R7,2*%
%TO.N,+3.3V*%
X242487500Y-132950000D03*
%TD*%
D38*
%TO.P,C7,1*%
%TO.N,Net-(U4-VDDCR)*%
X241375000Y-124212500D03*
%TO.P,C7,2*%
%TO.N,GND*%
X241375000Y-122487500D03*
%TD*%
D36*
%TO.P,C9,1*%
%TO.N,+3.3V*%
X234175000Y-129887500D03*
%TO.P,C9,2*%
%TO.N,GND*%
X234175000Y-131612500D03*
%TD*%
D35*
%TO.P,R19,1*%
%TO.N,IO26*%
X252375000Y-122700000D03*
%TO.P,R19,2*%
%TO.N,+3.3V*%
X252375000Y-124525000D03*
%TD*%
D39*
%TO.N,GND*%
X234175000Y-121550000D03*
X212200000Y-132000000D03*
X264700000Y-122100000D03*
X144600000Y-138600000D03*
X143800000Y-138500000D03*
X90100000Y-124900000D03*
X182000000Y-126800000D03*
X257400000Y-123800000D03*
X143100000Y-138500000D03*
X255900000Y-123800000D03*
X186000000Y-124000000D03*
X229500000Y-128900000D03*
X231450858Y-129363358D03*
X182000000Y-129400000D03*
X247642627Y-122442627D03*
X241605000Y-121037500D03*
X208400000Y-133800000D03*
%TO.N,+5V*%
X235775000Y-141750000D03*
X211000000Y-140200000D03*
%TO.N,EN*%
X238175000Y-141950000D03*
%TO.N,+3.3V*%
X242834111Y-127327332D03*
X245500000Y-121550000D03*
X243375000Y-133950000D03*
X230375000Y-135150000D03*
X236582944Y-123564462D03*
X232975000Y-129950000D03*
X230300000Y-139700000D03*
X213000000Y-139200000D03*
X263175000Y-121550000D03*
X195625000Y-128775000D03*
%TO.N,D+*%
X201600000Y-128400000D03*
X222000000Y-127600000D03*
%TO.N,D-*%
X222000000Y-126400000D03*
X203000000Y-128400000D03*
%TO.N,TD-*%
X176900000Y-122600000D03*
%TO.N,TD+*%
X174900000Y-121800000D03*
%TO.N,RD+*%
X180000000Y-120600000D03*
%TO.N,RD-*%
X182300000Y-121400000D03*
%TO.N,Net-(Q1-E)*%
X211024265Y-127024265D03*
X210175735Y-126175735D03*
%TO.N,IO0*%
X238700000Y-139100000D03*
%TO.N,Net-(U4-RBIAS)*%
X234775000Y-125550000D03*
%TO.N,Net-(U4-COL{slash}CRS_DV{slash}~{MODE2})*%
X243775000Y-128950000D03*
%TO.N,IO27*%
X250300000Y-121700000D03*
X247900000Y-128300000D03*
%TO.N,Net-(U4-RXCLK{slash}~{PHYAD1})*%
X240199265Y-125174265D03*
%TO.N,Net-(U4-RXER{slash}RXD4{slash}~{PHYAD0})*%
X244237500Y-127400000D03*
%TO.N,Net-(U4-RXD3{slash}~{PHYAD2})*%
X241189356Y-125250000D03*
%TO.N,Net-(U4-RXD2{slash}~{RMIISEL})*%
X242175000Y-125350000D03*
%TO.N,IO26*%
X249050000Y-125849997D03*
X251700000Y-121600000D03*
%TO.N,IO25*%
X252900000Y-121600000D03*
X249050000Y-126650000D03*
%TO.N,Net-(IC1-CLSA)*%
X89900000Y-136900000D03*
X97200000Y-133000000D03*
%TO.N,IO22*%
X261575000Y-139400000D03*
%TO.N,RX*%
X259284456Y-139542228D03*
X226400000Y-130299997D03*
%TO.N,IO19*%
X254837500Y-136462500D03*
%TO.N,TX*%
X226400000Y-131100000D03*
X260000000Y-139900000D03*
%TO.N,CLK*%
X252500000Y-133250000D03*
%TO.N,IO21*%
X257637500Y-135862500D03*
%TO.N,IO18*%
X253175000Y-133900000D03*
%TO.N,IO23*%
X261375000Y-134550000D03*
%TD*%
D40*
%TO.N,TD+*%
X78050000Y-129580000D02*
X78230000Y-129400000D01*
%TO.N,GND*%
X240417500Y-122225000D02*
X236375000Y-122225000D01*
D41*
X228125000Y-141600000D02*
X228125000Y-135100000D01*
D40*
X233700000Y-131612500D02*
X231175000Y-129087500D01*
D42*
X212200000Y-132000000D02*
X213700000Y-133500000D01*
D40*
X231175000Y-129087500D02*
X231175000Y-128150000D01*
D42*
X213289950Y-139900000D02*
X212700000Y-139900000D01*
D40*
X236475000Y-131037500D02*
X235900000Y-131612500D01*
X236375000Y-122225000D02*
X235975000Y-122625000D01*
D42*
X206600000Y-121800000D02*
X197960000Y-121800000D01*
X213700000Y-139489950D02*
X213289950Y-139900000D01*
D40*
X235900000Y-131612500D02*
X234175000Y-131612500D01*
X235787500Y-130350000D02*
X236475000Y-130350000D01*
X236475000Y-130350000D02*
X237225000Y-129600000D01*
X234175000Y-131612500D02*
X233700000Y-131612500D01*
X236475000Y-131037500D02*
X236475000Y-130350000D01*
D42*
X208400000Y-135600000D02*
X208400000Y-133800000D01*
X213700000Y-133500000D02*
X213700000Y-139489950D01*
X212700000Y-139900000D02*
X208400000Y-135600000D01*
D40*
X241605000Y-121037500D02*
X240417500Y-122225000D01*
%TO.N,+5V*%
X235775000Y-141750000D02*
X234375000Y-143150000D01*
X214000000Y-143200000D02*
X211000000Y-140200000D01*
X234375000Y-143150000D02*
X214050000Y-143150000D01*
X214050000Y-143150000D02*
X214000000Y-143200000D01*
%TO.N,EN*%
X215320000Y-133800000D02*
X231325000Y-133800000D01*
X211520000Y-130000000D02*
X215320000Y-133800000D01*
X238175000Y-140650000D02*
X238175000Y-141950000D01*
X232625000Y-135100000D02*
X238175000Y-140650000D01*
X231325000Y-133800000D02*
X232625000Y-135100000D01*
D43*
%TO.N,+3.3V*%
X245500000Y-121550000D02*
X247669239Y-121550000D01*
X242834111Y-127327332D02*
X241811443Y-128350000D01*
D44*
X195625000Y-128775000D02*
X196400000Y-129550000D01*
D40*
X234912500Y-129350000D02*
X235787500Y-129350000D01*
D43*
X241811443Y-128350000D02*
X240662500Y-128350000D01*
D40*
X230375000Y-139625000D02*
X230375000Y-135150000D01*
D43*
X250575000Y-124455761D02*
X250575000Y-124525000D01*
X263485000Y-124887500D02*
X261375000Y-124887500D01*
X250575000Y-124525000D02*
X252375000Y-124525000D01*
D40*
X235975000Y-124350000D02*
X235975000Y-125662500D01*
D43*
X254175000Y-124525000D02*
X254725000Y-124525000D01*
D40*
X234375000Y-129887500D02*
X234912500Y-129350000D01*
X232975000Y-129950000D02*
X233037500Y-129887500D01*
D43*
X263175000Y-121550000D02*
X263485000Y-121860000D01*
D40*
X242487500Y-133062500D02*
X243375000Y-133950000D01*
D43*
X263485000Y-121860000D02*
X263485000Y-124887500D01*
X247669239Y-121550000D02*
X250575000Y-124455761D01*
X255087500Y-124887500D02*
X261375000Y-124887500D01*
X254725000Y-124525000D02*
X255087500Y-124887500D01*
D40*
X230300000Y-139700000D02*
X230375000Y-139625000D01*
X235975000Y-125662500D02*
X236475000Y-126162500D01*
D44*
X213000000Y-136800000D02*
X213000000Y-139200000D01*
D40*
X235975000Y-124350000D02*
X235975000Y-124172406D01*
X242487500Y-132950000D02*
X242487500Y-133062500D01*
D43*
X252375000Y-124525000D02*
X254175000Y-124525000D01*
D44*
X196400000Y-129550000D02*
X205750000Y-129550000D01*
D40*
X235975000Y-124172406D02*
X236582944Y-123564462D01*
X233037500Y-129887500D02*
X234375000Y-129887500D01*
D44*
X205750000Y-129550000D02*
X213000000Y-136800000D01*
D40*
%TO.N,Net-(U4-VDDCR)*%
X240312500Y-124212500D02*
X241375000Y-124212500D01*
X238975000Y-125550000D02*
X240312500Y-124212500D01*
X238975000Y-126162500D02*
X238975000Y-125550000D01*
%TO.N,D+*%
X202200000Y-129000000D02*
X203248529Y-129000000D01*
X219565686Y-128800000D02*
X220765686Y-127600000D01*
X220765686Y-127600000D02*
X222000000Y-127600000D01*
X203248529Y-129000000D02*
X203448529Y-128800000D01*
X203448529Y-128800000D02*
X219565686Y-128800000D01*
X201600000Y-128400000D02*
X202200000Y-129000000D01*
%TO.N,D-*%
X205123873Y-128160000D02*
X205123873Y-127870812D01*
X205963873Y-128400000D02*
X206083873Y-128400000D01*
X205723873Y-127870812D02*
X205723873Y-128160000D01*
X203000000Y-128400000D02*
X203683873Y-128400000D01*
X204763873Y-128400000D02*
X204883873Y-128400000D01*
X207556082Y-128400000D02*
X219400000Y-128400000D01*
X204523873Y-127870812D02*
X204523873Y-128160000D01*
X203923873Y-128160000D02*
X203923873Y-127870812D01*
X219400000Y-128400000D02*
X221400000Y-126400000D01*
X205363873Y-127630812D02*
X205483873Y-127630812D01*
X206083873Y-128400000D02*
X207556082Y-128400000D01*
X221400000Y-126400000D02*
X222000000Y-126400000D01*
X204163873Y-127630812D02*
X204283873Y-127630812D01*
X203923873Y-127870812D02*
G75*
G02*
X204163873Y-127630773I240027J12D01*
G01*
X203683873Y-128400000D02*
G75*
G03*
X203923900Y-128160000I27J240000D01*
G01*
X204523873Y-128160000D02*
G75*
G03*
X204763873Y-128400027I240027J0D01*
G01*
X205123873Y-127870812D02*
G75*
G02*
X205363873Y-127630773I240027J12D01*
G01*
X204883873Y-128400000D02*
G75*
G03*
X205123900Y-128160000I27J240000D01*
G01*
X205483873Y-127630812D02*
G75*
G02*
X205723888Y-127870812I27J-239988D01*
G01*
X204283873Y-127630812D02*
G75*
G02*
X204523888Y-127870812I27J-239988D01*
G01*
X205723873Y-128160000D02*
G75*
G03*
X205963873Y-128400027I240027J0D01*
G01*
%TO.N,TD-*%
X88512427Y-122400000D02*
X81112427Y-129800000D01*
X176700000Y-122400000D02*
X88512427Y-122400000D01*
X193600000Y-122400000D02*
X195800000Y-124600000D01*
X227575000Y-122350000D02*
X234075000Y-128850000D01*
X81112427Y-129800000D02*
X80193259Y-129800000D01*
X195800000Y-124600000D02*
X207800000Y-124600000D01*
X78050000Y-131943259D02*
X78050000Y-132120000D01*
X176900000Y-122600000D02*
X176700000Y-122400000D01*
X177100000Y-122400000D02*
X193600000Y-122400000D01*
X176900000Y-122600000D02*
X177100000Y-122400000D01*
X207800000Y-124600000D02*
X210050000Y-122350000D01*
X234075000Y-128850000D02*
X235787500Y-128850000D01*
X210050000Y-122350000D02*
X227575000Y-122350000D01*
%TO.N,TD+*%
X84392089Y-125954655D02*
X84476940Y-125869802D01*
X87563547Y-122783194D02*
X88346741Y-122000000D01*
X87482149Y-122864592D02*
X87563547Y-122783194D01*
X193765686Y-122000000D02*
X195965686Y-124200000D01*
X207634314Y-124200000D02*
X209884314Y-121950000D01*
X83715913Y-125617891D02*
X84052677Y-125954655D01*
X174900000Y-121800000D02*
X175100000Y-122000000D01*
X174700000Y-122000000D02*
X174900000Y-121800000D01*
X84140181Y-124854220D02*
X84225036Y-124769366D01*
X209884314Y-121950000D02*
X227740686Y-121950000D01*
X85325470Y-125021272D02*
X87482149Y-122864592D01*
X88346741Y-122000000D02*
X174700000Y-122000000D01*
X84476940Y-125869802D02*
X84476940Y-125869801D01*
X175100000Y-122000000D02*
X193765686Y-122000000D01*
X85240618Y-125106126D02*
X85325470Y-125021272D01*
X83628411Y-126378919D02*
X83291648Y-126042156D01*
X195965686Y-124200000D02*
X207634314Y-124200000D01*
X83291648Y-125702744D02*
X83376501Y-125617892D01*
X84476941Y-125530389D02*
X84140182Y-125193630D01*
X84564446Y-124769367D02*
X84901206Y-125106127D01*
X234140686Y-128350000D02*
X235787500Y-128350000D01*
X227740686Y-121950000D02*
X234140686Y-128350000D01*
X83628410Y-126718331D02*
G75*
G03*
X83628436Y-126378895I-169710J169731D01*
G01*
X83376501Y-125617892D02*
G75*
G02*
X83715905Y-125617898I169699J-169708D01*
G01*
X83291648Y-126042156D02*
G75*
G02*
X83291698Y-125702794I169652J169656D01*
G01*
X84140182Y-125193630D02*
G75*
G02*
X84140156Y-124854196I169718J169730D01*
G01*
X84052677Y-125954655D02*
G75*
G03*
X84392089Y-125954655I169706J169701D01*
G01*
X84476940Y-125869801D02*
G75*
G03*
X84476935Y-125530394I-169740J169701D01*
G01*
X84225036Y-124769366D02*
G75*
G02*
X84564406Y-124769407I169664J-169734D01*
G01*
X84901206Y-125106127D02*
G75*
G03*
X85240607Y-125106115I169694J169727D01*
G01*
%TO.N,RD+*%
X180200000Y-120800000D02*
X180000000Y-120600000D01*
X207268628Y-123000000D02*
X196365686Y-123000000D01*
X235472058Y-127350000D02*
X234806372Y-127350000D01*
X194165686Y-120800000D02*
X180200000Y-120800000D01*
X209468628Y-120800000D02*
X207268628Y-123000000D01*
X196365686Y-123000000D02*
X194165686Y-120800000D01*
X228256372Y-120800000D02*
X209468628Y-120800000D01*
X234806372Y-127350000D02*
X228256372Y-120800000D01*
%TO.N,LED2*%
X237775000Y-120575000D02*
X237200000Y-120000000D01*
X70949548Y-120000000D02*
X69160000Y-121789548D01*
X237200000Y-120000000D02*
X70949548Y-120000000D01*
X237775000Y-121437500D02*
X237775000Y-120575000D01*
%TO.N,LED1*%
X239375000Y-121437500D02*
X239375000Y-120475000D01*
X239375000Y-120475000D02*
X238500000Y-119600000D01*
X66065000Y-137145000D02*
X67130000Y-138210000D01*
X238500000Y-119600000D02*
X70783862Y-119600000D01*
%TO.N,RD-*%
X196200000Y-123400000D02*
X207434314Y-123400000D01*
X182500000Y-121200000D02*
X194000000Y-121200000D01*
X182300000Y-121400000D02*
X182500000Y-121200000D01*
X194000000Y-121200000D02*
X196200000Y-123400000D01*
X207434314Y-123400000D02*
X209634314Y-121200000D01*
X209634314Y-121200000D02*
X228090686Y-121200000D01*
X228090686Y-121200000D02*
X234740686Y-127850000D01*
X234740686Y-127850000D02*
X235406372Y-127850000D01*
%TO.N,Net-(Q1-E)*%
X210175735Y-126175735D02*
X211024265Y-127024265D01*
%TO.N,IO0*%
X227365686Y-131600000D02*
X225965686Y-133000000D01*
X221248529Y-124800000D02*
X216600000Y-124800000D01*
X225300000Y-133000000D02*
X222600000Y-130300000D01*
X222600000Y-130300000D02*
X222600000Y-126151471D01*
X222600000Y-126151471D02*
X221248529Y-124800000D01*
X238700000Y-139100000D02*
X231200000Y-131600000D01*
X231200000Y-131600000D02*
X227365686Y-131600000D01*
X225965686Y-133000000D02*
X225300000Y-133000000D01*
%TO.N,Net-(U4-RBIAS)*%
X234775000Y-125550000D02*
X234775000Y-125837500D01*
X234775000Y-125837500D02*
X235787500Y-126850000D01*
%TO.N,Net-(U4-LED1{slash}~{REGOFF})*%
X237475000Y-125162500D02*
X237475000Y-126162500D01*
X239375000Y-123262500D02*
X237475000Y-125162500D01*
%TO.N,Net-(U4-~{RST})*%
X238975000Y-131037500D02*
X238975000Y-131750000D01*
X240175000Y-132950000D02*
X240662500Y-132950000D01*
X238975000Y-131750000D02*
X240175000Y-132950000D01*
%TO.N,Net-(U4-LED2{slash}~{INTSEL})*%
X236975000Y-124062500D02*
X236975000Y-126162500D01*
X237775000Y-123262500D02*
X236975000Y-124062500D01*
%TO.N,Net-(U4-COL{slash}CRS_DV{slash}~{MODE2})*%
X240662500Y-129850000D02*
X242875000Y-129850000D01*
X242875000Y-129850000D02*
X243775000Y-128950000D01*
%TO.N,IO27*%
X250575000Y-121975000D02*
X250575000Y-122700000D01*
D43*
X243425000Y-128300000D02*
X242375000Y-129350000D01*
X247900000Y-128300000D02*
X243425000Y-128300000D01*
X242375000Y-129350000D02*
X240662500Y-129350000D01*
D40*
X250300000Y-121700000D02*
X250575000Y-121975000D01*
%TO.N,Net-(U4-RXCLK{slash}~{PHYAD1})*%
X239475000Y-125710614D02*
X240011349Y-125174265D01*
X239475000Y-126162500D02*
X239475000Y-125710614D01*
X240011349Y-125174265D02*
X240199265Y-125174265D01*
%TO.N,Net-(U4-RXER{slash}RXD4{slash}~{PHYAD0})*%
X242159972Y-128850000D02*
X240662500Y-128850000D01*
X243609972Y-127400000D02*
X242159972Y-128850000D01*
X244237500Y-127400000D02*
X243609972Y-127400000D01*
%TO.N,Net-(U4-RXD3{slash}~{PHYAD2})*%
X241189356Y-125250000D02*
X240276856Y-126162500D01*
X240276856Y-126162500D02*
X239975000Y-126162500D01*
%TO.N,Net-(U4-RXD2{slash}~{RMIISEL})*%
X242162500Y-125350000D02*
X242175000Y-125350000D01*
X240662500Y-126850000D02*
X242162500Y-125350000D01*
D43*
%TO.N,IO26*%
X249050000Y-125849997D02*
X248899997Y-126000000D01*
X242449999Y-126000000D02*
X241099999Y-127350000D01*
D40*
X252375000Y-122275000D02*
X251700000Y-121600000D01*
X252375000Y-122700000D02*
X252375000Y-122275000D01*
D43*
X248899997Y-126000000D02*
X242449999Y-126000000D01*
X241099999Y-127350000D02*
X240662500Y-127350000D01*
D40*
%TO.N,IO25*%
X253075000Y-121600000D02*
X254175000Y-122700000D01*
X252900000Y-121600000D02*
X253075000Y-121600000D01*
D43*
X241392204Y-127850000D02*
X240662500Y-127850000D01*
X242642204Y-126600000D02*
X241392204Y-127850000D01*
X249050000Y-126650000D02*
X249000000Y-126600000D01*
X249000000Y-126600000D02*
X242642204Y-126600000D01*
D42*
%TO.N,Net-(IC1-CLSA)*%
X89900000Y-136900000D02*
X93300000Y-136900000D01*
X93300000Y-136900000D02*
X97200000Y-133000000D01*
D40*
%TO.N,IO22*%
X243525000Y-138900000D02*
X243375000Y-138750000D01*
X261575000Y-139400000D02*
X261075000Y-138900000D01*
D43*
X243375000Y-138750000D02*
X236975000Y-132350000D01*
D40*
X261075000Y-138900000D02*
X243525000Y-138900000D01*
D43*
X236975000Y-132350000D02*
X236975000Y-131037500D01*
D40*
%TO.N,RX*%
X231600000Y-130500000D02*
X226600003Y-130500000D01*
X240875000Y-139775000D02*
X231600000Y-130500000D01*
X228300000Y-125500000D02*
X227200000Y-124400000D01*
X226600003Y-130500000D02*
X226400000Y-130299997D01*
X226400000Y-129100000D02*
X228300000Y-127200000D01*
X226400000Y-130299997D02*
X226400000Y-129100000D01*
X228300000Y-127200000D02*
X228300000Y-125500000D01*
X259284456Y-139542228D02*
X259051684Y-139775000D01*
X259051684Y-139775000D02*
X240875000Y-139775000D01*
D43*
%TO.N,IO19*%
X241332106Y-136000000D02*
X237475000Y-132142894D01*
X254837500Y-136462500D02*
X254375000Y-136000000D01*
X254375000Y-136000000D02*
X241332106Y-136000000D01*
X237475000Y-132142894D02*
X237475000Y-131037500D01*
D40*
%TO.N,TX*%
X231634314Y-131100000D02*
X226400000Y-131100000D01*
X225800000Y-127800000D02*
X227200000Y-126400000D01*
X226300000Y-131100000D02*
X225800000Y-130600000D01*
X259725000Y-140175000D02*
X240709314Y-140175000D01*
X260000000Y-139900000D02*
X259725000Y-140175000D01*
X240709314Y-140175000D02*
X231634314Y-131100000D01*
X226400000Y-131100000D02*
X226300000Y-131100000D01*
X225800000Y-130600000D02*
X225800000Y-127800000D01*
%TO.N,CLK*%
X240575000Y-123350000D02*
X238475000Y-125450000D01*
X247398532Y-123350000D02*
X240575000Y-123350000D01*
X252575000Y-133175000D02*
X252575000Y-128526468D01*
X252575000Y-128526468D02*
X247398532Y-123350000D01*
X252500000Y-133250000D02*
X252575000Y-133175000D01*
X238475000Y-125450000D02*
X238475000Y-126162500D01*
D43*
%TO.N,IO21*%
X241539212Y-135500000D02*
X237975000Y-131935788D01*
X237975000Y-131935788D02*
X237975000Y-131037500D01*
X257275000Y-135500000D02*
X241539212Y-135500000D01*
X257637500Y-135862500D02*
X257275000Y-135500000D01*
%TO.N,IO18*%
X242850000Y-130350000D02*
X240662500Y-130350000D01*
X242850000Y-130350000D02*
X246400000Y-133900000D01*
X246400000Y-133900000D02*
X253175000Y-133900000D01*
%TO.N,IO23*%
X246250000Y-134550000D02*
X261375000Y-134550000D01*
X242737500Y-131037500D02*
X246250000Y-134550000D01*
X239975000Y-131037500D02*
X242737500Y-131037500D01*
D40*
%TO.N,RD-*%
X182300000Y-121400000D02*
X182100000Y-121200000D01*
X86606741Y-121200000D02*
X80766741Y-127040000D01*
X182100000Y-121200000D02*
X86606741Y-121200000D01*
%TO.N,RD+*%
X84060508Y-121969794D02*
G75*
G02*
X84399905Y-121969807I169692J-169706D01*
G01*
X82968825Y-123932822D02*
G75*
G03*
X83308207Y-123932791I169675J169722D01*
G01*
X84824223Y-121545567D02*
G75*
G02*
X84824260Y-121206196I169677J169667D01*
G01*
X83975654Y-122394058D02*
G75*
G02*
X83975700Y-122054695I169746J169658D01*
G01*
X85090149Y-122150906D02*
G75*
G03*
X85090149Y-121811494I-169749J169706D01*
G01*
X85514415Y-121387232D02*
G75*
G03*
X85853807Y-121387211I169685J169732D01*
G01*
X84241619Y-122999436D02*
G75*
G03*
X84241650Y-122659995I-169719J169736D01*
G01*
X83212034Y-122818380D02*
G75*
G02*
X83551405Y-122818419I169666J-169720D01*
G01*
X83127180Y-123242644D02*
G75*
G02*
X83127140Y-122903196I169720J169744D01*
G01*
X83817355Y-123084292D02*
G75*
G03*
X84156806Y-123084331I169745J169692D01*
G01*
X82544559Y-124696496D02*
G75*
G03*
X82544550Y-124357095I-169659J169696D01*
G01*
X83393089Y-123847966D02*
G75*
G03*
X83393050Y-123508595I-169689J169666D01*
G01*
X84909077Y-121121303D02*
G75*
G02*
X85248505Y-121121285I169723J-169697D01*
G01*
X82278633Y-124091157D02*
G75*
G02*
X82278680Y-123751796I169667J169657D01*
G01*
X84665885Y-122235762D02*
G75*
G03*
X85005307Y-122235771I169715J169662D01*
G01*
X82363487Y-123666893D02*
G75*
G02*
X82702905Y-123666885I169713J-169707D01*
G01*
X86441055Y-120800000D02*
X87880256Y-120800000D01*
X84399918Y-121969795D02*
X84665885Y-122235762D01*
X84241620Y-122660024D02*
X83975654Y-122394058D01*
X84824222Y-121206157D02*
X84909077Y-121121303D01*
X80590000Y-125770000D02*
X81471055Y-125770000D01*
X83393089Y-123847967D02*
X83393089Y-123847966D01*
X85853827Y-121387231D02*
X85938679Y-121302377D01*
X83975653Y-122054648D02*
X84060508Y-121969794D01*
X83308237Y-123932821D02*
X83393089Y-123847967D01*
X85090149Y-122150907D02*
X85090149Y-122150906D01*
X83393090Y-123508554D02*
X83127180Y-123242644D01*
X85938679Y-121302377D02*
X86398298Y-120842757D01*
X85005297Y-122235761D02*
X85090149Y-122150907D01*
X82278632Y-123751747D02*
X82363487Y-123666893D01*
X84241619Y-122999437D02*
X84241619Y-122999436D01*
X82702897Y-123666894D02*
X82968825Y-123932822D01*
X87880256Y-120800000D02*
X179800000Y-120800000D01*
X83127179Y-122903234D02*
X83212034Y-122818380D01*
X83551444Y-122818381D02*
X83817355Y-123084292D01*
X85090150Y-121811494D02*
X84824223Y-121545567D01*
X86398298Y-120842757D02*
X86441055Y-120800000D01*
X82544560Y-124357084D02*
X82278633Y-124091157D01*
X85248487Y-121121304D02*
X85514415Y-121387232D01*
X81471055Y-125770000D02*
X82544559Y-124696496D01*
X179800000Y-120800000D02*
X180000000Y-120600000D01*
X84156767Y-123084291D02*
X84241619Y-122999437D01*
%TO.N,TD+*%
X80946741Y-129400000D02*
X83628410Y-126718331D01*
%TO.N,TD-*%
X80193259Y-129800000D02*
X78050000Y-131943259D01*
%TO.N,TD+*%
X78230000Y-129400000D02*
X80946741Y-129400000D01*
%TO.N,RD-*%
X80766741Y-127040000D02*
X78050000Y-127040000D01*
%TO.N,LED1*%
X70783862Y-119600000D02*
X66065000Y-124318862D01*
X66065000Y-124318862D02*
X66065000Y-137145000D01*
%TO.N,LED2*%
X69160000Y-121789548D02*
X69160000Y-124760000D01*
%TD*%
%TA.AperFunction,Conductor*%
%TO.N,GND*%
G36*
X69801803Y-119520185D02*
G01*
X69847558Y-119572989D01*
X69857502Y-119642147D01*
X69828477Y-119705703D01*
X69822445Y-119712181D01*
X65584481Y-123950144D01*
X65584477Y-123950149D01*
X65539550Y-124027967D01*
X65539550Y-124027968D01*
X65505423Y-124087076D01*
X65505423Y-124087077D01*
X65464499Y-124239805D01*
X65464499Y-124239807D01*
X65464499Y-124407908D01*
X65464500Y-124407921D01*
X65464500Y-137058330D01*
X65464499Y-137058348D01*
X65464499Y-137224054D01*
X65464498Y-137224054D01*
X65498245Y-137350000D01*
X65505423Y-137376785D01*
X65526488Y-137413270D01*
X65544296Y-137444114D01*
X65584479Y-137513714D01*
X65584481Y-137513717D01*
X65703349Y-137632585D01*
X65703355Y-137632590D01*
X65866635Y-137795870D01*
X65900120Y-137857193D01*
X65898729Y-137915643D01*
X65878967Y-137989400D01*
X65878964Y-137989414D01*
X65859666Y-138209998D01*
X65859666Y-138210001D01*
X65878964Y-138430585D01*
X65878965Y-138430592D01*
X65936275Y-138644475D01*
X65936279Y-138644486D01*
X66008796Y-138800000D01*
X66029858Y-138845167D01*
X66156868Y-139026555D01*
X66313445Y-139183132D01*
X66494833Y-139310142D01*
X66615572Y-139366443D01*
X66695513Y-139403720D01*
X66695515Y-139403720D01*
X66695520Y-139403723D01*
X66909409Y-139461035D01*
X67060013Y-139474211D01*
X67129998Y-139480334D01*
X67130000Y-139480334D01*
X67130002Y-139480334D01*
X67185147Y-139475509D01*
X67350591Y-139461035D01*
X67564480Y-139403723D01*
X67765167Y-139310142D01*
X67946555Y-139183132D01*
X68103132Y-139026555D01*
X68230142Y-138845167D01*
X68272334Y-138754683D01*
X68297033Y-138719412D01*
X68668871Y-138347574D01*
X68684755Y-138406853D01*
X68751898Y-138523147D01*
X68846853Y-138618102D01*
X68963147Y-138685245D01*
X69022424Y-138701128D01*
X68459656Y-139263894D01*
X68525083Y-139309706D01*
X68525085Y-139309707D01*
X68725690Y-139403250D01*
X68725699Y-139403254D01*
X68939490Y-139460538D01*
X68939500Y-139460540D01*
X69159999Y-139479832D01*
X69160001Y-139479832D01*
X69380499Y-139460540D01*
X69380509Y-139460538D01*
X69594300Y-139403254D01*
X69594309Y-139403250D01*
X69794915Y-139309706D01*
X69860342Y-139263894D01*
X69297575Y-138701127D01*
X69356853Y-138685245D01*
X69473147Y-138618102D01*
X69568102Y-138523147D01*
X69635245Y-138406853D01*
X69651128Y-138347575D01*
X70213894Y-138910342D01*
X70259707Y-138844914D01*
X70259708Y-138844912D01*
X70327000Y-138700604D01*
X70373172Y-138648164D01*
X70440365Y-138629012D01*
X70507246Y-138649227D01*
X70514857Y-138654623D01*
X70655792Y-138762767D01*
X70868708Y-138885694D01*
X71095847Y-138979778D01*
X71333323Y-139043409D01*
X71577073Y-139075500D01*
X71577080Y-139075500D01*
X71822920Y-139075500D01*
X71822927Y-139075500D01*
X72066677Y-139043409D01*
X72304153Y-138979778D01*
X72531292Y-138885694D01*
X72744208Y-138762767D01*
X72939256Y-138613101D01*
X72976022Y-138576335D01*
X73037344Y-138542849D01*
X73107036Y-138547833D01*
X73162970Y-138589703D01*
X73187388Y-138655167D01*
X73179133Y-138709317D01*
X73120969Y-138857517D01*
X73120968Y-138857522D01*
X73064273Y-139105920D01*
X73045233Y-139359995D01*
X73045233Y-139360004D01*
X73064273Y-139614079D01*
X73120968Y-139862477D01*
X73120973Y-139862494D01*
X73214058Y-140099671D01*
X73214057Y-140099671D01*
X73341454Y-140320327D01*
X73341461Y-140320338D01*
X73383452Y-140372991D01*
X73383453Y-140372992D01*
X74034152Y-139722292D01*
X74041049Y-139738942D01*
X74128599Y-139869970D01*
X74240030Y-139981401D01*
X74371058Y-140068951D01*
X74387705Y-140075846D01*
X73736813Y-140726738D01*
X73897616Y-140836371D01*
X73897624Y-140836376D01*
X74127176Y-140946921D01*
X74127174Y-140946921D01*
X74370652Y-141022024D01*
X74370658Y-141022026D01*
X74622595Y-141059999D01*
X74622604Y-141060000D01*
X74877396Y-141060000D01*
X74877404Y-141059999D01*
X75129341Y-141022026D01*
X75129347Y-141022024D01*
X75372824Y-140946921D01*
X75602376Y-140836376D01*
X75602377Y-140836375D01*
X75763185Y-140726738D01*
X75112294Y-140075846D01*
X75128942Y-140068951D01*
X75259970Y-139981401D01*
X75371401Y-139869970D01*
X75458951Y-139738942D01*
X75465846Y-139722294D01*
X76116544Y-140372992D01*
X76116546Y-140372991D01*
X76158544Y-140320330D01*
X76285941Y-140099671D01*
X76379026Y-139862494D01*
X76379031Y-139862477D01*
X76435726Y-139614079D01*
X76454767Y-139360004D01*
X76454767Y-139359995D01*
X76435726Y-139105920D01*
X76379031Y-138857522D01*
X76379026Y-138857505D01*
X76356456Y-138799998D01*
X102014532Y-138799998D01*
X102014532Y-138800001D01*
X102034364Y-139026686D01*
X102034366Y-139026697D01*
X102093258Y-139246488D01*
X102093261Y-139246497D01*
X102189431Y-139452732D01*
X102189432Y-139452734D01*
X102319954Y-139639141D01*
X102480858Y-139800045D01*
X102480861Y-139800047D01*
X102667266Y-139930568D01*
X102873504Y-140026739D01*
X102873509Y-140026740D01*
X102873511Y-140026741D01*
X102894717Y-140032423D01*
X103093308Y-140085635D01*
X103251786Y-140099500D01*
X103319998Y-140105468D01*
X103320000Y-140105468D01*
X103320002Y-140105468D01*
X103388214Y-140099500D01*
X103546692Y-140085635D01*
X103766496Y-140026739D01*
X103972734Y-139930568D01*
X104159139Y-139800047D01*
X104320047Y-139639139D01*
X104450568Y-139452734D01*
X104546739Y-139246496D01*
X104605635Y-139026692D01*
X104625468Y-138800000D01*
X104625468Y-138799998D01*
X112174532Y-138799998D01*
X112174532Y-138800001D01*
X112194364Y-139026686D01*
X112194366Y-139026697D01*
X112253258Y-139246488D01*
X112253261Y-139246497D01*
X112349431Y-139452732D01*
X112349432Y-139452734D01*
X112479954Y-139639141D01*
X112640858Y-139800045D01*
X112640861Y-139800047D01*
X112827266Y-139930568D01*
X113033504Y-140026739D01*
X113033509Y-140026740D01*
X113033511Y-140026741D01*
X113054717Y-140032423D01*
X113253308Y-140085635D01*
X113411786Y-140099500D01*
X113479998Y-140105468D01*
X113480000Y-140105468D01*
X113480002Y-140105468D01*
X113548214Y-140099500D01*
X113706692Y-140085635D01*
X113926496Y-140026739D01*
X114132734Y-139930568D01*
X114319139Y-139800047D01*
X114480047Y-139639139D01*
X114610568Y-139452734D01*
X114706739Y-139246496D01*
X114765635Y-139026692D01*
X114785468Y-138800000D01*
X114785147Y-138796335D01*
X114772436Y-138651049D01*
X114765635Y-138573308D01*
X114706739Y-138353504D01*
X114610568Y-138147266D01*
X114480047Y-137960861D01*
X114480045Y-137960858D01*
X114319141Y-137799954D01*
X114132734Y-137669432D01*
X114132732Y-137669431D01*
X113926497Y-137573261D01*
X113926488Y-137573258D01*
X113706697Y-137514366D01*
X113706693Y-137514365D01*
X113706692Y-137514365D01*
X113706691Y-137514364D01*
X113706686Y-137514364D01*
X113480002Y-137494532D01*
X113479998Y-137494532D01*
X113253313Y-137514364D01*
X113253302Y-137514366D01*
X113033511Y-137573258D01*
X113033502Y-137573261D01*
X112827267Y-137669431D01*
X112827265Y-137669432D01*
X112640858Y-137799954D01*
X112479954Y-137960858D01*
X112349432Y-138147265D01*
X112349431Y-138147267D01*
X112253261Y-138353502D01*
X112253258Y-138353511D01*
X112194366Y-138573302D01*
X112194364Y-138573313D01*
X112174532Y-138799998D01*
X104625468Y-138799998D01*
X104625147Y-138796335D01*
X104612436Y-138651049D01*
X104605635Y-138573308D01*
X104546739Y-138353504D01*
X104450568Y-138147266D01*
X104320047Y-137960861D01*
X104320045Y-137960858D01*
X104159141Y-137799954D01*
X103972734Y-137669432D01*
X103972732Y-137669431D01*
X103766497Y-137573261D01*
X103766488Y-137573258D01*
X103546697Y-137514366D01*
X103546693Y-137514365D01*
X103546692Y-137514365D01*
X103546691Y-137514364D01*
X103546686Y-137514364D01*
X103320002Y-137494532D01*
X103319998Y-137494532D01*
X103093313Y-137514364D01*
X103093302Y-137514366D01*
X102873511Y-137573258D01*
X102873502Y-137573261D01*
X102667267Y-137669431D01*
X102667265Y-137669432D01*
X102480858Y-137799954D01*
X102319954Y-137960858D01*
X102189432Y-138147265D01*
X102189431Y-138147267D01*
X102093261Y-138353502D01*
X102093258Y-138353511D01*
X102034366Y-138573302D01*
X102034364Y-138573313D01*
X102014532Y-138799998D01*
X76356456Y-138799998D01*
X76285941Y-138620328D01*
X76285942Y-138620328D01*
X76158545Y-138399672D01*
X76116545Y-138347006D01*
X75465846Y-138997705D01*
X75458951Y-138981058D01*
X75371401Y-138850030D01*
X75259970Y-138738599D01*
X75128942Y-138651049D01*
X75112293Y-138644152D01*
X75763185Y-137993260D01*
X75602384Y-137883628D01*
X75602376Y-137883623D01*
X75372823Y-137773078D01*
X75372825Y-137773078D01*
X75129347Y-137697975D01*
X75129341Y-137697973D01*
X74877404Y-137660000D01*
X74622595Y-137660000D01*
X74370658Y-137697973D01*
X74370652Y-137697975D01*
X74127175Y-137773078D01*
X73897622Y-137883625D01*
X73897609Y-137883632D01*
X73736813Y-137993259D01*
X74387706Y-138644152D01*
X74371058Y-138651049D01*
X74240030Y-138738599D01*
X74128599Y-138850030D01*
X74041049Y-138981058D01*
X74034153Y-138997706D01*
X73367201Y-138330755D01*
X73358376Y-138328693D01*
X73309737Y-138278534D01*
X73295937Y-138210041D01*
X73312080Y-138158793D01*
X73385694Y-138031292D01*
X73479778Y-137804153D01*
X73543409Y-137566677D01*
X73575500Y-137322927D01*
X73575500Y-137199999D01*
X76821826Y-137199999D01*
X76821826Y-137200000D01*
X76840484Y-137413265D01*
X76840484Y-137413267D01*
X76840485Y-137413270D01*
X76847207Y-137438356D01*
X76895891Y-137620052D01*
X76895893Y-137620056D01*
X76895894Y-137620060D01*
X76933171Y-137700000D01*
X76986370Y-137814087D01*
X76986372Y-137814091D01*
X77109160Y-137989450D01*
X77109165Y-137989456D01*
X77260543Y-138140834D01*
X77260549Y-138140839D01*
X77435908Y-138263627D01*
X77435910Y-138263628D01*
X77435913Y-138263630D01*
X77629940Y-138354106D01*
X77836730Y-138409515D01*
X78007346Y-138424442D01*
X78049999Y-138428174D01*
X78050000Y-138428174D01*
X78050001Y-138428174D01*
X78085545Y-138425064D01*
X78263270Y-138409515D01*
X78470060Y-138354106D01*
X78664087Y-138263630D01*
X78839455Y-138140836D01*
X78990836Y-137989455D01*
X79113630Y-137814087D01*
X79204106Y-137620060D01*
X79259515Y-137413270D01*
X79278174Y-137200000D01*
X79259515Y-136986730D01*
X79211094Y-136806019D01*
X79204108Y-136779947D01*
X79204107Y-136779946D01*
X79204106Y-136779940D01*
X79113630Y-136585913D01*
X79113628Y-136585910D01*
X79113627Y-136585908D01*
X78990839Y-136410549D01*
X78990834Y-136410543D01*
X78839456Y-136259165D01*
X78839450Y-136259160D01*
X78664091Y-136136372D01*
X78664087Y-136136370D01*
X78470060Y-136045894D01*
X78470056Y-136045893D01*
X78470052Y-136045891D01*
X78263275Y-135990486D01*
X78263265Y-135990484D01*
X78050001Y-135971826D01*
X78049999Y-135971826D01*
X77836734Y-135990484D01*
X77836724Y-135990486D01*
X77629947Y-136045891D01*
X77629938Y-136045895D01*
X77435912Y-136136370D01*
X77435908Y-136136372D01*
X77260549Y-136259160D01*
X77260543Y-136259165D01*
X77109165Y-136410543D01*
X77109160Y-136410549D01*
X76986372Y-136585908D01*
X76986370Y-136585912D01*
X76895895Y-136779938D01*
X76895891Y-136779947D01*
X76840486Y-136986724D01*
X76840484Y-136986734D01*
X76821826Y-137199999D01*
X73575500Y-137199999D01*
X73575500Y-137077073D01*
X73543409Y-136833323D01*
X73479778Y-136595847D01*
X73385694Y-136368708D01*
X73262767Y-136155792D01*
X73175262Y-136041754D01*
X73113102Y-135960745D01*
X73113096Y-135960738D01*
X73082357Y-135929999D01*
X79361826Y-135929999D01*
X79361826Y-135930000D01*
X79380484Y-136143265D01*
X79380486Y-136143275D01*
X79435891Y-136350052D01*
X79435893Y-136350056D01*
X79435894Y-136350060D01*
X79516622Y-136523183D01*
X79526370Y-136544087D01*
X79526372Y-136544091D01*
X79649160Y-136719450D01*
X79649165Y-136719456D01*
X79800543Y-136870834D01*
X79800549Y-136870839D01*
X79975908Y-136993627D01*
X79975910Y-136993628D01*
X79975913Y-136993630D01*
X80169940Y-137084106D01*
X80169946Y-137084107D01*
X80169947Y-137084108D01*
X80200580Y-137092316D01*
X80376730Y-137139515D01*
X80512883Y-137151427D01*
X80589999Y-137158174D01*
X80590000Y-137158174D01*
X80590001Y-137158174D01*
X80625545Y-137155064D01*
X80803270Y-137139515D01*
X81010060Y-137084106D01*
X81204087Y-136993630D01*
X81337810Y-136899996D01*
X89094435Y-136899996D01*
X89094435Y-136900003D01*
X89114630Y-137079249D01*
X89114631Y-137079254D01*
X89174211Y-137249523D01*
X89253041Y-137374979D01*
X89270184Y-137402262D01*
X89397738Y-137529816D01*
X89486596Y-137585649D01*
X89550474Y-137625787D01*
X89550478Y-137625789D01*
X89663414Y-137665307D01*
X89720745Y-137685368D01*
X89720750Y-137685369D01*
X89899996Y-137705565D01*
X89900000Y-137705565D01*
X89900004Y-137705565D01*
X90079249Y-137685369D01*
X90079252Y-137685368D01*
X90079255Y-137685368D01*
X90249522Y-137625789D01*
X90250488Y-137625181D01*
X90259523Y-137619506D01*
X90325494Y-137600500D01*
X93368996Y-137600500D01*
X93460040Y-137582389D01*
X93504328Y-137573580D01*
X93568069Y-137547177D01*
X93631807Y-137520777D01*
X93631808Y-137520776D01*
X93631811Y-137520775D01*
X93746543Y-137444114D01*
X94288522Y-136902135D01*
X155649500Y-136902135D01*
X155649500Y-139497870D01*
X155649501Y-139497876D01*
X155655908Y-139557483D01*
X155706202Y-139692328D01*
X155706206Y-139692335D01*
X155792452Y-139807544D01*
X155792455Y-139807547D01*
X155907664Y-139893793D01*
X155907671Y-139893797D01*
X156042517Y-139944091D01*
X156042516Y-139944091D01*
X156049444Y-139944835D01*
X156102127Y-139950500D01*
X158697872Y-139950499D01*
X158757483Y-139944091D01*
X158892331Y-139893796D01*
X159007546Y-139807546D01*
X159093796Y-139692331D01*
X159144091Y-139557483D01*
X159150500Y-139497873D01*
X159150499Y-138199995D01*
X160644592Y-138199995D01*
X160644592Y-138200004D01*
X160664196Y-138461620D01*
X160664197Y-138461625D01*
X160722576Y-138717402D01*
X160722578Y-138717411D01*
X160722580Y-138717416D01*
X160818432Y-138961643D01*
X160949614Y-139188857D01*
X161056572Y-139322978D01*
X161113198Y-139393985D01*
X161249814Y-139520745D01*
X161305521Y-139572433D01*
X161522296Y-139720228D01*
X161522301Y-139720230D01*
X161522302Y-139720231D01*
X161522303Y-139720232D01*
X161647843Y-139780688D01*
X161758673Y-139834061D01*
X161758674Y-139834061D01*
X161758677Y-139834063D01*
X162009385Y-139911396D01*
X162268818Y-139950500D01*
X162531182Y-139950500D01*
X162790615Y-139911396D01*
X163041323Y-139834063D01*
X163257794Y-139729816D01*
X163277696Y-139720232D01*
X163277696Y-139720231D01*
X163277704Y-139720228D01*
X163494479Y-139572433D01*
X163643733Y-139433945D01*
X163686801Y-139393985D01*
X163686801Y-139393983D01*
X163686805Y-139393981D01*
X163850386Y-139188857D01*
X163981568Y-138961643D01*
X164077420Y-138717416D01*
X164135802Y-138461630D01*
X164135808Y-138461550D01*
X164155408Y-138200004D01*
X164155408Y-138199995D01*
X165645093Y-138199995D01*
X165645093Y-138200004D01*
X165664692Y-138461545D01*
X165664693Y-138461550D01*
X165723058Y-138717270D01*
X165818883Y-138961426D01*
X165818882Y-138961426D01*
X165950027Y-139188573D01*
X165997874Y-139248571D01*
X166798958Y-138447488D01*
X166823978Y-138507890D01*
X166895112Y-138614351D01*
X166985649Y-138704888D01*
X167092110Y-138776022D01*
X167152510Y-138801041D01*
X166350830Y-139602720D01*
X166522546Y-139719793D01*
X166522550Y-139719795D01*
X166758854Y-139833594D01*
X166758858Y-139833595D01*
X167009494Y-139910907D01*
X167009500Y-139910909D01*
X167268848Y-139949999D01*
X167268857Y-139950000D01*
X167531143Y-139950000D01*
X167531151Y-139949999D01*
X167790499Y-139910909D01*
X167790505Y-139910907D01*
X168041143Y-139833595D01*
X168277445Y-139719798D01*
X168277447Y-139719797D01*
X168449168Y-139602720D01*
X167647488Y-138801041D01*
X167707890Y-138776022D01*
X167814351Y-138704888D01*
X167904888Y-138614351D01*
X167976022Y-138507890D01*
X168001041Y-138447488D01*
X168802125Y-139248572D01*
X168849971Y-139188573D01*
X168981116Y-138961426D01*
X169076941Y-138717270D01*
X169135306Y-138461550D01*
X169135307Y-138461545D01*
X169154907Y-138200004D01*
X169154907Y-138199995D01*
X169135307Y-137938454D01*
X169135306Y-137938449D01*
X169076941Y-137682729D01*
X168981116Y-137438573D01*
X168981117Y-137438573D01*
X168849972Y-137211426D01*
X168802124Y-137151427D01*
X168001041Y-137952510D01*
X167976022Y-137892110D01*
X167904888Y-137785649D01*
X167814351Y-137695112D01*
X167707890Y-137623978D01*
X167647488Y-137598958D01*
X168449168Y-136797278D01*
X168309618Y-136702135D01*
X172649500Y-136702135D01*
X172649500Y-139297870D01*
X172649501Y-139297876D01*
X172655908Y-139357483D01*
X172706202Y-139492328D01*
X172706206Y-139492335D01*
X172792452Y-139607544D01*
X172792455Y-139607547D01*
X172907664Y-139693793D01*
X172907671Y-139693797D01*
X173042517Y-139744091D01*
X173042516Y-139744091D01*
X173049444Y-139744835D01*
X173102127Y-139750500D01*
X175697872Y-139750499D01*
X175757483Y-139744091D01*
X175892331Y-139693796D01*
X176007546Y-139607546D01*
X176093796Y-139492331D01*
X176144091Y-139357483D01*
X176150500Y-139297873D01*
X176150499Y-137999995D01*
X177644592Y-137999995D01*
X177644592Y-138000004D01*
X177664196Y-138261620D01*
X177664197Y-138261625D01*
X177664197Y-138261629D01*
X177664198Y-138261630D01*
X177664743Y-138264019D01*
X177722576Y-138517402D01*
X177722578Y-138517411D01*
X177722580Y-138517416D01*
X177818432Y-138761643D01*
X177949614Y-138988857D01*
X178061965Y-139129741D01*
X178113198Y-139193985D01*
X178225163Y-139297872D01*
X178305521Y-139372433D01*
X178522296Y-139520228D01*
X178522301Y-139520230D01*
X178522302Y-139520231D01*
X178522303Y-139520232D01*
X178626031Y-139570184D01*
X178758673Y-139634061D01*
X178758674Y-139634061D01*
X178758677Y-139634063D01*
X179009385Y-139711396D01*
X179268818Y-139750500D01*
X179531182Y-139750500D01*
X179790615Y-139711396D01*
X180041323Y-139634063D01*
X180276620Y-139520750D01*
X180277696Y-139520232D01*
X180277696Y-139520231D01*
X180277704Y-139520228D01*
X180494479Y-139372433D01*
X180680318Y-139200000D01*
X180686801Y-139193985D01*
X180686801Y-139193983D01*
X180686805Y-139193981D01*
X180850386Y-138988857D01*
X180981568Y-138761643D01*
X181077420Y-138517416D01*
X181135802Y-138261630D01*
X181135808Y-138261550D01*
X181155408Y-138000004D01*
X181155408Y-137999995D01*
X182645093Y-137999995D01*
X182645093Y-138000004D01*
X182664692Y-138261545D01*
X182664693Y-138261550D01*
X182723058Y-138517270D01*
X182818883Y-138761426D01*
X182818882Y-138761426D01*
X182950027Y-138988573D01*
X182997874Y-139048571D01*
X183798958Y-138247488D01*
X183823978Y-138307890D01*
X183895112Y-138414351D01*
X183985649Y-138504888D01*
X184092110Y-138576022D01*
X184152510Y-138601041D01*
X183350830Y-139402720D01*
X183522546Y-139519793D01*
X183522550Y-139519795D01*
X183758854Y-139633594D01*
X183758858Y-139633595D01*
X184009494Y-139710907D01*
X184009500Y-139710909D01*
X184268848Y-139749999D01*
X184268857Y-139750000D01*
X184531143Y-139750000D01*
X184531151Y-139749999D01*
X184790499Y-139710909D01*
X184790505Y-139710907D01*
X185041143Y-139633595D01*
X185277445Y-139519798D01*
X185277447Y-139519797D01*
X185449168Y-139402720D01*
X184647488Y-138601041D01*
X184707890Y-138576022D01*
X184814351Y-138504888D01*
X184904888Y-138414351D01*
X184976022Y-138307890D01*
X185001041Y-138247488D01*
X185802125Y-139048572D01*
X185849971Y-138988573D01*
X185981116Y-138761426D01*
X186076941Y-138517270D01*
X186135306Y-138261550D01*
X186135307Y-138261545D01*
X186154907Y-138000004D01*
X186154907Y-137999995D01*
X186135307Y-137738454D01*
X186135306Y-137738449D01*
X186076941Y-137482729D01*
X185981116Y-137238573D01*
X185981117Y-137238573D01*
X185849972Y-137011426D01*
X185802124Y-136951427D01*
X185001041Y-137752510D01*
X184976022Y-137692110D01*
X184904888Y-137585649D01*
X184814351Y-137495112D01*
X184707890Y-137423978D01*
X184647488Y-137398958D01*
X185344311Y-136702135D01*
X189649500Y-136702135D01*
X189649500Y-139297870D01*
X189649501Y-139297876D01*
X189655908Y-139357483D01*
X189706202Y-139492328D01*
X189706206Y-139492335D01*
X189792452Y-139607544D01*
X189792455Y-139607547D01*
X189907664Y-139693793D01*
X189907671Y-139693797D01*
X190042517Y-139744091D01*
X190042516Y-139744091D01*
X190049444Y-139744835D01*
X190102127Y-139750500D01*
X192697872Y-139750499D01*
X192757483Y-139744091D01*
X192892331Y-139693796D01*
X193007546Y-139607546D01*
X193093796Y-139492331D01*
X193144091Y-139357483D01*
X193150500Y-139297873D01*
X193150499Y-137999995D01*
X194644592Y-137999995D01*
X194644592Y-138000004D01*
X194664196Y-138261620D01*
X194664197Y-138261625D01*
X194664197Y-138261629D01*
X194664198Y-138261630D01*
X194664743Y-138264019D01*
X194722576Y-138517402D01*
X194722578Y-138517411D01*
X194722580Y-138517416D01*
X194818432Y-138761643D01*
X194949614Y-138988857D01*
X195061965Y-139129741D01*
X195113198Y-139193985D01*
X195225163Y-139297872D01*
X195305521Y-139372433D01*
X195522296Y-139520228D01*
X195522301Y-139520230D01*
X195522302Y-139520231D01*
X195522303Y-139520232D01*
X195626031Y-139570184D01*
X195758673Y-139634061D01*
X195758674Y-139634061D01*
X195758677Y-139634063D01*
X196009385Y-139711396D01*
X196268818Y-139750500D01*
X196531182Y-139750500D01*
X196790615Y-139711396D01*
X197041323Y-139634063D01*
X197276620Y-139520750D01*
X197277696Y-139520232D01*
X197277696Y-139520231D01*
X197277704Y-139520228D01*
X197494479Y-139372433D01*
X197680318Y-139200000D01*
X197686801Y-139193985D01*
X197686801Y-139193983D01*
X197686805Y-139193981D01*
X197850386Y-138988857D01*
X197981568Y-138761643D01*
X198077420Y-138517416D01*
X198135802Y-138261630D01*
X198135808Y-138261550D01*
X198155408Y-138000004D01*
X198155408Y-137999995D01*
X199645093Y-137999995D01*
X199645093Y-138000004D01*
X199664692Y-138261545D01*
X199664693Y-138261550D01*
X199723058Y-138517270D01*
X199818883Y-138761426D01*
X199818882Y-138761426D01*
X199950027Y-138988573D01*
X199997874Y-139048571D01*
X200798958Y-138247488D01*
X200823978Y-138307890D01*
X200895112Y-138414351D01*
X200985649Y-138504888D01*
X201092110Y-138576022D01*
X201152510Y-138601041D01*
X200350830Y-139402720D01*
X200522546Y-139519793D01*
X200522550Y-139519795D01*
X200758854Y-139633594D01*
X200758858Y-139633595D01*
X201009494Y-139710907D01*
X201009500Y-139710909D01*
X201268848Y-139749999D01*
X201268857Y-139750000D01*
X201531143Y-139750000D01*
X201531151Y-139749999D01*
X201790499Y-139710909D01*
X201790505Y-139710907D01*
X202041143Y-139633595D01*
X202277445Y-139519798D01*
X202277447Y-139519797D01*
X202449168Y-139402720D01*
X201647488Y-138601041D01*
X201707890Y-138576022D01*
X201814351Y-138504888D01*
X201904888Y-138414351D01*
X201976022Y-138307890D01*
X202001041Y-138247488D01*
X202802125Y-139048572D01*
X202849971Y-138988573D01*
X202981116Y-138761426D01*
X203076941Y-138517270D01*
X203135306Y-138261550D01*
X203135307Y-138261545D01*
X203154907Y-138000004D01*
X203154907Y-137999995D01*
X203135307Y-137738454D01*
X203135306Y-137738449D01*
X203076941Y-137482729D01*
X202981116Y-137238573D01*
X202981117Y-137238573D01*
X202849972Y-137011426D01*
X202802124Y-136951427D01*
X202001041Y-137752510D01*
X201976022Y-137692110D01*
X201904888Y-137585649D01*
X201814351Y-137495112D01*
X201707890Y-137423978D01*
X201647488Y-137398958D01*
X202449168Y-136597278D01*
X202277454Y-136480206D01*
X202277445Y-136480201D01*
X202041142Y-136366404D01*
X202041144Y-136366404D01*
X201790505Y-136289092D01*
X201790499Y-136289090D01*
X201531151Y-136250000D01*
X201268848Y-136250000D01*
X201009500Y-136289090D01*
X201009494Y-136289092D01*
X200758858Y-136366404D01*
X200758854Y-136366405D01*
X200522547Y-136480205D01*
X200522539Y-136480210D01*
X200350830Y-136597277D01*
X201152511Y-137398958D01*
X201092110Y-137423978D01*
X200985649Y-137495112D01*
X200895112Y-137585649D01*
X200823978Y-137692110D01*
X200798958Y-137752510D01*
X199997874Y-136951427D01*
X199950028Y-137011425D01*
X199818883Y-137238573D01*
X199723058Y-137482729D01*
X199664693Y-137738449D01*
X199664692Y-137738454D01*
X199645093Y-137999995D01*
X198155408Y-137999995D01*
X198135803Y-137738379D01*
X198135802Y-137738374D01*
X198135802Y-137738370D01*
X198077420Y-137482584D01*
X197981568Y-137238357D01*
X197850386Y-137011143D01*
X197686805Y-136806019D01*
X197686804Y-136806018D01*
X197686801Y-136806014D01*
X197494479Y-136627567D01*
X197447954Y-136595847D01*
X197277704Y-136479772D01*
X197277700Y-136479770D01*
X197277697Y-136479768D01*
X197277696Y-136479767D01*
X197048680Y-136369480D01*
X197041325Y-136365938D01*
X197041327Y-136365938D01*
X196790623Y-136288606D01*
X196790619Y-136288605D01*
X196790615Y-136288604D01*
X196665823Y-136269794D01*
X196531187Y-136249500D01*
X196531182Y-136249500D01*
X196268818Y-136249500D01*
X196268812Y-136249500D01*
X196107247Y-136273853D01*
X196009385Y-136288604D01*
X196009382Y-136288605D01*
X196009376Y-136288606D01*
X195758673Y-136365938D01*
X195522303Y-136479767D01*
X195522302Y-136479768D01*
X195522296Y-136479771D01*
X195522296Y-136479772D01*
X195521654Y-136480210D01*
X195305520Y-136627567D01*
X195113198Y-136806014D01*
X194949614Y-137011143D01*
X194818432Y-137238356D01*
X194722582Y-137482578D01*
X194722576Y-137482597D01*
X194664197Y-137738374D01*
X194664196Y-137738379D01*
X194644592Y-137999995D01*
X193150499Y-137999995D01*
X193150499Y-136702128D01*
X193144091Y-136642517D01*
X193143806Y-136641754D01*
X193093797Y-136507671D01*
X193093793Y-136507664D01*
X193007547Y-136392455D01*
X193007544Y-136392452D01*
X192892335Y-136306206D01*
X192892328Y-136306202D01*
X192757482Y-136255908D01*
X192757483Y-136255908D01*
X192697883Y-136249501D01*
X192697881Y-136249500D01*
X192697873Y-136249500D01*
X192697864Y-136249500D01*
X190102129Y-136249500D01*
X190102123Y-136249501D01*
X190042516Y-136255908D01*
X189907671Y-136306202D01*
X189907664Y-136306206D01*
X189792455Y-136392452D01*
X189792452Y-136392455D01*
X189706206Y-136507664D01*
X189706202Y-136507671D01*
X189655908Y-136642517D01*
X189651856Y-136680210D01*
X189649501Y-136702123D01*
X189649500Y-136702135D01*
X185344311Y-136702135D01*
X185449168Y-136597278D01*
X185277454Y-136480206D01*
X185277445Y-136480201D01*
X185041142Y-136366404D01*
X185041144Y-136366404D01*
X184790505Y-136289092D01*
X184790499Y-136289090D01*
X184531151Y-136250000D01*
X184268848Y-136250000D01*
X184009500Y-136289090D01*
X184009494Y-136289092D01*
X183758858Y-136366404D01*
X183758854Y-136366405D01*
X183522547Y-136480205D01*
X183522539Y-136480210D01*
X183350830Y-136597277D01*
X184152511Y-137398958D01*
X184092110Y-137423978D01*
X183985649Y-137495112D01*
X183895112Y-137585649D01*
X183823978Y-137692110D01*
X183798958Y-137752510D01*
X182997874Y-136951427D01*
X182950028Y-137011425D01*
X182818883Y-137238573D01*
X182723058Y-137482729D01*
X182664693Y-137738449D01*
X182664692Y-137738454D01*
X182645093Y-137999995D01*
X181155408Y-137999995D01*
X181135803Y-137738379D01*
X181135802Y-137738374D01*
X181135802Y-137738370D01*
X181077420Y-137482584D01*
X180981568Y-137238357D01*
X180850386Y-137011143D01*
X180686805Y-136806019D01*
X180686804Y-136806018D01*
X180686801Y-136806014D01*
X180494479Y-136627567D01*
X180447954Y-136595847D01*
X180277704Y-136479772D01*
X180277700Y-136479770D01*
X180277697Y-136479768D01*
X180277696Y-136479767D01*
X180048680Y-136369480D01*
X180041325Y-136365938D01*
X180041327Y-136365938D01*
X179790623Y-136288606D01*
X179790619Y-136288605D01*
X179790615Y-136288604D01*
X179665823Y-136269794D01*
X179531187Y-136249500D01*
X179531182Y-136249500D01*
X179268818Y-136249500D01*
X179268812Y-136249500D01*
X179107247Y-136273853D01*
X179009385Y-136288604D01*
X179009382Y-136288605D01*
X179009376Y-136288606D01*
X178758673Y-136365938D01*
X178522303Y-136479767D01*
X178522302Y-136479768D01*
X178522296Y-136479771D01*
X178522296Y-136479772D01*
X178521654Y-136480210D01*
X178305520Y-136627567D01*
X178113198Y-136806014D01*
X177949614Y-137011143D01*
X177818432Y-137238356D01*
X177722582Y-137482578D01*
X177722576Y-137482597D01*
X177664197Y-137738374D01*
X177664196Y-137738379D01*
X177644592Y-137999995D01*
X176150499Y-137999995D01*
X176150499Y-136702128D01*
X176144091Y-136642517D01*
X176143806Y-136641754D01*
X176093797Y-136507671D01*
X176093793Y-136507664D01*
X176007547Y-136392455D01*
X176007544Y-136392452D01*
X175892335Y-136306206D01*
X175892328Y-136306202D01*
X175757482Y-136255908D01*
X175757483Y-136255908D01*
X175697883Y-136249501D01*
X175697881Y-136249500D01*
X175697873Y-136249500D01*
X175697864Y-136249500D01*
X173102129Y-136249500D01*
X173102123Y-136249501D01*
X173042516Y-136255908D01*
X172907671Y-136306202D01*
X172907664Y-136306206D01*
X172792455Y-136392452D01*
X172792452Y-136392455D01*
X172706206Y-136507664D01*
X172706202Y-136507671D01*
X172655908Y-136642517D01*
X172651856Y-136680210D01*
X172649501Y-136702123D01*
X172649500Y-136702135D01*
X168309618Y-136702135D01*
X168277454Y-136680206D01*
X168277445Y-136680201D01*
X168041142Y-136566404D01*
X168041144Y-136566404D01*
X167790505Y-136489092D01*
X167790499Y-136489090D01*
X167531151Y-136450000D01*
X167268848Y-136450000D01*
X167009500Y-136489090D01*
X167009494Y-136489092D01*
X166758858Y-136566404D01*
X166758854Y-136566405D01*
X166522547Y-136680205D01*
X166522539Y-136680210D01*
X166350830Y-136797277D01*
X167152511Y-137598958D01*
X167092110Y-137623978D01*
X166985649Y-137695112D01*
X166895112Y-137785649D01*
X166823978Y-137892110D01*
X166798958Y-137952510D01*
X165997875Y-137151427D01*
X165997874Y-137151427D01*
X165950028Y-137211425D01*
X165818883Y-137438573D01*
X165723058Y-137682729D01*
X165664693Y-137938449D01*
X165664692Y-137938454D01*
X165645093Y-138199995D01*
X164155408Y-138199995D01*
X164135803Y-137938379D01*
X164135802Y-137938374D01*
X164135802Y-137938370D01*
X164077420Y-137682584D01*
X163981568Y-137438357D01*
X163850386Y-137211143D01*
X163686805Y-137006019D01*
X163686804Y-137006018D01*
X163686801Y-137006014D01*
X163494479Y-136827567D01*
X163462874Y-136806019D01*
X163277704Y-136679772D01*
X163277700Y-136679770D01*
X163277697Y-136679768D01*
X163277696Y-136679767D01*
X163041325Y-136565938D01*
X163041327Y-136565938D01*
X162790623Y-136488606D01*
X162790619Y-136488605D01*
X162790615Y-136488604D01*
X162665823Y-136469794D01*
X162531187Y-136449500D01*
X162531182Y-136449500D01*
X162268818Y-136449500D01*
X162268812Y-136449500D01*
X162107247Y-136473853D01*
X162009385Y-136488604D01*
X162009382Y-136488605D01*
X162009376Y-136488606D01*
X161758673Y-136565938D01*
X161522303Y-136679767D01*
X161522302Y-136679768D01*
X161522296Y-136679771D01*
X161522296Y-136679772D01*
X161521654Y-136680210D01*
X161305520Y-136827567D01*
X161113198Y-137006014D01*
X160949614Y-137211143D01*
X160818432Y-137438356D01*
X160722582Y-137682578D01*
X160722576Y-137682597D01*
X160664197Y-137938374D01*
X160664196Y-137938379D01*
X160644592Y-138199995D01*
X159150499Y-138199995D01*
X159150499Y-136902128D01*
X159145299Y-136853757D01*
X159144091Y-136842516D01*
X159093797Y-136707671D01*
X159093793Y-136707664D01*
X159007547Y-136592455D01*
X159007544Y-136592452D01*
X158892335Y-136506206D01*
X158892328Y-136506202D01*
X158757482Y-136455908D01*
X158757483Y-136455908D01*
X158697883Y-136449501D01*
X158697881Y-136449500D01*
X158697873Y-136449500D01*
X158697864Y-136449500D01*
X156102129Y-136449500D01*
X156102123Y-136449501D01*
X156042516Y-136455908D01*
X155907671Y-136506202D01*
X155907664Y-136506206D01*
X155792455Y-136592452D01*
X155792452Y-136592455D01*
X155706206Y-136707664D01*
X155706202Y-136707671D01*
X155655908Y-136842517D01*
X155649728Y-136900003D01*
X155649501Y-136902123D01*
X155649500Y-136902135D01*
X94288522Y-136902135D01*
X97010656Y-134179999D01*
X204844341Y-134179999D01*
X204844341Y-134180000D01*
X204864936Y-134415403D01*
X204864938Y-134415413D01*
X204926094Y-134643655D01*
X204926096Y-134643659D01*
X204926097Y-134643663D01*
X205012901Y-134829815D01*
X205025965Y-134857830D01*
X205025967Y-134857834D01*
X205161501Y-135051395D01*
X205161506Y-135051402D01*
X205328597Y-135218493D01*
X205328603Y-135218498D01*
X205514158Y-135348425D01*
X205557783Y-135403002D01*
X205564977Y-135472500D01*
X205533454Y-135534855D01*
X205514158Y-135551575D01*
X205328597Y-135681505D01*
X205161505Y-135848597D01*
X205025965Y-136042169D01*
X205025964Y-136042171D01*
X204926098Y-136256335D01*
X204926094Y-136256344D01*
X204864938Y-136484586D01*
X204864936Y-136484596D01*
X204844341Y-136719999D01*
X204844341Y-136720000D01*
X204864936Y-136955403D01*
X204864938Y-136955413D01*
X204926094Y-137183655D01*
X204926096Y-137183659D01*
X204926097Y-137183663D01*
X205015309Y-137374979D01*
X205025965Y-137397830D01*
X205025967Y-137397834D01*
X205107108Y-137513714D01*
X205157477Y-137585649D01*
X205161501Y-137591395D01*
X205161506Y-137591402D01*
X205328597Y-137758493D01*
X205328603Y-137758498D01*
X205514158Y-137888425D01*
X205557783Y-137943002D01*
X205564977Y-138012500D01*
X205533454Y-138074855D01*
X205514158Y-138091575D01*
X205328597Y-138221505D01*
X205161505Y-138388597D01*
X205025965Y-138582169D01*
X205025964Y-138582171D01*
X204926098Y-138796335D01*
X204926094Y-138796344D01*
X204864938Y-139024586D01*
X204864936Y-139024596D01*
X204844341Y-139259999D01*
X204844341Y-139260000D01*
X204864936Y-139495403D01*
X204864938Y-139495413D01*
X204926094Y-139723655D01*
X204926096Y-139723659D01*
X204926097Y-139723663D01*
X205013637Y-139911393D01*
X205025965Y-139937830D01*
X205025967Y-139937834D01*
X205104173Y-140049523D01*
X205161501Y-140131396D01*
X205161506Y-140131402D01*
X205283430Y-140253326D01*
X205316915Y-140314649D01*
X205311931Y-140384341D01*
X205270059Y-140440274D01*
X205239083Y-140457189D01*
X205107669Y-140506203D01*
X205107664Y-140506206D01*
X204992455Y-140592452D01*
X204992452Y-140592455D01*
X204906206Y-140707664D01*
X204906202Y-140707671D01*
X204855908Y-140842517D01*
X204849782Y-140899500D01*
X204849501Y-140902123D01*
X204849500Y-140902135D01*
X204849500Y-142697870D01*
X204849501Y-142697876D01*
X204855908Y-142757483D01*
X204906202Y-142892328D01*
X204906206Y-142892335D01*
X204992452Y-143007544D01*
X204992455Y-143007547D01*
X205107664Y-143093793D01*
X205107671Y-143093797D01*
X205242517Y-143144091D01*
X205242516Y-143144091D01*
X205249444Y-143144835D01*
X205302127Y-143150500D01*
X207097872Y-143150499D01*
X207157483Y-143144091D01*
X207292331Y-143093796D01*
X207407546Y-143007546D01*
X207493796Y-142892331D01*
X207544091Y-142757483D01*
X207550500Y-142697873D01*
X207550499Y-140902128D01*
X207544091Y-140842517D01*
X207541800Y-140836375D01*
X207493797Y-140707671D01*
X207493793Y-140707664D01*
X207407547Y-140592455D01*
X207407544Y-140592452D01*
X207292335Y-140506206D01*
X207292328Y-140506202D01*
X207160917Y-140457189D01*
X207104983Y-140415318D01*
X207080566Y-140349853D01*
X207095418Y-140281580D01*
X207116563Y-140253332D01*
X207238495Y-140131401D01*
X207374035Y-139937830D01*
X207473903Y-139723663D01*
X207535063Y-139495408D01*
X207555659Y-139260000D01*
X207535063Y-139024592D01*
X207474885Y-138800001D01*
X207473905Y-138796344D01*
X207473904Y-138796343D01*
X207473903Y-138796337D01*
X207374035Y-138582171D01*
X207370954Y-138577770D01*
X207238494Y-138388597D01*
X207071402Y-138221506D01*
X207071396Y-138221501D01*
X206885842Y-138091575D01*
X206842217Y-138036998D01*
X206835023Y-137967500D01*
X206866546Y-137905145D01*
X206885842Y-137888425D01*
X206931511Y-137856447D01*
X207071401Y-137758495D01*
X207238495Y-137591401D01*
X207374035Y-137397830D01*
X207473903Y-137183663D01*
X207535063Y-136955408D01*
X207555659Y-136720000D01*
X207554095Y-136702129D01*
X207544500Y-136592452D01*
X207535063Y-136484592D01*
X207474661Y-136259165D01*
X207473905Y-136256344D01*
X207473904Y-136256343D01*
X207473903Y-136256337D01*
X207374035Y-136042171D01*
X207361862Y-136024785D01*
X207238494Y-135848597D01*
X207071402Y-135681506D01*
X207071396Y-135681501D01*
X206885842Y-135551575D01*
X206842217Y-135496998D01*
X206835023Y-135427500D01*
X206866546Y-135365145D01*
X206885842Y-135348425D01*
X206989575Y-135275790D01*
X207071401Y-135218495D01*
X207238495Y-135051401D01*
X207374035Y-134857830D01*
X207473903Y-134643663D01*
X207535063Y-134415408D01*
X207555659Y-134180000D01*
X207535063Y-133944592D01*
X207476436Y-133725789D01*
X207473905Y-133716344D01*
X207473904Y-133716343D01*
X207473903Y-133716337D01*
X207374035Y-133502171D01*
X207302392Y-133399853D01*
X207238494Y-133308597D01*
X207071402Y-133141506D01*
X207071395Y-133141501D01*
X206877834Y-133005967D01*
X206877830Y-133005965D01*
X206838916Y-132987819D01*
X206663663Y-132906097D01*
X206663659Y-132906096D01*
X206663655Y-132906094D01*
X206435413Y-132844938D01*
X206435403Y-132844936D01*
X206200001Y-132824341D01*
X206199999Y-132824341D01*
X205964596Y-132844936D01*
X205964586Y-132844938D01*
X205736344Y-132906094D01*
X205736335Y-132906098D01*
X205522171Y-133005964D01*
X205522169Y-133005965D01*
X205328597Y-133141505D01*
X205161505Y-133308597D01*
X205025965Y-133502169D01*
X205025964Y-133502171D01*
X204926098Y-133716335D01*
X204926094Y-133716344D01*
X204864938Y-133944586D01*
X204864936Y-133944596D01*
X204844341Y-134179999D01*
X97010656Y-134179999D01*
X97399290Y-133791365D01*
X97446013Y-133762007D01*
X97549522Y-133725789D01*
X97702262Y-133629816D01*
X97829816Y-133502262D01*
X97925789Y-133349522D01*
X97985368Y-133179255D01*
X97985874Y-133174767D01*
X98005565Y-133000003D01*
X98005565Y-132999996D01*
X97985369Y-132820750D01*
X97985368Y-132820745D01*
X97941523Y-132695444D01*
X97925789Y-132650478D01*
X97921355Y-132643422D01*
X97857136Y-132541218D01*
X97829816Y-132497738D01*
X97702262Y-132370184D01*
X97643506Y-132333265D01*
X97549523Y-132274211D01*
X97379254Y-132214631D01*
X97379249Y-132214630D01*
X97200004Y-132194435D01*
X97199996Y-132194435D01*
X97020750Y-132214630D01*
X97020745Y-132214631D01*
X96850476Y-132274211D01*
X96697737Y-132370184D01*
X96570184Y-132497737D01*
X96474212Y-132650475D01*
X96474211Y-132650476D01*
X96437992Y-132753984D01*
X96408632Y-132800709D01*
X93046162Y-136163181D01*
X92984839Y-136196666D01*
X92958481Y-136199500D01*
X90325494Y-136199500D01*
X90259523Y-136180494D01*
X90249525Y-136174212D01*
X90079254Y-136114631D01*
X90079249Y-136114630D01*
X89900004Y-136094435D01*
X89899996Y-136094435D01*
X89720750Y-136114630D01*
X89720745Y-136114631D01*
X89550476Y-136174211D01*
X89397737Y-136270184D01*
X89270184Y-136397737D01*
X89174211Y-136550476D01*
X89114631Y-136720745D01*
X89114630Y-136720750D01*
X89094435Y-136899996D01*
X81337810Y-136899996D01*
X81379455Y-136870836D01*
X81530836Y-136719455D01*
X81653630Y-136544087D01*
X81744106Y-136350060D01*
X81799515Y-136143270D01*
X81818174Y-135930000D01*
X81799515Y-135716730D01*
X81744106Y-135509940D01*
X81653630Y-135315913D01*
X81653628Y-135315910D01*
X81653627Y-135315908D01*
X81530839Y-135140549D01*
X81530834Y-135140543D01*
X81379456Y-134989165D01*
X81379450Y-134989160D01*
X81204091Y-134866372D01*
X81204087Y-134866370D01*
X81156361Y-134844115D01*
X81010060Y-134775894D01*
X81010056Y-134775893D01*
X81010052Y-134775891D01*
X80803275Y-134720486D01*
X80803265Y-134720484D01*
X80590001Y-134701826D01*
X80589999Y-134701826D01*
X80376734Y-134720484D01*
X80376724Y-134720486D01*
X80169947Y-134775891D01*
X80169938Y-134775895D01*
X79975912Y-134866370D01*
X79975908Y-134866372D01*
X79800549Y-134989160D01*
X79800543Y-134989165D01*
X79649165Y-135140543D01*
X79649160Y-135140549D01*
X79526372Y-135315908D01*
X79526370Y-135315912D01*
X79435895Y-135509938D01*
X79435891Y-135509947D01*
X79380486Y-135716724D01*
X79380484Y-135716734D01*
X79361826Y-135929999D01*
X73082357Y-135929999D01*
X72939261Y-135786903D01*
X72939254Y-135786897D01*
X72744212Y-135637236D01*
X72744211Y-135637235D01*
X72744208Y-135637233D01*
X72531292Y-135514306D01*
X72524105Y-135511329D01*
X72304162Y-135420225D01*
X72304155Y-135420223D01*
X72304153Y-135420222D01*
X72066677Y-135356591D01*
X72025939Y-135351227D01*
X71822934Y-135324500D01*
X71822927Y-135324500D01*
X71577073Y-135324500D01*
X71577065Y-135324500D01*
X71352737Y-135354035D01*
X71333323Y-135356591D01*
X71095847Y-135420222D01*
X71095837Y-135420225D01*
X70868714Y-135514303D01*
X70868705Y-135514307D01*
X70655787Y-135637236D01*
X70460745Y-135786897D01*
X70460738Y-135786903D01*
X70286903Y-135960738D01*
X70286897Y-135960745D01*
X70137236Y-136155787D01*
X70014307Y-136368705D01*
X70014303Y-136368714D01*
X69920225Y-136595837D01*
X69920222Y-136595847D01*
X69863909Y-136806014D01*
X69856592Y-136833320D01*
X69856590Y-136833331D01*
X69840742Y-136953702D01*
X69812475Y-137017599D01*
X69754150Y-137056069D01*
X69684285Y-137056900D01*
X69665398Y-137049898D01*
X69594309Y-137016749D01*
X69594300Y-137016745D01*
X69380509Y-136959461D01*
X69380499Y-136959459D01*
X69160001Y-136940168D01*
X69159999Y-136940168D01*
X68939500Y-136959459D01*
X68939490Y-136959461D01*
X68725699Y-137016745D01*
X68725690Y-137016749D01*
X68525084Y-137110293D01*
X68459657Y-137156104D01*
X69022424Y-137718871D01*
X68963147Y-137734755D01*
X68846853Y-137801898D01*
X68751898Y-137896853D01*
X68684755Y-138013147D01*
X68668871Y-138072424D01*
X68297031Y-137700584D01*
X68272332Y-137665312D01*
X68230142Y-137574833D01*
X68103132Y-137393445D01*
X67946555Y-137236868D01*
X67765167Y-137109858D01*
X67727546Y-137092315D01*
X67564486Y-137016279D01*
X67564475Y-137016275D01*
X67350592Y-136958965D01*
X67350585Y-136958964D01*
X67130002Y-136939666D01*
X67129998Y-136939666D01*
X66909414Y-136958964D01*
X66909400Y-136958967D01*
X66835643Y-136978729D01*
X66765793Y-136977065D01*
X66715870Y-136946635D01*
X66701819Y-136932584D01*
X66668334Y-136871261D01*
X66665500Y-136844903D01*
X66665500Y-126124000D01*
X66685185Y-126056961D01*
X66737989Y-126011206D01*
X66789500Y-126000000D01*
X66853835Y-126000000D01*
X66885928Y-126004225D01*
X66909490Y-126010538D01*
X66909500Y-126010540D01*
X67129999Y-126029832D01*
X67130001Y-126029832D01*
X67350499Y-126010540D01*
X67350509Y-126010538D01*
X67374072Y-126004225D01*
X67406165Y-126000000D01*
X68599999Y-126000000D01*
X68600000Y-126000000D01*
X68600000Y-125999999D01*
X68612399Y-125987600D01*
X68673722Y-125954114D01*
X68732169Y-125955504D01*
X68939409Y-126011035D01*
X69096974Y-126024820D01*
X69159998Y-126030334D01*
X69160000Y-126030334D01*
X69160002Y-126030334D01*
X69215147Y-126025509D01*
X69380591Y-126011035D01*
X69594480Y-125953723D01*
X69665469Y-125920620D01*
X69734543Y-125910129D01*
X69798327Y-125938648D01*
X69836567Y-125997125D01*
X69840810Y-126016816D01*
X69852303Y-126104109D01*
X69856591Y-126136677D01*
X69916870Y-126361643D01*
X69920222Y-126374152D01*
X69920225Y-126374162D01*
X70014303Y-126601285D01*
X70014307Y-126601294D01*
X70023331Y-126616924D01*
X70137233Y-126814208D01*
X70137235Y-126814211D01*
X70137236Y-126814212D01*
X70286897Y-127009254D01*
X70286903Y-127009261D01*
X70460738Y-127183096D01*
X70460745Y-127183102D01*
X70506131Y-127217928D01*
X70655792Y-127332767D01*
X70868708Y-127455694D01*
X71012426Y-127515224D01*
X71072781Y-127540224D01*
X71095847Y-127549778D01*
X71333323Y-127613409D01*
X71577073Y-127645500D01*
X71577080Y-127645500D01*
X71822920Y-127645500D01*
X71822927Y-127645500D01*
X72066677Y-127613409D01*
X72304153Y-127549778D01*
X72531292Y-127455694D01*
X72744208Y-127332767D01*
X72939256Y-127183101D01*
X73113101Y-127009256D01*
X73262767Y-126814208D01*
X73385694Y-126601292D01*
X73479778Y-126374153D01*
X73543409Y-126136677D01*
X73575500Y-125892927D01*
X73575500Y-125647073D01*
X73543409Y-125403323D01*
X73479778Y-125165847D01*
X73385694Y-124938708D01*
X73312081Y-124811207D01*
X73295609Y-124743309D01*
X73318461Y-124677282D01*
X73368570Y-124637875D01*
X74034152Y-123972292D01*
X74041049Y-123988942D01*
X74128599Y-124119970D01*
X74240030Y-124231401D01*
X74371058Y-124318951D01*
X74387705Y-124325846D01*
X73736813Y-124976738D01*
X73897616Y-125086371D01*
X73897624Y-125086376D01*
X74127176Y-125196921D01*
X74127174Y-125196921D01*
X74370652Y-125272024D01*
X74370658Y-125272026D01*
X74622595Y-125309999D01*
X74622604Y-125310000D01*
X74877396Y-125310000D01*
X74877404Y-125309999D01*
X75129341Y-125272026D01*
X75129347Y-125272024D01*
X75372824Y-125196921D01*
X75602376Y-125086376D01*
X75602377Y-125086375D01*
X75763185Y-124976738D01*
X75112294Y-124325846D01*
X75128942Y-124318951D01*
X75259970Y-124231401D01*
X75371401Y-124119970D01*
X75458951Y-123988942D01*
X75465846Y-123972294D01*
X76116544Y-124622992D01*
X76116546Y-124622991D01*
X76158544Y-124570330D01*
X76285941Y-124349671D01*
X76379026Y-124112494D01*
X76379031Y-124112477D01*
X76435726Y-123864079D01*
X76454767Y-123610004D01*
X76454767Y-123609995D01*
X76435726Y-123355920D01*
X76379031Y-123107522D01*
X76379026Y-123107505D01*
X76285941Y-122870328D01*
X76285942Y-122870328D01*
X76158545Y-122649672D01*
X76116545Y-122597006D01*
X75465846Y-123247705D01*
X75458951Y-123231058D01*
X75371401Y-123100030D01*
X75259970Y-122988599D01*
X75128942Y-122901049D01*
X75112293Y-122894152D01*
X75763185Y-122243260D01*
X75602384Y-122133628D01*
X75602376Y-122133623D01*
X75372823Y-122023078D01*
X75372825Y-122023078D01*
X75129347Y-121947975D01*
X75129341Y-121947973D01*
X74877404Y-121910000D01*
X74622595Y-121910000D01*
X74370658Y-121947973D01*
X74370652Y-121947975D01*
X74127175Y-122023078D01*
X73897622Y-122133625D01*
X73897609Y-122133632D01*
X73736813Y-122243259D01*
X74387706Y-122894152D01*
X74371058Y-122901049D01*
X74240030Y-122988599D01*
X74128599Y-123100030D01*
X74041049Y-123231058D01*
X74034152Y-123247706D01*
X73383452Y-122597006D01*
X73341457Y-122649667D01*
X73214058Y-122870328D01*
X73120973Y-123107505D01*
X73120968Y-123107522D01*
X73064273Y-123355920D01*
X73045233Y-123609995D01*
X73045233Y-123610004D01*
X73064273Y-123864079D01*
X73120968Y-124112477D01*
X73120973Y-124112494D01*
X73179132Y-124260682D01*
X73185301Y-124330279D01*
X73152863Y-124392162D01*
X73092118Y-124426685D01*
X73022351Y-124422885D01*
X72976023Y-124393665D01*
X72939261Y-124356903D01*
X72939254Y-124356897D01*
X72744212Y-124207236D01*
X72744211Y-124207235D01*
X72744208Y-124207233D01*
X72531292Y-124084306D01*
X72520346Y-124079772D01*
X72304162Y-123990225D01*
X72304155Y-123990223D01*
X72304153Y-123990222D01*
X72066677Y-123926591D01*
X72025939Y-123921227D01*
X71822934Y-123894500D01*
X71822927Y-123894500D01*
X71577073Y-123894500D01*
X71577065Y-123894500D01*
X71345059Y-123925045D01*
X71333323Y-123926591D01*
X71170627Y-123970185D01*
X71095847Y-123990222D01*
X71095837Y-123990225D01*
X70868714Y-124084303D01*
X70868705Y-124084307D01*
X70692046Y-124186302D01*
X70667141Y-124200681D01*
X70655787Y-124207236D01*
X70515274Y-124315055D01*
X70450105Y-124340249D01*
X70381660Y-124326210D01*
X70331670Y-124277396D01*
X70327406Y-124269083D01*
X70318508Y-124250000D01*
X70260142Y-124124833D01*
X70133132Y-123943445D01*
X69976555Y-123786868D01*
X69976550Y-123786864D01*
X69976547Y-123786862D01*
X69813376Y-123672607D01*
X69769751Y-123618030D01*
X69760500Y-123571033D01*
X69760500Y-122089645D01*
X69780185Y-122022606D01*
X69796819Y-122001964D01*
X71161964Y-120636819D01*
X71223287Y-120603334D01*
X71249645Y-120600500D01*
X84281280Y-120600500D01*
X84348319Y-120620185D01*
X84394074Y-120672989D01*
X84404018Y-120742147D01*
X84374993Y-120805703D01*
X84368961Y-120812181D01*
X84341436Y-120839705D01*
X84341178Y-120840019D01*
X84249163Y-120977679D01*
X84185779Y-121130635D01*
X84185778Y-121130639D01*
X84168637Y-121216757D01*
X84136244Y-121278664D01*
X84075524Y-121313230D01*
X84071210Y-121314168D01*
X83985076Y-121331297D01*
X83985065Y-121331301D01*
X83832109Y-121394651D01*
X83694439Y-121486632D01*
X83694414Y-121486652D01*
X83635908Y-121545158D01*
X83581259Y-121599802D01*
X83581218Y-121599846D01*
X83492999Y-121688064D01*
X83492556Y-121688603D01*
X83400588Y-121826231D01*
X83400586Y-121826235D01*
X83337229Y-121979158D01*
X83320069Y-122065377D01*
X83287677Y-122127284D01*
X83226957Y-122161852D01*
X83222631Y-122162792D01*
X83136649Y-122179884D01*
X83086858Y-122200500D01*
X82999142Y-122236819D01*
X82983687Y-122243218D01*
X82846025Y-122335170D01*
X82845934Y-122335245D01*
X82825614Y-122355565D01*
X82788022Y-122393156D01*
X82787981Y-122393196D01*
X82787498Y-122393680D01*
X82787481Y-122393697D01*
X82758936Y-122422231D01*
X82758846Y-122422312D01*
X82742151Y-122439013D01*
X82742114Y-122439050D01*
X82738474Y-122442688D01*
X82738313Y-122442775D01*
X82643931Y-122537188D01*
X82643927Y-122537193D01*
X82551970Y-122674860D01*
X82551968Y-122674862D01*
X82551968Y-122674864D01*
X82542188Y-122698484D01*
X82488630Y-122827835D01*
X82471536Y-122913831D01*
X82439159Y-122975746D01*
X82378447Y-123010328D01*
X82374111Y-123011272D01*
X82288016Y-123028399D01*
X82288013Y-123028400D01*
X82135060Y-123091759D01*
X81997393Y-123183748D01*
X81997392Y-123183749D01*
X81953278Y-123227866D01*
X81953276Y-123227869D01*
X81795930Y-123385213D01*
X81795617Y-123385594D01*
X81703597Y-123523244D01*
X81640203Y-123676209D01*
X81607874Y-123838592D01*
X81607850Y-124004169D01*
X81640135Y-124166567D01*
X81703485Y-124319545D01*
X81794661Y-124456016D01*
X81815535Y-124522695D01*
X81797047Y-124590074D01*
X81779236Y-124612582D01*
X81558736Y-124833083D01*
X81497413Y-124866568D01*
X81427722Y-124861584D01*
X81383374Y-124833083D01*
X81379456Y-124829165D01*
X81379450Y-124829160D01*
X81204091Y-124706372D01*
X81204087Y-124706370D01*
X81194143Y-124701733D01*
X81010060Y-124615894D01*
X81010056Y-124615893D01*
X81010052Y-124615891D01*
X80803275Y-124560486D01*
X80803265Y-124560484D01*
X80590001Y-124541826D01*
X80589999Y-124541826D01*
X80376734Y-124560484D01*
X80376724Y-124560486D01*
X80169947Y-124615891D01*
X80169938Y-124615895D01*
X79975912Y-124706370D01*
X79975908Y-124706372D01*
X79800549Y-124829160D01*
X79800543Y-124829165D01*
X79649165Y-124980543D01*
X79649160Y-124980549D01*
X79526372Y-125155908D01*
X79526370Y-125155912D01*
X79435895Y-125349938D01*
X79435891Y-125349947D01*
X79380486Y-125556724D01*
X79380484Y-125556734D01*
X79361826Y-125769999D01*
X79361826Y-125770000D01*
X79380484Y-125983265D01*
X79380486Y-125983275D01*
X79435891Y-126190052D01*
X79435893Y-126190056D01*
X79435894Y-126190060D01*
X79467334Y-126257483D01*
X79469951Y-126263095D01*
X79480443Y-126332173D01*
X79451923Y-126395957D01*
X79393447Y-126434196D01*
X79357569Y-126439500D01*
X79187694Y-126439500D01*
X79120655Y-126419815D01*
X79086119Y-126386623D01*
X78990839Y-126250549D01*
X78990834Y-126250543D01*
X78839456Y-126099165D01*
X78839450Y-126099160D01*
X78664091Y-125976372D01*
X78664087Y-125976370D01*
X78649425Y-125969533D01*
X78470060Y-125885894D01*
X78470056Y-125885893D01*
X78470052Y-125885891D01*
X78263275Y-125830486D01*
X78263265Y-125830484D01*
X78050001Y-125811826D01*
X78049999Y-125811826D01*
X77836734Y-125830484D01*
X77836724Y-125830486D01*
X77629947Y-125885891D01*
X77629940Y-125885893D01*
X77629940Y-125885894D01*
X77624195Y-125888573D01*
X77435912Y-125976370D01*
X77435908Y-125976372D01*
X77260549Y-126099160D01*
X77260543Y-126099165D01*
X77109165Y-126250543D01*
X77109160Y-126250549D01*
X76986372Y-126425908D01*
X76986370Y-126425912D01*
X76895895Y-126619938D01*
X76895891Y-126619947D01*
X76840486Y-126826724D01*
X76840484Y-126826734D01*
X76821826Y-127039999D01*
X76821826Y-127040000D01*
X76840484Y-127253265D01*
X76840486Y-127253275D01*
X76895891Y-127460052D01*
X76895893Y-127460056D01*
X76895894Y-127460060D01*
X76975725Y-127631259D01*
X76986370Y-127654087D01*
X76986372Y-127654091D01*
X77109160Y-127829450D01*
X77109165Y-127829456D01*
X77260543Y-127980834D01*
X77260549Y-127980839D01*
X77435908Y-128103627D01*
X77435910Y-128103628D01*
X77435913Y-128103630D01*
X77580091Y-128170861D01*
X77634847Y-128196394D01*
X77634165Y-128197856D01*
X77684485Y-128234913D01*
X77709415Y-128300184D01*
X77695099Y-128368571D01*
X77646083Y-128418363D01*
X77634803Y-128423513D01*
X77634847Y-128423606D01*
X77629940Y-128425893D01*
X77629940Y-128425894D01*
X77605396Y-128437339D01*
X77435912Y-128516370D01*
X77435908Y-128516372D01*
X77260549Y-128639160D01*
X77260543Y-128639165D01*
X77109165Y-128790543D01*
X77109160Y-128790549D01*
X76986372Y-128965908D01*
X76986370Y-128965912D01*
X76895895Y-129159938D01*
X76895891Y-129159947D01*
X76840486Y-129366724D01*
X76840484Y-129366734D01*
X76821826Y-129579999D01*
X76821826Y-129580000D01*
X76840484Y-129793265D01*
X76840486Y-129793275D01*
X76895891Y-130000052D01*
X76895893Y-130000056D01*
X76895894Y-130000060D01*
X76962631Y-130143178D01*
X76986370Y-130194087D01*
X76986372Y-130194091D01*
X77109160Y-130369450D01*
X77109165Y-130369456D01*
X77260543Y-130520834D01*
X77260549Y-130520839D01*
X77435908Y-130643627D01*
X77435910Y-130643628D01*
X77435913Y-130643630D01*
X77629940Y-130734106D01*
X77634847Y-130736394D01*
X77634165Y-130737856D01*
X77684485Y-130774913D01*
X77709415Y-130840184D01*
X77695099Y-130908571D01*
X77646083Y-130958363D01*
X77634803Y-130963513D01*
X77634847Y-130963606D01*
X77629940Y-130965893D01*
X77629940Y-130965894D01*
X77623888Y-130968716D01*
X77435912Y-131056370D01*
X77435908Y-131056372D01*
X77260549Y-131179160D01*
X77260543Y-131179165D01*
X77109165Y-131330543D01*
X77109160Y-131330549D01*
X76986372Y-131505908D01*
X76986370Y-131505912D01*
X76895895Y-131699938D01*
X76895891Y-131699947D01*
X76840486Y-131906724D01*
X76840484Y-131906734D01*
X76821826Y-132119999D01*
X76821826Y-132120000D01*
X76840484Y-132333265D01*
X76840486Y-132333275D01*
X76895891Y-132540052D01*
X76895893Y-132540056D01*
X76895894Y-132540060D01*
X76947381Y-132650475D01*
X76986370Y-132734087D01*
X76986372Y-132734091D01*
X77109160Y-132909450D01*
X77109165Y-132909456D01*
X77260543Y-133060834D01*
X77260549Y-133060839D01*
X77435908Y-133183627D01*
X77435910Y-133183628D01*
X77435913Y-133183630D01*
X77629940Y-133274106D01*
X77836730Y-133329515D01*
X78007346Y-133344442D01*
X78049999Y-133348174D01*
X78050000Y-133348174D01*
X78050001Y-133348174D01*
X78085545Y-133345064D01*
X78263270Y-133329515D01*
X78470060Y-133274106D01*
X78664087Y-133183630D01*
X78839455Y-133060836D01*
X78990836Y-132909455D01*
X79113630Y-132734087D01*
X79204106Y-132540060D01*
X79259515Y-132333270D01*
X79278174Y-132120000D01*
X79275977Y-132094884D01*
X114895034Y-132094884D01*
X114895034Y-132094889D01*
X114914858Y-132321486D01*
X114914860Y-132321497D01*
X114973730Y-132541204D01*
X114973735Y-132541218D01*
X115069863Y-132747365D01*
X115120974Y-132820359D01*
X115800000Y-132141333D01*
X115800000Y-132147548D01*
X115827259Y-132249281D01*
X115879920Y-132340493D01*
X115954394Y-132414967D01*
X116045606Y-132467628D01*
X116147339Y-132494887D01*
X116153553Y-132494887D01*
X115474526Y-133173912D01*
X115547513Y-133225019D01*
X115547521Y-133225023D01*
X115753668Y-133321151D01*
X115753682Y-133321156D01*
X115973389Y-133380026D01*
X115973400Y-133380028D01*
X116199998Y-133399853D01*
X116200002Y-133399853D01*
X116426599Y-133380028D01*
X116426610Y-133380026D01*
X116646317Y-133321156D01*
X116646331Y-133321151D01*
X116852478Y-133225023D01*
X116925471Y-133173911D01*
X116246447Y-132494887D01*
X116252661Y-132494887D01*
X116354394Y-132467628D01*
X116445606Y-132414967D01*
X116520080Y-132340493D01*
X116572741Y-132249281D01*
X116600000Y-132147548D01*
X116600000Y-132141334D01*
X117279024Y-132820358D01*
X117330136Y-132747365D01*
X117426264Y-132541218D01*
X117426269Y-132541204D01*
X117485139Y-132321497D01*
X117485141Y-132321486D01*
X117504966Y-132094889D01*
X117504966Y-132094884D01*
X117485141Y-131868287D01*
X117485139Y-131868276D01*
X117426269Y-131648569D01*
X117426264Y-131648555D01*
X117330136Y-131442408D01*
X117330132Y-131442400D01*
X117279025Y-131369413D01*
X116600000Y-132048438D01*
X116600000Y-132042226D01*
X116572741Y-131940493D01*
X116520080Y-131849281D01*
X116445606Y-131774807D01*
X116354394Y-131722146D01*
X116252661Y-131694887D01*
X116246448Y-131694887D01*
X116930645Y-131010688D01*
X116940492Y-130961694D01*
X116989107Y-130911511D01*
X117044633Y-130896868D01*
X117044576Y-130895787D01*
X117044571Y-130895741D01*
X117044573Y-130895740D01*
X117044564Y-130895563D01*
X117047857Y-130895386D01*
X117047872Y-130895386D01*
X117107483Y-130888978D01*
X117242331Y-130838683D01*
X117357546Y-130752433D01*
X117443796Y-130637218D01*
X117494091Y-130502370D01*
X117500500Y-130442760D01*
X117500499Y-128747015D01*
X117494091Y-128687404D01*
X117483171Y-128658127D01*
X117443797Y-128552558D01*
X117443793Y-128552551D01*
X117357547Y-128437342D01*
X117357544Y-128437339D01*
X117242335Y-128351093D01*
X117242328Y-128351089D01*
X117107482Y-128300795D01*
X117107483Y-128300795D01*
X117047883Y-128294388D01*
X117047881Y-128294387D01*
X117047873Y-128294387D01*
X117047864Y-128294387D01*
X115352129Y-128294387D01*
X115352123Y-128294388D01*
X115292516Y-128300795D01*
X115157671Y-128351089D01*
X115157664Y-128351093D01*
X115042455Y-128437339D01*
X115042452Y-128437342D01*
X114956206Y-128552551D01*
X114956202Y-128552558D01*
X114905908Y-128687404D01*
X114900003Y-128742331D01*
X114899501Y-128747010D01*
X114899500Y-128747022D01*
X114899500Y-130442757D01*
X114899501Y-130442763D01*
X114905908Y-130502370D01*
X114956202Y-130637215D01*
X114956206Y-130637222D01*
X115042452Y-130752431D01*
X115042455Y-130752434D01*
X115157664Y-130838680D01*
X115157671Y-130838684D01*
X115161693Y-130840184D01*
X115292517Y-130888978D01*
X115352127Y-130895387D01*
X115352153Y-130895386D01*
X115355453Y-130895565D01*
X115355372Y-130897070D01*
X115416672Y-130914999D01*
X115462483Y-130967754D01*
X115470016Y-131011351D01*
X116153553Y-131694887D01*
X116147339Y-131694887D01*
X116045606Y-131722146D01*
X115954394Y-131774807D01*
X115879920Y-131849281D01*
X115827259Y-131940493D01*
X115800000Y-132042226D01*
X115800000Y-132048439D01*
X115120974Y-131369413D01*
X115120973Y-131369413D01*
X115069868Y-131442399D01*
X115069866Y-131442403D01*
X114973734Y-131648560D01*
X114973730Y-131648569D01*
X114914860Y-131868276D01*
X114914858Y-131868287D01*
X114895034Y-132094884D01*
X79275977Y-132094884D01*
X79259515Y-131906730D01*
X79209627Y-131720544D01*
X79211290Y-131650696D01*
X79241719Y-131600773D01*
X79360940Y-131481552D01*
X79422261Y-131448069D01*
X79491953Y-131453053D01*
X79547886Y-131494925D01*
X79550189Y-131498105D01*
X79649164Y-131639455D01*
X79649165Y-131639456D01*
X79800543Y-131790834D01*
X79800549Y-131790839D01*
X79975908Y-131913627D01*
X79975910Y-131913628D01*
X79975913Y-131913630D01*
X80169940Y-132004106D01*
X80376730Y-132059515D01*
X80547346Y-132074442D01*
X80589999Y-132078174D01*
X80590000Y-132078174D01*
X80590001Y-132078174D01*
X80625545Y-132075064D01*
X80803270Y-132059515D01*
X81010060Y-132004106D01*
X81204087Y-131913630D01*
X81379455Y-131790836D01*
X81530836Y-131639455D01*
X81653630Y-131464087D01*
X81744106Y-131270060D01*
X81799515Y-131063270D01*
X81818174Y-130850000D01*
X81799515Y-130636730D01*
X81744106Y-130429940D01*
X81741695Y-130424769D01*
X81651342Y-130231005D01*
X81652726Y-130230359D01*
X81637924Y-130169337D01*
X81660776Y-130103311D01*
X81674096Y-130087564D01*
X85509526Y-126252135D01*
X94319500Y-126252135D01*
X94319500Y-128547870D01*
X94319501Y-128547876D01*
X94325908Y-128607483D01*
X94376202Y-128742328D01*
X94376206Y-128742335D01*
X94462452Y-128857544D01*
X94462455Y-128857547D01*
X94577664Y-128943793D01*
X94577671Y-128943797D01*
X94712517Y-128994091D01*
X94712516Y-128994091D01*
X94719444Y-128994835D01*
X94772127Y-129000500D01*
X97067872Y-129000499D01*
X97127483Y-128994091D01*
X97262331Y-128943796D01*
X97377546Y-128857546D01*
X97463796Y-128742331D01*
X97514091Y-128607483D01*
X97520500Y-128547873D01*
X97520499Y-127400000D01*
X104474551Y-127400000D01*
X104494317Y-127651151D01*
X104553126Y-127896110D01*
X104649533Y-128128859D01*
X104781160Y-128343653D01*
X104781161Y-128343656D01*
X104816786Y-128385367D01*
X104944776Y-128535224D01*
X105066474Y-128639164D01*
X105136343Y-128698838D01*
X105136345Y-128698838D01*
X105144038Y-128703553D01*
X105351140Y-128830466D01*
X105563252Y-128918325D01*
X105583889Y-128926873D01*
X105828852Y-128985683D01*
X106080000Y-129005449D01*
X106331148Y-128985683D01*
X106576111Y-128926873D01*
X106808859Y-128830466D01*
X107023659Y-128698836D01*
X107215224Y-128535224D01*
X107378836Y-128343659D01*
X107510466Y-128128859D01*
X107606873Y-127896111D01*
X107665683Y-127651148D01*
X107685449Y-127400000D01*
X107665683Y-127148852D01*
X107606873Y-126903889D01*
X107593837Y-126872417D01*
X107510466Y-126671140D01*
X107378839Y-126456346D01*
X107378838Y-126456343D01*
X107288012Y-126350000D01*
X107215224Y-126264776D01*
X107065242Y-126136679D01*
X107023656Y-126101161D01*
X107023653Y-126101160D01*
X106808859Y-125969533D01*
X106576110Y-125873126D01*
X106331151Y-125814317D01*
X106080000Y-125794551D01*
X105828848Y-125814317D01*
X105583889Y-125873126D01*
X105351140Y-125969533D01*
X105136346Y-126101160D01*
X105136343Y-126101161D01*
X104944776Y-126264776D01*
X104781161Y-126456343D01*
X104781160Y-126456346D01*
X104649533Y-126671140D01*
X104553126Y-126903889D01*
X104494317Y-127148848D01*
X104474551Y-127400000D01*
X97520499Y-127400000D01*
X97520499Y-126252128D01*
X97514312Y-126194573D01*
X97514091Y-126192516D01*
X97463797Y-126057671D01*
X97463793Y-126057664D01*
X97377547Y-125942455D01*
X97377544Y-125942452D01*
X97262335Y-125856206D01*
X97262328Y-125856202D01*
X97127482Y-125805908D01*
X97127483Y-125805908D01*
X97067883Y-125799501D01*
X97067881Y-125799500D01*
X97067873Y-125799500D01*
X97067864Y-125799500D01*
X94772129Y-125799500D01*
X94772123Y-125799501D01*
X94712516Y-125805908D01*
X94577671Y-125856202D01*
X94577664Y-125856206D01*
X94462455Y-125942452D01*
X94462452Y-125942455D01*
X94376206Y-126057664D01*
X94376202Y-126057671D01*
X94325908Y-126192517D01*
X94319501Y-126252116D01*
X94319501Y-126252123D01*
X94319500Y-126252135D01*
X85509526Y-126252135D01*
X86161666Y-125599995D01*
X143744592Y-125599995D01*
X143744592Y-125600004D01*
X143764196Y-125861620D01*
X143764197Y-125861625D01*
X143764197Y-125861629D01*
X143764198Y-125861630D01*
X143769736Y-125885894D01*
X143822576Y-126117402D01*
X143822578Y-126117411D01*
X143822580Y-126117416D01*
X143918432Y-126361643D01*
X144049614Y-126588857D01*
X144171509Y-126741708D01*
X144213198Y-126793985D01*
X144359906Y-126930109D01*
X144405521Y-126972433D01*
X144622296Y-127120228D01*
X144622301Y-127120230D01*
X144622302Y-127120231D01*
X144622303Y-127120232D01*
X144735427Y-127174709D01*
X144858673Y-127234061D01*
X144858674Y-127234061D01*
X144858677Y-127234063D01*
X145109385Y-127311396D01*
X145368818Y-127350500D01*
X145631182Y-127350500D01*
X145890615Y-127311396D01*
X146141323Y-127234063D01*
X146359202Y-127129138D01*
X146377696Y-127120232D01*
X146377696Y-127120231D01*
X146377704Y-127120228D01*
X146594479Y-126972433D01*
X146752631Y-126825690D01*
X146786801Y-126793985D01*
X146786801Y-126793983D01*
X146786805Y-126793981D01*
X146950386Y-126588857D01*
X147081568Y-126361643D01*
X147177420Y-126117416D01*
X147235802Y-125861630D01*
X147235914Y-125860142D01*
X147255408Y-125600004D01*
X147255408Y-125599995D01*
X147235803Y-125338379D01*
X147235802Y-125338374D01*
X147235802Y-125338370D01*
X147177420Y-125082584D01*
X147081568Y-124838357D01*
X146950386Y-124611143D01*
X146786805Y-124406019D01*
X146786804Y-124406018D01*
X146786801Y-124406014D01*
X146674867Y-124302155D01*
X148750000Y-124302155D01*
X148750000Y-125350000D01*
X149899999Y-125350000D01*
X149874979Y-125410402D01*
X149850000Y-125535981D01*
X149850000Y-125664019D01*
X149874979Y-125789598D01*
X149899999Y-125850000D01*
X148750000Y-125850000D01*
X148750000Y-126897844D01*
X148756401Y-126957372D01*
X148756403Y-126957379D01*
X148806645Y-127092086D01*
X148806649Y-127092093D01*
X148892809Y-127207187D01*
X148892812Y-127207190D01*
X149007906Y-127293350D01*
X149007913Y-127293354D01*
X149142620Y-127343596D01*
X149142627Y-127343598D01*
X149202155Y-127349999D01*
X149202172Y-127350000D01*
X150250000Y-127350000D01*
X150250000Y-126200001D01*
X150310402Y-126225021D01*
X150435981Y-126250000D01*
X150564019Y-126250000D01*
X150689598Y-126225021D01*
X150750000Y-126200001D01*
X150750000Y-127350000D01*
X151797828Y-127350000D01*
X151797844Y-127349999D01*
X151857372Y-127343598D01*
X151857379Y-127343596D01*
X151992086Y-127293354D01*
X151992093Y-127293350D01*
X152107187Y-127207190D01*
X152107190Y-127207187D01*
X152193350Y-127092093D01*
X152193354Y-127092086D01*
X152243596Y-126957379D01*
X152243598Y-126957372D01*
X152249999Y-126897844D01*
X152250000Y-126897827D01*
X152250000Y-125850000D01*
X151100001Y-125850000D01*
X151125021Y-125789598D01*
X151150000Y-125664019D01*
X151150000Y-125535981D01*
X151125021Y-125410402D01*
X151100001Y-125350000D01*
X152250000Y-125350000D01*
X152250000Y-124302172D01*
X152249999Y-124302155D01*
X152243598Y-124242627D01*
X152243596Y-124242620D01*
X152193354Y-124107913D01*
X152193350Y-124107906D01*
X152107190Y-123992812D01*
X152107187Y-123992809D01*
X151992093Y-123906649D01*
X151992086Y-123906645D01*
X151857379Y-123856403D01*
X151857372Y-123856401D01*
X151797844Y-123850000D01*
X150750000Y-123850000D01*
X150750000Y-124999998D01*
X150689598Y-124974979D01*
X150564019Y-124950000D01*
X150435981Y-124950000D01*
X150310402Y-124974979D01*
X150250000Y-124999998D01*
X150250000Y-123850000D01*
X149202155Y-123850000D01*
X149142627Y-123856401D01*
X149142620Y-123856403D01*
X149007913Y-123906645D01*
X149007906Y-123906649D01*
X148892812Y-123992809D01*
X148892809Y-123992812D01*
X148806649Y-124107906D01*
X148806645Y-124107913D01*
X148756403Y-124242620D01*
X148756401Y-124242627D01*
X148750000Y-124302155D01*
X146674867Y-124302155D01*
X146594479Y-124227567D01*
X146564659Y-124207236D01*
X146377704Y-124079772D01*
X146377700Y-124079770D01*
X146377697Y-124079768D01*
X146377696Y-124079767D01*
X146143119Y-123966802D01*
X146141325Y-123965938D01*
X146141327Y-123965938D01*
X145890623Y-123888606D01*
X145890619Y-123888605D01*
X145890615Y-123888604D01*
X145765823Y-123869794D01*
X145631187Y-123849500D01*
X145631182Y-123849500D01*
X145368818Y-123849500D01*
X145368812Y-123849500D01*
X145207247Y-123873853D01*
X145109385Y-123888604D01*
X145109382Y-123888605D01*
X145109376Y-123888606D01*
X144858673Y-123965938D01*
X144622303Y-124079767D01*
X144622302Y-124079768D01*
X144405520Y-124227567D01*
X144213198Y-124406014D01*
X144049614Y-124611143D01*
X143918432Y-124838356D01*
X143822582Y-125082578D01*
X143822576Y-125082597D01*
X143764197Y-125338374D01*
X143764196Y-125338379D01*
X143744592Y-125599995D01*
X86161666Y-125599995D01*
X88724843Y-123036819D01*
X88786166Y-123003334D01*
X88812524Y-123000500D01*
X156698211Y-123000500D01*
X156765250Y-123020185D01*
X156811005Y-123072989D01*
X156820949Y-123142147D01*
X156791924Y-123205703D01*
X156734761Y-123242991D01*
X156658858Y-123266404D01*
X156658854Y-123266405D01*
X156422547Y-123380205D01*
X156422539Y-123380210D01*
X156250830Y-123497277D01*
X157052511Y-124298958D01*
X156992110Y-124323978D01*
X156885649Y-124395112D01*
X156795112Y-124485649D01*
X156723978Y-124592110D01*
X156698958Y-124652510D01*
X155897875Y-123851427D01*
X155897874Y-123851427D01*
X155850028Y-123911425D01*
X155718883Y-124138573D01*
X155623058Y-124382729D01*
X155564693Y-124638449D01*
X155564692Y-124638454D01*
X155545093Y-124899995D01*
X155545093Y-124900004D01*
X155564692Y-125161545D01*
X155564693Y-125161550D01*
X155623058Y-125417270D01*
X155718883Y-125661426D01*
X155718882Y-125661426D01*
X155850027Y-125888573D01*
X155897874Y-125948571D01*
X156698958Y-125147488D01*
X156723978Y-125207890D01*
X156795112Y-125314351D01*
X156885649Y-125404888D01*
X156992110Y-125476022D01*
X157052510Y-125501041D01*
X156250830Y-126302720D01*
X156422546Y-126419793D01*
X156422550Y-126419795D01*
X156658854Y-126533594D01*
X156658858Y-126533595D01*
X156909494Y-126610907D01*
X156909500Y-126610909D01*
X157168848Y-126649999D01*
X157168857Y-126650000D01*
X157431143Y-126650000D01*
X157431151Y-126649999D01*
X157690499Y-126610909D01*
X157690505Y-126610907D01*
X157941143Y-126533595D01*
X158177445Y-126419798D01*
X158177447Y-126419797D01*
X158349168Y-126302720D01*
X157547488Y-125501041D01*
X157607890Y-125476022D01*
X157714351Y-125404888D01*
X157804888Y-125314351D01*
X157876022Y-125207890D01*
X157901041Y-125147488D01*
X158702125Y-125948572D01*
X158749971Y-125888573D01*
X158881116Y-125661426D01*
X158976941Y-125417270D01*
X159035306Y-125161550D01*
X159035307Y-125161545D01*
X159054907Y-124900004D01*
X159054907Y-124899995D01*
X159035307Y-124638454D01*
X159035306Y-124638449D01*
X158976941Y-124382729D01*
X158881116Y-124138573D01*
X158881117Y-124138573D01*
X158749972Y-123911426D01*
X158702124Y-123851427D01*
X157901041Y-124652510D01*
X157876022Y-124592110D01*
X157804888Y-124485649D01*
X157714351Y-124395112D01*
X157607890Y-124323978D01*
X157547488Y-124298958D01*
X158349168Y-123497278D01*
X158177454Y-123380206D01*
X158177445Y-123380201D01*
X157941142Y-123266404D01*
X157941144Y-123266404D01*
X157865239Y-123242991D01*
X157806980Y-123204421D01*
X157778822Y-123140476D01*
X157789706Y-123071459D01*
X157836175Y-123019282D01*
X157901789Y-123000500D01*
X161696517Y-123000500D01*
X161763556Y-123020185D01*
X161809311Y-123072989D01*
X161819255Y-123142147D01*
X161790230Y-123205703D01*
X161733067Y-123242990D01*
X161696687Y-123254212D01*
X161658673Y-123265938D01*
X161422303Y-123379767D01*
X161422302Y-123379768D01*
X161422296Y-123379771D01*
X161422296Y-123379772D01*
X161421654Y-123380210D01*
X161205520Y-123527567D01*
X161013198Y-123706014D01*
X160849614Y-123911143D01*
X160718432Y-124138356D01*
X160622582Y-124382578D01*
X160622576Y-124382597D01*
X160564197Y-124638374D01*
X160564196Y-124638379D01*
X160544592Y-124899995D01*
X160544592Y-124900004D01*
X160564196Y-125161620D01*
X160564197Y-125161625D01*
X160564197Y-125161629D01*
X160564198Y-125161630D01*
X160566280Y-125170750D01*
X160622576Y-125417402D01*
X160622578Y-125417411D01*
X160622580Y-125417416D01*
X160718432Y-125661643D01*
X160849614Y-125888857D01*
X160973409Y-126044091D01*
X161013198Y-126093985D01*
X161169378Y-126238897D01*
X161205521Y-126272433D01*
X161422296Y-126420228D01*
X161422301Y-126420230D01*
X161422302Y-126420231D01*
X161422303Y-126420232D01*
X161506833Y-126460939D01*
X161658673Y-126534061D01*
X161658674Y-126534061D01*
X161658677Y-126534063D01*
X161909385Y-126611396D01*
X162168818Y-126650500D01*
X162431182Y-126650500D01*
X162690615Y-126611396D01*
X162941323Y-126534063D01*
X163137685Y-126439500D01*
X163177696Y-126420232D01*
X163177696Y-126420231D01*
X163177704Y-126420228D01*
X163394479Y-126272433D01*
X163561667Y-126117306D01*
X163586801Y-126093985D01*
X163586801Y-126093983D01*
X163586805Y-126093981D01*
X163750386Y-125888857D01*
X163881568Y-125661643D01*
X163977420Y-125417416D01*
X164035802Y-125161630D01*
X164035808Y-125161550D01*
X164055408Y-124900004D01*
X164055408Y-124899995D01*
X164035803Y-124638379D01*
X164035802Y-124638374D01*
X164035802Y-124638370D01*
X163977420Y-124382584D01*
X163881568Y-124138357D01*
X163750386Y-123911143D01*
X163586805Y-123706019D01*
X163586804Y-123706018D01*
X163586801Y-123706014D01*
X163394479Y-123527567D01*
X163350052Y-123497277D01*
X163177704Y-123379772D01*
X163177700Y-123379770D01*
X163177697Y-123379768D01*
X163177696Y-123379767D01*
X162941325Y-123265938D01*
X162941327Y-123265938D01*
X162903312Y-123254212D01*
X162866932Y-123242990D01*
X162808674Y-123204420D01*
X162780516Y-123140476D01*
X162791400Y-123071459D01*
X162837869Y-123019282D01*
X162903483Y-123000500D01*
X165709897Y-123000500D01*
X165776936Y-123020185D01*
X165822691Y-123072989D01*
X165832635Y-123142147D01*
X165803610Y-123205703D01*
X165784208Y-123223766D01*
X165692455Y-123292452D01*
X165692452Y-123292455D01*
X165606206Y-123407664D01*
X165606202Y-123407671D01*
X165555908Y-123542517D01*
X165552435Y-123574825D01*
X165549501Y-123602123D01*
X165549500Y-123602135D01*
X165549500Y-126197870D01*
X165549501Y-126197876D01*
X165555908Y-126257483D01*
X165606202Y-126392328D01*
X165606206Y-126392335D01*
X165692452Y-126507544D01*
X165692455Y-126507547D01*
X165807664Y-126593793D01*
X165807671Y-126593797D01*
X165942517Y-126644091D01*
X165942516Y-126644091D01*
X165949444Y-126644835D01*
X166002127Y-126650500D01*
X168597872Y-126650499D01*
X168657483Y-126644091D01*
X168792331Y-126593796D01*
X168907546Y-126507546D01*
X168993796Y-126392331D01*
X169044091Y-126257483D01*
X169050500Y-126197873D01*
X169050499Y-123602128D01*
X169044091Y-123542517D01*
X169039601Y-123530480D01*
X168993797Y-123407671D01*
X168993793Y-123407664D01*
X168907547Y-123292455D01*
X168907544Y-123292452D01*
X168815792Y-123223766D01*
X168773921Y-123167832D01*
X168768937Y-123098141D01*
X168802423Y-123036818D01*
X168863746Y-123003334D01*
X168890103Y-123000500D01*
X176137710Y-123000500D01*
X176204749Y-123020185D01*
X176242703Y-123058527D01*
X176270182Y-123102260D01*
X176270184Y-123102262D01*
X176397738Y-123229816D01*
X176479525Y-123281206D01*
X176544966Y-123322326D01*
X176550478Y-123325789D01*
X176669544Y-123367452D01*
X176720745Y-123385368D01*
X176720750Y-123385369D01*
X176899996Y-123405565D01*
X176900000Y-123405565D01*
X176900004Y-123405565D01*
X177079249Y-123385369D01*
X177079252Y-123385368D01*
X177079255Y-123385368D01*
X177249522Y-123325789D01*
X177402262Y-123229816D01*
X177529816Y-123102262D01*
X177537972Y-123089280D01*
X177557297Y-123058527D01*
X177609631Y-123012237D01*
X177662290Y-123000500D01*
X193299903Y-123000500D01*
X193366942Y-123020185D01*
X193387584Y-123036819D01*
X195315139Y-124964374D01*
X195315149Y-124964385D01*
X195319479Y-124968715D01*
X195319480Y-124968716D01*
X195431284Y-125080520D01*
X195504642Y-125122873D01*
X195568215Y-125159577D01*
X195720943Y-125200501D01*
X195720946Y-125200501D01*
X195886653Y-125200501D01*
X195886669Y-125200500D01*
X196836090Y-125200500D01*
X196903129Y-125220185D01*
X196948884Y-125272989D01*
X196957630Y-125325417D01*
X196960000Y-125325417D01*
X196960000Y-125730000D01*
X197660000Y-125730000D01*
X197660000Y-126230000D01*
X196960000Y-126230000D01*
X196960000Y-126628495D01*
X196998427Y-126821681D01*
X196998430Y-126821693D01*
X197073807Y-127003671D01*
X197073814Y-127003684D01*
X197183248Y-127167462D01*
X197183251Y-127167466D01*
X197322533Y-127306748D01*
X197322537Y-127306751D01*
X197486315Y-127416185D01*
X197486328Y-127416192D01*
X197668308Y-127491569D01*
X197710000Y-127499862D01*
X197710000Y-126696988D01*
X197719940Y-126714205D01*
X197775795Y-126770060D01*
X197844204Y-126809556D01*
X197920504Y-126830000D01*
X197999496Y-126830000D01*
X198075796Y-126809556D01*
X198144205Y-126770060D01*
X198200060Y-126714205D01*
X198210000Y-126696988D01*
X198210000Y-127499862D01*
X198251690Y-127491569D01*
X198251692Y-127491569D01*
X198433671Y-127416192D01*
X198433684Y-127416185D01*
X198597462Y-127306751D01*
X198597466Y-127306748D01*
X198736748Y-127167466D01*
X198736751Y-127167462D01*
X198846185Y-127003684D01*
X198846192Y-127003671D01*
X198921569Y-126821693D01*
X198921572Y-126821681D01*
X198959999Y-126628495D01*
X198960000Y-126628492D01*
X198960000Y-126111044D01*
X198979685Y-126044005D01*
X199032489Y-125998250D01*
X199101647Y-125988306D01*
X199146000Y-126003657D01*
X199167865Y-126016281D01*
X199314234Y-126055500D01*
X199314236Y-126055500D01*
X199465764Y-126055500D01*
X199465766Y-126055500D01*
X199612135Y-126016281D01*
X199743365Y-125940515D01*
X199850515Y-125833365D01*
X199926281Y-125702135D01*
X199965500Y-125555766D01*
X199965500Y-125404234D01*
X199952734Y-125356590D01*
X199954397Y-125286744D01*
X199993559Y-125228881D01*
X200057787Y-125201377D01*
X200072509Y-125200500D01*
X204487491Y-125200500D01*
X204554530Y-125220185D01*
X204600285Y-125272989D01*
X204610229Y-125342147D01*
X204607269Y-125356577D01*
X204594500Y-125404234D01*
X204594500Y-125555766D01*
X204607606Y-125604678D01*
X204633719Y-125702136D01*
X204646340Y-125723995D01*
X204709485Y-125833365D01*
X204816635Y-125940515D01*
X204947865Y-126016281D01*
X205094234Y-126055500D01*
X205094236Y-126055500D01*
X205245764Y-126055500D01*
X205245766Y-126055500D01*
X205392135Y-126016281D01*
X205413999Y-126003657D01*
X205481897Y-125987184D01*
X205547925Y-126010035D01*
X205591117Y-126064955D01*
X205600000Y-126111044D01*
X205600000Y-126628495D01*
X205638427Y-126821681D01*
X205638429Y-126821688D01*
X205653823Y-126858854D01*
X205661291Y-126928323D01*
X205630015Y-126990802D01*
X205569926Y-127026454D01*
X205539277Y-127030305D01*
X205483826Y-127030311D01*
X205483805Y-127030312D01*
X205444386Y-127030312D01*
X205444239Y-127030303D01*
X205415210Y-127030306D01*
X205415077Y-127030267D01*
X205281022Y-127030282D01*
X205118649Y-127062598D01*
X205118647Y-127062598D01*
X205118646Y-127062599D01*
X205047478Y-127092086D01*
X204965687Y-127125974D01*
X204965686Y-127125974D01*
X204892764Y-127174709D01*
X204826089Y-127195593D01*
X204758707Y-127177114D01*
X204754980Y-127174719D01*
X204681975Y-127125944D01*
X204528999Y-127062591D01*
X204366593Y-127030302D01*
X204283814Y-127030311D01*
X204283805Y-127030312D01*
X204244386Y-127030312D01*
X204244239Y-127030303D01*
X204215210Y-127030306D01*
X204215077Y-127030267D01*
X204081022Y-127030282D01*
X203918649Y-127062598D01*
X203918647Y-127062598D01*
X203918646Y-127062599D01*
X203872342Y-127081784D01*
X203765689Y-127125973D01*
X203628042Y-127217964D01*
X203510978Y-127335047D01*
X203419008Y-127472711D01*
X203419007Y-127472713D01*
X203382185Y-127561625D01*
X203338347Y-127616031D01*
X203272054Y-127638100D01*
X203226668Y-127631221D01*
X203179261Y-127614633D01*
X203179249Y-127614630D01*
X203000004Y-127594435D01*
X202999996Y-127594435D01*
X202820750Y-127614630D01*
X202820745Y-127614631D01*
X202650476Y-127674211D01*
X202497737Y-127770184D01*
X202387681Y-127880241D01*
X202326358Y-127913726D01*
X202256666Y-127908742D01*
X202212319Y-127880241D01*
X202102262Y-127770184D01*
X201949523Y-127674211D01*
X201779254Y-127614631D01*
X201779249Y-127614630D01*
X201600004Y-127594435D01*
X201599996Y-127594435D01*
X201420750Y-127614630D01*
X201420745Y-127614631D01*
X201250476Y-127674211D01*
X201097737Y-127770184D01*
X200970184Y-127897737D01*
X200874211Y-128050476D01*
X200814631Y-128220745D01*
X200814630Y-128220750D01*
X200794435Y-128399996D01*
X200794435Y-128400003D01*
X200814630Y-128579249D01*
X200814633Y-128579262D01*
X200833978Y-128634545D01*
X200837540Y-128704324D01*
X200802812Y-128764951D01*
X200740818Y-128797179D01*
X200716937Y-128799500D01*
X196762229Y-128799500D01*
X196695190Y-128779815D01*
X196674548Y-128763181D01*
X196531258Y-128619891D01*
X196378308Y-128466940D01*
X196355643Y-128430870D01*
X196353812Y-128431753D01*
X196350792Y-128425483D01*
X196334780Y-128400000D01*
X196254816Y-128272738D01*
X196127262Y-128145184D01*
X196101281Y-128128859D01*
X195974523Y-128049211D01*
X195804254Y-127989631D01*
X195804249Y-127989630D01*
X195625004Y-127969435D01*
X195624996Y-127969435D01*
X195445750Y-127989630D01*
X195445745Y-127989631D01*
X195275476Y-128049211D01*
X195122737Y-128145184D01*
X194995184Y-128272737D01*
X194899211Y-128425476D01*
X194839631Y-128595745D01*
X194839630Y-128595750D01*
X194819435Y-128774996D01*
X194819435Y-128775003D01*
X194839630Y-128954249D01*
X194839631Y-128954254D01*
X194899211Y-129124523D01*
X194992684Y-129273284D01*
X194995184Y-129277262D01*
X195122738Y-129404816D01*
X195275478Y-129500789D01*
X195275483Y-129500792D01*
X195281753Y-129503812D01*
X195280866Y-129505652D01*
X195316939Y-129528307D01*
X195921579Y-130132947D01*
X195921580Y-130132947D01*
X195921585Y-130132952D01*
X195933794Y-130141109D01*
X195936889Y-130143178D01*
X195936890Y-130143178D01*
X195936891Y-130143179D01*
X196044505Y-130215084D01*
X196044506Y-130215084D01*
X196044507Y-130215085D01*
X196084824Y-130231785D01*
X196084825Y-130231785D01*
X196181088Y-130271659D01*
X196295170Y-130294351D01*
X196315778Y-130298450D01*
X196326081Y-130300500D01*
X196326082Y-130300500D01*
X196326083Y-130300500D01*
X196473918Y-130300500D01*
X205387770Y-130300500D01*
X205454809Y-130320185D01*
X205475451Y-130336819D01*
X212213181Y-137074548D01*
X212246666Y-137135871D01*
X212249500Y-137162229D01*
X212249500Y-138900028D01*
X212242542Y-138940982D01*
X212214631Y-139020747D01*
X212194435Y-139199996D01*
X212194435Y-139200003D01*
X212214630Y-139379249D01*
X212214631Y-139379254D01*
X212274211Y-139549523D01*
X212330521Y-139639139D01*
X212370184Y-139702262D01*
X212497738Y-139829816D01*
X212549718Y-139862477D01*
X212627571Y-139911396D01*
X212650478Y-139925789D01*
X212721098Y-139950500D01*
X212820745Y-139985368D01*
X212820750Y-139985369D01*
X212999996Y-140005565D01*
X213000000Y-140005565D01*
X213000004Y-140005565D01*
X213179249Y-139985369D01*
X213179252Y-139985368D01*
X213179255Y-139985368D01*
X213349522Y-139925789D01*
X213502262Y-139829816D01*
X213629816Y-139702262D01*
X213725789Y-139549522D01*
X213785368Y-139379255D01*
X213787537Y-139360004D01*
X213805565Y-139200003D01*
X213805565Y-139199996D01*
X213788503Y-139048571D01*
X213785368Y-139020745D01*
X213757458Y-138940982D01*
X213750500Y-138900028D01*
X213750500Y-136726079D01*
X213721659Y-136581092D01*
X213721658Y-136581091D01*
X213721658Y-136581087D01*
X213712746Y-136559571D01*
X213665087Y-136444511D01*
X213665080Y-136444498D01*
X213582952Y-136321585D01*
X213531551Y-136270184D01*
X213478416Y-136217049D01*
X210249186Y-132987819D01*
X206873549Y-129612181D01*
X206840064Y-129550858D01*
X206845048Y-129481166D01*
X206886920Y-129425233D01*
X206952384Y-129400816D01*
X206961230Y-129400500D01*
X210145500Y-129400500D01*
X210212539Y-129420185D01*
X210258294Y-129472989D01*
X210269500Y-129524500D01*
X210269500Y-130797870D01*
X210269501Y-130797876D01*
X210275908Y-130857483D01*
X210326202Y-130992328D01*
X210326206Y-130992335D01*
X210412452Y-131107544D01*
X210412455Y-131107547D01*
X210527664Y-131193793D01*
X210527671Y-131193797D01*
X210662517Y-131244091D01*
X210662516Y-131244091D01*
X210669444Y-131244835D01*
X210722127Y-131250500D01*
X211869902Y-131250499D01*
X211936941Y-131270184D01*
X211957582Y-131286817D01*
X214951284Y-134280520D01*
X214951286Y-134280521D01*
X214951290Y-134280524D01*
X214984198Y-134299523D01*
X215088216Y-134359577D01*
X215240943Y-134400501D01*
X215240945Y-134400501D01*
X215406654Y-134400501D01*
X215406670Y-134400500D01*
X226604074Y-134400500D01*
X226671113Y-134420185D01*
X226716868Y-134472989D01*
X226726812Y-134542147D01*
X226717630Y-134574311D01*
X226701411Y-134611285D01*
X226640387Y-134852261D01*
X226640385Y-134852270D01*
X226619859Y-135099994D01*
X226619859Y-135100005D01*
X226640385Y-135347729D01*
X226640387Y-135347738D01*
X226701412Y-135588717D01*
X226801266Y-135816364D01*
X226901564Y-135969882D01*
X227601212Y-135270233D01*
X227612482Y-135312292D01*
X227684890Y-135437708D01*
X227787292Y-135540110D01*
X227912708Y-135612518D01*
X227954765Y-135623787D01*
X227254942Y-136323609D01*
X227301768Y-136360055D01*
X227301770Y-136360056D01*
X227520385Y-136478364D01*
X227520396Y-136478369D01*
X227755506Y-136559083D01*
X228000707Y-136600000D01*
X228249293Y-136600000D01*
X228494493Y-136559083D01*
X228729603Y-136478369D01*
X228729614Y-136478364D01*
X228948228Y-136360057D01*
X228948231Y-136360055D01*
X228995056Y-136323609D01*
X228295234Y-135623787D01*
X228337292Y-135612518D01*
X228462708Y-135540110D01*
X228565110Y-135437708D01*
X228637518Y-135312292D01*
X228648787Y-135270235D01*
X229348434Y-135969882D01*
X229448732Y-135816367D01*
X229518973Y-135656233D01*
X229563928Y-135602747D01*
X229630664Y-135582056D01*
X229697992Y-135600730D01*
X229737521Y-135640068D01*
X229745180Y-135652257D01*
X229747445Y-135655097D01*
X229748335Y-135657278D01*
X229748887Y-135658156D01*
X229748733Y-135658252D01*
X229773855Y-135719783D01*
X229774500Y-135732412D01*
X229774500Y-139042060D01*
X229754815Y-139109099D01*
X229738181Y-139129741D01*
X229670184Y-139197737D01*
X229574211Y-139350476D01*
X229514631Y-139520745D01*
X229514630Y-139520750D01*
X229494435Y-139699996D01*
X229494435Y-139700003D01*
X229514630Y-139879249D01*
X229514631Y-139879254D01*
X229574211Y-140049523D01*
X229637838Y-140150784D01*
X229670184Y-140202262D01*
X229797738Y-140329816D01*
X229871860Y-140376390D01*
X229933813Y-140415318D01*
X229950478Y-140425789D01*
X230036556Y-140455909D01*
X230120745Y-140485368D01*
X230120750Y-140485369D01*
X230299996Y-140505565D01*
X230300000Y-140505565D01*
X230300004Y-140505565D01*
X230479249Y-140485369D01*
X230479252Y-140485368D01*
X230479255Y-140485368D01*
X230649522Y-140425789D01*
X230802262Y-140329816D01*
X230929816Y-140202262D01*
X231025789Y-140049522D01*
X231085368Y-139879255D01*
X231086414Y-139869970D01*
X231105565Y-139700003D01*
X231105565Y-139699996D01*
X231085369Y-139520750D01*
X231085366Y-139520737D01*
X231025790Y-139350479D01*
X230994506Y-139300690D01*
X230975500Y-139234719D01*
X230975500Y-135732412D01*
X230995185Y-135665373D01*
X231002555Y-135655097D01*
X231004813Y-135652265D01*
X231004816Y-135652262D01*
X231012154Y-135640582D01*
X231064485Y-135594292D01*
X231133539Y-135583642D01*
X231197388Y-135612015D01*
X231230704Y-135656744D01*
X231300826Y-135816606D01*
X231436833Y-136024782D01*
X231436836Y-136024785D01*
X231605256Y-136207738D01*
X231801491Y-136360474D01*
X231910840Y-136419651D01*
X232019332Y-136478364D01*
X232020190Y-136478828D01*
X232228893Y-136550476D01*
X232253964Y-136559083D01*
X232255386Y-136559571D01*
X232500665Y-136600500D01*
X232749335Y-136600500D01*
X232994608Y-136559572D01*
X232994607Y-136559572D01*
X232994614Y-136559571D01*
X233100607Y-136523182D01*
X233170402Y-136520033D01*
X233228548Y-136552783D01*
X237538181Y-140862416D01*
X237571666Y-140923739D01*
X237574500Y-140950097D01*
X237574500Y-141367587D01*
X237554815Y-141434626D01*
X237547450Y-141444896D01*
X237545186Y-141447734D01*
X237449211Y-141600476D01*
X237389631Y-141770745D01*
X237389630Y-141770750D01*
X237369435Y-141949996D01*
X237369435Y-141950003D01*
X237389630Y-142129249D01*
X237389631Y-142129254D01*
X237449211Y-142299523D01*
X237499662Y-142379815D01*
X237545184Y-142452262D01*
X237672738Y-142579816D01*
X237734774Y-142618796D01*
X237825014Y-142675498D01*
X237825478Y-142675789D01*
X237995745Y-142735368D01*
X237995750Y-142735369D01*
X238174996Y-142755565D01*
X238175000Y-142755565D01*
X238175004Y-142755565D01*
X238354249Y-142735369D01*
X238354252Y-142735368D01*
X238354255Y-142735368D01*
X238524522Y-142675789D01*
X238677262Y-142579816D01*
X238804816Y-142452262D01*
X238900789Y-142299522D01*
X238960368Y-142129255D01*
X238964917Y-142088881D01*
X238980565Y-141950003D01*
X238980565Y-141949996D01*
X238960369Y-141770750D01*
X238960368Y-141770745D01*
X238943340Y-141722082D01*
X238900789Y-141600478D01*
X238882106Y-141570745D01*
X238804813Y-141447734D01*
X238802550Y-141444896D01*
X238801659Y-141442715D01*
X238801111Y-141441842D01*
X238801264Y-141441745D01*
X238776144Y-141380209D01*
X238775500Y-141367587D01*
X238775500Y-140570941D01*
X238774909Y-140568734D01*
X238758154Y-140506204D01*
X238734577Y-140418215D01*
X238732904Y-140415318D01*
X238699129Y-140356818D01*
X238699129Y-140356817D01*
X238655522Y-140281287D01*
X238655521Y-140281286D01*
X238655520Y-140281284D01*
X238543716Y-140169480D01*
X238543715Y-140169479D01*
X238539385Y-140165149D01*
X238539374Y-140165139D01*
X238477021Y-140102786D01*
X238443536Y-140041463D01*
X238448520Y-139971771D01*
X238490392Y-139915838D01*
X238555856Y-139891421D01*
X238578586Y-139891885D01*
X238699997Y-139905565D01*
X238700000Y-139905565D01*
X238700004Y-139905565D01*
X238879249Y-139885369D01*
X238879252Y-139885368D01*
X238879255Y-139885368D01*
X239049522Y-139825789D01*
X239202262Y-139729816D01*
X239220897Y-139711180D01*
X239282215Y-139677696D01*
X239351907Y-139682677D01*
X239396259Y-139711180D01*
X240224453Y-140539374D01*
X240224463Y-140539385D01*
X240228793Y-140543715D01*
X240228794Y-140543716D01*
X240340598Y-140655520D01*
X240421558Y-140702262D01*
X240477529Y-140734577D01*
X240630257Y-140775500D01*
X250100500Y-140775500D01*
X250167539Y-140795185D01*
X250213294Y-140847989D01*
X250224500Y-140899500D01*
X250224500Y-142222870D01*
X250224501Y-142222876D01*
X250230908Y-142282483D01*
X250281202Y-142417328D01*
X250281206Y-142417335D01*
X250367452Y-142532544D01*
X250367455Y-142532547D01*
X250482664Y-142618793D01*
X250482671Y-142618797D01*
X250617517Y-142669091D01*
X250617516Y-142669091D01*
X250624444Y-142669835D01*
X250677127Y-142675500D01*
X252472872Y-142675499D01*
X252532483Y-142669091D01*
X252667331Y-142618796D01*
X252782546Y-142532546D01*
X252868796Y-142417331D01*
X252917810Y-142285916D01*
X252959681Y-142229984D01*
X253025145Y-142205566D01*
X253093418Y-142220417D01*
X253121673Y-142241569D01*
X253243599Y-142363495D01*
X253330822Y-142424569D01*
X253437165Y-142499032D01*
X253437167Y-142499033D01*
X253437170Y-142499035D01*
X253651337Y-142598903D01*
X253879592Y-142660063D01*
X254059337Y-142675789D01*
X254114999Y-142680659D01*
X254115000Y-142680659D01*
X254115001Y-142680659D01*
X254170663Y-142675789D01*
X254350408Y-142660063D01*
X254578663Y-142598903D01*
X254792830Y-142499035D01*
X254986401Y-142363495D01*
X255153495Y-142196401D01*
X255283425Y-142010842D01*
X255338002Y-141967217D01*
X255407500Y-141960023D01*
X255469855Y-141991546D01*
X255486575Y-142010842D01*
X255616281Y-142196082D01*
X255616505Y-142196401D01*
X255783599Y-142363495D01*
X255870822Y-142424569D01*
X255977165Y-142499032D01*
X255977167Y-142499033D01*
X255977170Y-142499035D01*
X256191337Y-142598903D01*
X256419592Y-142660063D01*
X256599337Y-142675789D01*
X256654999Y-142680659D01*
X256655000Y-142680659D01*
X256655001Y-142680659D01*
X256710663Y-142675789D01*
X256890408Y-142660063D01*
X257118663Y-142598903D01*
X257332830Y-142499035D01*
X257526401Y-142363495D01*
X257693495Y-142196401D01*
X257823730Y-142010405D01*
X257878307Y-141966781D01*
X257947805Y-141959587D01*
X258010160Y-141991110D01*
X258026879Y-142010405D01*
X258156890Y-142196078D01*
X258323917Y-142363105D01*
X258517421Y-142498600D01*
X258731507Y-142598429D01*
X258731516Y-142598433D01*
X258945000Y-142655634D01*
X258945000Y-141758012D01*
X259002007Y-141790925D01*
X259129174Y-141825000D01*
X259260826Y-141825000D01*
X259387993Y-141790925D01*
X259445000Y-141758012D01*
X259445000Y-142655633D01*
X259658483Y-142598433D01*
X259658492Y-142598429D01*
X259872578Y-142498600D01*
X260066082Y-142363105D01*
X260233105Y-142196082D01*
X260368600Y-142002578D01*
X260468429Y-141788492D01*
X260468432Y-141788486D01*
X260525636Y-141575000D01*
X259628012Y-141575000D01*
X259660925Y-141517993D01*
X259695000Y-141390826D01*
X259695000Y-141259174D01*
X259660925Y-141132007D01*
X259628012Y-141075000D01*
X260525636Y-141075000D01*
X260525635Y-141074999D01*
X260468432Y-140861513D01*
X260468429Y-140861507D01*
X260402722Y-140720597D01*
X260392230Y-140651520D01*
X260420750Y-140587736D01*
X260449127Y-140563202D01*
X260502262Y-140529816D01*
X260629816Y-140402262D01*
X260725789Y-140249522D01*
X260785368Y-140079255D01*
X260790645Y-140032423D01*
X260817711Y-139968008D01*
X260875305Y-139928453D01*
X260945142Y-139926314D01*
X261001546Y-139958624D01*
X261072738Y-140029816D01*
X261225478Y-140125789D01*
X261350334Y-140169478D01*
X261395745Y-140185368D01*
X261395750Y-140185369D01*
X261574996Y-140205565D01*
X261575000Y-140205565D01*
X261575004Y-140205565D01*
X261754249Y-140185369D01*
X261754252Y-140185368D01*
X261754255Y-140185368D01*
X261924522Y-140125789D01*
X262077262Y-140029816D01*
X262204816Y-139902262D01*
X262300789Y-139749522D01*
X262360368Y-139579255D01*
X262362821Y-139557483D01*
X262380565Y-139400003D01*
X262380565Y-139399996D01*
X262360369Y-139220750D01*
X262360368Y-139220745D01*
X262353108Y-139199996D01*
X262300789Y-139050478D01*
X262299591Y-139048572D01*
X262219493Y-138921097D01*
X262204816Y-138897738D01*
X262077262Y-138770184D01*
X261996459Y-138719412D01*
X261924521Y-138674210D01*
X261754249Y-138614630D01*
X261667332Y-138604837D01*
X261602918Y-138577770D01*
X261593535Y-138569298D01*
X261555523Y-138531286D01*
X261555520Y-138531284D01*
X261443717Y-138419481D01*
X261443716Y-138419480D01*
X261330485Y-138354106D01*
X261330485Y-138354105D01*
X261330480Y-138354104D01*
X261318187Y-138347006D01*
X261306786Y-138340423D01*
X261263009Y-138328693D01*
X261154057Y-138299499D01*
X260995943Y-138299499D01*
X260988347Y-138299499D01*
X260988331Y-138299500D01*
X243895808Y-138299500D01*
X243828769Y-138279815D01*
X243808127Y-138263181D01*
X242407127Y-136862181D01*
X242373642Y-136800858D01*
X242378626Y-136731166D01*
X242420498Y-136675233D01*
X242485962Y-136650816D01*
X242494808Y-136650500D01*
X253967209Y-136650500D01*
X254034248Y-136670185D01*
X254080003Y-136722989D01*
X254084251Y-136733546D01*
X254111710Y-136812021D01*
X254196294Y-136946635D01*
X254207684Y-136964762D01*
X254335238Y-137092316D01*
X254364762Y-137110867D01*
X254480615Y-137183663D01*
X254487978Y-137188289D01*
X254658245Y-137247868D01*
X254658250Y-137247869D01*
X254837496Y-137268065D01*
X254837500Y-137268065D01*
X254837504Y-137268065D01*
X255016749Y-137247869D01*
X255016752Y-137247868D01*
X255016755Y-137247868D01*
X255187022Y-137188289D01*
X255339762Y-137092316D01*
X255467316Y-136964762D01*
X255563289Y-136812022D01*
X255622868Y-136641755D01*
X255624467Y-136627567D01*
X255643065Y-136462503D01*
X255643065Y-136462496D01*
X255623448Y-136288383D01*
X255635503Y-136219561D01*
X255682852Y-136168182D01*
X255746668Y-136150500D01*
X256804521Y-136150500D01*
X256871560Y-136170185D01*
X256909515Y-136208528D01*
X256970891Y-136306206D01*
X257007684Y-136364762D01*
X257135238Y-136492316D01*
X257217631Y-136544087D01*
X257284196Y-136585913D01*
X257287978Y-136588289D01*
X257400228Y-136627567D01*
X257458245Y-136647868D01*
X257458250Y-136647869D01*
X257637496Y-136668065D01*
X257637500Y-136668065D01*
X257637504Y-136668065D01*
X257816749Y-136647869D01*
X257816752Y-136647868D01*
X257816755Y-136647868D01*
X257987022Y-136588289D01*
X258139762Y-136492316D01*
X258267316Y-136364762D01*
X258363289Y-136212022D01*
X258422868Y-136041755D01*
X258424780Y-136024785D01*
X258443065Y-135862503D01*
X258443065Y-135862496D01*
X258422869Y-135683250D01*
X258422868Y-135683245D01*
X258416614Y-135665373D01*
X258363289Y-135512978D01*
X258286312Y-135390471D01*
X258267313Y-135323236D01*
X258287681Y-135256400D01*
X258340948Y-135211186D01*
X258391307Y-135200500D01*
X260869932Y-135200500D01*
X260935904Y-135219506D01*
X261025477Y-135275789D01*
X261025481Y-135275790D01*
X261195737Y-135335366D01*
X261195743Y-135335367D01*
X261195745Y-135335368D01*
X261195746Y-135335368D01*
X261195750Y-135335369D01*
X261374996Y-135355565D01*
X261375000Y-135355565D01*
X261375004Y-135355565D01*
X261554249Y-135335369D01*
X261554252Y-135335368D01*
X261554255Y-135335368D01*
X261724522Y-135275789D01*
X261877262Y-135179816D01*
X262004816Y-135052262D01*
X262100789Y-134899522D01*
X262160368Y-134729255D01*
X262161356Y-134720485D01*
X262180565Y-134550003D01*
X262180565Y-134549996D01*
X262160369Y-134370750D01*
X262160368Y-134370745D01*
X262100788Y-134200476D01*
X262004815Y-134047737D01*
X261877262Y-133920184D01*
X261724523Y-133824211D01*
X261554254Y-133764631D01*
X261554249Y-133764630D01*
X261375004Y-133744435D01*
X261374996Y-133744435D01*
X261195750Y-133764630D01*
X261195737Y-133764633D01*
X261025481Y-133824209D01*
X261025477Y-133824210D01*
X260935904Y-133880494D01*
X260869932Y-133899500D01*
X254091322Y-133899500D01*
X254024283Y-133879815D01*
X253978528Y-133827011D01*
X253968102Y-133789383D01*
X253960369Y-133720750D01*
X253960368Y-133720748D01*
X253960368Y-133720745D01*
X253900789Y-133550478D01*
X253804816Y-133397738D01*
X253677262Y-133270184D01*
X253605389Y-133225023D01*
X253524521Y-133174210D01*
X253424989Y-133139383D01*
X253354255Y-133114632D01*
X253354252Y-133114631D01*
X253349621Y-133113011D01*
X253292845Y-133072289D01*
X253273533Y-133036923D01*
X253256351Y-132987819D01*
X253225789Y-132900478D01*
X253225788Y-132900476D01*
X253194506Y-132850690D01*
X253175500Y-132784719D01*
X253175500Y-129766660D01*
X255596892Y-129766660D01*
X255596892Y-129766661D01*
X255610692Y-129775333D01*
X255610691Y-129775333D01*
X255780861Y-129834878D01*
X255959997Y-129855062D01*
X255960003Y-129855062D01*
X256139138Y-129834878D01*
X256139141Y-129834877D01*
X256309305Y-129775334D01*
X256309306Y-129775334D01*
X256323106Y-129766661D01*
X256323106Y-129766660D01*
X256996892Y-129766660D01*
X256996892Y-129766661D01*
X257010692Y-129775333D01*
X257010691Y-129775333D01*
X257180861Y-129834878D01*
X257359997Y-129855062D01*
X257360003Y-129855062D01*
X257539138Y-129834878D01*
X257539141Y-129834877D01*
X257709305Y-129775334D01*
X257709306Y-129775334D01*
X257723106Y-129766661D01*
X257723106Y-129766660D01*
X257360001Y-129403553D01*
X257360000Y-129403553D01*
X256996892Y-129766660D01*
X256323106Y-129766660D01*
X255960001Y-129403553D01*
X255960000Y-129403553D01*
X255596892Y-129766660D01*
X253175500Y-129766660D01*
X253175500Y-129066660D01*
X254896892Y-129066660D01*
X254896892Y-129066661D01*
X254910692Y-129075333D01*
X254910691Y-129075333D01*
X255080862Y-129134878D01*
X255081644Y-129135057D01*
X255082097Y-129135310D01*
X255087431Y-129137177D01*
X255087104Y-129138111D01*
X255142623Y-129169166D01*
X255171952Y-129222874D01*
X255172822Y-129222570D01*
X255174670Y-129227852D01*
X255174940Y-129228346D01*
X255175121Y-129229142D01*
X255234663Y-129399300D01*
X255234663Y-129399301D01*
X255243338Y-129413107D01*
X255606446Y-129050000D01*
X255586555Y-129030109D01*
X255860000Y-129030109D01*
X255860000Y-129069891D01*
X255875224Y-129106645D01*
X255903355Y-129134776D01*
X255940109Y-129150000D01*
X255979891Y-129150000D01*
X256016645Y-129134776D01*
X256044776Y-129106645D01*
X256060000Y-129069891D01*
X256060000Y-129049999D01*
X256313553Y-129049999D01*
X256313553Y-129050000D01*
X256660000Y-129396446D01*
X256660001Y-129396446D01*
X257006446Y-129050000D01*
X256986555Y-129030109D01*
X257260000Y-129030109D01*
X257260000Y-129069891D01*
X257275224Y-129106645D01*
X257303355Y-129134776D01*
X257340109Y-129150000D01*
X257379891Y-129150000D01*
X257416645Y-129134776D01*
X257444776Y-129106645D01*
X257460000Y-129069891D01*
X257460000Y-129050000D01*
X257713553Y-129050000D01*
X258076660Y-129413106D01*
X258076661Y-129413106D01*
X258085334Y-129399306D01*
X258085334Y-129399305D01*
X258144876Y-129229144D01*
X258145056Y-129228358D01*
X258145311Y-129227901D01*
X258147177Y-129222570D01*
X258148110Y-129222896D01*
X258179164Y-129167379D01*
X258232875Y-129138049D01*
X258232570Y-129137177D01*
X258237870Y-129135322D01*
X258238358Y-129135056D01*
X258239144Y-129134876D01*
X258409305Y-129075334D01*
X258409306Y-129075334D01*
X258423106Y-129066661D01*
X258423106Y-129066660D01*
X258060000Y-128703553D01*
X258059999Y-128703553D01*
X258021225Y-128742329D01*
X258021223Y-128742331D01*
X257713553Y-129050000D01*
X257460000Y-129050000D01*
X257460000Y-129030109D01*
X257444776Y-128993355D01*
X257416645Y-128965224D01*
X257379891Y-128950000D01*
X257340109Y-128950000D01*
X257303355Y-128965224D01*
X257275224Y-128993355D01*
X257260000Y-129030109D01*
X256986555Y-129030109D01*
X256698776Y-128742330D01*
X256660000Y-128703553D01*
X256621224Y-128742330D01*
X256621223Y-128742331D01*
X256313553Y-129049999D01*
X256060000Y-129049999D01*
X256060000Y-129030109D01*
X256044776Y-128993355D01*
X256016645Y-128965224D01*
X255979891Y-128950000D01*
X255940109Y-128950000D01*
X255903355Y-128965224D01*
X255875224Y-128993355D01*
X255860000Y-129030109D01*
X255586555Y-129030109D01*
X255259999Y-128703553D01*
X255259998Y-128703553D01*
X254896892Y-129066660D01*
X253175500Y-129066660D01*
X253175500Y-128447413D01*
X253175498Y-128447404D01*
X253172802Y-128437341D01*
X253170583Y-128429058D01*
X253149398Y-128349997D01*
X254454938Y-128349997D01*
X254454938Y-128350002D01*
X254475121Y-128529138D01*
X254534665Y-128699304D01*
X254543338Y-128713107D01*
X254906446Y-128350000D01*
X254906446Y-128349999D01*
X254886556Y-128330109D01*
X255160000Y-128330109D01*
X255160000Y-128369891D01*
X255175224Y-128406645D01*
X255203355Y-128434776D01*
X255240109Y-128450000D01*
X255279891Y-128450000D01*
X255316645Y-128434776D01*
X255344776Y-128406645D01*
X255360000Y-128369891D01*
X255360000Y-128349998D01*
X255613553Y-128349998D01*
X255613553Y-128349999D01*
X255960000Y-128696446D01*
X256271079Y-128385368D01*
X256306446Y-128349999D01*
X256306446Y-128349998D01*
X256286557Y-128330109D01*
X256560000Y-128330109D01*
X256560000Y-128369891D01*
X256575224Y-128406645D01*
X256603355Y-128434776D01*
X256640109Y-128450000D01*
X256679891Y-128450000D01*
X256716645Y-128434776D01*
X256744776Y-128406645D01*
X256760000Y-128369891D01*
X256760000Y-128349998D01*
X257013553Y-128349998D01*
X257013553Y-128349999D01*
X257360000Y-128696446D01*
X257671079Y-128385368D01*
X257706446Y-128349999D01*
X257706446Y-128349998D01*
X257686557Y-128330109D01*
X257960000Y-128330109D01*
X257960000Y-128369891D01*
X257975224Y-128406645D01*
X258003355Y-128434776D01*
X258040109Y-128450000D01*
X258079891Y-128450000D01*
X258116645Y-128434776D01*
X258144776Y-128406645D01*
X258160000Y-128369891D01*
X258160000Y-128350000D01*
X258413553Y-128350000D01*
X258776660Y-128713106D01*
X258776661Y-128713106D01*
X258785334Y-128699306D01*
X258785334Y-128699305D01*
X258844877Y-128529141D01*
X258844878Y-128529138D01*
X258865062Y-128350002D01*
X258865062Y-128349997D01*
X258844878Y-128170861D01*
X258785333Y-128000692D01*
X258776661Y-127986892D01*
X258776660Y-127986892D01*
X258413553Y-128350000D01*
X258160000Y-128350000D01*
X258160000Y-128330109D01*
X258144776Y-128293355D01*
X258116645Y-128265224D01*
X258079891Y-128250000D01*
X258040109Y-128250000D01*
X258003355Y-128265224D01*
X257975224Y-128293355D01*
X257960000Y-128330109D01*
X257686557Y-128330109D01*
X257360001Y-128003553D01*
X257360000Y-128003553D01*
X257013553Y-128349998D01*
X256760000Y-128349998D01*
X256760000Y-128330109D01*
X256744776Y-128293355D01*
X256716645Y-128265224D01*
X256679891Y-128250000D01*
X256640109Y-128250000D01*
X256603355Y-128265224D01*
X256575224Y-128293355D01*
X256560000Y-128330109D01*
X256286557Y-128330109D01*
X255960001Y-128003553D01*
X255960000Y-128003553D01*
X255613553Y-128349998D01*
X255360000Y-128349998D01*
X255360000Y-128330109D01*
X255344776Y-128293355D01*
X255316645Y-128265224D01*
X255279891Y-128250000D01*
X255240109Y-128250000D01*
X255203355Y-128265224D01*
X255175224Y-128293355D01*
X255160000Y-128330109D01*
X254886556Y-128330109D01*
X254543338Y-127986891D01*
X254543337Y-127986891D01*
X254534667Y-128000691D01*
X254534662Y-128000701D01*
X254475122Y-128170858D01*
X254475121Y-128170861D01*
X254454938Y-128349997D01*
X253149398Y-128349997D01*
X253134577Y-128294683D01*
X253093711Y-128223901D01*
X253093711Y-128223900D01*
X253055524Y-128157758D01*
X253055521Y-128157754D01*
X253055520Y-128157752D01*
X252943716Y-128045948D01*
X252943715Y-128045947D01*
X252939385Y-128041617D01*
X252939374Y-128041607D01*
X252547767Y-127650000D01*
X254913553Y-127650000D01*
X255247498Y-127983946D01*
X255247499Y-127983946D01*
X255593946Y-127637500D01*
X255593946Y-127637499D01*
X255561556Y-127605109D01*
X255860000Y-127605109D01*
X255860000Y-127644891D01*
X255875224Y-127681645D01*
X255903355Y-127709776D01*
X255940109Y-127725000D01*
X255979891Y-127725000D01*
X256016645Y-127709776D01*
X256044776Y-127681645D01*
X256060000Y-127644891D01*
X256060000Y-127637500D01*
X256326053Y-127637500D01*
X256660000Y-127971446D01*
X256660001Y-127971446D01*
X256993946Y-127637501D01*
X256993946Y-127637499D01*
X256961556Y-127605109D01*
X257260000Y-127605109D01*
X257260000Y-127644891D01*
X257275224Y-127681645D01*
X257303355Y-127709776D01*
X257340109Y-127725000D01*
X257379891Y-127725000D01*
X257416645Y-127709776D01*
X257444776Y-127681645D01*
X257460000Y-127644891D01*
X257460000Y-127637500D01*
X257726053Y-127637500D01*
X258072500Y-127983946D01*
X258072501Y-127983946D01*
X258406446Y-127650001D01*
X258406446Y-127649999D01*
X258060001Y-127303553D01*
X258060000Y-127303553D01*
X257726053Y-127637500D01*
X257460000Y-127637500D01*
X257460000Y-127605109D01*
X257444776Y-127568355D01*
X257416645Y-127540224D01*
X257379891Y-127525000D01*
X257340109Y-127525000D01*
X257303355Y-127540224D01*
X257275224Y-127568355D01*
X257260000Y-127605109D01*
X256961556Y-127605109D01*
X256660001Y-127303553D01*
X256660000Y-127303553D01*
X256326053Y-127637500D01*
X256060000Y-127637500D01*
X256060000Y-127605109D01*
X256044776Y-127568355D01*
X256016645Y-127540224D01*
X255979891Y-127525000D01*
X255940109Y-127525000D01*
X255903355Y-127540224D01*
X255875224Y-127568355D01*
X255860000Y-127605109D01*
X255561556Y-127605109D01*
X255260001Y-127303553D01*
X255260000Y-127303553D01*
X254913553Y-127650000D01*
X252547767Y-127650000D01*
X251847764Y-126949997D01*
X254454938Y-126949997D01*
X254454938Y-126950002D01*
X254475121Y-127129138D01*
X254534665Y-127299304D01*
X254543338Y-127313107D01*
X254906446Y-126950000D01*
X254906446Y-126949999D01*
X254886556Y-126930109D01*
X255160000Y-126930109D01*
X255160000Y-126969891D01*
X255175224Y-127006645D01*
X255203355Y-127034776D01*
X255240109Y-127050000D01*
X255279891Y-127050000D01*
X255316645Y-127034776D01*
X255344776Y-127006645D01*
X255360000Y-126969891D01*
X255360000Y-126937500D01*
X255626053Y-126937500D01*
X255960000Y-127271446D01*
X255960001Y-127271446D01*
X256293946Y-126937500D01*
X256286555Y-126930109D01*
X256560000Y-126930109D01*
X256560000Y-126969891D01*
X256575224Y-127006645D01*
X256603355Y-127034776D01*
X256640109Y-127050000D01*
X256679891Y-127050000D01*
X256716645Y-127034776D01*
X256744776Y-127006645D01*
X256760000Y-126969891D01*
X256760000Y-126937500D01*
X257026053Y-126937500D01*
X257360000Y-127271446D01*
X257360001Y-127271446D01*
X257693946Y-126937500D01*
X257686555Y-126930109D01*
X257960000Y-126930109D01*
X257960000Y-126969891D01*
X257975224Y-127006645D01*
X258003355Y-127034776D01*
X258040109Y-127050000D01*
X258079891Y-127050000D01*
X258116645Y-127034776D01*
X258144776Y-127006645D01*
X258160000Y-126969891D01*
X258160000Y-126950000D01*
X258413553Y-126950000D01*
X258776660Y-127313106D01*
X258776661Y-127313106D01*
X258785334Y-127299306D01*
X258785334Y-127299305D01*
X258844877Y-127129141D01*
X258844878Y-127129138D01*
X258863749Y-126961654D01*
X260400001Y-126961654D01*
X260410319Y-127062652D01*
X260464546Y-127226300D01*
X260464551Y-127226311D01*
X260555052Y-127373034D01*
X260555055Y-127373038D01*
X260676961Y-127494944D01*
X260676965Y-127494947D01*
X260823688Y-127585448D01*
X260823699Y-127585453D01*
X260987347Y-127639680D01*
X261088352Y-127649999D01*
X261125000Y-127649999D01*
X261125000Y-126862500D01*
X260400001Y-126862500D01*
X260400001Y-126961654D01*
X258863749Y-126961654D01*
X258865062Y-126950002D01*
X258865062Y-126949997D01*
X258844878Y-126770861D01*
X258785333Y-126600692D01*
X258776661Y-126586892D01*
X258776660Y-126586892D01*
X258413553Y-126950000D01*
X258160000Y-126950000D01*
X258160000Y-126930109D01*
X258144776Y-126893355D01*
X258116645Y-126865224D01*
X258079891Y-126850000D01*
X258040109Y-126850000D01*
X258003355Y-126865224D01*
X257975224Y-126893355D01*
X257960000Y-126930109D01*
X257686555Y-126930109D01*
X257400536Y-126644090D01*
X257360000Y-126603553D01*
X257319464Y-126644090D01*
X257319463Y-126644091D01*
X257026053Y-126937500D01*
X256760000Y-126937500D01*
X256760000Y-126930109D01*
X256744776Y-126893355D01*
X256716645Y-126865224D01*
X256679891Y-126850000D01*
X256640109Y-126850000D01*
X256603355Y-126865224D01*
X256575224Y-126893355D01*
X256560000Y-126930109D01*
X256286555Y-126930109D01*
X256000536Y-126644090D01*
X255960000Y-126603553D01*
X255919464Y-126644090D01*
X255919463Y-126644091D01*
X255626053Y-126937500D01*
X255360000Y-126937500D01*
X255360000Y-126930109D01*
X255344776Y-126893355D01*
X255316645Y-126865224D01*
X255279891Y-126850000D01*
X255240109Y-126850000D01*
X255203355Y-126865224D01*
X255175224Y-126893355D01*
X255160000Y-126930109D01*
X254886556Y-126930109D01*
X254543338Y-126586891D01*
X254543337Y-126586891D01*
X254534667Y-126600691D01*
X254534662Y-126600701D01*
X254475122Y-126770858D01*
X254475121Y-126770861D01*
X254454938Y-126949997D01*
X251847764Y-126949997D01*
X251131104Y-126233337D01*
X254896891Y-126233337D01*
X254896891Y-126233338D01*
X255259998Y-126596446D01*
X255557971Y-126298475D01*
X255606446Y-126249998D01*
X255586557Y-126230109D01*
X255860000Y-126230109D01*
X255860000Y-126269891D01*
X255875224Y-126306645D01*
X255903355Y-126334776D01*
X255940109Y-126350000D01*
X255979891Y-126350000D01*
X256016645Y-126334776D01*
X256044776Y-126306645D01*
X256060000Y-126269891D01*
X256060000Y-126230109D01*
X256044776Y-126193355D01*
X256016645Y-126165224D01*
X255979891Y-126150000D01*
X255940109Y-126150000D01*
X255903355Y-126165224D01*
X255875224Y-126193355D01*
X255860000Y-126230109D01*
X255586557Y-126230109D01*
X255243338Y-125886891D01*
X255243337Y-125886891D01*
X255234667Y-125900691D01*
X255234662Y-125900701D01*
X255175119Y-126070866D01*
X255174939Y-126071656D01*
X255174682Y-126072113D01*
X255172823Y-126077429D01*
X255171891Y-126077103D01*
X255140824Y-126132631D01*
X255087124Y-126161952D01*
X255087429Y-126162823D01*
X255082145Y-126164671D01*
X255081656Y-126164939D01*
X255080866Y-126165119D01*
X254910701Y-126224662D01*
X254910691Y-126224667D01*
X254896891Y-126233337D01*
X251131104Y-126233337D01*
X250622447Y-125724680D01*
X250588962Y-125663357D01*
X250593946Y-125593665D01*
X250635818Y-125537732D01*
X250701282Y-125513315D01*
X250710128Y-125512999D01*
X250861670Y-125512999D01*
X250861676Y-125512999D01*
X250962753Y-125502674D01*
X251126516Y-125448408D01*
X251273350Y-125357840D01*
X251387319Y-125243871D01*
X251448642Y-125210386D01*
X251518334Y-125215370D01*
X251562681Y-125243871D01*
X251676650Y-125357840D01*
X251823484Y-125448408D01*
X251987247Y-125502674D01*
X252088323Y-125513000D01*
X252661676Y-125512999D01*
X252661684Y-125512998D01*
X252661687Y-125512998D01*
X252717030Y-125507344D01*
X252762753Y-125502674D01*
X252926516Y-125448408D01*
X253073350Y-125357840D01*
X253187319Y-125243871D01*
X253248642Y-125210386D01*
X253318334Y-125215370D01*
X253362681Y-125243871D01*
X253476650Y-125357840D01*
X253623484Y-125448408D01*
X253787247Y-125502674D01*
X253888323Y-125513000D01*
X254461676Y-125512999D01*
X254461684Y-125512998D01*
X254461687Y-125512998D01*
X254517030Y-125507344D01*
X254562753Y-125502674D01*
X254691202Y-125460109D01*
X254761029Y-125457708D01*
X254777657Y-125463255D01*
X254872496Y-125502538D01*
X254897756Y-125513001D01*
X254897760Y-125513001D01*
X254897761Y-125513002D01*
X255023428Y-125538000D01*
X255023431Y-125538000D01*
X255550192Y-125538000D01*
X255617231Y-125557685D01*
X255637873Y-125574319D01*
X255960000Y-125896447D01*
X256258121Y-126194568D01*
X256258127Y-126194573D01*
X256660000Y-126596446D01*
X257026337Y-126230109D01*
X257260000Y-126230109D01*
X257260000Y-126269891D01*
X257275224Y-126306645D01*
X257303355Y-126334776D01*
X257340109Y-126350000D01*
X257379891Y-126350000D01*
X257416645Y-126334776D01*
X257444776Y-126306645D01*
X257460000Y-126269891D01*
X257460000Y-126249998D01*
X257713553Y-126249998D01*
X257762030Y-126298475D01*
X257762030Y-126298476D01*
X258060000Y-126596446D01*
X258060001Y-126596446D01*
X258423107Y-126233338D01*
X258409301Y-126224663D01*
X258239142Y-126165121D01*
X258238346Y-126164940D01*
X258237883Y-126164681D01*
X258232570Y-126162822D01*
X258232895Y-126161890D01*
X258177370Y-126130827D01*
X258148049Y-126077125D01*
X258147177Y-126077431D01*
X258145321Y-126072128D01*
X258145057Y-126071644D01*
X258144878Y-126070862D01*
X258085333Y-125900692D01*
X258076661Y-125886892D01*
X258076660Y-125886892D01*
X257713553Y-126249998D01*
X257460000Y-126249998D01*
X257460000Y-126230109D01*
X257444776Y-126193355D01*
X257416645Y-126165224D01*
X257379891Y-126150000D01*
X257340109Y-126150000D01*
X257303355Y-126165224D01*
X257275224Y-126193355D01*
X257260000Y-126230109D01*
X257026337Y-126230109D01*
X257079314Y-126177132D01*
X257360000Y-125896447D01*
X257682127Y-125574319D01*
X257743450Y-125540834D01*
X257769808Y-125538000D01*
X260417389Y-125538000D01*
X260484428Y-125557685D01*
X260522928Y-125596904D01*
X260554659Y-125648349D01*
X260568982Y-125662672D01*
X260602467Y-125723995D01*
X260597483Y-125793687D01*
X260568985Y-125838032D01*
X260555052Y-125851965D01*
X260464551Y-125998688D01*
X260464546Y-125998699D01*
X260410319Y-126162347D01*
X260400000Y-126263345D01*
X260400000Y-126362500D01*
X261501000Y-126362500D01*
X261568039Y-126382185D01*
X261613794Y-126434989D01*
X261625000Y-126486500D01*
X261625000Y-127649999D01*
X261661640Y-127649999D01*
X261661654Y-127649998D01*
X261762652Y-127639680D01*
X261926300Y-127585453D01*
X261926311Y-127585448D01*
X262073034Y-127494947D01*
X262073038Y-127494944D01*
X262194944Y-127373038D01*
X262194947Y-127373034D01*
X262285448Y-127226311D01*
X262285453Y-127226300D01*
X262312294Y-127145300D01*
X262352066Y-127087855D01*
X262416582Y-127061032D01*
X262485358Y-127073347D01*
X262536558Y-127120890D01*
X262547706Y-127145300D01*
X262574546Y-127226300D01*
X262574551Y-127226311D01*
X262665052Y-127373034D01*
X262665055Y-127373038D01*
X262786961Y-127494944D01*
X262786965Y-127494947D01*
X262933688Y-127585448D01*
X262933699Y-127585453D01*
X263097347Y-127639680D01*
X263198352Y-127649999D01*
X263235000Y-127649999D01*
X263735000Y-127649999D01*
X263771640Y-127649999D01*
X263771654Y-127649998D01*
X263872652Y-127639680D01*
X264036300Y-127585453D01*
X264036311Y-127585448D01*
X264183034Y-127494947D01*
X264183038Y-127494944D01*
X264304944Y-127373038D01*
X264304947Y-127373034D01*
X264395448Y-127226311D01*
X264395453Y-127226300D01*
X264449680Y-127062652D01*
X264459999Y-126961654D01*
X264460000Y-126961641D01*
X264460000Y-126862500D01*
X263735000Y-126862500D01*
X263735000Y-127649999D01*
X263235000Y-127649999D01*
X263235000Y-126486500D01*
X263254685Y-126419461D01*
X263307489Y-126373706D01*
X263359000Y-126362500D01*
X264459999Y-126362500D01*
X264459999Y-126263360D01*
X264459998Y-126263345D01*
X264449680Y-126162347D01*
X264395453Y-125998699D01*
X264395448Y-125998688D01*
X264304947Y-125851965D01*
X264304944Y-125851961D01*
X264291017Y-125838034D01*
X264257532Y-125776711D01*
X264262516Y-125707019D01*
X264291017Y-125662672D01*
X264305340Y-125648350D01*
X264395908Y-125501516D01*
X264450174Y-125337753D01*
X264460500Y-125236677D01*
X264460499Y-124538324D01*
X264450174Y-124437247D01*
X264395908Y-124273484D01*
X264305340Y-124126650D01*
X264183350Y-124004660D01*
X264183349Y-124004659D01*
X264183347Y-124004657D01*
X264182593Y-124004061D01*
X264182209Y-124003519D01*
X264178243Y-123999553D01*
X264178920Y-123998875D01*
X264142214Y-123947041D01*
X264135500Y-123906792D01*
X264135500Y-121795928D01*
X264110502Y-121670261D01*
X264110501Y-121670260D01*
X264110501Y-121670256D01*
X264061465Y-121551873D01*
X264061464Y-121551872D01*
X264061461Y-121551866D01*
X263990275Y-121445329D01*
X263988613Y-121443304D01*
X263988073Y-121442034D01*
X263986892Y-121440266D01*
X263987227Y-121440041D01*
X263961298Y-121378995D01*
X263961243Y-121378515D01*
X263960368Y-121370745D01*
X263900789Y-121200478D01*
X263899067Y-121197738D01*
X263836232Y-121097737D01*
X263804816Y-121047738D01*
X263677262Y-120920184D01*
X263668426Y-120914632D01*
X263524523Y-120824211D01*
X263354254Y-120764631D01*
X263354249Y-120764630D01*
X263175004Y-120744435D01*
X263174996Y-120744435D01*
X262995750Y-120764630D01*
X262995745Y-120764631D01*
X262825476Y-120824211D01*
X262672737Y-120920184D01*
X262545184Y-121047737D01*
X262449211Y-121200476D01*
X262389631Y-121370745D01*
X262389630Y-121370750D01*
X262369435Y-121549996D01*
X262369435Y-121550003D01*
X262389630Y-121729249D01*
X262389631Y-121729254D01*
X262449211Y-121899523D01*
X262545184Y-122052262D01*
X262672740Y-122179818D01*
X262705656Y-122200500D01*
X262776472Y-122244996D01*
X262822763Y-122297329D01*
X262834500Y-122349989D01*
X262834500Y-123906792D01*
X262814815Y-123973831D01*
X262791619Y-123999415D01*
X262791757Y-123999553D01*
X262788941Y-124002368D01*
X262787407Y-124004061D01*
X262786652Y-124004657D01*
X262664658Y-124126652D01*
X262632928Y-124178096D01*
X262580980Y-124224821D01*
X262527389Y-124237000D01*
X262332611Y-124237000D01*
X262265572Y-124217315D01*
X262227072Y-124178096D01*
X262195340Y-124126650D01*
X262073351Y-124004661D01*
X262073350Y-124004660D01*
X261946780Y-123926591D01*
X261926518Y-123914093D01*
X261926513Y-123914091D01*
X261918471Y-123911426D01*
X261762753Y-123859826D01*
X261762751Y-123859825D01*
X261661678Y-123849500D01*
X261088330Y-123849500D01*
X261088312Y-123849501D01*
X260987247Y-123859825D01*
X260823484Y-123914092D01*
X260823481Y-123914093D01*
X260676648Y-124004661D01*
X260554659Y-124126650D01*
X260522928Y-124178096D01*
X260470980Y-124224821D01*
X260417389Y-124237000D01*
X255408308Y-124237000D01*
X255341269Y-124217315D01*
X255320627Y-124200681D01*
X255139674Y-124019727D01*
X255139668Y-124019722D01*
X255130196Y-124013393D01*
X255090231Y-123966802D01*
X255089699Y-123967131D01*
X255087615Y-123963752D01*
X255086702Y-123962688D01*
X255085910Y-123960991D01*
X255085908Y-123960984D01*
X254995340Y-123814150D01*
X254881371Y-123700181D01*
X254847886Y-123638858D01*
X254852870Y-123569166D01*
X254881371Y-123524819D01*
X254923526Y-123482664D01*
X254995340Y-123410850D01*
X255085908Y-123264016D01*
X255140174Y-123100253D01*
X255150500Y-122999177D01*
X255150499Y-122400824D01*
X255148326Y-122379556D01*
X255140174Y-122299747D01*
X255133281Y-122278945D01*
X255085908Y-122135984D01*
X254995340Y-121989150D01*
X254873350Y-121867160D01*
X254765277Y-121800500D01*
X254726518Y-121776593D01*
X254726513Y-121776591D01*
X254725069Y-121776112D01*
X254562753Y-121722326D01*
X254562751Y-121722325D01*
X254461684Y-121712000D01*
X254461677Y-121712000D01*
X254087597Y-121712000D01*
X254020558Y-121692315D01*
X253999916Y-121675681D01*
X253673294Y-121349059D01*
X253643933Y-121302332D01*
X253642769Y-121299006D01*
X253625789Y-121250478D01*
X253606917Y-121220444D01*
X253557789Y-121142257D01*
X253529816Y-121097738D01*
X253402262Y-120970184D01*
X253313852Y-120914632D01*
X253249523Y-120874211D01*
X253079254Y-120814631D01*
X253079249Y-120814630D01*
X252900004Y-120794435D01*
X252899996Y-120794435D01*
X252720750Y-120814630D01*
X252720745Y-120814631D01*
X252550476Y-120874211D01*
X252397737Y-120970184D01*
X252387681Y-120980241D01*
X252326358Y-121013726D01*
X252256666Y-121008742D01*
X252212319Y-120980241D01*
X252202262Y-120970184D01*
X252049523Y-120874211D01*
X251879254Y-120814631D01*
X251879249Y-120814630D01*
X251700004Y-120794435D01*
X251699996Y-120794435D01*
X251520750Y-120814630D01*
X251520745Y-120814631D01*
X251350476Y-120874211D01*
X251197737Y-120970184D01*
X251070184Y-121097737D01*
X251070183Y-121097739D01*
X251060155Y-121113698D01*
X251007819Y-121159988D01*
X250938765Y-121170634D01*
X250874918Y-121142257D01*
X250867482Y-121135404D01*
X250802262Y-121070184D01*
X250649523Y-120974211D01*
X250479254Y-120914631D01*
X250479249Y-120914630D01*
X250300004Y-120894435D01*
X250299996Y-120894435D01*
X250120750Y-120914630D01*
X250120745Y-120914631D01*
X249950476Y-120974211D01*
X249797737Y-121070184D01*
X249670184Y-121197737D01*
X249574211Y-121350476D01*
X249514631Y-121520745D01*
X249514630Y-121520750D01*
X249494435Y-121699996D01*
X249494435Y-121700003D01*
X249514630Y-121879249D01*
X249514631Y-121879254D01*
X249574211Y-122049524D01*
X249620717Y-122123536D01*
X249639718Y-122190773D01*
X249633430Y-122228512D01*
X249609826Y-122299744D01*
X249609783Y-122299946D01*
X249609722Y-122300058D01*
X249607696Y-122306173D01*
X249606604Y-122305811D01*
X249576498Y-122361378D01*
X249515285Y-122395063D01*
X249445577Y-122390307D01*
X249400850Y-122361665D01*
X248083913Y-121044727D01*
X248083912Y-121044726D01*
X248083908Y-121044723D01*
X247977366Y-120973535D01*
X247891852Y-120938114D01*
X247858983Y-120924499D01*
X247858977Y-120924497D01*
X247733310Y-120899500D01*
X247733308Y-120899500D01*
X246005068Y-120899500D01*
X245939096Y-120880494D01*
X245849522Y-120824210D01*
X245849518Y-120824209D01*
X245679262Y-120764633D01*
X245679249Y-120764630D01*
X245500004Y-120744435D01*
X245499996Y-120744435D01*
X245320750Y-120764630D01*
X245320745Y-120764631D01*
X245150476Y-120824211D01*
X244997737Y-120920184D01*
X244870184Y-121047737D01*
X244774211Y-121200476D01*
X244714631Y-121370745D01*
X244714630Y-121370750D01*
X244694435Y-121549996D01*
X244694435Y-121550003D01*
X244714630Y-121729249D01*
X244714631Y-121729254D01*
X244774211Y-121899523D01*
X244840929Y-122005703D01*
X244870184Y-122052262D01*
X244997738Y-122179816D01*
X245055000Y-122215796D01*
X245129040Y-122262319D01*
X245150478Y-122275789D01*
X245320179Y-122335170D01*
X245320745Y-122335368D01*
X245320750Y-122335369D01*
X245499996Y-122355565D01*
X245500000Y-122355565D01*
X245500004Y-122355565D01*
X245679249Y-122335369D01*
X245679251Y-122335368D01*
X245679255Y-122335368D01*
X245679258Y-122335366D01*
X245679262Y-122335366D01*
X245781054Y-122299747D01*
X245849522Y-122275789D01*
X245939096Y-122219505D01*
X246005068Y-122200500D01*
X247348431Y-122200500D01*
X247415470Y-122220185D01*
X247436112Y-122236819D01*
X247814659Y-122615366D01*
X247848144Y-122676689D01*
X247843160Y-122746381D01*
X247801288Y-122802314D01*
X247735824Y-122826731D01*
X247667551Y-122811879D01*
X247664978Y-122810434D01*
X247630320Y-122790424D01*
X247630319Y-122790423D01*
X247569225Y-122774053D01*
X247477589Y-122749499D01*
X247319475Y-122749499D01*
X247311879Y-122749499D01*
X247311863Y-122749500D01*
X242413362Y-122749500D01*
X242372495Y-122737500D01*
X240379180Y-122737500D01*
X240312141Y-122717815D01*
X240273642Y-122678598D01*
X240195340Y-122551650D01*
X240081371Y-122437681D01*
X240047886Y-122376358D01*
X240052870Y-122306666D01*
X240081371Y-122262319D01*
X240188319Y-122155371D01*
X240249642Y-122121886D01*
X240319334Y-122126870D01*
X240375267Y-122168742D01*
X240399684Y-122234206D01*
X240399794Y-122237294D01*
X240400000Y-122237500D01*
X241125000Y-122237500D01*
X241625000Y-122237500D01*
X242349999Y-122237500D01*
X242349999Y-122138360D01*
X242349998Y-122138345D01*
X242339680Y-122037347D01*
X242285453Y-121873699D01*
X242285448Y-121873688D01*
X242194947Y-121726965D01*
X242194944Y-121726961D01*
X242073038Y-121605055D01*
X242073034Y-121605052D01*
X241926311Y-121514551D01*
X241926300Y-121514546D01*
X241762652Y-121460319D01*
X241661654Y-121450000D01*
X241625000Y-121450000D01*
X241625000Y-122237500D01*
X241125000Y-122237500D01*
X241125000Y-121450000D01*
X241088361Y-121450000D01*
X241088343Y-121450001D01*
X240987347Y-121460319D01*
X240823699Y-121514546D01*
X240823688Y-121514551D01*
X240676965Y-121605052D01*
X240562180Y-121719837D01*
X240500857Y-121753321D01*
X240431165Y-121748337D01*
X240375232Y-121706465D01*
X240350815Y-121641001D01*
X240350499Y-121632178D01*
X240350499Y-121138324D01*
X240347983Y-121113698D01*
X240340174Y-121037247D01*
X240320434Y-120977677D01*
X240285908Y-120873484D01*
X240195340Y-120726650D01*
X240073350Y-120604660D01*
X240073346Y-120604657D01*
X240034404Y-120580637D01*
X239987679Y-120528689D01*
X239975501Y-120475099D01*
X239975501Y-120395945D01*
X239975501Y-120395943D01*
X239934577Y-120243215D01*
X239905639Y-120193095D01*
X239855520Y-120106284D01*
X239743716Y-119994480D01*
X239743715Y-119994479D01*
X239739385Y-119990149D01*
X239739374Y-119990139D01*
X239461416Y-119712181D01*
X239427931Y-119650858D01*
X239432915Y-119581166D01*
X239474787Y-119525233D01*
X239540251Y-119500816D01*
X239549097Y-119500500D01*
X265075500Y-119500500D01*
X265142539Y-119520185D01*
X265188294Y-119572989D01*
X265199500Y-119624500D01*
X265199500Y-143375500D01*
X265179815Y-143442539D01*
X265127011Y-143488294D01*
X265075500Y-143499500D01*
X235174097Y-143499500D01*
X235107058Y-143479815D01*
X235061303Y-143427011D01*
X235051359Y-143357853D01*
X235080384Y-143294297D01*
X235086416Y-143287819D01*
X235230144Y-143144091D01*
X235793535Y-142580698D01*
X235854856Y-142547215D01*
X235867311Y-142545163D01*
X235954255Y-142535368D01*
X236124522Y-142475789D01*
X236277262Y-142379816D01*
X236404816Y-142252262D01*
X236500789Y-142099522D01*
X236560368Y-141929255D01*
X236563737Y-141899356D01*
X236580565Y-141750003D01*
X236580565Y-141749996D01*
X236560369Y-141570750D01*
X236560368Y-141570745D01*
X236517326Y-141447738D01*
X236500789Y-141400478D01*
X236404816Y-141247738D01*
X236277262Y-141120184D01*
X236225217Y-141087482D01*
X236124523Y-141024211D01*
X235954254Y-140964631D01*
X235954249Y-140964630D01*
X235775004Y-140944435D01*
X235774996Y-140944435D01*
X235595750Y-140964630D01*
X235595745Y-140964631D01*
X235425476Y-141024211D01*
X235272737Y-141120184D01*
X235145184Y-141247737D01*
X235049210Y-141400478D01*
X234989630Y-141570750D01*
X234979837Y-141657668D01*
X234952770Y-141722082D01*
X234944298Y-141731465D01*
X234162584Y-142513181D01*
X234101261Y-142546666D01*
X234074903Y-142549500D01*
X234026149Y-142549500D01*
X233959110Y-142529815D01*
X233913355Y-142477011D01*
X233903411Y-142407853D01*
X233922340Y-142357679D01*
X233934993Y-142338310D01*
X233949173Y-142316607D01*
X234049063Y-142088881D01*
X234110108Y-141847821D01*
X234113052Y-141812292D01*
X234130643Y-141600005D01*
X234130643Y-141599994D01*
X234110109Y-141352187D01*
X234110107Y-141352175D01*
X234049063Y-141111118D01*
X233949173Y-140883393D01*
X233813166Y-140675217D01*
X233732634Y-140587736D01*
X233644744Y-140492262D01*
X233448509Y-140339526D01*
X233448507Y-140339525D01*
X233448506Y-140339524D01*
X233229811Y-140221172D01*
X233229802Y-140221169D01*
X232994616Y-140140429D01*
X232749335Y-140099500D01*
X232500665Y-140099500D01*
X232255383Y-140140429D01*
X232020197Y-140221169D01*
X232020188Y-140221172D01*
X231801493Y-140339524D01*
X231605257Y-140492261D01*
X231436833Y-140675217D01*
X231300826Y-140883393D01*
X231200936Y-141111118D01*
X231139892Y-141352175D01*
X231139890Y-141352187D01*
X231119357Y-141599994D01*
X231119357Y-141600005D01*
X231139890Y-141847812D01*
X231139892Y-141847824D01*
X231200936Y-142088881D01*
X231300826Y-142316606D01*
X231327660Y-142357679D01*
X231347848Y-142424569D01*
X231328667Y-142491754D01*
X231276208Y-142537904D01*
X231223851Y-142549500D01*
X229525552Y-142549500D01*
X229458513Y-142529815D01*
X229412758Y-142477011D01*
X229402814Y-142407853D01*
X229421743Y-142357679D01*
X229448732Y-142316368D01*
X229548587Y-142088717D01*
X229609612Y-141847738D01*
X229609614Y-141847729D01*
X229630141Y-141600005D01*
X229630141Y-141599994D01*
X229609614Y-141352270D01*
X229609612Y-141352261D01*
X229548587Y-141111282D01*
X229448731Y-140883630D01*
X229348434Y-140730116D01*
X228648786Y-141429763D01*
X228637518Y-141387708D01*
X228565110Y-141262292D01*
X228462708Y-141159890D01*
X228337292Y-141087482D01*
X228295235Y-141076212D01*
X228995057Y-140376390D01*
X228995056Y-140376389D01*
X228948229Y-140339943D01*
X228729614Y-140221635D01*
X228729603Y-140221630D01*
X228494493Y-140140916D01*
X228249293Y-140100000D01*
X228000707Y-140100000D01*
X227755506Y-140140916D01*
X227520396Y-140221630D01*
X227520390Y-140221632D01*
X227301761Y-140339949D01*
X227254942Y-140376388D01*
X227254942Y-140376390D01*
X227954765Y-141076212D01*
X227912708Y-141087482D01*
X227787292Y-141159890D01*
X227684890Y-141262292D01*
X227612482Y-141387708D01*
X227601212Y-141429765D01*
X226901564Y-140730116D01*
X226801267Y-140883632D01*
X226701412Y-141111282D01*
X226640387Y-141352261D01*
X226640385Y-141352270D01*
X226619859Y-141599994D01*
X226619859Y-141600005D01*
X226640385Y-141847729D01*
X226640387Y-141847738D01*
X226701412Y-142088717D01*
X226801267Y-142316368D01*
X226828257Y-142357679D01*
X226848445Y-142424569D01*
X226829264Y-142491754D01*
X226776805Y-142537905D01*
X226724448Y-142549500D01*
X214250098Y-142549500D01*
X214183059Y-142529815D01*
X214162417Y-142513181D01*
X211830700Y-140181465D01*
X211797215Y-140120142D01*
X211795163Y-140107686D01*
X211785368Y-140020745D01*
X211725789Y-139850478D01*
X211629816Y-139697738D01*
X211502262Y-139570184D01*
X211349523Y-139474211D01*
X211179254Y-139414631D01*
X211179249Y-139414630D01*
X211000004Y-139394435D01*
X210999996Y-139394435D01*
X210820750Y-139414630D01*
X210820745Y-139414631D01*
X210650476Y-139474211D01*
X210497737Y-139570184D01*
X210370184Y-139697737D01*
X210274211Y-139850476D01*
X210214631Y-140020745D01*
X210214630Y-140020750D01*
X210194435Y-140199996D01*
X210194435Y-140200003D01*
X210214630Y-140379249D01*
X210214631Y-140379254D01*
X210274211Y-140549523D01*
X210353189Y-140675215D01*
X210370184Y-140702262D01*
X210497738Y-140829816D01*
X210650478Y-140925789D01*
X210820745Y-140985368D01*
X210907669Y-140995161D01*
X210972080Y-141022226D01*
X210981465Y-141030700D01*
X213238583Y-143287819D01*
X213272068Y-143349142D01*
X213267084Y-143418834D01*
X213225212Y-143474767D01*
X213159748Y-143499184D01*
X213150902Y-143499500D01*
X61524500Y-143499500D01*
X61457461Y-143479815D01*
X61411706Y-143427011D01*
X61400500Y-143375500D01*
X61400500Y-119624500D01*
X61420185Y-119557461D01*
X61472989Y-119511706D01*
X61524500Y-119500500D01*
X69734764Y-119500500D01*
X69801803Y-119520185D01*
G37*
%TD.AperFunction*%
%TA.AperFunction,Conductor*%
G36*
X227341942Y-122970185D02*
G01*
X227362584Y-122986819D01*
X227388584Y-123012819D01*
X227422069Y-123074142D01*
X227417085Y-123143834D01*
X227375213Y-123199767D01*
X227309749Y-123224184D01*
X227300903Y-123224500D01*
X226477129Y-123224500D01*
X226477123Y-123224501D01*
X226417516Y-123230908D01*
X226282671Y-123281202D01*
X226282664Y-123281206D01*
X226167455Y-123367452D01*
X226167452Y-123367455D01*
X226081206Y-123482664D01*
X226081202Y-123482671D01*
X226030908Y-123617517D01*
X226024501Y-123677116D01*
X226024500Y-123677135D01*
X226024500Y-125122870D01*
X226024501Y-125122872D01*
X226030908Y-125182483D01*
X226081202Y-125317328D01*
X226081206Y-125317335D01*
X226135877Y-125390365D01*
X226167454Y-125432546D01*
X226253105Y-125496664D01*
X226294975Y-125552597D01*
X226299959Y-125622289D01*
X226277748Y-125670656D01*
X226196288Y-125778528D01*
X226099184Y-125973537D01*
X226087023Y-126016280D01*
X226041257Y-126177132D01*
X226039564Y-126183081D01*
X226019464Y-126399999D01*
X226019464Y-126400000D01*
X226039564Y-126616922D01*
X226039565Y-126616924D01*
X226040506Y-126620231D01*
X226040492Y-126621881D01*
X226040618Y-126622555D01*
X226040486Y-126622579D01*
X226039918Y-126690098D01*
X226008920Y-126741843D01*
X225431286Y-127319478D01*
X225319481Y-127431282D01*
X225319479Y-127431285D01*
X225306623Y-127453553D01*
X225286815Y-127487862D01*
X225264492Y-127526527D01*
X225241678Y-127566042D01*
X225240423Y-127568215D01*
X225199499Y-127720943D01*
X225199499Y-127720945D01*
X225199499Y-127889046D01*
X225199500Y-127889059D01*
X225199500Y-130513330D01*
X225199499Y-130513348D01*
X225199499Y-130679054D01*
X225199498Y-130679054D01*
X225240423Y-130831785D01*
X225269358Y-130881900D01*
X225269359Y-130881904D01*
X225269360Y-130881904D01*
X225319480Y-130968716D01*
X225431284Y-131080520D01*
X225431285Y-131080521D01*
X225586337Y-131235573D01*
X225615696Y-131282297D01*
X225629893Y-131322869D01*
X225674210Y-131449521D01*
X225709643Y-131505912D01*
X225770184Y-131602262D01*
X225897738Y-131729816D01*
X226014393Y-131803115D01*
X226050481Y-131825791D01*
X226055136Y-131828033D01*
X226106996Y-131874855D01*
X226125309Y-131942282D01*
X226104262Y-132008906D01*
X226089016Y-132027434D01*
X225753270Y-132363181D01*
X225691947Y-132396666D01*
X225665589Y-132399500D01*
X225600098Y-132399500D01*
X225533059Y-132379815D01*
X225512417Y-132363181D01*
X223236819Y-130087583D01*
X223203334Y-130026260D01*
X223200500Y-129999902D01*
X223200500Y-126240531D01*
X223200501Y-126240518D01*
X223200501Y-126072415D01*
X223200298Y-126071656D01*
X223159577Y-125919687D01*
X223159458Y-125919481D01*
X223080524Y-125782761D01*
X223080518Y-125782753D01*
X221736119Y-124438355D01*
X221736117Y-124438352D01*
X221617246Y-124319481D01*
X221617245Y-124319480D01*
X221517509Y-124261898D01*
X221517508Y-124261897D01*
X221480312Y-124240422D01*
X221422087Y-124224821D01*
X221327586Y-124199499D01*
X221169472Y-124199499D01*
X221161876Y-124199499D01*
X221161860Y-124199500D01*
X217770655Y-124199500D01*
X217703616Y-124179815D01*
X217669080Y-124146623D01*
X217561599Y-123993124D01*
X217495065Y-123926590D01*
X217406877Y-123838402D01*
X217227639Y-123712898D01*
X217227640Y-123712898D01*
X217227638Y-123712897D01*
X217079226Y-123643692D01*
X217029330Y-123620425D01*
X217029326Y-123620424D01*
X217029322Y-123620422D01*
X216817977Y-123563793D01*
X216600002Y-123544723D01*
X216599998Y-123544723D01*
X216472151Y-123555908D01*
X216382023Y-123563793D01*
X216382020Y-123563793D01*
X216170677Y-123620422D01*
X216170668Y-123620426D01*
X215972361Y-123712898D01*
X215972357Y-123712900D01*
X215793121Y-123838402D01*
X215638402Y-123993121D01*
X215512900Y-124172357D01*
X215512898Y-124172361D01*
X215442382Y-124323583D01*
X215396209Y-124376022D01*
X215329016Y-124395174D01*
X215262135Y-124374958D01*
X215217618Y-124323583D01*
X215188854Y-124261899D01*
X215147102Y-124172362D01*
X215147100Y-124172359D01*
X215147099Y-124172357D01*
X215021599Y-123993124D01*
X214955065Y-123926590D01*
X214866877Y-123838402D01*
X214687639Y-123712898D01*
X214687640Y-123712898D01*
X214687638Y-123712897D01*
X214539226Y-123643692D01*
X214489330Y-123620425D01*
X214489326Y-123620424D01*
X214489322Y-123620422D01*
X214277977Y-123563793D01*
X214060002Y-123544723D01*
X214059998Y-123544723D01*
X213932151Y-123555908D01*
X213842023Y-123563793D01*
X213842020Y-123563793D01*
X213630677Y-123620422D01*
X213630668Y-123620426D01*
X213432361Y-123712898D01*
X213432357Y-123712900D01*
X213253121Y-123838402D01*
X213098402Y-123993121D01*
X212996074Y-124139262D01*
X212941497Y-124182887D01*
X212871999Y-124190081D01*
X212809644Y-124158558D01*
X212774230Y-124098328D01*
X212770499Y-124068139D01*
X212770499Y-124002129D01*
X212770498Y-124002123D01*
X212770497Y-124002116D01*
X212764091Y-123942517D01*
X212758151Y-123926592D01*
X212713797Y-123807671D01*
X212713793Y-123807664D01*
X212627547Y-123692455D01*
X212627544Y-123692452D01*
X212512335Y-123606206D01*
X212512328Y-123606202D01*
X212377482Y-123555908D01*
X212377483Y-123555908D01*
X212317883Y-123549501D01*
X212317881Y-123549500D01*
X212317873Y-123549500D01*
X212317864Y-123549500D01*
X210722129Y-123549500D01*
X210722123Y-123549501D01*
X210662516Y-123555908D01*
X210527671Y-123606202D01*
X210527664Y-123606206D01*
X210412455Y-123692452D01*
X210412452Y-123692455D01*
X210326206Y-123807664D01*
X210326202Y-123807671D01*
X210275908Y-123942517D01*
X210269777Y-123999553D01*
X210269501Y-124002123D01*
X210269500Y-124002135D01*
X210269500Y-125248791D01*
X210249815Y-125315830D01*
X210197011Y-125361585D01*
X210159384Y-125372011D01*
X209996484Y-125390365D01*
X209996480Y-125390366D01*
X209826211Y-125449946D01*
X209673472Y-125545919D01*
X209545919Y-125673472D01*
X209449946Y-125826211D01*
X209390366Y-125996480D01*
X209390365Y-125996485D01*
X209370170Y-126175731D01*
X209370170Y-126175738D01*
X209390365Y-126354984D01*
X209390366Y-126354989D01*
X209449946Y-126525258D01*
X209514813Y-126628492D01*
X209545919Y-126677997D01*
X209673473Y-126805551D01*
X209826213Y-126901524D01*
X209996480Y-126961103D01*
X210083404Y-126970896D01*
X210147815Y-126997961D01*
X210157200Y-127006435D01*
X210193563Y-127042798D01*
X210227048Y-127104121D01*
X210229102Y-127116595D01*
X210238895Y-127203514D01*
X210298475Y-127373786D01*
X210394449Y-127526527D01*
X210455741Y-127587819D01*
X210489226Y-127649142D01*
X210484242Y-127718834D01*
X210442370Y-127774767D01*
X210376906Y-127799184D01*
X210368060Y-127799500D01*
X206428436Y-127799500D01*
X206361397Y-127779815D01*
X206315642Y-127727011D01*
X206306818Y-127699687D01*
X206293209Y-127631259D01*
X206299439Y-127561668D01*
X206336162Y-127511219D01*
X206350000Y-127499862D01*
X206350000Y-126696988D01*
X206359940Y-126714205D01*
X206415795Y-126770060D01*
X206484204Y-126809556D01*
X206560504Y-126830000D01*
X206639496Y-126830000D01*
X206715796Y-126809556D01*
X206784205Y-126770060D01*
X206840060Y-126714205D01*
X206850000Y-126696988D01*
X206850000Y-127499862D01*
X206891690Y-127491569D01*
X206891692Y-127491569D01*
X207073671Y-127416192D01*
X207073684Y-127416185D01*
X207237462Y-127306751D01*
X207237466Y-127306748D01*
X207376748Y-127167466D01*
X207376751Y-127167462D01*
X207486185Y-127003684D01*
X207486192Y-127003671D01*
X207561569Y-126821693D01*
X207561572Y-126821681D01*
X207599999Y-126628495D01*
X207600000Y-126628492D01*
X207600000Y-126230000D01*
X206900000Y-126230000D01*
X206900000Y-125730000D01*
X207600000Y-125730000D01*
X207600000Y-125325417D01*
X207602633Y-125325417D01*
X207613539Y-125267983D01*
X207661616Y-125217284D01*
X207723910Y-125200501D01*
X207879054Y-125200501D01*
X207879057Y-125200501D01*
X208031785Y-125159577D01*
X208095358Y-125122873D01*
X208168716Y-125080520D01*
X208280520Y-124968716D01*
X208280520Y-124968714D01*
X208290724Y-124958511D01*
X208290727Y-124958506D01*
X210262417Y-122986819D01*
X210323740Y-122953334D01*
X210350098Y-122950500D01*
X227274903Y-122950500D01*
X227341942Y-122970185D01*
G37*
%TD.AperFunction*%
%TA.AperFunction,Conductor*%
G36*
X237836793Y-126689294D02*
G01*
X237836920Y-126688659D01*
X237848900Y-126691041D01*
X237848901Y-126691042D01*
X237851531Y-126691565D01*
X237856738Y-126694288D01*
X237860195Y-126695721D01*
X237860066Y-126696029D01*
X237913442Y-126723949D01*
X237948018Y-126784664D01*
X237944280Y-126854434D01*
X237903414Y-126911106D01*
X237899805Y-126913070D01*
X237898285Y-126919732D01*
X238225000Y-127246447D01*
X238225001Y-127246447D01*
X238551714Y-126919732D01*
X238544717Y-126889076D01*
X238548990Y-126819337D01*
X238590289Y-126762979D01*
X238633509Y-126741710D01*
X238692912Y-126725794D01*
X238757088Y-126725794D01*
X238816487Y-126741709D01*
X238876145Y-126778074D01*
X238906673Y-126840921D01*
X238905281Y-126889075D01*
X238898284Y-126919731D01*
X239225000Y-127246447D01*
X239225001Y-127246447D01*
X239551714Y-126919732D01*
X239544717Y-126889076D01*
X239548990Y-126819337D01*
X239590289Y-126762979D01*
X239633509Y-126741710D01*
X239692912Y-126725794D01*
X239757088Y-126725794D01*
X239895943Y-126763000D01*
X239937999Y-126763000D01*
X240005038Y-126782685D01*
X240050793Y-126835489D01*
X240061999Y-126887000D01*
X240061999Y-126929057D01*
X240078901Y-126992136D01*
X240077238Y-127061986D01*
X240073687Y-127071681D01*
X240037000Y-127160251D01*
X240036996Y-127160265D01*
X240034649Y-127172064D01*
X240002262Y-127233974D01*
X239941545Y-127268546D01*
X239909885Y-127268666D01*
X239578553Y-127599999D01*
X239578553Y-127600001D01*
X239911380Y-127932828D01*
X239955179Y-127935512D01*
X240011537Y-127976810D01*
X240034650Y-128027937D01*
X240036998Y-128039743D01*
X240036998Y-128039744D01*
X240042303Y-128052551D01*
X240049769Y-128122021D01*
X240042303Y-128147449D01*
X240036998Y-128160255D01*
X240036997Y-128160261D01*
X240034649Y-128172064D01*
X240002262Y-128233974D01*
X239941545Y-128268546D01*
X239909885Y-128268666D01*
X239578553Y-128599999D01*
X239578553Y-128600001D01*
X239905265Y-128926713D01*
X239923582Y-128922533D01*
X239993320Y-128926806D01*
X240049678Y-128968104D01*
X240074762Y-129033316D01*
X240065736Y-129090876D01*
X240036999Y-129160256D01*
X240036998Y-129160259D01*
X240036998Y-129160260D01*
X240036996Y-129160265D01*
X240034649Y-129172064D01*
X240002262Y-129233974D01*
X239941545Y-129268546D01*
X239909885Y-129268666D01*
X239578553Y-129599999D01*
X239578553Y-129600001D01*
X239905265Y-129926713D01*
X239923582Y-129922533D01*
X239993320Y-129926806D01*
X240049678Y-129968104D01*
X240074762Y-130033316D01*
X240065736Y-130090876D01*
X240036999Y-130160256D01*
X240036998Y-130160259D01*
X240036998Y-130160260D01*
X240036997Y-130160261D01*
X240011395Y-130288970D01*
X239979010Y-130350881D01*
X239918294Y-130385455D01*
X239913970Y-130386395D01*
X239785261Y-130411997D01*
X239785260Y-130411998D01*
X239785259Y-130411998D01*
X239785256Y-130411999D01*
X239743413Y-130429331D01*
X239715876Y-130440737D01*
X239646406Y-130448205D01*
X239583927Y-130416929D01*
X239548275Y-130356840D01*
X239547533Y-130298582D01*
X239551713Y-130280265D01*
X239225001Y-129953553D01*
X239225000Y-129953553D01*
X238898284Y-130280266D01*
X238905282Y-130310924D01*
X238901009Y-130380662D01*
X238859710Y-130437020D01*
X238816486Y-130458290D01*
X238743216Y-130477923D01*
X238705502Y-130499696D01*
X238637601Y-130516165D01*
X238613198Y-130510704D01*
X238613072Y-130511339D01*
X238598456Y-130508431D01*
X238593239Y-130505701D01*
X238589823Y-130504287D01*
X238589949Y-130503980D01*
X238536547Y-130476043D01*
X238501975Y-130415326D01*
X238505718Y-130345557D01*
X238546587Y-130288887D01*
X238550194Y-130286923D01*
X238551714Y-130280266D01*
X238225001Y-129953553D01*
X238225000Y-129953553D01*
X237892169Y-130286381D01*
X237889485Y-130330181D01*
X237848186Y-130386538D01*
X237797064Y-130409649D01*
X237785261Y-130411997D01*
X237785255Y-130411998D01*
X237772449Y-130417303D01*
X237702979Y-130424769D01*
X237677551Y-130417303D01*
X237664744Y-130411998D01*
X237652937Y-130409650D01*
X237591026Y-130377264D01*
X237556453Y-130316547D01*
X237556332Y-130284884D01*
X237225000Y-129953553D01*
X236851556Y-129580109D01*
X237125000Y-129580109D01*
X237125000Y-129619891D01*
X237140224Y-129656645D01*
X237168355Y-129684776D01*
X237205109Y-129700000D01*
X237244891Y-129700000D01*
X237281645Y-129684776D01*
X237309776Y-129656645D01*
X237325000Y-129619891D01*
X237325000Y-129600000D01*
X237578553Y-129600000D01*
X237725000Y-129746447D01*
X237871447Y-129600000D01*
X237851556Y-129580109D01*
X238125000Y-129580109D01*
X238125000Y-129619891D01*
X238140224Y-129656645D01*
X238168355Y-129684776D01*
X238205109Y-129700000D01*
X238244891Y-129700000D01*
X238281645Y-129684776D01*
X238309776Y-129656645D01*
X238325000Y-129619891D01*
X238325000Y-129600000D01*
X238578553Y-129600000D01*
X238725000Y-129746447D01*
X238871447Y-129600000D01*
X238851556Y-129580109D01*
X239125000Y-129580109D01*
X239125000Y-129619891D01*
X239140224Y-129656645D01*
X239168355Y-129684776D01*
X239205109Y-129700000D01*
X239244891Y-129700000D01*
X239281645Y-129684776D01*
X239309776Y-129656645D01*
X239325000Y-129619891D01*
X239325000Y-129580109D01*
X239309776Y-129543355D01*
X239281645Y-129515224D01*
X239244891Y-129500000D01*
X239205109Y-129500000D01*
X239168355Y-129515224D01*
X239140224Y-129543355D01*
X239125000Y-129580109D01*
X238851556Y-129580109D01*
X238725000Y-129453553D01*
X238578553Y-129600000D01*
X238325000Y-129600000D01*
X238325000Y-129580109D01*
X238309776Y-129543355D01*
X238281645Y-129515224D01*
X238244891Y-129500000D01*
X238205109Y-129500000D01*
X238168355Y-129515224D01*
X238140224Y-129543355D01*
X238125000Y-129580109D01*
X237851556Y-129580109D01*
X237725000Y-129453553D01*
X237578553Y-129600000D01*
X237325000Y-129600000D01*
X237325000Y-129580109D01*
X237309776Y-129543355D01*
X237281645Y-129515224D01*
X237244891Y-129500000D01*
X237205109Y-129500000D01*
X237168355Y-129515224D01*
X237140224Y-129543355D01*
X237125000Y-129580109D01*
X236851556Y-129580109D01*
X236544731Y-129273284D01*
X236514075Y-129280281D01*
X236444336Y-129276007D01*
X236387978Y-129234708D01*
X236366710Y-129191488D01*
X236350794Y-129132088D01*
X236350794Y-129100000D01*
X237078553Y-129100000D01*
X237225000Y-129246447D01*
X237371447Y-129100000D01*
X238078553Y-129100000D01*
X238225000Y-129246447D01*
X238371447Y-129100000D01*
X239078553Y-129100000D01*
X239225000Y-129246447D01*
X239371447Y-129100000D01*
X239225000Y-128953553D01*
X239078553Y-129100000D01*
X238371447Y-129100000D01*
X238225000Y-128953553D01*
X238078553Y-129100000D01*
X237371447Y-129100000D01*
X237225000Y-128953553D01*
X237078553Y-129100000D01*
X236350794Y-129100000D01*
X236350794Y-129067911D01*
X236366710Y-129008511D01*
X236403073Y-128948854D01*
X236465920Y-128918325D01*
X236514076Y-128919717D01*
X236544732Y-128926714D01*
X236871447Y-128600000D01*
X236851556Y-128580109D01*
X237125000Y-128580109D01*
X237125000Y-128619891D01*
X237140224Y-128656645D01*
X237168355Y-128684776D01*
X237205109Y-128700000D01*
X237244891Y-128700000D01*
X237281645Y-128684776D01*
X237309776Y-128656645D01*
X237325000Y-128619891D01*
X237325000Y-128600000D01*
X237578553Y-128600000D01*
X237725000Y-128746447D01*
X237871447Y-128600000D01*
X237851556Y-128580109D01*
X238125000Y-128580109D01*
X238125000Y-128619891D01*
X238140224Y-128656645D01*
X238168355Y-128684776D01*
X238205109Y-128700000D01*
X238244891Y-128700000D01*
X238281645Y-128684776D01*
X238309776Y-128656645D01*
X238325000Y-128619891D01*
X238325000Y-128600000D01*
X238578553Y-128600000D01*
X238725000Y-128746447D01*
X238871447Y-128600000D01*
X238851556Y-128580109D01*
X239125000Y-128580109D01*
X239125000Y-128619891D01*
X239140224Y-128656645D01*
X239168355Y-128684776D01*
X239205109Y-128700000D01*
X239244891Y-128700000D01*
X239281645Y-128684776D01*
X239309776Y-128656645D01*
X239325000Y-128619891D01*
X239325000Y-128580109D01*
X239309776Y-128543355D01*
X239281645Y-128515224D01*
X239244891Y-128500000D01*
X239205109Y-128500000D01*
X239168355Y-128515224D01*
X239140224Y-128543355D01*
X239125000Y-128580109D01*
X238851556Y-128580109D01*
X238725000Y-128453553D01*
X238578553Y-128600000D01*
X238325000Y-128600000D01*
X238325000Y-128580109D01*
X238309776Y-128543355D01*
X238281645Y-128515224D01*
X238244891Y-128500000D01*
X238205109Y-128500000D01*
X238168355Y-128515224D01*
X238140224Y-128543355D01*
X238125000Y-128580109D01*
X237851556Y-128580109D01*
X237725000Y-128453553D01*
X237578553Y-128600000D01*
X237325000Y-128600000D01*
X237325000Y-128580109D01*
X237309776Y-128543355D01*
X237281645Y-128515224D01*
X237244891Y-128500000D01*
X237205109Y-128500000D01*
X237168355Y-128515224D01*
X237140224Y-128543355D01*
X237125000Y-128580109D01*
X236851556Y-128580109D01*
X236544731Y-128273284D01*
X236514075Y-128280281D01*
X236444336Y-128276007D01*
X236387978Y-128234708D01*
X236366709Y-128191486D01*
X236347077Y-128118216D01*
X236336560Y-128100000D01*
X237078553Y-128100000D01*
X237225000Y-128246447D01*
X237371447Y-128100000D01*
X238078553Y-128100000D01*
X238225000Y-128246447D01*
X238371447Y-128100000D01*
X239078553Y-128100000D01*
X239225000Y-128246447D01*
X239371447Y-128100000D01*
X239225000Y-127953553D01*
X239078553Y-128100000D01*
X238371447Y-128100000D01*
X238225000Y-127953553D01*
X238078553Y-128100000D01*
X237371447Y-128100000D01*
X237225000Y-127953553D01*
X237078553Y-128100000D01*
X236336560Y-128100000D01*
X236325304Y-128080504D01*
X236308832Y-128012606D01*
X236314294Y-127988209D01*
X236313659Y-127988083D01*
X236316565Y-127973470D01*
X236319283Y-127968272D01*
X236320726Y-127964792D01*
X236321036Y-127964920D01*
X236348947Y-127911558D01*
X236409661Y-127876981D01*
X236479430Y-127880717D01*
X236536104Y-127921581D01*
X236538070Y-127925193D01*
X236544732Y-127926714D01*
X236871447Y-127600000D01*
X236851556Y-127580109D01*
X237125000Y-127580109D01*
X237125000Y-127619891D01*
X237140224Y-127656645D01*
X237168355Y-127684776D01*
X237205109Y-127700000D01*
X237244891Y-127700000D01*
X237281645Y-127684776D01*
X237309776Y-127656645D01*
X237325000Y-127619891D01*
X237325000Y-127600000D01*
X237578553Y-127600000D01*
X237725000Y-127746447D01*
X237871447Y-127600000D01*
X237851556Y-127580109D01*
X238125000Y-127580109D01*
X238125000Y-127619891D01*
X238140224Y-127656645D01*
X238168355Y-127684776D01*
X238205109Y-127700000D01*
X238244891Y-127700000D01*
X238281645Y-127684776D01*
X238309776Y-127656645D01*
X238325000Y-127619891D01*
X238325000Y-127600000D01*
X238578553Y-127600000D01*
X238725000Y-127746447D01*
X238871447Y-127600000D01*
X238851556Y-127580109D01*
X239125000Y-127580109D01*
X239125000Y-127619891D01*
X239140224Y-127656645D01*
X239168355Y-127684776D01*
X239205109Y-127700000D01*
X239244891Y-127700000D01*
X239281645Y-127684776D01*
X239309776Y-127656645D01*
X239325000Y-127619891D01*
X239325000Y-127580109D01*
X239309776Y-127543355D01*
X239281645Y-127515224D01*
X239244891Y-127500000D01*
X239205109Y-127500000D01*
X239168355Y-127515224D01*
X239140224Y-127543355D01*
X239125000Y-127580109D01*
X238851556Y-127580109D01*
X238725000Y-127453553D01*
X238578553Y-127600000D01*
X238325000Y-127600000D01*
X238325000Y-127580109D01*
X238309776Y-127543355D01*
X238281645Y-127515224D01*
X238244891Y-127500000D01*
X238205109Y-127500000D01*
X238168355Y-127515224D01*
X238140224Y-127543355D01*
X238125000Y-127580109D01*
X237851556Y-127580109D01*
X237725000Y-127453553D01*
X237578553Y-127600000D01*
X237325000Y-127600000D01*
X237325000Y-127580109D01*
X237309776Y-127543355D01*
X237281645Y-127515224D01*
X237244891Y-127500000D01*
X237205109Y-127500000D01*
X237168355Y-127515224D01*
X237140224Y-127543355D01*
X237125000Y-127580109D01*
X236851556Y-127580109D01*
X236544732Y-127273285D01*
X236531559Y-127276291D01*
X236514501Y-127300074D01*
X236449548Y-127325820D01*
X236380987Y-127312363D01*
X236330585Y-127263975D01*
X236316565Y-127226531D01*
X236313659Y-127211920D01*
X236316247Y-127211405D01*
X236310660Y-127159487D01*
X236325305Y-127119492D01*
X236347077Y-127081784D01*
X236388000Y-126929057D01*
X236388000Y-126887000D01*
X236407685Y-126819962D01*
X236460489Y-126774207D01*
X236512000Y-126763001D01*
X236554056Y-126763001D01*
X236554058Y-126763001D01*
X236692910Y-126725795D01*
X236757092Y-126725795D01*
X236816485Y-126741709D01*
X236876144Y-126778073D01*
X236906673Y-126840920D01*
X236905281Y-126889075D01*
X236898284Y-126919731D01*
X237225000Y-127246447D01*
X237225001Y-127246447D01*
X237551714Y-126919732D01*
X237544717Y-126889076D01*
X237548990Y-126819337D01*
X237590289Y-126762979D01*
X237633511Y-126741710D01*
X237706784Y-126722077D01*
X237744494Y-126700304D01*
X237812389Y-126683832D01*
X237836793Y-126689294D01*
G37*
%TD.AperFunction*%
%TA.AperFunction,Conductor*%
G36*
X228580702Y-124205383D02*
G01*
X228587180Y-124211415D01*
X233341872Y-128966107D01*
X233375357Y-129027430D01*
X233370373Y-129097122D01*
X233357524Y-129119942D01*
X233358446Y-129120511D01*
X233352167Y-129130689D01*
X233300216Y-129177410D01*
X233231252Y-129188626D01*
X233205679Y-129182626D01*
X233154254Y-129164631D01*
X233154249Y-129164630D01*
X232975004Y-129144435D01*
X232974996Y-129144435D01*
X232795750Y-129164630D01*
X232795745Y-129164631D01*
X232625476Y-129224211D01*
X232472737Y-129320184D01*
X232345184Y-129447737D01*
X232249211Y-129600476D01*
X232189631Y-129770745D01*
X232189630Y-129770749D01*
X232170831Y-129937604D01*
X232143765Y-130002018D01*
X232086170Y-130041573D01*
X232016333Y-130043710D01*
X231972122Y-130022094D01*
X231968718Y-130019482D01*
X231968716Y-130019480D01*
X231864960Y-129959577D01*
X231864959Y-129959576D01*
X231831783Y-129940422D01*
X231775881Y-129925443D01*
X231679057Y-129899499D01*
X231520943Y-129899499D01*
X231513347Y-129899499D01*
X231513331Y-129899500D01*
X227162292Y-129899500D01*
X227095253Y-129879815D01*
X227057299Y-129841473D01*
X227029815Y-129797734D01*
X227027550Y-129794893D01*
X227026659Y-129792710D01*
X227026112Y-129791840D01*
X227026264Y-129791744D01*
X227001144Y-129730206D01*
X227000500Y-129717584D01*
X227000500Y-129400097D01*
X227020185Y-129333058D01*
X227036819Y-129312416D01*
X227882295Y-128466940D01*
X228780520Y-127568716D01*
X228859577Y-127431784D01*
X228900501Y-127279057D01*
X228900501Y-127120942D01*
X228900501Y-127113347D01*
X228900500Y-127113329D01*
X228900500Y-125589059D01*
X228900501Y-125589046D01*
X228900501Y-125420945D01*
X228900501Y-125420943D01*
X228859577Y-125268215D01*
X228834036Y-125223977D01*
X228828352Y-125214132D01*
X228828351Y-125214131D01*
X228796855Y-125159577D01*
X228780520Y-125131284D01*
X228668716Y-125019480D01*
X228668715Y-125019479D01*
X228664385Y-125015149D01*
X228664374Y-125015139D01*
X228411818Y-124762583D01*
X228378333Y-124701260D01*
X228375499Y-124674902D01*
X228375499Y-124299096D01*
X228395184Y-124232057D01*
X228447988Y-124186302D01*
X228517146Y-124176358D01*
X228580702Y-124205383D01*
G37*
%TD.AperFunction*%
%TA.AperFunction,Conductor*%
G36*
X236877334Y-120620185D02*
G01*
X236923089Y-120672989D01*
X236933033Y-120742147D01*
X236915834Y-120789596D01*
X236864095Y-120873477D01*
X236864092Y-120873484D01*
X236809826Y-121037247D01*
X236809826Y-121037248D01*
X236809825Y-121037248D01*
X236799500Y-121138315D01*
X236799500Y-121598382D01*
X236779815Y-121665421D01*
X236727011Y-121711176D01*
X236657853Y-121721120D01*
X236610403Y-121703921D01*
X236526305Y-121652048D01*
X236526300Y-121652046D01*
X236362652Y-121597819D01*
X236261654Y-121587500D01*
X236225000Y-121587500D01*
X236225000Y-122751000D01*
X236205315Y-122818039D01*
X236152511Y-122863794D01*
X236101000Y-122875000D01*
X235000001Y-122875000D01*
X235000001Y-122974154D01*
X235010319Y-123075152D01*
X235064546Y-123238800D01*
X235064551Y-123238811D01*
X235155052Y-123385534D01*
X235155055Y-123385538D01*
X235168982Y-123399465D01*
X235202467Y-123460788D01*
X235197483Y-123530480D01*
X235168984Y-123574825D01*
X235154661Y-123589148D01*
X235064093Y-123735981D01*
X235064091Y-123735986D01*
X235040339Y-123807664D01*
X235009826Y-123899747D01*
X235009826Y-123899748D01*
X235009825Y-123899748D01*
X234999500Y-124000815D01*
X234999500Y-124630973D01*
X234979815Y-124698012D01*
X234927011Y-124743767D01*
X234861618Y-124754193D01*
X234775005Y-124744435D01*
X234774996Y-124744435D01*
X234595750Y-124764630D01*
X234595745Y-124764631D01*
X234425476Y-124824211D01*
X234272737Y-124920184D01*
X234145184Y-125047737D01*
X234049211Y-125200476D01*
X233989631Y-125370745D01*
X233989630Y-125370749D01*
X233986737Y-125396432D01*
X233959670Y-125460846D01*
X233902075Y-125500401D01*
X233832238Y-125502538D01*
X233775836Y-125470229D01*
X230581452Y-122275845D01*
X235000000Y-122275845D01*
X235000000Y-122375000D01*
X235725000Y-122375000D01*
X235725000Y-121587500D01*
X235688361Y-121587500D01*
X235688343Y-121587501D01*
X235587347Y-121597819D01*
X235423699Y-121652046D01*
X235423688Y-121652051D01*
X235276965Y-121742552D01*
X235276961Y-121742555D01*
X235155055Y-121864461D01*
X235155052Y-121864465D01*
X235064551Y-122011188D01*
X235064546Y-122011199D01*
X235010319Y-122174847D01*
X235000000Y-122275845D01*
X230581452Y-122275845D01*
X229117788Y-120812181D01*
X229084303Y-120750858D01*
X229089287Y-120681166D01*
X229131159Y-120625233D01*
X229196623Y-120600816D01*
X229205469Y-120600500D01*
X236810295Y-120600500D01*
X236877334Y-120620185D01*
G37*
%TD.AperFunction*%
%TD*%
M02*
