%TF.GenerationSoftware,KiCad,Pcbnew,9.0.3*%
%TF.CreationDate,2025-11-28T17:50:14+01:00*%
%TF.ProjectId,esp32_POE,65737033-325f-4504-9f45-2e6b69636164,rev?*%
%TF.SameCoordinates,Original*%
%TF.FileFunction,Soldermask,Bot*%
%TF.FilePolarity,Negative*%
%FSLAX46Y46*%
G04 Gerber Fmt 4.6, Leading zero omitted, Abs format (unit mm)*
G04 Created by KiCad (PCBNEW 9.0.3) date 2025-11-28 17:50:14*
%MOMM*%
%LPD*%
G01*
G04 APERTURE LIST*
G04 Aperture macros list*
%AMRoundRect*
0 Rectangle with rounded corners*
0 $1 Rounding radius*
0 $2 $3 $4 $5 $6 $7 $8 $9 X,Y pos of 4 corners*
0 Add a 4 corners polygon primitive as box body*
4,1,4,$2,$3,$4,$5,$6,$7,$8,$9,$2,$3,0*
0 Add four circle primitives for the rounded corners*
1,1,$1+$1,$2,$3*
1,1,$1+$1,$4,$5*
1,1,$1+$1,$6,$7*
1,1,$1+$1,$8,$9*
0 Add four rect primitives between the rounded corners*
20,1,$1+$1,$2,$3,$4,$5,0*
20,1,$1+$1,$4,$5,$6,$7,0*
20,1,$1+$1,$6,$7,$8,$9,0*
20,1,$1+$1,$8,$9,$2,$3,0*%
G04 Aperture macros list end*
%ADD10C,2.400000*%
%ADD11C,1.530000*%
%ADD12C,1.446000*%
%ADD13C,3.250000*%
%ADD14R,1.600000X1.600000*%
%ADD15C,1.600000*%
%ADD16R,2.500000X2.500000*%
%ADD17C,2.500000*%
%ADD18R,2.200000X2.200000*%
%ADD19O,2.200000X2.200000*%
%ADD20R,1.700000X1.700000*%
%ADD21O,1.700000X1.700000*%
%ADD22R,1.350000X1.350000*%
%ADD23O,1.350000X1.350000*%
%ADD24R,1.500000X1.500000*%
%ADD25C,1.500000*%
%ADD26C,0.650000*%
%ADD27O,1.000000X2.100000*%
%ADD28O,1.000000X1.600000*%
%ADD29O,1.600000X1.600000*%
%ADD30C,2.000000*%
%ADD31RoundRect,0.237500X0.237500X-0.250000X0.237500X0.250000X-0.237500X0.250000X-0.237500X-0.250000X0*%
%ADD32RoundRect,0.062500X-0.062500X0.375000X-0.062500X-0.375000X0.062500X-0.375000X0.062500X0.375000X0*%
%ADD33RoundRect,0.062500X-0.375000X0.062500X-0.375000X-0.062500X0.375000X-0.062500X0.375000X0.062500X0*%
%ADD34R,3.300000X3.300000*%
%ADD35RoundRect,0.237500X-0.237500X0.250000X-0.237500X-0.250000X0.237500X-0.250000X0.237500X0.250000X0*%
%ADD36RoundRect,0.237500X-0.237500X0.300000X-0.237500X-0.300000X0.237500X-0.300000X0.237500X0.300000X0*%
%ADD37RoundRect,0.237500X-0.250000X-0.237500X0.250000X-0.237500X0.250000X0.237500X-0.250000X0.237500X0*%
%ADD38RoundRect,0.237500X0.237500X-0.300000X0.237500X0.300000X-0.237500X0.300000X-0.237500X-0.300000X0*%
G04 APERTURE END LIST*
D10*
%TO.C,J2*%
X74750000Y-123610000D03*
X74750000Y-139360000D03*
D11*
X67130000Y-124760000D03*
X69160000Y-124760000D03*
X67130000Y-138210000D03*
X69160000Y-138210000D03*
D12*
X78050000Y-137200000D03*
X80590000Y-135930000D03*
X78050000Y-132120000D03*
X80590000Y-130850000D03*
X78050000Y-129580000D03*
X80590000Y-128310000D03*
X78050000Y-127040000D03*
X80590000Y-125770000D03*
D13*
X71700000Y-125770000D03*
X71700000Y-137200000D03*
%TD*%
D14*
%TO.C,C11*%
X116200000Y-129594887D03*
D15*
X116200000Y-132094887D03*
%TD*%
D16*
%TO.C,J4*%
X174400000Y-138000000D03*
D17*
X179400000Y-138000000D03*
X184400000Y-138000000D03*
%TD*%
D18*
%TO.C,D4*%
X95920000Y-127400000D03*
D19*
X106080000Y-127400000D03*
%TD*%
D20*
%TO.C,J9*%
X206200000Y-141800000D03*
D21*
X206200000Y-139260000D03*
X206200000Y-136720000D03*
X206200000Y-134180000D03*
%TD*%
D22*
%TO.C,J10*%
X227200000Y-124400000D03*
D23*
X227200000Y-126400000D03*
%TD*%
D16*
%TO.C,J3*%
X191400000Y-138000000D03*
D17*
X196400000Y-138000000D03*
X201400000Y-138000000D03*
%TD*%
D24*
%TO.C,Q1*%
X211520000Y-130000000D03*
D25*
X214060000Y-130000000D03*
X216600000Y-130000000D03*
%TD*%
D16*
%TO.C,J6*%
X167300000Y-124900000D03*
D17*
X162300000Y-124900000D03*
X157300000Y-124900000D03*
%TD*%
D16*
%TO.C,J5*%
X157400000Y-138200000D03*
D17*
X162400000Y-138200000D03*
X167400000Y-138200000D03*
%TD*%
D16*
%TO.C,J8*%
X150500000Y-125600000D03*
D17*
X145500000Y-125600000D03*
%TD*%
D26*
%TO.C,J1*%
X205170000Y-125480000D03*
X199390000Y-125480000D03*
D27*
X206600000Y-125980000D03*
D28*
X206600000Y-121800000D03*
D27*
X197960000Y-125980000D03*
D28*
X197960000Y-121800000D03*
%TD*%
D15*
%TO.C,R37*%
X113480000Y-138800000D03*
D29*
X103320000Y-138800000D03*
%TD*%
D24*
%TO.C,Q2*%
X211520000Y-124800000D03*
D25*
X214060000Y-124800000D03*
X216600000Y-124800000D03*
%TD*%
D30*
%TO.C,SW1*%
X228125000Y-141600000D03*
X228125000Y-135100000D03*
X232625000Y-141600000D03*
X232625000Y-135100000D03*
%TD*%
D20*
%TO.C,J7*%
X251575000Y-141325000D03*
D21*
X254115000Y-141325000D03*
X256655000Y-141325000D03*
X259195000Y-141325000D03*
%TD*%
D31*
%TO.C,R8*%
X237775000Y-123262500D03*
X237775000Y-121437500D03*
%TD*%
D32*
%TO.C,U4*%
X236475000Y-126162500D03*
X236975000Y-126162500D03*
X237475000Y-126162500D03*
X237975000Y-126162500D03*
X238475000Y-126162500D03*
X238975000Y-126162500D03*
X239475000Y-126162500D03*
X239975000Y-126162500D03*
D33*
X240662500Y-126850000D03*
X240662500Y-127350000D03*
X240662500Y-127850000D03*
X240662500Y-128350000D03*
X240662500Y-128850000D03*
X240662500Y-129350000D03*
X240662500Y-129850000D03*
X240662500Y-130350000D03*
D32*
X239975000Y-131037500D03*
X239475000Y-131037500D03*
X238975000Y-131037500D03*
X238475000Y-131037500D03*
X237975000Y-131037500D03*
X237475000Y-131037500D03*
X236975000Y-131037500D03*
X236475000Y-131037500D03*
D33*
X235787500Y-130350000D03*
X235787500Y-129850000D03*
X235787500Y-129350000D03*
X235787500Y-128850000D03*
X235787500Y-128350000D03*
X235787500Y-127850000D03*
X235787500Y-127350000D03*
X235787500Y-126850000D03*
D34*
X238225000Y-128600000D03*
%TD*%
D35*
%TO.C,R14*%
X250575000Y-122700000D03*
X250575000Y-124525000D03*
%TD*%
D36*
%TO.C,C4*%
X263485000Y-124887500D03*
X263485000Y-126612500D03*
%TD*%
D35*
%TO.C,R6*%
X239375000Y-121437500D03*
X239375000Y-123262500D03*
%TD*%
D36*
%TO.C,C12*%
X235975000Y-122625000D03*
X235975000Y-124350000D03*
%TD*%
%TO.C,C3*%
X261375000Y-124887500D03*
X261375000Y-126612500D03*
%TD*%
D35*
%TO.C,R20*%
X254175000Y-122700000D03*
X254175000Y-124525000D03*
%TD*%
D37*
%TO.C,R7*%
X240662500Y-132950000D03*
X242487500Y-132950000D03*
%TD*%
D38*
%TO.C,C7*%
X241375000Y-124212500D03*
X241375000Y-122487500D03*
%TD*%
D36*
%TO.C,C9*%
X234175000Y-129887500D03*
X234175000Y-131612500D03*
%TD*%
D35*
%TO.C,R19*%
X252375000Y-122700000D03*
X252375000Y-124525000D03*
%TD*%
M02*
