M48
; DRILL file {KiCad 9.0.3} date 2025-11-28T17:50:14+0100
; FORMAT={-:-/ absolute / inch / decimal}
; #@! TF.CreationDate,2025-11-28T17:50:14+01:00
; #@! TF.GenerationSoftware,Kicad,Pcbnew,9.0.3
; #@! TF.FileFunction,Plated,1,2,PTH
FMAT,2
INCH
; #@! TA.AperFunction,Plated,PTH,ComponentDrill
T1C0.0079
; #@! TA.AperFunction,Plated,PTH,ViaDrill
T2C0.0118
; #@! TA.AperFunction,Plated,PTH,ComponentDrill
T3C0.0236
; #@! TA.AperFunction,Plated,PTH,ComponentDrill
T4C0.0315
; #@! TA.AperFunction,Plated,PTH,ComponentDrill
T5C0.0350
; #@! TA.AperFunction,Plated,PTH,ComponentDrill
T6C0.0394
; #@! TA.AperFunction,Plated,PTH,ComponentDrill
T7C0.0402
; #@! TA.AperFunction,Plated,PTH,ComponentDrill
T8C0.0433
; #@! TA.AperFunction,Plated,PTH,ComponentDrill
T9C0.0512
; #@! TA.AperFunction,Plated,PTH,ComponentDrill
T10C0.0630
%
G90
G05
T1
X9.3396Y-5.0236
X9.3396Y-5.063
X9.3396Y-5.1024
X9.3789Y-5.0236
X9.3789Y-5.063
X9.3789Y-5.1024
X9.4183Y-5.0236
X9.4183Y-5.063
X9.4183Y-5.1024
X10.0496Y-4.998
X10.0496Y-5.0531
X10.0772Y-4.9705
X10.0772Y-5.0246
X10.0772Y-5.0807
X10.1047Y-4.998
X10.1047Y-5.0531
X10.1323Y-4.9705
X10.1323Y-5.0246
X10.1323Y-5.0807
X10.1598Y-4.998
X10.1598Y-5.0531
T2
X3.5394Y-5.3898
X3.5472Y-4.9173
X3.8268Y-5.2362
X5.6339Y-5.4528
X5.6614Y-5.4528
X5.6929Y-5.4567
X6.8858Y-4.7953
X6.9646Y-4.8268
X7.0866Y-4.748
X7.1654Y-4.9921
X7.1654Y-5.0945
X7.1772Y-4.7795
X7.3228Y-4.8819
X7.7018Y-5.0699
X7.937Y-5.0551
X7.9921Y-5.0551
X8.2047Y-5.2677
X8.2746Y-4.9675
X8.3071Y-5.5197
X8.308Y-5.001
X8.3543Y-5.1969
X8.3858Y-5.4803
X8.7402Y-4.9764
X8.7402Y-5.0236
X8.9134Y-5.1299
X8.9134Y-5.1614
X9.0354Y-5.0748
X9.0669Y-5.5
X9.0699Y-5.3209
X9.1122Y-5.093
X9.1722Y-5.1161
X9.2195Y-4.7854
X9.2431Y-4.9429
X9.2825Y-5.5807
X9.3143Y-4.8647
X9.377Y-5.5886
X9.3976Y-5.4764
X9.4567Y-4.9281
X9.4956Y-4.9311
X9.512Y-4.7653
X9.5344Y-4.935
X9.5604Y-5.0129
X9.5817Y-5.2736
X9.5974Y-5.0768
X9.6156Y-5.0157
X9.6654Y-4.7854
X9.7497Y-4.8206
X9.7598Y-5.0512
X9.8051Y-4.9547
X9.8051Y-4.9862
X9.8543Y-4.7913
X9.9094Y-4.7874
X9.9409Y-5.2461
X9.9567Y-4.7874
X9.9675Y-5.2717
X10.033Y-5.3725
X10.0748Y-4.874
X10.1339Y-4.874
X10.1432Y-5.3489
X10.208Y-5.4938
X10.2362Y-5.5079
X10.2904Y-5.2972
X10.2982Y-5.4882
X10.3612Y-4.7854
X10.4213Y-4.8071
T4
X4.0677Y-5.4646
X4.4677Y-5.4646
X4.5748Y-5.1022
X4.5748Y-5.2006
X8.3276Y-4.9134
X8.3276Y-5.1181
X8.4276Y-4.9134
X8.4276Y-5.1181
X8.5276Y-4.9134
X8.5276Y-5.1181
X8.9449Y-4.8976
X8.9449Y-4.9764
T5
X3.0728Y-5.0016
X3.0728Y-5.1016
X3.0728Y-5.2016
X3.0728Y-5.4016
X3.1728Y-4.9516
X3.1728Y-5.0516
X3.1728Y-5.1516
X3.1728Y-5.3516
T6
X8.1181Y-5.2827
X8.1181Y-5.3827
X8.1181Y-5.4827
X8.1181Y-5.5827
X9.9045Y-5.564
X10.0045Y-5.564
X10.1045Y-5.564
X10.2045Y-5.564
T7
X2.6429Y-4.9118
X2.6429Y-5.4413
X2.7228Y-4.9118
X2.7228Y-5.4413
T8
X3.7764Y-5.0157
X4.1764Y-5.0157
X8.9813Y-5.3189
X8.9813Y-5.5748
X9.1585Y-5.3189
X9.1585Y-5.5748
T9
X5.7283Y-4.9449
X5.9252Y-4.9449
X6.1929Y-4.9173
X6.1969Y-5.4409
X6.3898Y-4.9173
X6.3937Y-5.4409
X6.5866Y-4.9173
X6.5906Y-5.4409
X6.8661Y-5.4331
X7.063Y-5.4331
X7.2598Y-5.4331
X7.5354Y-5.4331
X7.7323Y-5.4331
X7.9291Y-5.4331
T10
X2.9429Y-4.8665
X2.9429Y-5.4866
T3
G00X7.7937Y-4.8071
M15
G01X7.7937Y-4.7835
M16
G05
G00X7.7937Y-4.9815
M15
G01X7.7937Y-4.9382
M16
G05
G00X8.1339Y-4.8071
M15
G01X8.1339Y-4.7835
M16
G05
G00X8.1339Y-4.9815
M15
G01X8.1339Y-4.9382
M16
G05
M30
