%TF.GenerationSoftware,KiCad,Pcbnew,9.0.3*%
%TF.CreationDate,2025-11-28T17:50:14+01:00*%
%TF.ProjectId,esp32_POE,65737033-325f-4504-9f45-2e6b69636164,rev?*%
%TF.SameCoordinates,Original*%
%TF.FileFunction,Soldermask,Top*%
%TF.FilePolarity,Negative*%
%FSLAX46Y46*%
G04 Gerber Fmt 4.6, Leading zero omitted, Abs format (unit mm)*
G04 Created by KiCad (PCBNEW 9.0.3) date 2025-11-28 17:50:14*
%MOMM*%
%LPD*%
G01*
G04 APERTURE LIST*
G04 Aperture macros list*
%AMRoundRect*
0 Rectangle with rounded corners*
0 $1 Rounding radius*
0 $2 $3 $4 $5 $6 $7 $8 $9 X,Y pos of 4 corners*
0 Add a 4 corners polygon primitive as box body*
4,1,4,$2,$3,$4,$5,$6,$7,$8,$9,$2,$3,0*
0 Add four circle primitives for the rounded corners*
1,1,$1+$1,$2,$3*
1,1,$1+$1,$4,$5*
1,1,$1+$1,$6,$7*
1,1,$1+$1,$8,$9*
0 Add four rect primitives between the rounded corners*
20,1,$1+$1,$2,$3,$4,$5,0*
20,1,$1+$1,$4,$5,$6,$7,0*
20,1,$1+$1,$6,$7,$8,$9,0*
20,1,$1+$1,$8,$9,$2,$3,0*%
G04 Aperture macros list end*
%ADD10C,2.400000*%
%ADD11C,1.530000*%
%ADD12C,1.446000*%
%ADD13R,1.600000X1.600000*%
%ADD14C,1.600000*%
%ADD15RoundRect,0.237500X-0.237500X0.250000X-0.237500X-0.250000X0.237500X-0.250000X0.237500X0.250000X0*%
%ADD16RoundRect,0.237500X-0.300000X-0.237500X0.300000X-0.237500X0.300000X0.237500X-0.300000X0.237500X0*%
%ADD17R,2.500000X2.500000*%
%ADD18C,2.500000*%
%ADD19RoundRect,0.237500X0.237500X-0.250000X0.237500X0.250000X-0.237500X0.250000X-0.237500X-0.250000X0*%
%ADD20R,2.200000X2.200000*%
%ADD21O,2.200000X2.200000*%
%ADD22RoundRect,0.237500X-0.237500X0.300000X-0.237500X-0.300000X0.237500X-0.300000X0.237500X0.300000X0*%
%ADD23R,1.700000X1.700000*%
%ADD24O,1.700000X1.700000*%
%ADD25RoundRect,0.237500X0.300000X0.237500X-0.300000X0.237500X-0.300000X-0.237500X0.300000X-0.237500X0*%
%ADD26RoundRect,0.150000X0.825000X0.150000X-0.825000X0.150000X-0.825000X-0.150000X0.825000X-0.150000X0*%
%ADD27R,0.900000X1.500000*%
%ADD28R,1.500000X0.900000*%
%ADD29C,0.600000*%
%ADD30R,3.800000X3.800000*%
%ADD31RoundRect,0.237500X0.250000X0.237500X-0.250000X0.237500X-0.250000X-0.237500X0.250000X-0.237500X0*%
%ADD32R,1.350000X1.350000*%
%ADD33O,1.350000X1.350000*%
%ADD34RoundRect,0.237500X-0.250000X-0.237500X0.250000X-0.237500X0.250000X0.237500X-0.250000X0.237500X0*%
%ADD35R,1.500000X1.500000*%
%ADD36C,1.500000*%
%ADD37RoundRect,0.375000X-0.625000X-0.375000X0.625000X-0.375000X0.625000X0.375000X-0.625000X0.375000X0*%
%ADD38RoundRect,0.500000X-0.500000X-1.400000X0.500000X-1.400000X0.500000X1.400000X-0.500000X1.400000X0*%
%ADD39RoundRect,0.250000X-0.650000X1.000000X-0.650000X-1.000000X0.650000X-1.000000X0.650000X1.000000X0*%
%ADD40RoundRect,0.087500X-0.425000X-0.087500X0.425000X-0.087500X0.425000X0.087500X-0.425000X0.087500X0*%
%ADD41RoundRect,0.087500X-0.087500X-0.425000X0.087500X-0.425000X0.087500X0.425000X-0.087500X0.425000X0*%
%ADD42R,3.150000X3.150000*%
%ADD43RoundRect,0.100000X0.637500X0.100000X-0.637500X0.100000X-0.637500X-0.100000X0.637500X-0.100000X0*%
%ADD44RoundRect,0.550000X1.200000X0.550000X-1.200000X0.550000X-1.200000X-0.550000X1.200000X-0.550000X0*%
%ADD45R,0.300000X1.150000*%
%ADD46O,1.000000X2.100000*%
%ADD47O,1.000000X1.600000*%
%ADD48O,1.600000X1.600000*%
%ADD49C,2.000000*%
G04 APERTURE END LIST*
D10*
%TO.C,J2*%
X74750000Y-123610000D03*
X74750000Y-139360000D03*
D11*
X67130000Y-124760000D03*
X69160000Y-124760000D03*
X67130000Y-138210000D03*
X69160000Y-138210000D03*
D12*
X78050000Y-137200000D03*
X80590000Y-135930000D03*
X78050000Y-132120000D03*
X80590000Y-130850000D03*
X78050000Y-129580000D03*
X80590000Y-128310000D03*
X78050000Y-127040000D03*
X80590000Y-125770000D03*
%TD*%
D13*
%TO.C,C11*%
X116200000Y-129594887D03*
D14*
X116200000Y-132094887D03*
%TD*%
D15*
%TO.C,R36*%
X97890000Y-138087500D03*
X97890000Y-139912500D03*
%TD*%
D16*
%TO.C,C1*%
X226400000Y-128800000D03*
X228125000Y-128800000D03*
%TD*%
D17*
%TO.C,J4*%
X174400000Y-138000000D03*
D18*
X179400000Y-138000000D03*
X184400000Y-138000000D03*
%TD*%
D19*
%TO.C,R4*%
X209200000Y-126025000D03*
X209200000Y-124200000D03*
%TD*%
D20*
%TO.C,D4*%
X95920000Y-127400000D03*
D21*
X106080000Y-127400000D03*
%TD*%
D19*
%TO.C,R30*%
X95800000Y-132912500D03*
X95800000Y-131087500D03*
%TD*%
%TO.C,R11*%
X180070000Y-125400000D03*
X180070000Y-123575000D03*
%TD*%
D22*
%TO.C,C16*%
X108000000Y-132137500D03*
X108000000Y-133862500D03*
%TD*%
D23*
%TO.C,J9*%
X206200000Y-141800000D03*
D24*
X206200000Y-139260000D03*
X206200000Y-136720000D03*
X206200000Y-134180000D03*
%TD*%
D25*
%TO.C,C5*%
X186262500Y-129400000D03*
X184537500Y-129400000D03*
%TD*%
D15*
%TO.C,R31*%
X87600000Y-137487500D03*
X87600000Y-139312500D03*
%TD*%
D19*
%TO.C,R17*%
X242605000Y-122750000D03*
X242605000Y-120925000D03*
%TD*%
D26*
%TO.C,U2*%
X223875000Y-132645000D03*
X223875000Y-131375000D03*
X223875000Y-130105000D03*
X223875000Y-128835000D03*
X223875000Y-127565000D03*
X223875000Y-126295000D03*
X223875000Y-125025000D03*
X223875000Y-123755000D03*
X218925000Y-123755000D03*
X218925000Y-125025000D03*
X218925000Y-126295000D03*
X218925000Y-127565000D03*
X218925000Y-128835000D03*
X218925000Y-130105000D03*
X218925000Y-131375000D03*
X218925000Y-132645000D03*
%TD*%
D27*
%TO.C,U1*%
X264380000Y-120400000D03*
X263110000Y-120400000D03*
X261840000Y-120400000D03*
X260570000Y-120400000D03*
X259300000Y-120400000D03*
X258030000Y-120400000D03*
X256760000Y-120400000D03*
X255490000Y-120400000D03*
X254220000Y-120400000D03*
X252950000Y-120400000D03*
X251680000Y-120400000D03*
X250410000Y-120400000D03*
X249140000Y-120400000D03*
X247870000Y-120400000D03*
D28*
X246620000Y-123440000D03*
X246620000Y-124710000D03*
X246620000Y-125980000D03*
X246620000Y-127250000D03*
X246620000Y-128520000D03*
X246620000Y-129790000D03*
X246620000Y-131060000D03*
X246620000Y-132330000D03*
X246620000Y-133600000D03*
X246620000Y-134870000D03*
D27*
X247870000Y-137900000D03*
X249140000Y-137900000D03*
X250410000Y-137900000D03*
X251680000Y-137900000D03*
X252950000Y-137900000D03*
X254220000Y-137900000D03*
X255490000Y-137900000D03*
X256760000Y-137900000D03*
X258030000Y-137900000D03*
X259300000Y-137900000D03*
X260570000Y-137900000D03*
X261840000Y-137900000D03*
X263110000Y-137900000D03*
X264380000Y-137900000D03*
D29*
X257360000Y-126250000D03*
X255960000Y-126250000D03*
X258060000Y-126950000D03*
X256660000Y-126950000D03*
X255260000Y-126950000D03*
X257360000Y-127625000D03*
X255960000Y-127625000D03*
D30*
X256660000Y-127650000D03*
D29*
X258060000Y-128350000D03*
X256660000Y-128350000D03*
X255260000Y-128350000D03*
X257360000Y-129050000D03*
X255960000Y-129050000D03*
%TD*%
D25*
%TO.C,C6*%
X186262500Y-126800000D03*
X184537500Y-126800000D03*
%TD*%
D31*
%TO.C,R24*%
X215112500Y-133200000D03*
X213287500Y-133200000D03*
%TD*%
D19*
%TO.C,R18*%
X244175000Y-122750000D03*
X244175000Y-120925000D03*
%TD*%
%TO.C,R15*%
X240805000Y-122750000D03*
X240805000Y-120925000D03*
%TD*%
D32*
%TO.C,J10*%
X227200000Y-124400000D03*
D33*
X227200000Y-126400000D03*
%TD*%
D19*
%TO.C,R10*%
X176900000Y-125412500D03*
X176900000Y-123587500D03*
%TD*%
D34*
%TO.C,R2*%
X204287500Y-128400000D03*
X206112500Y-128400000D03*
%TD*%
D17*
%TO.C,J3*%
X191400000Y-138000000D03*
D18*
X196400000Y-138000000D03*
X201400000Y-138000000D03*
%TD*%
D19*
%TO.C,R12*%
X182400000Y-125400000D03*
X182400000Y-123575000D03*
%TD*%
D35*
%TO.C,Q1*%
X211520000Y-130000000D03*
D36*
X214060000Y-130000000D03*
X216600000Y-130000000D03*
%TD*%
D37*
%TO.C,U5*%
X188850000Y-124100000D03*
X188850000Y-126400000D03*
D38*
X195150000Y-126400000D03*
D37*
X188850000Y-128700000D03*
%TD*%
D25*
%TO.C,C2*%
X231300000Y-132750000D03*
X229575000Y-132750000D03*
%TD*%
D22*
%TO.C,C17*%
X106000000Y-132137500D03*
X106000000Y-133862500D03*
%TD*%
D17*
%TO.C,J6*%
X167300000Y-124900000D03*
D18*
X162300000Y-124900000D03*
X157300000Y-124900000D03*
%TD*%
D17*
%TO.C,J5*%
X157400000Y-138200000D03*
D18*
X162400000Y-138200000D03*
X167400000Y-138200000D03*
%TD*%
D34*
%TO.C,R13*%
X242662500Y-131750000D03*
X244487500Y-131750000D03*
%TD*%
D15*
%TO.C,R33*%
X89400000Y-137487500D03*
X89400000Y-139312500D03*
%TD*%
D22*
%TO.C,C14*%
X86500000Y-124837500D03*
X86500000Y-126562500D03*
%TD*%
D34*
%TO.C,R16*%
X242662500Y-130150000D03*
X244487500Y-130150000D03*
%TD*%
D19*
%TO.C,R9*%
X174800000Y-125412500D03*
X174800000Y-123587500D03*
%TD*%
D17*
%TO.C,J8*%
X150500000Y-125600000D03*
D18*
X145500000Y-125600000D03*
%TD*%
D15*
%TO.C,R35*%
X100000000Y-138087500D03*
X100000000Y-139912500D03*
%TD*%
D39*
%TO.C,D2*%
X88300000Y-130200000D03*
X88300000Y-134200000D03*
%TD*%
D19*
%TO.C,R29*%
X94000000Y-132912500D03*
X94000000Y-131087500D03*
%TD*%
D40*
%TO.C,IC1*%
X98637500Y-131337500D03*
X98637500Y-131987500D03*
X98637500Y-132637500D03*
X98637500Y-133287500D03*
X98637500Y-133937500D03*
D41*
X99700000Y-135000000D03*
X100350000Y-135000000D03*
X101000000Y-135000000D03*
X101650000Y-135000000D03*
X102300000Y-135000000D03*
D40*
X103362500Y-133937500D03*
X103362500Y-133287500D03*
X103362500Y-132637500D03*
X103362500Y-131987500D03*
X103362500Y-131337500D03*
D41*
X102300000Y-130275000D03*
X101650000Y-130275000D03*
X101000000Y-130275000D03*
X100350000Y-130275000D03*
X99700000Y-130275000D03*
D42*
X101000000Y-132637500D03*
%TD*%
D43*
%TO.C,U7*%
X214862500Y-140525000D03*
X214862500Y-139875000D03*
X214862500Y-139225000D03*
X214862500Y-138575000D03*
X214862500Y-137925000D03*
X214862500Y-137275000D03*
X214862500Y-136625000D03*
X214862500Y-135975000D03*
X214862500Y-135325000D03*
X214862500Y-134675000D03*
X209137500Y-134675000D03*
X209137500Y-135325000D03*
X209137500Y-135975000D03*
X209137500Y-136625000D03*
X209137500Y-137275000D03*
X209137500Y-137925000D03*
X209137500Y-138575000D03*
X209137500Y-139225000D03*
X209137500Y-139875000D03*
X209137500Y-140525000D03*
%TD*%
D44*
%TO.C,U3*%
X119500000Y-124500000D03*
X119500000Y-138450000D03*
X140500000Y-124500000D03*
X140500000Y-138500000D03*
%TD*%
D45*
%TO.C,J1*%
X205630000Y-126545000D03*
X204830000Y-126545000D03*
X203530000Y-126545000D03*
X202530000Y-126545000D03*
X202030000Y-126545000D03*
X201030000Y-126545000D03*
X199730000Y-126545000D03*
X198930000Y-126545000D03*
X199230000Y-126545000D03*
X200030000Y-126545000D03*
X200530000Y-126545000D03*
X201530000Y-126545000D03*
X203030000Y-126545000D03*
X204030000Y-126545000D03*
X204530000Y-126545000D03*
X205330000Y-126545000D03*
D46*
X206600000Y-125980000D03*
D47*
X206600000Y-121800000D03*
D46*
X197960000Y-125980000D03*
D47*
X197960000Y-121800000D03*
%TD*%
D15*
%TO.C,R3*%
X209200000Y-128000000D03*
X209200000Y-129825000D03*
%TD*%
D14*
%TO.C,R37*%
X113480000Y-138800000D03*
D48*
X103320000Y-138800000D03*
%TD*%
D22*
%TO.C,C13*%
X88300000Y-124837500D03*
X88300000Y-126562500D03*
%TD*%
D15*
%TO.C,R32*%
X92800000Y-138087500D03*
X92800000Y-139912500D03*
%TD*%
D31*
%TO.C,R1*%
X199912500Y-128400000D03*
X198087500Y-128400000D03*
%TD*%
D16*
%TO.C,C10*%
X243112500Y-126150000D03*
X244837500Y-126150000D03*
%TD*%
D35*
%TO.C,Q2*%
X211520000Y-124800000D03*
D36*
X214060000Y-124800000D03*
X216600000Y-124800000D03*
%TD*%
D49*
%TO.C,SW1*%
X228125000Y-141600000D03*
X228125000Y-135100000D03*
X232625000Y-141600000D03*
X232625000Y-135100000D03*
%TD*%
D22*
%TO.C,C8*%
X91600000Y-131137500D03*
X91600000Y-132862500D03*
%TD*%
D15*
%TO.C,R34*%
X94800000Y-138087500D03*
X94800000Y-139912500D03*
%TD*%
%TO.C,R5*%
X234175000Y-122525000D03*
X234175000Y-124350000D03*
%TD*%
D23*
%TO.C,J7*%
X251575000Y-141325000D03*
D24*
X254115000Y-141325000D03*
X256655000Y-141325000D03*
X259195000Y-141325000D03*
%TD*%
M02*
